<svg width="32" height="32" viewBox="0 0 32 32" fill="none" xmlns="http://www.w3.org/2000/svg">
<path d="M6.34844 14.8077L14.8074 14.8077L14.8074 6.38353C14.8026 6.23114 14.8287 6.07937 14.884 5.9373C14.9394 5.79524 15.0228 5.66581 15.1294 5.55678C15.3602 5.32597 15.6733 5.19631 15.9997 5.19631C16.3261 5.19631 16.6391 5.32597 16.8699 5.55678C16.9787 5.66145 17.0648 5.78723 17.1232 5.9264C17.1816 6.06558 17.2109 6.21522 17.2093 6.36613L17.1658 14.8338L25.677 14.8338C25.9607 14.8307 26.2349 14.9366 26.4428 15.1297C26.6736 15.3605 26.8033 15.6735 26.8033 15.9999C26.8033 16.3264 26.6736 16.6394 26.4428 16.8702C26.3365 16.9857 26.2073 17.0779 26.0635 17.1408C25.9197 17.2037 25.7644 17.236 25.6074 17.2357L17.1919 17.1922L17.1919 25.6338C17.1943 25.7832 17.1671 25.9317 17.1119 26.0706C17.0566 26.2095 16.9744 26.3361 16.8699 26.4431C16.6391 26.6739 16.3261 26.8036 15.9997 26.8036C15.6733 26.8036 15.3602 26.6739 15.1294 26.4431C15.0207 26.3384 14.9345 26.2127 14.8761 26.0735C14.8178 25.9343 14.7884 25.7847 14.79 25.6338L14.8335 17.1661L6.32233 17.1661C6.03858 17.1692 5.76445 17.0633 5.5565 16.8702C5.32569 16.6394 5.19603 16.3264 5.19603 15.9999C5.19603 15.6735 5.32569 15.3605 5.5565 15.1297C5.76798 14.9234 6.05255 14.8077 6.34844 14.8077Z" fill="black"/>
<path fill-rule="evenodd" clip-rule="evenodd" d="M16 30C23.732 30 30 23.732 30 16C30 8.26801 23.732 2 16 2C8.26801 2 2 8.26801 2 16C2 23.732 8.26801 30 16 30ZM16 32C24.8366 32 32 24.8366 32 16C32 7.16344 24.8366 0 16 0C7.16344 0 0 7.16344 0 16C0 24.8366 7.16344 32 16 32Z" fill="black"/>
</svg>
