<svg width="32" height="32" viewBox="0 0 32 32" fill="none" xmlns="http://www.w3.org/2000/svg">
<g clip-path="url(#clip0)">
<path d="M11.0155 20.875C10.889 20.875 10.7624 20.8928 10.6417 20.9304C9.95531 21.1441 9.23348 21.2812 8.47352 21.2812C7.71356 21.2812 6.99173 21.1441 6.30485 20.9304C6.1841 20.8928 6.05806 20.875 5.93149 20.875C2.64486 20.875 -0.0173909 23.4384 8.55541e-05 26.594C0.00749981 27.9275 1.15088 29 2.54212 29H14.4049C15.7962 29 16.9395 27.9275 16.947 26.594C16.9644 23.4384 14.3022 20.875 11.0155 20.875ZM8.47352 19.25C11.2814 19.25 13.5576 17.0674 13.5576 14.375C13.5576 11.6826 11.2814 9.5 8.47352 9.5C5.66563 9.5 3.38946 11.6826 3.38946 14.375C3.38946 17.0674 5.66563 19.25 8.47352 19.25ZM29.352 3H7.62618C6.22435 3 5.08414 4.12988 5.08414 5.51824C5.08414 5.51824 5.08414 8.5 5.08414 9.5C5.33772 9.06906 8.00391 8.45703 8.47352 8.50391C8.47352 7.67969 8.47352 6.25 8.47352 6.25H28.5047L28.6106 21.25H25.2213V18H18.4425V21.25H14.845C15.8565 22.0975 16.599 23.2168 16.947 24.5H29.458C30.8598 24.5 32 23.3701 32 21.9818L31.894 5.51824C31.894 4.12988 30.7538 3 29.352 3Z" fill="black"/>
</g>
<defs>
<clipPath id="clip0">
<rect width="32" height="32" fill="white"/>
</clipPath>
</defs>
</svg>
