<svg width="32" height="32" viewBox="0 0 32 32" fill="none" xmlns="http://www.w3.org/2000/svg">
<circle cx="16" cy="16" r="16" fill="#EBA131"/>
<g clip-path="url(#clip0)">
<path d="M4.01562 15.3003C4.63827 14.9049 4.86154 14.3385 5.15713 13.8039C5.59424 13.0161 6.09424 12.2631 6.5911 11.5133C6.72003 11.3172 6.74833 11.1874 6.60368 10.9913C6.18544 10.425 5.92129 9.79223 5.87726 9.07722C5.8238 8.16289 6.28292 7.80539 7.16657 8.03318C7.84267 8.20719 8.53135 8.33374 9.21688 8.47294C9.60682 8.55203 9.91814 8.38752 10.2358 8.0838C10.0534 7.99521 9.89927 7.93827 9.7672 7.84652C9.68544 7.78641 9.59424 7.67567 9.59424 7.58393C9.59424 7.4985 9.69173 7.3593 9.77349 7.33715C10.0817 7.25489 10.4087 7.13467 10.7169 7.16315C11.2074 7.2106 11.6886 7.36563 12.1729 7.47319C12.2326 7.48585 12.2892 7.49534 12.4056 7.51432C12.4056 7.25173 12.3898 7.01445 12.4119 6.78033C12.4276 6.59367 12.4716 6.40701 12.5376 6.22984C12.6414 5.93877 12.8552 5.9103 13.0502 6.14758C13.2861 6.42915 13.5376 6.69807 13.7515 6.9923C14.0534 7.40992 14.4968 7.50483 14.9559 7.62189C15.5188 7.76426 16.11 7.90663 16.6005 8.19769C17.1446 8.5204 17.6414 8.46345 18.1854 8.33374C18.6729 8.21668 19.1603 8.09329 19.6508 8.00154C20.3836 7.8655 20.7358 8.18504 20.7358 8.94118C20.7358 9.61506 20.5251 10.2257 20.1508 10.773C19.9873 11.0134 19.937 11.1843 20.1508 11.4279C20.3898 11.7 20.5722 12.0195 20.8081 12.3644C20.8993 12.2378 20.9527 12.1397 21.0251 12.0606C21.5219 11.4975 22.0156 10.9312 22.5188 10.3744C22.7074 10.1655 22.9181 10.1118 23.1131 10.3775C23.393 9.96623 23.632 9.54862 23.9339 9.18479C24.7861 8.15024 25.8615 7.46054 27.1791 7.1758C27.5313 7.09987 27.7137 7.22958 27.698 7.63771C27.6697 8.33057 27.5942 9.02027 27.5345 9.70997C27.5251 9.81121 27.503 9.91245 27.481 10.058C27.849 9.92827 27.959 10.1529 27.9622 10.4092C27.9716 11.2159 28.0125 12.029 27.9307 12.8263C27.7578 14.5189 27.3647 16.1609 26.6194 17.7016C25.5565 19.8973 24.088 21.7512 22.0691 23.1338C21.1005 23.7982 20.0785 24.3234 18.893 24.4657C18.7892 24.4784 18.6729 24.548 18.5974 24.6239C17.8898 25.3326 17.003 25.6458 16.0471 25.7977C14.5502 26.035 13.0439 26.035 11.5408 25.9147C10.4873 25.8293 9.48103 25.5509 8.69802 24.7568C8.14456 24.1936 7.8238 23.5008 7.64456 22.7446C7.2389 21.0236 7.39613 19.3658 8.26405 17.8029C8.35839 17.632 8.33638 17.515 8.13198 17.4865C7.60682 17.4106 7.08166 17.3378 6.55336 17.2777C6.35839 17.2555 6.15713 17.2777 5.95902 17.265C5.69173 17.2492 5.62254 17.129 5.77034 16.898C5.85525 16.7683 5.96217 16.6418 6.08481 16.55C6.32695 16.3697 6.25147 16.2305 6.03764 16.1356C5.50619 15.8951 4.96846 15.6768 4.43072 15.4522C4.33009 15.3984 4.21374 15.3668 4.01562 15.3003Z" fill="black"/>
<path d="M10.2799 7.64072C10.7201 7.44457 11.1132 7.53948 11.4654 7.64705C11.8302 7.75778 12.1541 8.01088 12.5031 8.18805C12.6006 8.23551 12.7295 8.25765 12.8302 8.23551C12.8711 8.22601 12.9088 8.06466 12.8994 7.97924C12.8553 7.54581 12.7956 7.11554 12.7295 6.59668C12.8836 6.67577 12.9434 6.69159 12.9811 6.72956C13.3113 7.06492 13.6132 7.43508 13.9717 7.7293C14.1572 7.88116 14.4402 7.93495 14.6918 7.97608C15.9685 8.18805 17.0597 8.77967 18.0157 9.62756C19.5031 10.95 20.5629 12.592 21.4654 14.3479C21.5692 14.5472 21.6698 14.7465 21.7924 14.987C21.1635 14.9838 20.6635 14.7434 20.1761 14.4903C19.4056 14.0948 18.6635 13.6392 17.8742 13.2785C16.5063 12.6521 15.1321 12.7122 13.7987 13.4051C13.5063 13.5569 13.2704 13.5917 12.956 13.4241C11.1635 12.456 9.44338 12.7154 7.7547 13.7404C6.99684 14.1992 6.24212 14.6801 5.36477 14.892C5.27986 14.9142 5.19181 14.93 5.03458 14.9648C5.2547 14.5092 5.42451 14.1074 5.63835 13.7341C6.36476 12.4781 7.16036 11.2664 8.16036 10.2129C8.79244 9.54846 9.50627 8.98848 10.3239 8.56454C10.5629 8.44115 10.7893 8.31144 11.0283 8.59617C10.9843 8.13743 10.6635 7.90331 10.2799 7.64072Z" fill="#ABABAB"/>
<path d="M13.5566 25.633C12.6226 25.5602 11.8679 25.5286 11.1226 25.4368C9.43082 25.228 8.3522 24.1745 8.01258 22.4819C7.71069 20.9665 7.83333 19.5143 8.55031 18.1286C8.74528 17.7521 8.78931 17.7299 9.14151 17.9672C9.75786 18.3817 10.3585 18.8183 10.9717 19.2359C12.4623 20.2546 13.9528 20.2103 15.4623 19.2612C16.327 18.7139 17.2107 18.1918 18.1038 17.6951C18.6698 17.3788 18.7264 17.4072 19 18.021C19.8176 19.8528 19.9371 21.6973 18.956 23.507C18.4025 24.5289 17.5 25.1236 16.3679 25.304C15.3774 25.4653 14.3774 25.5413 13.5566 25.633Z" fill="#ABABAB"/>
<path d="M27.1792 10.7349C27.3773 10.5451 27.5094 10.4217 27.6384 10.2983C27.6667 10.3078 27.6981 10.3173 27.7264 10.3268C27.7264 10.5514 27.7421 10.7792 27.7233 11.0006C27.6635 11.6903 27.5912 12.3832 27.5157 13.0729C27.4906 13.3102 26.9371 13.7721 26.7044 13.7499C26.6478 13.7436 26.5723 13.655 26.5566 13.5917C26.5126 13.4177 26.5031 13.2374 26.4685 13.0634C26.4119 12.7723 26.2641 12.7122 26.0314 12.8831C25.5031 13.269 25.5031 13.269 25.2862 12.6331C25.1446 12.2124 25.1163 12.206 24.7358 12.4718C24.5912 12.573 24.4402 12.6616 24.2736 12.7692C23.9685 12.3958 24.1604 11.9529 24.0346 11.5353C23.934 11.5954 23.8553 11.6397 23.783 11.6903C23.6384 11.7916 23.5 11.9086 23.349 12.0004C22.8333 12.3168 22.7516 12.2914 22.5189 11.7473C22.4811 11.6619 22.4465 11.5733 22.4088 11.4879C22.2799 11.1999 22.3962 10.8772 22.6855 10.7823C22.7421 10.7634 22.8616 10.8298 22.8962 10.8899C22.9874 11.0513 23.0503 11.2316 23.1478 11.4689C23.2641 11.1999 23.3616 10.9722 23.4591 10.7412C24.1226 9.17198 25.3113 8.18489 26.8899 7.64389C27.2421 7.52366 27.3365 7.59643 27.3145 7.96659C27.283 8.51076 27.2138 9.05492 27.1824 9.60225C27.1604 9.94394 27.1792 10.2983 27.1792 10.7349Z" fill="#ABABAB"/>
<path d="M9.88049 17.9577C11.717 15.8981 15.2516 16.0468 16.8145 17.9229C15.7641 18.5652 14.8113 19.3751 13.5472 19.5744C13.044 19.6535 12.5723 19.5554 12.1069 19.3751C11.2767 19.0556 10.6038 18.4892 9.88049 17.9577ZM14.4465 17.711C14.4528 17.1035 14.0157 16.6669 13.4025 16.6701C12.8302 16.6732 12.4057 17.1098 12.4025 17.6951C12.3994 18.2583 12.849 18.7234 13.4025 18.736C13.9717 18.7487 14.4402 18.2868 14.4465 17.711Z" fill="#ABABAB"/>
<path d="M24.61 17.6572C24.9402 17.3345 25.2264 17.0592 25.4843 16.8093C25.6572 17.2269 25.8207 17.6129 25.9717 18.0052C25.9905 18.0526 25.9717 18.1349 25.9434 18.1824C25.4748 18.9005 25 19.6155 24.522 20.3305C24.5 20.3622 24.4591 20.378 24.3679 20.4476C24.3742 20.3084 24.371 20.2261 24.3836 20.1439C24.4088 19.9794 24.4591 19.8149 24.4748 19.6472C24.5063 19.3087 24.4685 19.2833 24.1415 19.3435C23.849 19.3972 23.5534 19.4415 23.1949 19.5048C23.2956 19.2422 23.3868 19.0461 23.4402 18.8404C23.4748 18.7044 23.5094 18.5082 23.4402 18.426C23.3805 18.3532 23.1729 18.3817 23.0377 18.4007C22.8522 18.426 22.6729 18.4892 22.4905 18.5272C22.2327 18.5778 22.1698 18.5114 22.2264 18.2456C22.261 18.0938 22.3239 17.9451 22.3522 17.7932C22.4119 17.4515 22.2987 17.2997 21.9685 17.2364C21.9371 17.2301 21.9056 17.2206 21.8742 17.2237C21.239 17.3123 20.9622 16.8061 20.6069 16.4391C20.5754 16.4075 20.6069 16.243 20.6541 16.2145C20.9968 16.0183 21.349 15.838 21.7075 15.6735C21.7516 15.6513 21.8868 15.7368 21.9214 15.8032C21.9717 15.9013 21.9528 16.031 21.9874 16.1417C22.0409 16.2999 22.1258 16.379 22.3176 16.2873C22.7484 16.0785 22.805 16.1133 22.9277 16.5941C23.0503 17.0719 23.1824 17.1257 23.6006 16.8599C24.1729 16.4992 24.3553 16.5847 24.4843 17.2554C24.5031 17.3661 24.5534 17.4768 24.61 17.6572Z" fill="#ABABAB"/>
<path d="M8.88049 8.85243C8.37106 9.40292 7.86791 9.93443 7.38049 10.4786C6.98741 10.9184 6.99055 10.9279 6.70125 10.4058C6.43395 9.92178 6.25471 9.40925 6.27043 8.8461C6.28301 8.46645 6.44653 8.30826 6.80816 8.37787C7.4937 8.51074 8.17294 8.67526 8.85533 8.83028C8.88364 8.83977 8.9025 8.87141 8.88049 8.85243Z" fill="#ABABAB"/>
<path d="M19.695 10.7127C19.0849 10.0325 18.522 9.4061 17.9591 8.77651C17.9119 8.80182 17.8648 8.82713 17.8207 8.85244C17.8994 8.82397 17.9748 8.78601 18.0534 8.76702C18.5786 8.64364 19.11 8.53291 19.6352 8.40319C20.1195 8.28297 20.3459 8.43166 20.3396 8.92837C20.3302 9.59593 20.1006 10.1844 19.695 10.7127Z" fill="#ABABAB"/>
<path d="M21.7296 22.3996C21.739 22.7603 21.6415 22.9913 21.3585 23.1273C20.6635 23.4658 19.9686 23.8075 19.2736 24.1429C19.2233 24.165 19.1604 24.1555 19.0535 24.1682C19.2107 23.8771 19.3837 23.6335 19.478 23.3646C19.6635 22.8426 19.7956 22.3047 19.9654 21.7764C20.0063 21.6498 20.0818 21.5138 20.1824 21.4379C20.2579 21.3809 20.4277 21.3651 20.5 21.4125C20.5598 21.4537 20.5629 21.6214 20.5409 21.7258C20.3868 22.5452 20.3837 22.542 21.2044 22.4281C21.3711 22.406 21.5346 22.4123 21.7296 22.3996Z" fill="#ABABAB"/>
<path d="M16.783 16.4676C17.434 15.6608 17.4843 15.0218 16.978 14.4871C16.5346 14.0189 15.8522 13.9587 15.3271 14.3384C14.7296 14.7718 14.6793 15.3856 15.1698 16.2809C14.7799 16.1892 14.4591 15.5723 14.5 14.9838C14.5535 14.1707 15.1384 13.5791 15.9749 13.4937C16.6698 13.4241 17.3868 13.9145 17.5849 14.5915C17.805 15.3603 17.5032 16.1133 16.783 16.4676Z" fill="white"/>
<path d="M11.4969 16.4549C12.1572 15.6544 12.2013 14.9647 11.6698 14.4649C11.1509 13.9776 10.434 13.9587 9.9434 14.4206C9.36164 14.9647 9.39937 15.5975 10.0566 16.4201C9.6478 16.4042 9.16353 15.6449 9.18554 15.028C9.21384 14.2624 9.76415 13.6486 10.566 13.5157C11.2704 13.4018 12.0566 13.8543 12.2642 14.5155C12.5157 15.3064 12.2013 16.1606 11.4969 16.4549Z" fill="white"/>
<path d="M13.9874 17.2396C13.6856 17.132 13.4371 17.0434 13.1667 16.9485C13.4686 16.6827 13.8617 16.8156 13.9874 17.2396Z" fill="white"/>
<path d="M10.2987 15.4077C10.4933 15.4077 10.6509 15.2491 10.6509 15.0534C10.6509 14.8577 10.4933 14.6991 10.2987 14.6991C10.1042 14.6991 9.94653 14.8577 9.94653 15.0534C9.94653 15.2491 10.1042 15.4077 10.2987 15.4077Z" fill="white"/>
<path d="M15.7327 15.2369C15.9272 15.2369 16.0849 15.0783 16.0849 14.8826C16.0849 14.6869 15.9272 14.5282 15.7327 14.5282C15.5382 14.5282 15.3805 14.6869 15.3805 14.8826C15.3805 15.0783 15.5382 15.2369 15.7327 15.2369Z" fill="white"/>
<g clip-path="url(#clip1)">
<path d="M19.3543 15.0247H18.92C18.7295 13.8878 17.7481 13.0203 16.5651 13.0203C16.0965 13.0203 15.6606 13.1582 15.2916 13.3931L15.2374 13.3386C14.7269 12.8761 14.0644 12.62 13.3775 12.6194C12.6917 12.6194 12.0315 12.8748 11.5019 13.3534L11.4629 13.3927C11.0823 13.1495 10.6407 13.0203 10.1898 13.0203C9.62524 13.0208 9.07905 13.2223 8.64803 13.5892C8.217 13.9561 7.92897 14.4646 7.83495 15.0247H7.40063V15.8264H7.83495C8.02541 16.9633 9.00681 17.8308 10.1898 17.8308C11.5087 17.8308 12.5805 16.7537 12.5805 15.4256C12.5809 14.8814 12.3968 14.3534 12.0586 13.9287C12.4216 13.6028 12.8909 13.4222 13.3775 13.4212C13.8664 13.4212 14.3377 13.6036 14.6896 13.9203L14.6967 13.9279C14.3582 14.3527 14.1739 14.881 14.1744 15.4256C14.1744 16.7537 15.2458 17.8308 16.5651 17.8308C17.1297 17.8303 17.6759 17.6288 18.1069 17.2619C18.5379 16.895 18.8259 16.3865 18.92 15.8264H19.3543V15.0247ZM10.1898 17.0291C9.31123 17.0291 8.596 16.3095 8.596 15.4256C8.596 14.5416 9.31123 13.8221 10.1898 13.8221C11.0684 13.8221 11.7836 14.5416 11.7836 15.4256C11.7836 16.3095 11.0684 17.0291 10.1898 17.0291ZM16.5651 17.0291C15.6865 17.0291 14.9713 16.3095 14.9713 15.4256C14.9713 14.5416 15.6865 13.8221 16.5651 13.8221C17.4437 13.8221 18.1589 14.5416 18.1589 15.4256C18.1589 16.3095 17.4437 17.0291 16.5651 17.0291Z" fill="#6FAC43"/>
</g>
<g clip-path="url(#clip2)">
<path opacity="0.1" d="M14.7682 19.3555V19.9662C14.3946 20.1667 13.9776 20.2716 13.5541 20.2716C13.1306 20.2716 12.7136 20.1667 12.34 19.9662V19.3555C12.7136 19.556 13.1306 19.6608 13.5541 19.6608C13.9776 19.6608 14.3946 19.556 14.7682 19.3555Z" fill="#262234"/>
<path d="M14.9777 21.261V24.727C14.0359 24.8942 13.0723 24.8942 12.1305 24.727V21.261H14.9777Z" fill="#D1D3D4"/>
<path d="M14.0064 22.3665H13.0958C13.0625 22.3663 13.0303 22.3551 13.004 22.3347C12.9777 22.3143 12.9587 22.2858 12.9501 22.2535L12.7315 21.4534C12.7255 21.4308 12.7247 21.4072 12.7292 21.3843C12.7336 21.3613 12.7433 21.3398 12.7574 21.3212C12.7714 21.3026 12.7896 21.2875 12.8103 21.2771C12.8311 21.2666 12.854 21.2611 12.8772 21.261H14.2188C14.2421 21.2611 14.2649 21.2666 14.2857 21.2771C14.3065 21.2875 14.3246 21.3026 14.3387 21.3212C14.3528 21.3398 14.3624 21.3613 14.3669 21.3843C14.3714 21.4072 14.3706 21.4308 14.3645 21.4534L14.1612 22.2535C14.1522 22.2873 14.1319 22.317 14.1037 22.3376C14.0755 22.3582 14.0411 22.3684 14.0064 22.3665Z" fill="#BE1E2D"/>
<path d="M14.2583 24.8217C14.0246 24.8431 13.7909 24.8522 13.5541 24.8522C13.3174 24.8522 13.0836 24.8522 12.8499 24.8217L13.3507 22.0458H13.7575L14.2583 24.8217Z" fill="#BE1E2D"/>
<path d="M13.5541 21.261L12.4432 22.4947L11.7875 20.2716L12.34 19.8868L13.5541 21.261Z" fill="#F1F2F2"/>
<path d="M13.5541 21.261L14.665 22.4947L15.3206 20.2716L14.7682 19.8868L13.5541 21.261Z" fill="#F1F2F2"/>
<path d="M13.2202 24.8522C12.5274 24.8281 11.8407 24.7131 11.1774 24.5102L11.2017 20.4304C11.2006 20.3797 11.2144 20.3298 11.2412 20.2869C11.2624 20.2469 11.2922 20.2122 11.3284 20.1852C11.3647 20.1583 11.4064 20.1398 11.4506 20.1311L12.1882 20.0029L12.2489 20.2808L13.2202 24.8522ZM15.9307 24.501C15.2679 24.7071 14.5812 24.8251 13.888 24.8522L14.8593 20.2716L14.92 19.9937L15.6576 20.122C15.7018 20.1307 15.7435 20.1491 15.7797 20.1761C15.8159 20.203 15.8458 20.2377 15.867 20.2777C15.8914 20.3215 15.904 20.371 15.9034 20.4212L15.9307 24.501Z" fill="#2A292A"/>
<path d="M15.6272 19.4043L13.5541 20.3724L11.4809 19.4074C11.4509 19.3936 11.4179 19.3876 11.385 19.39C11.3521 19.3923 11.3203 19.4029 11.2925 19.4209C11.2647 19.4388 11.2418 19.4634 11.226 19.4926C11.2101 19.5217 11.2018 19.5543 11.2017 19.5876V24.2415L13.5541 24.8522L15.9064 24.2415V19.5845C15.9064 19.5513 15.898 19.5186 15.8822 19.4895C15.8663 19.4604 15.8434 19.4357 15.8156 19.4178C15.7879 19.3999 15.756 19.3893 15.7231 19.3869C15.6902 19.3845 15.6572 19.3905 15.6272 19.4043Z" fill="#F1F2F2"/>
<path d="M16.2555 19.6608L13.5541 20.467L10.8526 19.6608C10.8234 19.6524 10.7925 19.6508 10.7626 19.6563C10.7326 19.6618 10.7043 19.6742 10.6799 19.6926C10.6555 19.7109 10.6357 19.7347 10.6219 19.762C10.6082 19.7894 10.6009 19.8195 10.6007 19.8502V24.5469L13.5541 25.1576L16.5074 24.5469V19.8441C16.5063 19.814 16.4984 19.7845 16.4842 19.7579C16.4701 19.7313 16.4501 19.7083 16.4259 19.6907C16.4016 19.673 16.3736 19.6612 16.3441 19.656C16.3146 19.6508 16.2843 19.6525 16.2555 19.6608Z" fill="#D1D3D4"/>
<path d="M16.7624 19.9937L13.8181 20.5159C13.6434 20.5469 13.4647 20.5469 13.29 20.5159L10.3457 19.9937C10.3174 19.9888 10.2884 19.9902 10.2607 19.9978C10.233 20.0053 10.2072 20.0189 10.1853 20.0375C10.1633 20.0561 10.1456 20.0793 10.1335 20.1055C10.1214 20.1317 10.1151 20.1602 10.1151 20.1891V24.6079C10.114 24.6807 10.1388 24.7514 10.185 24.8074C10.2312 24.8634 10.2957 24.9009 10.367 24.9133L13.293 25.4324C13.4677 25.4635 13.6465 25.4635 13.8212 25.4324L16.7472 24.9133C16.8185 24.9009 16.883 24.8634 16.9292 24.8074C16.9754 24.7514 17.0002 24.6807 16.9992 24.6079V20.1861C16.9988 20.1568 16.9921 20.128 16.9794 20.1017C16.9668 20.0753 16.9485 20.0521 16.9258 20.0338C16.9032 20.0154 16.8768 20.0023 16.8486 19.9953C16.8203 19.9884 16.7909 19.9878 16.7624 19.9937Z" fill="#BE1E2D"/>
<path d="M13.7817 20.522V25.4294C13.6309 25.4538 13.4772 25.4538 13.3264 25.4294V20.522C13.4774 20.5434 13.6307 20.5434 13.7817 20.522Z" fill="#A21B25"/>
</g>
</g>
<defs>
<clipPath id="clip0">
<rect width="24" height="20" fill="white" transform="translate(4 6)"/>
</clipPath>
<clipPath id="clip1">
<rect width="12.0795" height="5.23247" fill="white" transform="translate(7.33774 12.5561)"/>
</clipPath>
<clipPath id="clip2">
<rect width="6.71081" height="6.39624" fill="white" transform="translate(10.1987 19.2722)"/>
</clipPath>
</defs>
</svg>
