<svg width="32" height="32" viewBox="0 0 32 32" fill="none" xmlns="http://www.w3.org/2000/svg">
<path d="M26 31C25.7745 30.9987 25.556 30.9212 25.38 30.78L16 23.28L6.62002 30.78C6.51932 30.875 6.39998 30.9482 6.26955 30.9947C6.13913 31.0412 6.00046 31.0601 5.86234 31.0503C5.72422 31.0404 5.58965 31.0019 5.46716 30.9374C5.34467 30.8728 5.23694 30.7834 5.15077 30.675C5.06461 30.5666 5.00189 30.4415 4.96661 30.3076C4.93132 30.1737 4.92423 30.0339 4.94578 29.8972C4.96733 29.7604 5.01706 29.6296 5.0918 29.513C5.16655 29.3964 5.2647 29.2967 5.38002 29.22L15.38 21.22C15.5566 21.0805 15.775 21.0046 16 21.0046C16.225 21.0046 16.4435 21.0805 16.62 21.22L26.62 29.22C26.7235 29.3018 26.8097 29.4033 26.8738 29.5185C26.9379 29.6338 26.9786 29.7606 26.9935 29.8917C27.0083 30.0228 26.9971 30.1555 26.9605 30.2822C26.9239 30.4089 26.8625 30.5271 26.78 30.63C26.6859 30.746 26.567 30.8395 26.432 30.9035C26.297 30.9675 26.1494 31.0005 26 31Z" fill="#C9C1F5"/>
<path d="M26.78 30.62C26.6869 30.7379 26.5684 30.8332 26.4334 30.899C26.2983 30.9648 26.1502 30.9993 26 31C25.7744 30.9987 25.5559 30.9212 25.38 30.78L16 23.28V21C16.2256 21.0013 16.4441 21.0788 16.62 21.22L18.85 23L26.62 29.22C26.826 29.385 26.9585 29.6248 26.9885 29.887C27.0184 30.1493 26.9435 30.4128 26.78 30.62Z" fill="#AFBDD6"/>
<path d="M29 5H3C2.44772 5 2 5.44772 2 6V22C2 22.5523 2.44772 23 3 23H29C29.5523 23 30 22.5523 30 22V6C30 5.44772 29.5523 5 29 5Z" fill="#91E085"/>
<path d="M30 6V22C30 22.2652 29.8946 22.5196 29.7071 22.7071C29.5196 22.8946 29.2652 23 29 23H16V5H29C29.2652 5 29.5196 5.10536 29.7071 5.29289C29.8946 5.48043 30 5.73478 30 6Z" fill="#84BF6F"/>
<path d="M30 1H2C1.44772 1 1 1.44772 1 2V6C1 6.55228 1.44772 7 2 7H30C30.5523 7 31 6.55228 31 6V2C31 1.44772 30.5523 1 30 1Z" fill="#D6B5B0"/>
<path d="M31 2V6C31 6.26522 30.8946 6.51957 30.7071 6.70711C30.5196 6.89464 30.2652 7 30 7H16V1H30C30.2652 1 30.5196 1.10536 30.7071 1.29289C30.8946 1.48043 31 1.73478 31 2Z" fill="#BF9E99"/>
</svg>
