<svg width="32" height="32" viewBox="0 0 32 32" fill="none" xmlns="http://www.w3.org/2000/svg">
<rect width="32" height="32" rx="8" fill="#55ACEE"/>
<path d="M7 21.25V25H10.75L21.81 13.94L18.06 10.19L7 21.25ZM24.71 11.04C24.8027 10.9475 24.8762 10.8376 24.9264 10.7166C24.9766 10.5957 25.0024 10.466 25.0024 10.335C25.0024 10.204 24.9766 10.0744 24.9264 9.95338C24.8762 9.83241 24.8027 9.72252 24.71 9.63L22.37 7.29C22.2775 7.1973 22.1676 7.12375 22.0466 7.07357C21.9257 7.02339 21.796 6.99756 21.665 6.99756C21.534 6.99756 21.4043 7.02339 21.2834 7.07357C21.1624 7.12375 21.0525 7.1973 20.96 7.29L19.13 9.12L22.88 12.87L24.71 11.04Z" fill="white"/>
</svg>
