<svg width="32" height="32" viewBox="0 0 32 32" fill="none" xmlns="http://www.w3.org/2000/svg">
<rect width="32" height="32" rx="8" fill="#4AB75C"/>
<path d="M16 6C21.523 6 26 10.477 26 16C26 21.523 21.523 26 16 26C10.477 26 6 21.523 6 16C6 10.477 10.477 6 16 6ZM16 7.5C13.7457 7.5 11.5837 8.39553 9.98959 9.98959C8.39553 11.5837 7.5 13.7457 7.5 16C7.5 18.2543 8.39553 20.4163 9.98959 22.0104C11.5837 23.6045 13.7457 24.5 16 24.5C18.2543 24.5 20.4163 23.6045 22.0104 22.0104C23.6045 20.4163 24.5 18.2543 24.5 16C24.5 13.7457 23.6045 11.5837 22.0104 9.98959C20.4163 8.39553 18.2543 7.5 16 7.5ZM16 11C16.1989 11 16.3897 11.079 16.5303 11.2197C16.671 11.3603 16.75 11.5511 16.75 11.75V15.25H20.25C20.4489 15.25 20.6397 15.329 20.7803 15.4697C20.921 15.6103 21 15.8011 21 16C21 16.1989 20.921 16.3897 20.7803 16.5303C20.6397 16.671 20.4489 16.75 20.25 16.75H16.75V20.25C16.75 20.4489 16.671 20.6397 16.5303 20.7803C16.3897 20.921 16.1989 21 16 21C15.8011 21 15.6103 20.921 15.4697 20.7803C15.329 20.6397 15.25 20.4489 15.25 20.25V16.75H11.75C11.5511 16.75 11.3603 16.671 11.2197 16.5303C11.079 16.3897 11 16.1989 11 16C11 15.8011 11.079 15.6103 11.2197 15.4697C11.3603 15.329 11.5511 15.25 11.75 15.25H15.25V11.75C15.25 11.5511 15.329 11.3603 15.4697 11.2197C15.6103 11.079 15.8011 11 16 11Z" fill="white"/>
</svg>
