<svg width="32" height="32" viewBox="0 0 32 32" fill="none" xmlns="http://www.w3.org/2000/svg">
<rect width="32" height="32" rx="8" fill="#BA3B3B"/>
<path d="M16.1002 7C16.9887 6.99997 17.8425 7.32028 18.4822 7.89358C19.1219 8.46687 19.4976 9.24848 19.5303 10.074L19.5325 10.192L23.2394 10.1915C23.4873 10.1916 23.7257 10.2808 23.9045 10.4405C24.0834 10.6002 24.189 10.8179 24.1992 11.0483C24.2094 11.2787 24.1235 11.5038 23.9593 11.6766C23.7952 11.8494 23.5656 11.9566 23.3185 11.9757L23.2394 11.9787H22.5985L21.705 22.9932C21.6607 23.5389 21.3963 24.049 20.9647 24.4211C20.5331 24.7932 19.9662 25 19.3776 25H12.8228C12.2342 25 11.6673 24.7932 11.2358 24.4211C10.8042 24.049 10.5397 23.5389 10.4954 22.9932L9.60137 11.9787H8.96104C8.71977 11.9787 8.48733 11.8943 8.30989 11.7423C8.13246 11.5902 8.02301 11.3817 8.00329 11.1581L8 11.0851C8.00002 10.8608 8.09079 10.6446 8.25429 10.4796C8.41779 10.3147 8.64204 10.2129 8.88251 10.1946L8.96104 10.1915H12.6679C12.6679 8.5074 14.071 7.12766 15.8498 7.00817L15.9745 7.00204L16.1002 7ZM18.1596 13.6383C17.9896 13.6382 17.8257 13.6968 17.6995 13.8026C17.5733 13.9084 17.4938 14.054 17.4764 14.2112L17.4731 14.2766V20.4043L17.4764 20.4696C17.4931 20.6273 17.5723 20.7736 17.6986 20.8801C17.8248 20.9865 17.9892 21.0454 18.1596 21.0454C18.33 21.0454 18.4944 20.9865 18.6206 20.8801C18.7469 20.7736 18.8261 20.6273 18.8428 20.4696L18.8461 20.4043V14.2766L18.8428 14.2112C18.8254 14.054 18.7459 13.9084 18.6197 13.8026C18.4935 13.6968 18.3295 13.6382 18.1596 13.6383ZM14.0408 13.6383C13.8709 13.6382 13.707 13.6968 13.5808 13.8026C13.4546 13.9084 13.3751 14.054 13.3577 14.2112L13.3544 14.2766V20.4043L13.3577 20.4696C13.3744 20.6273 13.4535 20.7736 13.5798 20.8801C13.7061 20.9865 13.8704 21.0454 14.0408 21.0454C14.2113 21.0454 14.3756 20.9865 14.5019 20.8801C14.6281 20.7736 14.7073 20.6273 14.724 20.4696L14.7273 20.4043V14.2766L14.724 14.2112C14.7066 14.054 14.6271 13.9084 14.5009 13.8026C14.3747 13.6968 14.2108 13.6382 14.0408 13.6383ZM16.1925 8.78979L16.1002 8.78723C15.7156 8.78722 15.3455 8.92362 15.0654 9.16863C14.7853 9.41363 14.6162 9.74878 14.5928 10.1057L14.59 10.192L17.6104 10.1915C17.6104 9.8339 17.4637 9.48977 17.2003 9.2293C16.9368 8.96882 16.5763 8.81163 16.1925 8.78979Z" fill="white"/>
</svg>
