<svg width="32" height="32" viewBox="0 0 32 32" fill="none" xmlns="http://www.w3.org/2000/svg">
    <path fill-rule="evenodd" clip-rule="evenodd"
        d="M27.7925 6.31786C27.7243 6.28075 27.6507 6.25104 27.5724 6.23007L16.4836 3.25883C16.3672 3.22764 16.2501 3.21833 16.1367 3.22838C16.0232 3.21833 15.9061 3.22764 15.7897 3.25883L4.70091 6.23007C4.62263 6.25105 4.54901 6.28075 4.48084 6.31786C4.30258 6.4017 4.14722 6.53894 4.04126 6.72247L0.499986 12.8561C0.451727 12.9397 0.416907 13.0274 0.394855 13.1166C0.228582 13.6117 0.473032 14.1576 0.96311 14.359L2.27331 14.8974V22.3564C2.27331 22.3933 2.27531 22.4297 2.27919 22.4655C2.24367 22.8886 2.48232 23.3039 2.89591 23.4739L15.3002 28.5708C15.4805 28.7475 15.7275 28.8564 16 28.8564C16.1572 28.8564 16.306 28.8201 16.4384 28.7555C16.5213 28.7443 16.6041 28.7224 16.6851 28.6891L29.3774 23.4739C29.791 23.3039 30.0296 22.8886 29.9941 22.4655C29.998 22.4297 30 22.3933 30 22.3564V14.8974L31.3102 14.359C31.8003 14.1576 32.0447 13.6117 31.8785 13.1166C31.8564 13.0274 31.8216 12.9397 31.7733 12.8561L28.232 6.72247C28.1261 6.53894 27.9707 6.4017 27.7925 6.31786ZM8.0116 7.41352L16.1367 10.7521L24.2617 7.41352L16.1367 5.23642L8.0116 7.41352ZM5.33765 8.47706L14.6952 12.322L12.1206 16.7813L2.76307 12.9364L5.33765 8.47706ZM15 26.2852V15.794L13.4873 18.4141C13.469 18.4458 13.4492 18.4761 13.4282 18.505C13.1904 18.955 12.6449 19.159 12.1644 18.9616L4.27331 15.7192V21.8776L15 26.2852ZM17 26.3975V15.3206L18.786 18.4141C18.8043 18.4458 18.8241 18.4761 18.8452 18.505C19.083 18.955 19.6284 19.159 20.1089 18.9616L28 15.7192V21.8776L17 26.3975ZM17.5782 12.322L26.9357 8.47706L29.5102 12.9364L20.1527 16.7813L17.5782 12.322Z"
        fill="black" />
</svg>