<svg width="32" height="32" viewBox="0 0 32 32" fill="none" xmlns="http://www.w3.org/2000/svg">
<path fill-rule="evenodd" clip-rule="evenodd" d="M7 3C7 2.44772 6.55228 2 6 2H1C0.447715 2 0 2.44772 0 3C0 3.55228 0.447715 4 1 4L5.12479 4L8.30115 18.7054C8.30206 18.7163 8.30315 18.7273 8.30443 18.7383C8.31344 18.8159 8.33111 18.8904 8.35635 18.961L8.75998 20.8296C8.75242 20.8416 8.74508 20.8537 8.73795 20.866L7.69812 22.6671C7.42198 23.1453 7.58586 23.7569 8.06415 24.0331C8.40417 24.2294 8.81156 24.2033 9.11791 24H28C28.5523 24 29 23.5523 29 23C29 22.4477 28.5523 22 28 22H10.3927L10.47 21.866C10.5015 21.8114 10.5273 21.7551 10.5475 21.6978C10.7668 21.4661 10.8718 21.1338 10.7994 20.7984L10.5164 19.4883L31.0772 17.102C31.4903 17.054 31.8152 16.7608 31.9233 16.3847C31.9727 16.2662 32 16.1363 32 16V5C32 4.96548 31.9983 4.93137 31.9948 4.89776C31.9436 4.3935 31.5178 4 31 4H30.9995L7.17091 4L6.9882 3.15411C6.99597 3.10387 7 3.05241 7 3ZM30 15.2136L10.0921 17.5241L7.60291 6L30 6L30 15.2136ZM7.38513 26.6174C7.38507 27.187 7.58253 27.739 7.94388 28.1793C8.30523 28.6197 8.80809 28.921 9.36676 29.0321C9.92544 29.1432 10.5053 29.0571 11.0076 28.7885C11.51 28.5199 11.9036 28.0854 12.1214 27.5591C12.3393 27.0328 12.3679 26.4473 12.2024 25.9023C12.0368 25.3572 11.6874 24.8865 11.2137 24.5702C10.7399 24.2539 10.1712 24.1117 9.60433 24.1679C9.03749 24.224 8.50766 24.475 8.10512 24.878C7.87267 25.1034 7.68886 25.3739 7.56503 25.6731C7.44119 25.9723 7.37997 26.2936 7.38513 26.6174ZM24.0003 26.6176C23.9997 27.1872 24.1966 27.7394 24.5575 28.18C24.9183 28.6206 25.4209 28.9225 25.9794 29.0341C26.5379 29.1458 27.1178 29.0603 27.6204 28.7923C28.123 28.5243 28.5171 28.0902 28.7355 27.5642C28.9539 27.0382 28.9832 26.4527 28.8183 25.9075C28.6534 25.3623 28.3046 24.8912 27.8313 24.5744C27.3579 24.2576 26.7894 24.1147 26.2225 24.1701C25.6556 24.2255 25.1255 24.4758 24.7225 24.8782C24.4897 25.1035 24.3056 25.374 24.1813 25.6731C24.0571 25.9723 23.9955 26.2937 24.0003 26.6176Z" fill="black"/>
</svg>
