<svg width="48" height="48" viewBox="0 0 48 48" fill="none" xmlns="http://www.w3.org/2000/svg">
<g clip-path="url(#clip0)">
<path d="M24 48.0001C37.2548 48.0001 48 37.2549 48 24.0001C48 10.7452 37.2548 0 24 0C10.7452 0 0 10.7452 0 24.0001C0 37.2549 10.7452 48.0001 24 48.0001Z" fill="#EBA131"/>
<path d="M12 11.0002H35C35.554 11.0002 36 11.4462 36 12.0002V33.0002C36 33.5542 35.554 34.0002 35 34.0002H12C11.446 34.0002 11 33.5542 11 33.0002V12.0002C11 11.4462 11.446 11.0002 12 11.0002Z" fill="#F0F4F7"/>
<path d="M12 11.0002H35C35.554 11.0002 36 11.4462 36 12.0002V16.0002H11V12.0002C11 11.4462 11.446 11.0002 12 11.0002Z" fill="#0C5286"/>
<path d="M34 13.5002C34 13.6328 33.9473 13.7599 33.8535 13.8537C33.7598 13.9475 33.6326 14.0002 33.5 14.0002C33.3674 14.0002 33.2402 13.9475 33.1465 13.8537C33.0527 13.7599 33 13.6328 33 13.5002C33 13.3676 33.0527 13.2404 33.1465 13.1467C33.2402 13.0529 33.3674 13.0002 33.5 13.0002C33.6326 13.0002 33.7598 13.0529 33.8535 13.1467C33.9473 13.2404 34 13.3676 34 13.5002Z" fill="#EE7581"/>
<path d="M32 13.5002C32 13.6328 31.9473 13.7599 31.8535 13.8537C31.7598 13.9475 31.6326 14.0002 31.5 14.0002C31.3674 14.0002 31.2402 13.9475 31.1465 13.8537C31.0527 13.7599 31 13.6328 31 13.5002C31 13.3676 31.0527 13.2404 31.1465 13.1467C31.2402 13.0529 31.3674 13.0002 31.5 13.0002C31.6326 13.0002 31.7598 13.0529 31.8535 13.1467C31.9473 13.2404 32 13.3676 32 13.5002ZM30 13.5002C30 13.6328 29.9473 13.7599 29.8535 13.8537C29.7598 13.9475 29.6326 14.0002 29.5 14.0002C29.3674 14.0002 29.2402 13.9475 29.1465 13.8537C29.0527 13.7599 29 13.6328 29 13.5002C29 13.3676 29.0527 13.2404 29.1465 13.1467C29.2402 13.0529 29.3674 13.0002 29.5 13.0002C29.6326 13.0002 29.7598 13.0529 29.8535 13.1467C29.9473 13.2404 30 13.3676 30 13.5002Z" fill="#8FB6D7"/>
<path d="M39 31.4092H37.7791C37.658 30.8706 37.447 30.3564 37.1548 29.888L38.0135 29.0294L36.4708 27.4868L35.61 28.3476C35.1426 28.0542 34.629 27.8417 34.0909 27.7191V26.5002H31.9091V27.7211C31.3705 27.8422 30.8562 28.0532 30.3878 28.3454L29.5291 27.4868L27.9864 29.0294L28.8473 29.8901C28.5539 30.3575 28.3414 30.8711 28.2188 31.4092H27V33.5911H28.2208C28.3419 34.1297 28.5529 34.644 28.8451 35.1124L27.9864 35.9711L29.5291 37.5137L30.3899 36.6529C30.8574 36.9463 31.371 37.1589 31.9091 37.2816V38.5002H34.0909V37.2794C34.6295 37.1583 35.1437 36.9472 35.6121 36.6551L36.4708 37.5137L38.0135 35.9711L37.1526 35.1103C37.446 34.6428 37.6586 34.1293 37.7812 33.5911H39V31.4092Z" fill="#5AB5FA"/>
<path d="M35 32.5002C35 31.4012 34.0997 30.5007 33.0005 30.5007C31.9015 30.5007 31 31.4012 31 32.5002C31 33.5993 31.9015 34.4997 33.0005 34.4997C34.0997 34.4997 35 33.5993 35 32.5002Z" fill="#F0F4F7" stroke="#0C5286" stroke-linecap="round" stroke-linejoin="round"/>
<path d="M25 32.6043H24.1607C24.0775 32.2341 23.9324 31.8805 23.7315 31.5585L24.3218 30.9681L23.2612 29.9077L22.6694 30.4995C22.348 30.2977 21.995 30.1515 21.625 30.0672V29.2293H20.125V30.0687C19.7547 30.1519 19.4011 30.297 19.0791 30.4979L18.4888 29.9077L17.4282 30.9681L18.02 31.5599C17.8183 31.8812 17.6722 32.2344 17.5879 32.6043H16.75V34.1044H17.5893C17.6725 34.4747 17.8176 34.8282 18.0185 35.1502L17.4282 35.7405L18.4888 36.8011L19.0805 36.2093C19.4019 36.4111 19.755 36.5572 20.125 36.6415V37.4794H21.625V36.64C21.9953 36.5567 22.3489 36.4116 22.6709 36.2108L23.2612 36.8011L24.3218 35.7405L23.7299 35.1487C23.9317 34.8274 24.0778 34.4744 24.1621 34.1044H25V32.6043Z" fill="#5AB5FA"/>
<path d="M22.0211 33.3544C22.0211 32.7245 21.5051 32.2086 20.8752 32.2086C20.2454 32.2086 19.7289 32.7245 19.7289 33.3544C19.7289 33.9842 20.2454 34.5002 20.8752 34.5002C21.5051 34.5002 22.0211 33.9842 22.0211 33.3544Z" fill="#F0F4F7" stroke="#0C5286" stroke-linecap="round" stroke-linejoin="round"/>
<path d="M21.0037 26.4941L25.9963 18.506" stroke="#2DBCA4" stroke-linecap="round" stroke-linejoin="round"/>
<path d="M16.0051 22.4951L18.995 19.5051M16.0051 22.5052L18.995 25.4951L16.0051 22.5052Z" stroke="#2DBCA4" stroke-linecap="round" stroke-linejoin="round"/>
<path d="M30.9949 22.4951L28.005 19.5052M30.9949 22.5053L28.005 25.4952L30.9949 22.5053Z" stroke="#2DBCA4" stroke-linecap="round" stroke-linejoin="round"/>
</g>
<defs>
<clipPath id="clip0">
<rect width="48" height="48" fill="white"/>
</clipPath>
</defs>
</svg>
