<svg width="64" height="32" viewBox="0 0 64 32" fill="none" xmlns="http://www.w3.org/2000/svg">
<path d="M1.50971 32H43V28H1.50971C0.653822 28 0.00171062 28.9066 0.00171062 29.9733C-0.0390461 31.0933 0.653822 32 1.50971 32Z" fill="#DF4F1D"/>
<path d="M12.9059 32H53.0069C54.7628 32 56.3146 30.9005 56.8046 29.308L63.8693 4.54976C64.5227 2.23697 62.6442 0 60.0715 0H25.075C23.3191 0 21.7673 1.09953 21.2773 2.69194L12.9059 32Z" fill="#DF4F1D"/>
<path opacity="0.22" d="M12.9059 32H53.0069C54.7628 32 56.3146 30.9005 56.8046 29.308L63.8693 4.54976C64.5227 2.23697 62.6442 0 60.0715 0H25.075C23.3191 0 21.7673 1.09953 21.2773 2.69194L12.9059 32Z" fill="white"/>
<path d="M36.5091 18.199C36.0599 19.8294 37.1625 21.1185 38.9593 21.1185C40.7561 21.1185 42.5528 19.7915 43.002 18.199C43.4512 16.5687 42.3486 15.2796 40.5519 15.2796C38.7551 15.2417 36.9583 16.5687 36.5091 18.199Z" fill="white"/>
</svg>
