<svg width="32" height="32" viewBox="0 0 32 32" fill="none" xmlns="http://www.w3.org/2000/svg">
<path d="M13 14.6667H2C1.46957 14.6667 0.960859 14.3857 0.585786 13.8856C0.210714 13.3855 0 12.7072 0 12V2.66667C0 1.95942 0.210714 1.28115 0.585786 0.781048C0.960859 0.280951 1.46957 0 2 0H13C13.5304 0 14.0391 0.280951 14.4142 0.781048C14.7893 1.28115 15 1.95942 15 2.66667V12C15 12.7072 14.7893 13.3855 14.4142 13.8856C14.0391 14.3857 13.5304 14.6667 13 14.6667ZM2 2.66667V12H13V2.66667H2Z" fill="black"/>
<path d="M30 14.6667H19C18.4696 14.6667 17.9609 14.3857 17.5858 13.8856C17.2107 13.3855 17 12.7072 17 12V2.66667C17 1.95942 17.2107 1.28115 17.5858 0.781048C17.9609 0.280951 18.4696 0 19 0H30C30.5304 0 31.0391 0.280951 31.4142 0.781048C31.7893 1.28115 32 1.95942 32 2.66667V12C32 12.7072 31.7893 13.3855 31.4142 13.8856C31.0391 14.3857 30.5304 14.6667 30 14.6667ZM19 2.66667V12H30V2.66667H19Z" fill="black"/>
<path d="M13 32H2C1.46957 32 0.960859 31.719 0.585786 31.219C0.210714 30.7189 0 30.0406 0 29.3333V20C0 19.2928 0.210714 18.6145 0.585786 18.1144C0.960859 17.6143 1.46957 17.3333 2 17.3333H13C13.5304 17.3333 14.0391 17.6143 14.4142 18.1144C14.7893 18.6145 15 19.2928 15 20V29.3333C15 30.0406 14.7893 30.7189 14.4142 31.219C14.0391 31.719 13.5304 32 13 32ZM2 20V29.3333H13V20H2Z" fill="black"/>
<path d="M30 32H19C18.4696 32 17.9609 31.719 17.5858 31.219C17.2107 30.7189 17 30.0406 17 29.3333V20C17 19.2928 17.2107 18.6145 17.5858 18.1144C17.9609 17.6143 18.4696 17.3333 19 17.3333H30C30.5304 17.3333 31.0391 17.6143 31.4142 18.1144C31.7893 18.6145 32 19.2928 32 20V29.3333C32 30.0406 31.7893 30.7189 31.4142 31.219C31.0391 31.719 30.5304 32 30 32ZM19 20V29.3333H30V20H19Z" fill="black"/>
</svg>
