<svg width="32" height="32" viewBox="0 0 32 32" fill="none" xmlns="http://www.w3.org/2000/svg">
<path d="M27.6844 15.3219C27.7969 14.9469 27.8531 14.5594 27.8531 14.1656C27.8531 13.2812 27.5625 12.4312 27.0375 11.7375C27.15 11.3625 27.2062 10.975 27.2062 10.5812C27.2062 9.69687 26.9156 8.84687 26.3906 8.15312C26.5031 7.77812 26.5594 7.39062 26.5594 6.99687C26.5594 5.38437 25.6 3.93125 24.1125 3.29687C23.851 3.18415 23.5691 3.1267 23.2844 3.12812H4.5C3.94687 3.12812 3.5 3.575 3.5 4.12812V15.5031C3.5 16.0562 3.94687 16.5031 4.5 16.5031H8.54062L11.2219 26.2156C11.6531 27.7812 13.0906 28.875 14.7156 28.875C15.6438 28.875 16.5094 28.5062 17.15 27.8312C17.7906 27.1594 18.1187 26.2781 18.0719 25.35L17.8844 21.5094H25.3813C25.7594 21.5094 26.1281 21.4094 26.4531 21.2187C27.7156 20.4844 28.5 19.1531 28.5 17.75C28.5 16.8656 28.2094 16.0156 27.6844 15.3219ZM5.75 14.25V5.375H8.28125V14.25H5.75ZM25.35 19.2625H15.525L15.825 25.4625C15.8438 25.8344 15.6781 26.1844 15.3687 26.4156C15.1781 26.5562 14.9438 26.6281 14.7094 26.625C14.4099 26.6221 14.1195 26.5221 13.8817 26.3401C13.644 26.1581 13.4716 25.9039 13.3906 25.6156L10.2812 14.35V5.375H23.2625C23.5749 5.51499 23.8401 5.74223 24.0264 6.02941C24.2127 6.31658 24.312 6.65145 24.3125 6.99375C24.3125 7.29687 24.2406 7.58437 24.0969 7.84687L23.6625 8.64062L24.3469 9.23437C24.5395 9.40121 24.6939 9.60759 24.7996 9.83948C24.9053 10.0714 24.9598 10.3233 24.9594 10.5781C24.9594 10.8812 24.8875 11.1687 24.7437 11.4312L24.3094 12.225L24.9937 12.8187C25.1864 12.9856 25.3408 13.192 25.4465 13.4239C25.5522 13.6557 25.6067 13.9077 25.6063 14.1625C25.6063 14.4656 25.5344 14.7531 25.3906 15.0156L24.9531 15.8125L25.6375 16.4062C25.8301 16.5731 25.9845 16.7795 26.0902 17.0113C26.1959 17.2432 26.2504 17.4952 26.25 17.75C26.25 18.3469 25.9062 18.9219 25.35 19.2625Z" fill="black"/>
</svg>
