<svg width="32" height="32" viewBox="0 0 32 32" fill="none" xmlns="http://www.w3.org/2000/svg">
<path d="M27.6844 15.3219C27.7969 14.9469 27.8531 14.5594 27.8531 14.1656C27.8531 13.2812 27.5625 12.4313 27.0375 11.7375C27.15 11.3625 27.2062 10.975 27.2062 10.5813C27.2062 9.69688 26.9156 8.84687 26.3906 8.15312C26.5031 7.77812 26.5594 7.39062 26.5594 6.99687C26.5594 5.38437 25.6 3.93125 24.1125 3.29688C23.851 3.18415 23.5691 3.1267 23.2844 3.12812H8.53125V16.5031H8.54062L11.2219 26.2156C11.6531 27.7812 13.0906 28.875 14.7156 28.875C15.6438 28.875 16.5094 28.5062 17.15 27.8312C17.7906 27.1594 18.1187 26.2781 18.0719 25.35L17.8844 21.5094H25.3813C25.7594 21.5094 26.1281 21.4094 26.4531 21.2188C27.7156 20.4844 28.5 19.1531 28.5 17.75C28.5 16.8656 28.2094 16.0156 27.6844 15.3219ZM3.5 4.125V15.5C3.5 16.0531 3.94687 16.5 4.5 16.5H6.53125V3.125H4.5C3.94687 3.125 3.5 3.57187 3.5 4.125Z" fill="black"/>
</svg>
