<svg width="32" height="32" viewBox="0 0 32 32" fill="none" xmlns="http://www.w3.org/2000/svg">
<path d="M8.53125 3.12813V16.5031H8.54062L8.53125 3.12813ZM25.6375 16.4063L24.9531 15.8125L25.3906 15.0156C25.5337 14.7542 25.6079 14.4606 25.6063 14.1625C25.6063 13.6469 25.3844 13.1563 24.9937 12.8188L24.3094 12.225L24.7437 11.4313C24.8869 11.1698 24.9611 10.8762 24.9594 10.5781C24.9594 10.0625 24.7375 9.57188 24.3469 9.23438L23.6625 8.64063L24.0969 7.84688C24.24 7.58541 24.3142 7.29182 24.3125 6.99375C24.3125 6.29375 23.9 5.6625 23.2625 5.375H10.7812V16.1625C11.3625 18.2625 12.2313 21.4125 13.3906 25.6156C13.4716 25.9039 13.644 26.1581 13.8817 26.3401C14.1195 26.5221 14.4099 26.6221 14.7094 26.625C14.9438 26.6281 15.1781 26.5563 15.3687 26.4156C15.6781 26.1844 15.8438 25.8344 15.825 25.4625L15.525 19.2625H25.35C25.9062 18.9219 26.25 18.3469 26.25 17.75C26.25 17.2344 26.0281 16.7438 25.6375 16.4063Z" fill="black" fill-opacity="0.15"/>
<path d="M3.5 4.125V15.5C3.5 16.0531 3.94687 16.5 4.5 16.5H6.53125V3.125H4.5C3.94687 3.125 3.5 3.57187 3.5 4.125ZM27.6844 15.3219C27.7969 14.9469 27.8531 14.5594 27.8531 14.1656C27.8531 13.2812 27.5625 12.4313 27.0375 11.7375C27.15 11.3625 27.2062 10.975 27.2062 10.5813C27.2062 9.69688 26.9156 8.84687 26.3906 8.15312C26.5031 7.77812 26.5594 7.39062 26.5594 6.99687C26.5594 5.38437 25.6 3.93125 24.1125 3.29688C23.851 3.18415 23.5691 3.1267 23.2844 3.12812H8.53125L8.54062 16.5031L11.2219 26.2156C11.6531 27.7812 13.0906 28.875 14.7156 28.875C15.6438 28.875 16.5094 28.5062 17.15 27.8312C17.7906 27.1594 18.1187 26.2781 18.0719 25.35L17.8844 21.5094H25.3813C25.7594 21.5094 26.1281 21.4094 26.4531 21.2188C27.7156 20.4844 28.5 19.1531 28.5 17.75C28.5 16.8656 28.2094 16.0156 27.6844 15.3219ZM25.35 19.2625H15.525L15.825 25.4625C15.8438 25.8344 15.6781 26.1844 15.3687 26.4156C15.1781 26.5562 14.9438 26.6281 14.7094 26.625C14.4099 26.6221 14.1195 26.5221 13.8817 26.3401C13.644 26.1581 13.4716 25.9039 13.3906 25.6156C12.2312 21.4156 11.3625 18.2656 10.7812 16.1625V5.375H23.2625C23.5749 5.51499 23.8401 5.74224 24.0264 6.02941C24.2127 6.31658 24.312 6.65145 24.3125 6.99375C24.3125 7.29688 24.2406 7.58438 24.0969 7.84688L23.6625 8.64062L24.3469 9.23438C24.5395 9.40121 24.6939 9.6076 24.7996 9.83948C24.9053 10.0714 24.9598 10.3233 24.9594 10.5781C24.9594 10.8812 24.8875 11.1687 24.7437 11.4312L24.3094 12.225L24.9937 12.8188C25.1864 12.9856 25.3408 13.192 25.4465 13.4239C25.5522 13.6557 25.6067 13.9077 25.6063 14.1625C25.6063 14.4656 25.5344 14.7531 25.3906 15.0156L24.9531 15.8125L25.6375 16.4062C25.8301 16.5731 25.9845 16.7795 26.0902 17.0114C26.1959 17.2432 26.2504 17.4952 26.25 17.75C26.25 18.3469 25.9062 18.9219 25.35 19.2625Z" fill="black"/>
</svg>
