<svg width="32" height="32" viewBox="0 0 32 32" fill="none" xmlns="http://www.w3.org/2000/svg">
<path d="M29.4822 17.4829C30.1726 16.5971 30.1726 15.4014 29.4822 14.5171C27.3078 11.7329 22.0909 6 16.0002 6C9.9095 6 4.69262 11.7329 2.5182 14.5171C2.18232 14.9412 2 15.463 2 16C2 16.537 2.18232 17.0588 2.5182 17.4829C4.69262 20.2671 9.9095 26 16.0002 26C22.0909 26 27.3078 20.2671 29.4822 17.4829V17.4829Z" stroke="black" stroke-width="2.66667" stroke-linecap="round" stroke-linejoin="round"/>
<path d="M16 11C18.7614 11 21 13.2386 21 16C21 18.7614 18.7614 21 16 21C13.2386 21 11 18.7614 11 16C11 13.2386 13.2386 11 16 11Z" stroke="black" stroke-width="2" stroke-linecap="round" stroke-linejoin="round"/>
</svg>
