<svg width="32" height="32" viewBox="0 0 32 32" fill="none" xmlns="http://www.w3.org/2000/svg">
    <g clip-path="url(#clip0)">
        <path
            d="M32 16.098C32 7.206 24.836 -0.0019989 16 -0.0019989C7.16 1.09873e-06 -0.00399971 7.206 -0.00399971 16.1C-0.00399971 24.134 5.848 30.794 13.496 32.002V20.752H9.436V16.1H13.5V12.55C13.5 8.516 15.89 6.288 19.544 6.288C21.296 6.288 23.126 6.602 23.126 6.602V10.562H21.108C19.122 10.562 18.502 11.804 18.502 13.078V16.098H22.938L22.23 20.75H18.5V32C26.148 30.792 32 24.132 32 16.098Z"
            fill="black" />
    </g>
    <defs>
        <clipPath id="clip0">
            <rect width="32" height="32" fill="white" />
        </clipPath>
    </defs>
</svg>