<svg width="16" height="16" viewBox="0 0 16 16" fill="none" xmlns="http://www.w3.org/2000/svg">
<path d="M11.9993 0.00332907L9.92449 0C7.5935 0 6.08712 1.54552 6.08712 3.93762V5.75313H4.00098C3.82071 5.75313 3.67473 5.89927 3.67473 6.07954V8.71001C3.67473 8.89028 3.82088 9.03625 4.00098 9.03625H6.08712V15.6738C6.08712 15.854 6.23309 16 6.41336 16H9.13518C9.31545 16 9.46143 15.8539 9.46143 15.6738V9.03625H11.9006C12.0809 9.03625 12.2269 8.89028 12.2269 8.71001L12.2279 6.07954C12.2279 5.99299 12.1934 5.91009 12.1323 5.84884C12.0712 5.78758 11.988 5.75313 11.9014 5.75313H9.46143V4.2141C9.46143 3.47438 9.6377 3.09886 10.6013 3.09886L11.999 3.09836C12.1791 3.09836 12.3251 2.95222 12.3251 2.77211V0.329578C12.3251 0.149642 12.1792 0.00366197 11.9993 0.00332907Z" fill="#1172B7"/>
</svg>
