<svg width="32" height="32" viewBox="0 0 32 32" fill="none" xmlns="http://www.w3.org/2000/svg">
<path d="M19.9973 6.66667C22.4458 6.66547 24.7966 7.62644 26.5431 9.3424C28.2896 11.0584 29.2919 13.3919 29.3339 15.84C29.3758 18.288 28.4542 20.6546 26.7675 22.4294C25.0809 24.2042 22.7644 25.2452 20.3173 25.328L19.9973 25.3333H12.0027C9.55424 25.3345 7.20339 24.3736 5.4569 22.6576C3.7104 20.9416 2.70813 18.6081 2.66615 16.16C2.62417 13.712 3.54585 11.3454 5.23248 9.57059C6.91912 7.79575 9.23564 6.75475 11.6827 6.672L12.0013 6.66667H19.996H19.9973ZM19.9973 8.66667H12.0027C10.0806 8.66261 8.23376 9.41334 6.85964 10.7573C5.48552 12.1012 4.69398 13.9309 4.65535 15.8526C4.61673 17.7743 5.33412 19.6344 6.65313 21.0324C7.97214 22.4305 9.78732 23.2548 11.708 23.328L12.0027 23.3333H19.9973C21.9194 23.3374 23.7662 22.5867 25.1404 21.2427C26.5145 19.8988 27.306 18.0691 27.3446 16.1474C27.3833 14.2257 26.6659 12.3656 25.3469 10.9676C24.0279 9.56951 22.2127 8.74518 20.292 8.672L19.9973 8.66667ZM10.6667 12C10.9319 12 11.1862 12.1054 11.3738 12.2929C11.5613 12.4804 11.6667 12.7348 11.6667 13V14.9973H13.6667C13.9319 14.9973 14.1862 15.1027 14.3738 15.2902C14.5613 15.4778 14.6667 15.7321 14.6667 15.9973C14.6667 16.2625 14.5613 16.5169 14.3738 16.7044C14.1862 16.892 13.9319 16.9973 13.6667 16.9973H11.6667V19C11.6667 19.2652 11.5613 19.5196 11.3738 19.7071C11.1862 19.8946 10.9319 20 10.6667 20C10.4015 20 10.1471 19.8946 9.95956 19.7071C9.77202 19.5196 9.66667 19.2652 9.66667 19V16.9973H7.66667C7.53535 16.9973 7.40531 16.9715 7.28398 16.9212C7.16266 16.871 7.05242 16.7973 6.95956 16.7044C6.8667 16.6116 6.79304 16.5013 6.74279 16.38C6.69253 16.2587 6.66667 16.1287 6.66667 15.9973C6.66667 15.866 6.69253 15.736 6.74279 15.6146C6.79304 15.4933 6.8667 15.3831 6.95956 15.2902C7.05242 15.1974 7.16266 15.1237 7.28398 15.0735C7.40531 15.0232 7.53535 14.9973 7.66667 14.9973H9.66667V13C9.66667 12.7348 9.77202 12.4804 9.95956 12.2929C10.1471 12.1054 10.4015 12 10.6667 12ZM19.6667 16.6667C20.1087 16.6667 20.5326 16.8423 20.8452 17.1548C21.1577 17.4674 21.3333 17.8913 21.3333 18.3333C21.3333 18.7754 21.1577 19.1993 20.8452 19.5118C20.5326 19.8244 20.1087 20 19.6667 20C19.2246 20 18.8007 19.8244 18.4882 19.5118C18.1756 19.1993 18 18.7754 18 18.3333C18 17.8913 18.1756 17.4674 18.4882 17.1548C18.8007 16.8423 19.2246 16.6667 19.6667 16.6667ZM22.3333 12C22.7754 12 23.1993 12.1756 23.5118 12.4882C23.8244 12.8007 24 13.2246 24 13.6667C24 14.1087 23.8244 14.5326 23.5118 14.8452C23.1993 15.1577 22.7754 15.3333 22.3333 15.3333C21.8913 15.3333 21.4674 15.1577 21.1548 14.8452C20.8423 14.5326 20.6667 14.1087 20.6667 13.6667C20.6667 13.2246 20.8423 12.8007 21.1548 12.4882C21.4674 12.1756 21.8913 12 22.3333 12Z" fill="black"/>
</svg>
