<svg width="16" height="16" viewBox="0 0 16 16" fill="none" xmlns="http://www.w3.org/2000/svg">
<path d="M15 8.15872C15 7.57143 14.9524 7.14286 14.8492 6.69842H8.14288V9.34918H12.0793C12 10.0079 11.5714 11 10.619 11.6666L10.6057 11.7554L12.7261 13.398L12.873 13.4127C14.2222 12.1666 15 10.3333 15 8.15872Z" fill="#4285F4"/>
<path d="M8.14288 15.1429C10.0714 15.1429 11.6905 14.5079 12.873 13.4127L10.6191 11.6666C10.0159 12.0873 9.20635 12.3809 8.14288 12.3809C6.25401 12.3809 4.65085 11.1349 4.07936 9.4127L3.9956 9.41982L1.79075 11.1262L1.76192 11.2063C2.93651 13.5396 5.34921 15.1429 8.14288 15.1429Z" fill="#34A853"/>
<path d="M4.07936 9.41271C3.92857 8.96827 3.8413 8.49205 3.8413 8.00001C3.8413 7.50791 3.92857 7.03174 4.07143 6.5873L4.06743 6.49265L1.83496 4.75889L1.76192 4.79363C1.27781 5.7619 1.00003 6.84922 1.00003 8.00001C1.00003 9.1508 1.27781 10.2381 1.76192 11.2063L4.07936 9.41271Z" fill="#FBBC05"/>
<path d="M8.14288 3.61903C9.48413 3.61903 10.3889 4.19839 10.9048 4.68255L12.9206 2.71429C11.6826 1.5635 10.0714 0.857147 8.14288 0.857147C5.34921 0.857147 2.93651 2.46031 1.76192 4.79362L4.07143 6.5873C4.65085 4.86508 6.25401 3.61903 8.14288 3.61903Z" fill="#EB4335"/>
</svg>
