<svg width="48" height="48" viewBox="0 0 48 48" fill="none" xmlns="http://www.w3.org/2000/svg">
<path d="M24 48.0001C37.2548 48.0001 48 37.2549 48 24.0001C48 10.7452 37.2548 0 24 0C10.7452 0 0 10.7452 0 24.0001C0 37.2549 10.7452 48.0001 24 48.0001Z" fill="#BA3B3B"/>
<path d="M22.5008 30.276H12.5013C12.2361 30.276 11.9817 30.3778 11.7942 30.5588C11.6067 30.7399 11.5013 30.9855 11.5013 31.2416V37.0347C11.5013 37.2907 11.6067 37.5363 11.7942 37.7174C11.9817 37.8985 12.2361 38.0002 12.5013 38.0002H22.5008C22.766 38.0002 23.0203 37.8985 23.2078 37.7174C23.3954 37.5363 23.5007 37.2907 23.5007 37.0347V31.2416C23.5007 30.9855 23.3954 30.7399 23.2078 30.5588C23.0203 30.3778 22.766 30.276 22.5008 30.276ZM14.5012 34.6209C14.4023 34.6209 14.3056 34.5926 14.2234 34.5395C14.1412 34.4865 14.0771 34.4111 14.0393 34.3229C14.0014 34.2346 13.9915 34.1376 14.0108 34.0439C14.0301 33.9503 14.0777 33.8643 14.1477 33.7967C14.2176 33.7292 14.3067 33.6833 14.4036 33.6646C14.5006 33.646 14.6012 33.6556 14.6925 33.6921C14.7839 33.7286 14.862 33.7905 14.9169 33.8699C14.9718 33.9493 15.0012 34.0426 15.0012 34.1381C15.0012 34.2661 14.9485 34.3889 14.8547 34.4795C14.761 34.57 14.6338 34.6209 14.5012 34.6209ZM17.501 34.6209C17.4021 34.6209 17.3055 34.5926 17.2233 34.5395C17.141 34.4865 17.077 34.4111 17.0391 34.3229C17.0013 34.2346 16.9914 34.1376 17.0107 34.0439C17.03 33.9503 17.0776 33.8643 17.1475 33.7967C17.2174 33.7292 17.3065 33.6833 17.4035 33.6646C17.5005 33.646 17.601 33.6556 17.6924 33.6921C17.7837 33.7286 17.8618 33.7905 17.9167 33.8699C17.9717 33.9493 18.001 34.0426 18.001 34.1381C18.001 34.2661 17.9483 34.3889 17.8546 34.4795C17.7608 34.57 17.6336 34.6209 17.501 34.6209ZM20.5009 34.6209C20.402 34.6209 20.3053 34.5926 20.2231 34.5395C20.1409 34.4865 20.0768 34.4111 20.039 34.3229C20.0011 34.2346 19.9912 34.1376 20.0105 34.0439C20.0298 33.9503 20.0774 33.8643 20.1473 33.7967C20.2173 33.7292 20.3063 33.6833 20.4033 33.6646C20.5003 33.646 20.6008 33.6556 20.6922 33.6921C20.7836 33.7286 20.8617 33.7905 20.9166 33.8699C20.9715 33.9493 21.0008 34.0426 21.0008 34.1381C21.0008 34.2661 20.9482 34.3889 20.8544 34.4795C20.7606 34.57 20.6335 34.6209 20.5009 34.6209Z" fill="#B4CDE1"/>
<path d="M14.5012 35.1036C14.3035 35.1036 14.1101 35.047 13.9457 34.9409C13.7812 34.8348 13.6531 34.684 13.5774 34.5076C13.5017 34.3311 13.4819 34.137 13.5205 33.9497C13.5591 33.7624 13.6543 33.5904 13.7942 33.4553C13.934 33.3203 14.1122 33.2284 14.3062 33.1911C14.5001 33.1538 14.7012 33.173 14.8839 33.246C15.0666 33.3191 15.2228 33.4429 15.3327 33.6017C15.4425 33.7604 15.5012 33.9471 15.5012 34.1381C15.5012 34.3941 15.3958 34.6397 15.2083 34.8208C15.0208 35.0019 14.7664 35.1036 14.5012 35.1036Z" fill="url(#paint0_linear)"/>
<path d="M17.501 35.1036C17.3033 35.1036 17.1099 35.047 16.9455 34.9409C16.781 34.8348 16.6529 34.684 16.5772 34.5076C16.5015 34.3311 16.4817 34.137 16.5203 33.9497C16.5589 33.7624 16.6541 33.5904 16.794 33.4553C16.9338 33.3203 17.112 33.2284 17.306 33.1911C17.4999 33.1538 17.701 33.173 17.8837 33.246C18.0664 33.3191 18.2226 33.4429 18.3325 33.6017C18.4423 33.7604 18.501 33.9471 18.501 34.1381C18.501 34.3941 18.3956 34.6397 18.2081 34.8208C18.0206 35.0019 17.7662 35.1036 17.501 35.1036Z" fill="url(#paint1_linear)"/>
<path d="M20.5009 35.1036C20.3031 35.1036 20.1098 35.047 19.9454 34.9409C19.7809 34.8348 19.6527 34.684 19.5771 34.5076C19.5014 34.3311 19.4816 34.137 19.5202 33.9497C19.5587 33.7624 19.654 33.5904 19.7938 33.4553C19.9337 33.3203 20.1118 33.2284 20.3058 33.1911C20.4998 33.1538 20.7008 33.173 20.8836 33.246C21.0663 33.3191 21.2224 33.4429 21.3323 33.6017C21.4422 33.7604 21.5008 33.9471 21.5008 34.1381C21.5008 34.3941 21.3955 34.6397 21.208 34.8208C21.0204 35.0019 20.7661 35.1036 20.5009 35.1036Z" fill="url(#paint2_linear)"/>
<path d="M20.5009 26.2208V30.276H14.5012V26.2208C14.8123 26.7207 15.2521 27.1343 15.7777 27.4215C16.3034 27.7086 16.8971 27.8595 17.501 27.8595C18.105 27.8595 18.6987 27.7086 19.2244 27.4215C19.75 27.1343 20.1898 26.7207 20.5009 26.2208Z" fill="url(#paint3_linear)"/>
<path d="M18.501 21.2433C17.8249 21.049 17.1038 21.0564 16.4322 21.2647C15.7606 21.473 15.1698 21.8724 14.7374 22.4105C14.3049 22.9486 14.051 23.6004 14.0089 24.2803C13.9667 24.9602 14.1383 25.6365 14.5012 26.2206C14.8123 26.7204 15.2521 27.134 15.7777 27.4212C16.3034 27.7084 16.8971 27.8593 17.5011 27.8593C18.105 27.8593 18.6987 27.7084 19.2244 27.4212C19.75 27.134 20.1898 26.7204 20.5009 26.2206C20.8304 25.6969 21.0034 25.0954 21.0009 24.4826C21.0011 23.7547 20.7579 23.0462 20.3074 22.4626C19.857 21.8789 19.2234 21.4513 18.501 21.2433ZM17.5011 25.9309C17.2044 25.9309 16.9144 25.846 16.6677 25.6868C16.4211 25.5277 16.2288 25.3015 16.1153 25.0369C16.0018 24.7722 15.9721 24.481 16.03 24.2001C16.0878 23.9191 16.2307 23.6611 16.4405 23.4585C16.6502 23.256 16.9175 23.1181 17.2084 23.0622C17.4994 23.0063 17.801 23.035 18.0751 23.1446C18.3491 23.2542 18.5834 23.4398 18.7482 23.678C18.913 23.9162 19.001 24.1962 19.001 24.4826C19.001 24.8667 18.843 25.2351 18.5617 25.5067C18.2804 25.7783 17.8989 25.9309 17.5011 25.9309Z" fill="#B4CDE1"/>
<path d="M17.501 25.931C18.3294 25.931 19.0009 25.2826 19.0009 24.4827C19.0009 23.6828 18.3294 23.0344 17.501 23.0344C16.6726 23.0344 16.0011 23.6828 16.0011 24.4827C16.0011 25.2826 16.6726 25.931 17.501 25.931Z" fill="url(#paint4_linear)"/>
<path d="M18.501 21.2338C17.9121 21.0663 17.288 21.0513 16.6913 21.1903C16.0946 21.3292 15.5462 21.6173 15.1012 22.0256L13.0713 20.0656C13.5986 19.9471 14.0719 19.6666 14.4199 19.2661C14.7679 18.8657 14.9719 18.3669 15.0012 17.8449L18.501 21.2338Z" fill="url(#paint5_linear)"/>
<path d="M15.0012 17.7242C15.0037 17.7644 15.0037 17.8047 15.0012 17.8449C14.974 18.3686 14.771 18.8695 14.4228 19.2719C14.0746 19.6743 13.6002 19.9563 13.0713 20.0752C12.8847 20.1187 12.6932 20.1398 12.5013 20.138C12.0977 20.1382 11.7001 20.0441 11.3424 19.8636C10.9847 19.6832 10.6775 19.4218 10.4472 19.1018C10.2168 18.7819 10.0701 18.4128 10.0196 18.0262C9.96915 17.6396 10.0163 17.2469 10.1572 16.8817C10.2981 16.5165 10.5284 16.1897 10.8285 15.9292C11.1286 15.6686 11.4896 15.4821 11.8806 15.3856C12.2716 15.2891 12.681 15.2854 13.0738 15.3748C13.4666 15.4643 13.8311 15.6443 14.1362 15.8993C14.4002 16.1171 14.6137 16.3861 14.7627 16.6889C14.9118 16.9917 14.993 17.3214 15.0012 17.6566C15.0037 17.679 15.0037 17.7017 15.0012 17.7242ZM33.0002 10C32.5885 9.99851 32.1829 10.0964 31.8203 10.2848C31.4213 10.4911 31.0878 10.7981 30.8553 11.173C30.6229 11.548 30.5002 11.9768 30.5004 12.4138C30.4903 12.5182 30.4903 12.6232 30.5004 12.7276C30.5594 13.1414 30.7287 13.5333 30.9916 13.865C31.2545 14.1967 31.6021 14.4569 32.0003 14.62C32.3142 14.7579 32.6553 14.8287 33.0002 14.8276C33.3439 14.8273 33.684 14.7599 34.0002 14.6297C34.5288 14.4092 34.9624 14.0192 35.2277 13.5257C35.4929 13.0321 35.5736 12.4653 35.456 11.921C35.3385 11.3767 35.0299 10.8882 34.5824 10.5382C34.135 10.1882 33.5761 9.99811 33.0002 10ZM33.0002 12.8966C32.9013 12.8966 32.8047 12.8683 32.7225 12.8152C32.6402 12.7622 32.5762 12.6868 32.5383 12.5986C32.5005 12.5103 32.4906 12.4133 32.5099 12.3196C32.5292 12.226 32.5768 12.14 32.6467 12.0725C32.7166 12.0049 32.8057 11.959 32.9027 11.9403C32.9997 11.9217 33.1002 11.9313 33.1916 11.9678C33.2829 12.0043 33.361 12.0662 33.4159 12.1456C33.4709 12.225 33.5002 12.3183 33.5002 12.4138C33.5002 12.5418 33.4475 12.6646 33.3538 12.7552C33.26 12.8457 33.1328 12.8966 33.0002 12.8966Z" fill="#B4CDE1"/>
<path d="M33.0003 13.3794C33.5526 13.3794 34.0002 12.9471 34.0002 12.4139C34.0002 11.8806 33.5526 11.4484 33.0003 11.4484C32.448 11.4484 32.0004 11.8806 32.0004 12.4139C32.0004 12.9471 32.448 13.3794 33.0003 13.3794Z" fill="url(#paint6_linear)"/>
<path d="M34.0002 14.6297V17.2414H32.0004V14.62C32.3143 14.7579 32.6554 14.8288 33.0003 14.8276C33.344 14.8273 33.6841 14.7599 34.0002 14.6297Z" fill="url(#paint7_linear)"/>
<path d="M35.5001 21.5862C35.4217 21.5871 35.3443 21.5688 35.2751 21.5331C35.1573 21.4752 35.0681 21.3747 35.0269 21.2535C34.9857 21.1323 34.9958 21.0002 35.0551 20.8862L35.9401 19.1724L35.1901 17.7241H30.8103L30.0604 19.1724L30.9453 20.8862C30.9808 20.9431 31.0037 21.0064 31.0126 21.0722C31.0216 21.1381 31.0164 21.2049 30.9974 21.2687C30.9783 21.3325 30.9459 21.3918 30.902 21.443C30.8582 21.4941 30.8039 21.536 30.7425 21.5659C30.6812 21.5959 30.6141 21.6133 30.5454 21.6171C30.4768 21.6209 30.4081 21.6109 30.3436 21.5879C30.2791 21.5649 30.2202 21.5293 30.1706 21.4833C30.121 21.4373 30.0818 21.382 30.0554 21.3207L29.0554 19.3896C29.0203 19.3223 29.0019 19.2479 29.0019 19.1724C29.0019 19.0969 29.0203 19.0225 29.0554 18.9552L30.0554 17.0241C30.0969 16.9445 30.1605 16.8776 30.239 16.8307C30.3176 16.7838 30.408 16.7589 30.5003 16.7586H35.5001C35.5924 16.7589 35.6829 16.7838 35.7614 16.8307C35.8399 16.8776 35.9035 16.9445 35.9451 17.0241L36.945 18.9552C36.9802 19.0225 36.9985 19.0969 36.9985 19.1724C36.9985 19.2479 36.9802 19.3223 36.945 19.3896L35.9451 21.3207C35.9035 21.4003 35.8399 21.4672 35.7614 21.5141C35.6829 21.561 35.5924 21.5859 35.5001 21.5862Z" fill="#B4CDE1"/>
<path d="M30.5003 12.414C30.4902 12.5184 30.4902 12.6235 30.5003 12.7278L15.0011 17.6568C14.9936 17.322 14.9131 16.9925 14.765 16.6897C14.6168 16.387 14.4043 16.1177 14.1412 15.8996L31.8103 10.2899C31.4139 10.497 31.0829 10.8038 30.8523 11.1777C30.6217 11.5517 30.5001 11.9788 30.5003 12.414Z" fill="url(#paint8_linear)"/>
<path d="M36.0001 33.6552V34.6208C36.0001 34.7488 36.0528 34.8716 36.1465 34.9621C36.2403 35.0527 36.3675 35.1035 36.5001 35.1035H38V36.5518C38 36.8079 37.8946 37.0534 37.7071 37.2345C37.5196 37.4156 37.2653 37.5173 37.0001 37.5173H29.0005C28.7353 37.5173 28.4809 37.4156 28.2934 37.2345C28.1059 37.0534 28.0005 36.8079 28.0005 36.5518V29.3104C28.0005 29.0543 28.1059 28.8087 28.2934 28.6277C28.4809 28.4466 28.7353 28.3449 29.0005 28.3449H31.5003V31.2414L33.0003 30.7587L34.5002 31.2414V28.3449H37.0001C37.2653 28.3449 37.5196 28.4466 37.7071 28.6277C37.8946 28.8087 38 29.0543 38 29.3104V33.1725H36.5001C36.3675 33.1725 36.2403 33.2233 36.1465 33.3139C36.0528 33.4044 36.0001 33.5272 36.0001 33.6552Z" fill="url(#paint9_linear)"/>
<path d="M34.5002 28.3449V31.2414L33.0003 30.7587L31.5004 31.2414V28.3449H34.5002Z" fill="url(#paint10_linear)"/>
<path d="M38 33.1725V35.1036H36.5C36.3674 35.1036 36.2403 35.0527 36.1465 34.9622C36.0527 34.8717 36.0001 34.7489 36.0001 34.6208V33.6553C36.0001 33.5273 36.0527 33.4045 36.1465 33.3139C36.2403 33.2234 36.3674 33.1725 36.5 33.1725H38Z" fill="url(#paint11_linear)"/>
<defs>
<linearGradient id="paint0_linear" x1="13.5013" y1="34.1381" x2="15.5012" y2="34.1381" gradientUnits="userSpaceOnUse">
<stop stop-color="#FE9661"/>
<stop offset="1" stop-color="#FFB369"/>
</linearGradient>
<linearGradient id="paint1_linear" x1="16.5011" y1="34.1381" x2="18.501" y2="34.1381" gradientUnits="userSpaceOnUse">
<stop stop-color="#54A5FF"/>
<stop offset="1" stop-color="#8AD3FE"/>
</linearGradient>
<linearGradient id="paint2_linear" x1="19.5009" y1="34.1381" x2="21.5008" y2="34.1381" gradientUnits="userSpaceOnUse">
<stop stop-color="#D3E6F5"/>
<stop offset="1" stop-color="#F0F7FC"/>
</linearGradient>
<linearGradient id="paint3_linear" x1="92.4972" y1="191.672" x2="164.493" y2="191.672" gradientUnits="userSpaceOnUse">
<stop stop-color="#D3E6F5"/>
<stop offset="1" stop-color="#F0F7FC"/>
</linearGradient>
<linearGradient id="paint4_linear" x1="63.9986" y1="118.621" x2="81.9977" y2="118.621" gradientUnits="userSpaceOnUse">
<stop stop-color="#D3E6F5"/>
<stop offset="1" stop-color="#F0F7FC"/>
</linearGradient>
<linearGradient id="paint5_linear" x1="68.0743" y1="116.467" x2="127.15" y2="116.467" gradientUnits="userSpaceOnUse">
<stop stop-color="#D3E6F5"/>
<stop offset="1" stop-color="#F0F7FC"/>
</linearGradient>
<linearGradient id="paint6_linear" x1="127.995" y1="26.8967" x2="135.995" y2="26.8967" gradientUnits="userSpaceOnUse">
<stop stop-color="#D3E6F5"/>
<stop offset="1" stop-color="#F0F7FC"/>
</linearGradient>
<linearGradient id="paint7_linear" x1="127.995" y1="54.701" x2="135.995" y2="54.701" gradientUnits="userSpaceOnUse">
<stop stop-color="#D3E6F5"/>
<stop offset="1" stop-color="#F0F7FC"/>
</linearGradient>
<linearGradient id="paint8_linear" x1="329.711" y1="177.74" x2="457.703" y2="-129.116" gradientUnits="userSpaceOnUse">
<stop stop-color="#D3E6F5"/>
<stop offset="1" stop-color="#F0F7FC"/>
</linearGradient>
<linearGradient id="paint9_linear" x1="436.379" y1="575.572" x2="603.794" y2="393.062" gradientUnits="userSpaceOnUse">
<stop stop-color="#54A5FF"/>
<stop offset="1" stop-color="#8AD3FE"/>
</linearGradient>
<linearGradient id="paint10_linear" x1="172.493" y1="155.793" x2="190.492" y2="155.793" gradientUnits="userSpaceOnUse">
<stop stop-color="#D3E6F5"/>
<stop offset="1" stop-color="#F0F7FC"/>
</linearGradient>
<linearGradient id="paint11_linear" x1="147.994" y1="33.1725" x2="155.994" y2="33.1725" gradientUnits="userSpaceOnUse">
<stop stop-color="#D3E6F5"/>
<stop offset="1" stop-color="#F0F7FC"/>
</linearGradient>
</defs>
</svg>
