<svg width="32" height="32" viewBox="0 0 32 32" fill="none" xmlns="http://www.w3.org/2000/svg">
<path d="M31.2134 14.0501L18.7265 2.64688C17.197 1.25105 14.8024 1.25105 13.2739 2.64688L0.816903 14.0244C0.0617369 14.6601 -0.197452 15.6568 0.155599 16.5651C0.50865 17.4713 1.38328 18.0566 2.38483 18.0566H3.2008V29.3714C3.2008 29.9392 3.67864 30.4 4.26742 30.4H27.733C28.3218 30.4 28.7997 29.9392 28.7997 29.3714V18.0566H29.6146C30.6161 18.0566 31.4918 17.4703 31.8438 16.563C32.1968 15.6558 31.9366 14.658 31.2134 14.0501ZM12.8004 28.3428V23.1997C12.8004 21.4984 14.236 20.1138 16.0002 20.1138C17.7644 20.1138 19.2001 21.4984 19.2001 23.1997V28.3428H12.8004ZM29.6146 15.9994H27.733C27.1443 15.9994 26.6664 16.4602 26.6664 17.028V28.3428H21.3333V23.1997C21.3333 20.3638 18.9409 18.0566 16.0002 18.0566C13.0596 18.0566 10.6671 20.3638 10.6671 23.1997V28.3428H5.33403V17.028C5.33403 16.4602 4.85619 15.9994 4.26742 15.9994H2.38483C2.17258 15.9994 2.01898 15.7432 2.25151 15.5457L14.7405 4.14043C15.4467 3.49549 16.5538 3.49549 17.2599 4.14043L29.7788 15.5725C29.9537 15.7185 29.846 15.9994 29.6146 15.9994Z" fill="black"/>
</svg>
