<svg width="316" height="316" viewBox="0 0 316 316" fill="none" xmlns="http://www.w3.org/2000/svg">
<path d="M34.7281 13.2028C34.7797 9.60837 36.0194 6.16363 38.2066 3.53706C40.5712 1.17024 43.6524 -0.0931538 46.8198 0.00535642H254.532C257.825 0.00861028 260.983 1.47951 263.311 4.0947C265.391 6.55882 266.573 9.80862 266.623 13.2028V302.245C266.649 304.035 266.355 305.813 265.757 307.473C265.16 309.134 264.272 310.643 263.145 311.911C260.817 314.526 257.66 315.997 254.366 316H46.8198C43.5262 315.997 40.3685 314.526 38.0409 311.911C35.8258 309.304 34.5816 305.847 34.5625 302.245L34.7281 13.2028Z" fill="url(#paint0_linear)"/>
<path fill-rule="evenodd" clip-rule="evenodd" d="M217.896 237H117.854C115.406 237 113.059 235.96 111.328 234.108C109.597 232.256 108.625 229.744 108.625 227.125C108.625 224.506 109.597 221.994 111.328 220.142C113.059 218.29 115.406 217.25 117.854 217.25H217.896C220.344 217.25 222.691 218.29 224.422 220.142C226.153 221.994 227.125 224.506 227.125 227.125C227.125 229.744 226.153 232.256 224.422 234.108C222.691 235.96 220.344 237 217.896 237Z" fill="#9293A5"/>
<path fill-rule="evenodd" clip-rule="evenodd" d="M197.035 276.5H138.715C135.989 276.449 133.39 275.393 131.462 273.552C129.534 271.711 128.428 269.228 128.375 266.625C128.375 264.006 129.464 261.494 131.404 259.642C133.343 257.79 135.973 256.75 138.715 256.75H197.035C199.777 256.75 202.407 257.79 204.346 259.642C206.286 261.494 207.375 264.006 207.375 266.625C207.322 269.228 206.216 271.711 204.288 273.552C202.36 275.393 199.761 276.449 197.035 276.5V276.5Z" fill="#9293A5"/>
<path d="M69.125 0H45.6854C43.5764 0 41.4879 0.355793 39.5394 1.04706C37.5908 1.73833 35.8204 2.75154 34.329 4.02883C32.8377 5.30613 31.6547 6.8225 30.8475 8.49137C30.0404 10.1602 29.625 11.9489 29.625 13.7553V302.245C29.625 305.893 31.3171 309.392 34.329 311.971C37.3409 314.551 41.4259 316 45.6854 316H69.125V0Z" fill="#006637"/>
<mask id="mask0" mask-type="alpha" maskUnits="userSpaceOnUse" x="98" y="39" width="139" height="139">
<circle cx="167.875" cy="108.625" r="69.125" fill="#C4C4C4"/>
</mask>
<g mask="url(#mask0)">
<g clip-path="url(#clip0)">
<path d="M98.7024 117.76C103.013 115.095 104.558 111.279 106.605 107.677C109.63 102.369 113.092 97.2955 116.531 92.2435C117.424 90.9218 117.62 90.0478 116.618 88.7262C113.723 84.9105 111.894 80.6471 111.59 75.8295C111.22 69.6689 114.398 67.2601 120.515 68.7949C125.195 69.9673 129.963 70.82 134.708 71.758C137.408 72.2909 139.563 71.1824 141.762 69.136C140.499 68.5391 139.432 68.1554 138.518 67.5372C137.952 67.1322 137.321 66.3861 137.321 65.7679C137.321 65.1924 137.996 64.2544 138.562 64.1052C140.695 63.551 142.959 62.7409 145.092 62.9328C148.488 63.2525 151.819 64.2971 155.171 65.0218C155.585 65.1071 155.977 65.1711 156.782 65.299C156.782 63.5297 156.673 61.9309 156.826 60.3535C156.935 59.0958 157.239 57.8381 157.697 56.6443C158.415 54.6832 159.895 54.4913 161.245 56.0901C162.878 57.9873 164.619 59.7992 166.099 61.7817C168.189 64.5955 171.259 65.235 174.437 66.0237C178.334 66.983 182.426 67.9423 185.822 69.9034C189.588 72.0777 193.028 71.694 196.794 70.82C200.168 70.0313 203.542 69.1999 206.938 68.5818C212.01 67.6651 214.449 69.8181 214.449 74.9129C214.449 79.4533 212.99 83.5675 210.4 87.2553C209.268 88.8754 208.919 90.0265 210.4 91.6679C212.054 93.5011 213.317 95.6541 214.949 97.9777C215.581 97.125 215.951 96.4642 216.451 95.9313C219.891 92.1369 223.309 88.3212 226.792 84.5694C228.098 83.1625 229.556 82.8001 230.906 84.5907C232.843 81.8195 234.498 79.0057 236.588 76.5543C242.487 69.5836 249.932 64.9366 259.053 63.0181C261.492 62.5065 262.754 63.3804 262.645 66.1303C262.449 70.7987 261.927 75.4458 261.513 80.0929C261.448 80.775 261.296 81.4571 261.143 82.4377C263.69 81.5637 264.452 83.0772 264.474 84.8039C264.539 90.2397 264.822 95.7181 264.256 101.09C263.059 112.494 260.338 123.558 255.178 133.939C247.821 148.733 237.654 161.225 223.679 170.54C216.974 175.017 209.899 178.555 201.692 179.515C200.974 179.6 200.168 180.069 199.646 180.58C194.748 185.355 188.609 187.466 181.991 188.489C171.629 190.088 161.201 190.088 150.796 189.278C143.503 188.702 136.537 186.826 131.117 181.476C127.285 177.681 125.065 173.013 123.824 167.918C121.016 156.322 122.104 145.152 128.112 134.621C128.765 133.47 128.613 132.682 127.198 132.49C123.563 131.978 119.927 131.488 116.27 131.083C114.92 130.934 113.527 131.083 112.156 130.997C110.305 130.891 109.826 130.081 110.85 128.525C111.437 127.651 112.177 126.798 113.026 126.18C114.703 124.965 114.18 124.027 112.7 123.387C109.021 121.767 105.298 120.296 101.576 118.783C100.879 118.421 100.074 118.207 98.7024 117.76Z" fill="black"/>
<path d="M142.115 66.1908C145.163 64.8692 147.884 65.5087 150.322 66.2334C152.847 66.9795 155.089 68.6849 157.506 69.8786C158.181 70.1984 159.073 70.3476 159.77 70.1984C160.053 70.1344 160.314 69.0473 160.249 68.4717C159.944 65.5513 159.53 62.6522 159.073 59.1562C160.14 59.6892 160.553 59.7958 160.815 60.0516C163.1 62.3111 165.19 64.8052 167.672 66.7877C168.956 67.8109 170.916 68.1733 172.657 68.4504C181.495 69.8786 189.049 73.8649 195.667 79.5778C205.964 88.4882 213.3 99.5517 219.548 111.383C220.266 112.725 220.963 114.068 221.812 115.689C217.458 115.667 213.997 114.047 210.622 112.342C205.289 109.677 200.151 106.608 194.687 104.177C185.218 99.9567 175.705 100.362 166.475 105.03C164.45 106.053 162.817 106.288 160.641 105.158C148.232 98.635 136.324 100.383 124.634 107.29C119.388 110.381 114.164 113.621 108.09 115.049C107.502 115.198 106.893 115.305 105.804 115.539C107.328 112.47 108.504 109.762 109.984 107.247C115.013 98.7843 120.52 90.6199 127.443 83.5214C131.818 79.0449 136.76 75.2718 142.42 72.4153C144.074 71.584 145.642 70.71 147.296 72.6285C146.991 69.5376 144.771 67.9601 142.115 66.1908Z" fill="#ABABAB"/>
<path d="M164.8 187.419C158.335 186.928 153.11 186.715 147.951 186.097C136.239 184.69 128.772 177.592 126.421 166.187C124.331 155.976 125.18 146.192 130.144 136.855C131.493 134.318 131.798 134.169 134.236 135.768C138.503 138.561 142.661 141.502 146.906 144.316C157.224 151.18 167.543 150.882 177.992 144.487C183.979 140.799 190.096 137.282 196.278 133.935C200.196 131.803 200.588 131.995 202.482 136.13C208.142 148.473 208.969 160.901 202.177 173.094C198.346 179.979 192.098 183.987 184.262 185.202C177.404 186.289 170.482 186.801 164.8 187.419Z" fill="#ABABAB"/>
<path d="M259.102 87.0366C260.473 85.7576 261.387 84.9262 262.28 84.0949C262.476 84.1588 262.694 84.2228 262.889 84.2867C262.889 85.8002 262.998 87.335 262.868 88.8272C262.454 93.4742 261.953 98.1426 261.431 102.79C261.257 104.388 257.425 107.501 255.815 107.351C255.423 107.309 254.9 106.712 254.791 106.286C254.487 105.113 254.421 103.898 254.182 102.726C253.79 100.765 252.767 100.36 251.156 101.511C247.499 104.111 247.499 104.111 245.997 99.8266C245.017 96.9915 244.821 96.9489 242.187 98.7395C241.186 99.4216 240.141 100.018 238.987 100.743C236.875 98.2279 238.203 95.2435 237.333 92.4297C236.636 92.8347 236.092 93.1332 235.591 93.4742C234.59 94.1564 233.632 94.9451 232.587 95.5633C229.017 97.6949 228.451 97.5244 226.84 93.8579C226.579 93.2824 226.339 92.6855 226.078 92.11C225.185 90.1701 225.991 87.9958 227.994 87.3563C228.385 87.2284 229.213 87.6761 229.452 88.0811C230.083 89.1682 230.519 90.3833 231.194 91.9821C231.999 90.1701 232.674 88.6353 233.349 87.0792C237.942 76.5061 246.171 69.8553 257.099 66.2101C259.537 65.4001 260.19 65.8903 260.038 68.3844C259.82 72.0509 259.341 75.7174 259.123 79.4052C258.971 81.7074 259.102 84.0948 259.102 87.0366Z" fill="#ABABAB"/>
<path d="M139.348 135.701C152.061 121.824 176.53 122.826 187.349 135.467C180.078 139.794 173.482 145.251 164.731 146.594C161.248 147.127 157.982 146.466 154.761 145.251C149.014 143.098 144.355 139.283 139.348 135.701ZM170.957 134.039C171 129.946 167.975 127.004 163.73 127.025C159.768 127.047 156.829 129.988 156.807 133.932C156.785 137.726 159.898 140.86 163.73 140.945C167.67 141.031 170.913 137.918 170.957 134.039Z" fill="#ABABAB"/>
<path d="M241.319 133.676C243.604 131.502 245.585 129.647 247.37 127.963C248.568 130.777 249.7 133.377 250.745 136.021C250.875 136.341 250.745 136.895 250.549 137.215C247.305 142.053 244.018 146.871 240.709 151.689C240.557 151.902 240.274 152.008 239.642 152.477C239.686 151.539 239.664 150.985 239.751 150.431C239.925 149.323 240.274 148.214 240.382 147.084C240.6 144.803 240.339 144.633 238.075 145.038C236.05 145.4 234.004 145.699 231.522 146.125C232.219 144.356 232.85 143.034 233.22 141.648C233.46 140.732 233.699 139.41 233.22 138.856C232.807 138.366 231.37 138.557 230.434 138.685C229.15 138.856 227.909 139.282 226.646 139.538C224.861 139.879 224.426 139.431 224.818 137.641C225.057 136.618 225.492 135.616 225.688 134.593C226.102 132.29 225.318 131.267 223.032 130.841C222.815 130.798 222.597 130.734 222.379 130.755C217.982 131.352 216.066 127.942 213.606 125.469C213.389 125.256 213.606 124.147 213.933 123.955C216.306 122.634 218.744 121.419 221.226 120.31C221.53 120.161 222.466 120.737 222.706 121.184C223.054 121.845 222.924 122.719 223.163 123.465C223.533 124.531 224.121 125.064 225.449 124.446C228.431 123.039 228.823 123.273 229.672 126.513C230.521 129.732 231.435 130.095 234.331 128.304C238.293 125.874 239.555 126.449 240.448 130.969C240.578 131.715 240.927 132.461 241.319 133.676Z" fill="#ABABAB"/>
<path d="M132.426 74.355C128.899 78.0641 125.416 81.6454 122.042 85.3119C119.321 88.275 119.343 88.3389 117.34 84.8216C115.49 81.5601 114.249 78.1068 114.358 74.3123C114.445 71.7543 115.577 70.6885 118.08 71.1574C122.826 72.0527 127.528 73.1612 132.252 74.2058C132.448 74.2697 132.578 74.4829 132.426 74.355Z" fill="#ABABAB"/>
<path d="M207.288 86.8878C203.065 82.3047 199.168 78.0839 195.271 73.8419C194.945 74.0124 194.618 74.1829 194.313 74.3535C194.858 74.1616 195.38 73.9058 195.924 73.7779C199.56 72.9466 203.239 72.2005 206.874 71.3265C210.227 70.5164 211.794 71.5183 211.75 74.8651C211.685 79.3629 210.096 83.3279 207.288 86.8878Z" fill="#ABABAB"/>
<path d="M221.38 165.633C221.445 168.064 220.77 169.62 218.811 170.536C214 172.817 209.189 175.12 204.378 177.379C204.03 177.528 203.594 177.464 202.854 177.55C203.943 175.588 205.14 173.947 205.793 172.135C207.078 168.618 207.992 164.994 209.167 161.434C209.45 160.581 209.973 159.665 210.669 159.153C211.192 158.769 212.367 158.663 212.868 158.983C213.282 159.26 213.303 160.389 213.151 161.093C212.084 166.614 212.063 166.593 217.744 165.825C218.898 165.676 220.03 165.719 221.38 165.633Z" fill="#ABABAB"/>
<path d="M187.137 125.665C191.643 120.229 191.991 115.923 188.486 112.321C185.417 109.166 180.693 108.761 177.057 111.319C172.921 114.239 172.573 118.375 175.969 124.407C173.27 123.789 171.049 119.633 171.332 115.668C171.702 110.189 175.751 106.203 181.542 105.627C186.353 105.158 191.316 108.462 192.688 113.024C194.211 118.204 192.122 123.278 187.137 125.665Z" fill="white"/>
<path d="M150.543 125.577C155.115 120.184 155.42 115.537 151.741 112.169C148.149 108.886 143.185 108.758 139.789 111.87C135.762 115.537 136.023 119.8 140.573 125.342C137.743 125.236 134.391 120.12 134.543 115.963C134.739 110.804 138.549 106.669 144.1 105.774C148.976 105.006 154.418 108.054 155.855 112.51C157.596 117.839 155.42 123.594 150.543 125.577Z" fill="white"/>
<path d="M167.786 130.867C165.695 130.142 163.974 129.545 162.101 128.906C164.192 127.115 166.915 128.01 167.786 130.867Z" fill="white"/>
<path d="M142.255 118.525C143.603 118.525 144.695 117.456 144.695 116.137C144.695 114.819 143.603 113.75 142.255 113.75C140.908 113.75 139.816 114.819 139.816 116.137C139.816 117.456 140.908 118.525 142.255 118.525Z" fill="white"/>
<path d="M179.866 117.373C181.213 117.373 182.305 116.304 182.305 114.985C182.305 113.667 181.213 112.598 179.866 112.598C178.519 112.598 177.427 113.667 177.427 114.985C177.427 116.304 178.519 117.373 179.866 117.373Z" fill="white"/>
<rect x="135.477" y="52.6133" width="0.545" height="0.476562" fill="black"/>
</g>
<g clip-path="url(#clip1)">
<path d="M204.597 115.969H201.615C200.307 108.209 193.568 102.288 185.444 102.288C182.226 102.288 179.233 103.229 176.699 104.833L176.327 104.46C172.821 101.304 168.272 99.5554 163.554 99.5518C158.845 99.5518 154.312 101.295 150.675 104.562L150.407 104.83C147.793 103.17 144.761 102.288 141.665 102.288C137.788 102.291 134.037 103.667 131.077 106.171C128.118 108.675 126.14 112.146 125.494 115.969H122.511V121.441H125.494C126.802 129.201 133.541 135.122 141.665 135.122C150.722 135.122 158.082 127.77 158.082 118.705C158.085 114.991 156.82 111.387 154.498 108.488C156.991 106.264 160.213 105.031 163.554 105.024C166.912 105.024 170.149 106.269 172.565 108.431L172.614 108.483C170.289 111.382 169.023 114.989 169.027 118.705C169.027 127.77 176.384 135.122 185.444 135.122C189.321 135.119 193.072 133.743 196.032 131.239C198.991 128.735 200.969 125.264 201.615 121.441H204.597V115.969ZM141.665 129.65C135.632 129.65 130.72 124.738 130.72 118.705C130.72 112.672 135.632 107.76 141.665 107.76C147.698 107.76 152.61 112.672 152.61 118.705C152.61 124.738 147.698 129.65 141.665 129.65ZM185.444 129.65C179.411 129.65 174.499 124.738 174.499 118.705C174.499 112.672 179.411 107.76 185.444 107.76C191.477 107.76 196.389 112.672 196.389 118.705C196.389 124.738 191.477 129.65 185.444 129.65Z" fill="#6FAC43"/>
</g>
<g clip-path="url(#clip2)">
<path opacity="0.1" d="M171.058 146.319V150.28C168.749 151.58 166.172 152.26 163.555 152.26C160.938 152.26 158.36 151.58 156.051 150.28V146.319C158.36 147.619 160.938 148.299 163.555 148.299C166.172 148.299 168.749 147.619 171.058 146.319Z" fill="#262234"/>
<path d="M172.353 158.676V181.15C166.532 182.234 160.577 182.234 154.757 181.15V158.676H172.353Z" fill="#D1D3D4"/>
<path d="M166.35 165.844H160.722C160.517 165.843 160.317 165.77 160.155 165.638C159.992 165.506 159.875 165.321 159.822 165.111L158.471 159.923C158.434 159.777 158.429 159.624 158.456 159.475C158.484 159.326 158.544 159.186 158.631 159.066C158.718 158.945 158.83 158.847 158.958 158.78C159.087 158.712 159.228 158.677 159.371 158.676H167.663C167.807 158.677 167.948 158.712 168.076 158.78C168.205 158.847 168.317 158.945 168.404 159.066C168.491 159.186 168.551 159.326 168.578 159.475C168.606 159.624 168.601 159.777 168.564 159.923L167.307 165.111C167.251 165.331 167.126 165.523 166.951 165.657C166.777 165.79 166.565 165.856 166.35 165.844Z" fill="#BE1E2D"/>
<path d="M167.907 181.764C166.463 181.903 165.018 181.962 163.555 181.962C162.092 181.962 160.647 181.962 159.203 181.764L162.298 163.765H164.812L167.907 181.764Z" fill="#BE1E2D"/>
<path d="M163.555 158.675L156.689 166.675L152.637 152.26L156.051 149.765L163.555 158.675Z" fill="#F1F2F2"/>
<path d="M163.555 158.675L170.421 166.675L174.473 152.26L171.058 149.765L163.555 158.675Z" fill="#F1F2F2"/>
<path d="M161.491 181.962C157.209 181.806 152.965 181.06 148.866 179.744L149.016 153.29C149.01 152.961 149.094 152.637 149.26 152.359C149.391 152.1 149.576 151.875 149.799 151.7C150.023 151.525 150.281 151.405 150.554 151.349L155.113 150.517L155.488 152.319L161.491 181.962ZM178.243 179.685C174.147 181.021 169.902 181.786 165.618 181.962L171.621 152.26L171.996 150.458L176.555 151.29C176.828 151.346 177.086 151.466 177.31 151.641C177.534 151.815 177.718 152.04 177.849 152.3V152.3C178 152.584 178.078 152.905 178.074 153.23L178.243 179.685Z" fill="#2A292A"/>
<path d="M176.367 146.636L163.555 152.913L150.742 146.656C150.556 146.566 150.353 146.527 150.149 146.543C149.946 146.558 149.749 146.627 149.577 146.743C149.406 146.859 149.264 147.019 149.166 147.208C149.068 147.397 149.017 147.609 149.016 147.824V178.001L163.555 181.962L178.093 178.001V147.804C178.093 147.589 178.041 147.377 177.943 147.188C177.845 146.999 177.704 146.839 177.532 146.723C177.36 146.607 177.164 146.538 176.96 146.523C176.757 146.508 176.553 146.546 176.367 146.636V146.636Z" fill="#F1F2F2"/>
<path d="M180.25 148.3L163.555 153.527L146.859 148.3C146.678 148.245 146.488 148.235 146.302 148.27C146.117 148.306 145.942 148.386 145.791 148.505C145.641 148.624 145.518 148.778 145.433 148.956C145.348 149.133 145.303 149.329 145.302 149.527V179.982L163.555 183.942L181.807 179.982V149.488C181.8 149.292 181.751 149.101 181.664 148.929C181.577 148.757 181.453 148.608 181.303 148.493C181.153 148.379 180.98 148.302 180.798 148.268C180.616 148.235 180.428 148.245 180.25 148.3V148.3Z" fill="#D1D3D4"/>
<path d="M183.383 150.458L165.187 153.844C164.107 154.045 163.002 154.045 161.923 153.844L143.726 150.458C143.551 150.426 143.372 150.435 143.201 150.484C143.029 150.533 142.87 150.621 142.734 150.742C142.599 150.862 142.489 151.013 142.415 151.183C142.34 151.353 142.301 151.538 142.3 151.725V180.378C142.294 180.849 142.447 181.308 142.733 181.671C143.018 182.034 143.417 182.278 143.858 182.358L161.941 185.724C163.021 185.925 164.126 185.925 165.206 185.724L183.289 182.358C183.73 182.278 184.129 182.034 184.414 181.671C184.7 181.308 184.853 180.849 184.846 180.378V151.705C184.845 151.515 184.803 151.329 184.725 151.158C184.646 150.987 184.533 150.837 184.393 150.717C184.254 150.598 184.09 150.513 183.916 150.468C183.741 150.423 183.559 150.42 183.383 150.458V150.458Z" fill="#BE1E2D"/>
<path d="M164.962 153.884V185.705C164.03 185.863 163.08 185.863 162.148 185.705V153.884C163.081 154.022 164.028 154.022 164.962 153.884Z" fill="#A21B25"/>
</g>
</g>
<defs>
<linearGradient id="paint0_linear" x1="153.616" y1="316" x2="150.464" y2="-118.499" gradientUnits="userSpaceOnUse">
<stop stop-color="#89C393"/>
<stop offset="1" stop-color="white"/>
</linearGradient>
<clipPath id="clip0">
<rect width="165.9" height="165.9" fill="white" transform="translate(98.75 39.5)"/>
</clipPath>
<clipPath id="clip1">
<rect width="82.95" height="35.7146" fill="white" transform="translate(122.08 99.1201)"/>
</clipPath>
<clipPath id="clip2">
<rect width="41.475" height="41.475" fill="white" transform="translate(142.817 145.779)"/>
</clipPath>
</defs>
</svg>
