<svg width="64" height="65" viewBox="0 0 64 65" fill="none" xmlns="http://www.w3.org/2000/svg">
<g clip-path="url(#clip0)">
<path d="M3.63407 63.2961C2.30158 62.6118 1.57476 61.8873 0.928707 60.559L0 58.7879V32.1816V5.57535L0.888328 3.80428C1.57476 2.47598 2.30158 1.75145 3.63407 1.10743L5.41073 0.181641H32.2221C58.1047 0.181641 59.0334 0.221892 60.5678 0.986672C61.4158 1.42944 62.5464 2.35523 63.0713 3.07975L64 4.40806V32.1816V59.9552L63.0713 61.2835C62.5464 62.0081 61.4158 62.9338 60.5678 63.3766C59.0334 64.1414 58.1047 64.1816 32.2221 64.1816H5.41073L3.63407 63.2961ZM48.2524 56.6546L46.2334 54.7225L47.7274 54.6018C49.1407 54.481 49.2215 54.4005 49.3426 52.9917C49.4233 52.1867 49.383 50.8181 49.3022 50.0131C49.1811 48.725 49.0196 48.4835 48.212 48.4835C47.2833 48.4835 47.2429 48.3628 47.2429 46.0684V43.6533H46.0315C44.8202 43.6533 44.8202 43.6131 44.8202 41.4395C44.8202 39.2659 44.8202 39.2257 43.6088 39.2257C42.4379 39.2257 42.3975 39.1854 42.3975 37.2131C42.3975 35.3213 42.4782 35.2005 43.4069 35.2005C44.6991 35.2005 46.0315 33.8722 46.0315 32.5842C46.0315 32.0206 45.5874 31.1754 45.0221 30.6923L44.0126 29.8068L45.2644 28.5187C46.4353 27.3112 46.4757 27.1904 45.7489 26.7879C45.0625 26.3854 45.0625 26.3452 45.9508 26.1037C46.7987 25.8621 46.8391 25.7011 46.8391 20.4684V15.0747H45.7893C44.8606 15.0747 44.7798 14.9942 45.224 14.4709C45.6278 13.9477 45.6278 13.7062 45.0625 13.1024C44.376 12.3779 44.376 12.2974 45.1836 11.4923C47.6467 9.03699 44.1741 5.65585 41.2265 7.66843C40.3786 8.27221 40.2574 8.27221 39.0864 7.18541C37.9155 6.05837 37.8751 6.01812 37.3098 6.82315C36.7445 7.58793 36.7041 7.58793 36.5022 6.7024C36.2599 5.85711 36.0984 5.81686 30.6877 5.81686C25.1558 5.81686 25.1155 5.81686 25.3577 6.7024C25.5192 7.38667 25.4385 7.50743 24.8328 7.26592C24.3886 7.10491 23.8233 7.26592 23.3792 7.66843C22.7331 8.27221 22.5716 8.27221 21.7237 7.66843C20.4719 6.7829 18.7356 6.8634 17.7666 7.82944C16.7167 8.87598 16.7571 10.164 17.8473 11.3313L18.7356 12.2571L17.5647 13.4647C16.4341 14.632 16.4341 14.6722 17.2013 15.276C17.9685 15.8395 17.9281 15.8395 17.0801 15.8798C16.1514 15.8798 16.1514 15.9603 16.1514 21.5552V27.2307L17.1609 26.9892C18.0896 26.7477 18.13 26.7879 17.6858 27.5125C17.282 28.1967 17.3224 28.4382 17.9685 29.1628C18.6953 29.9678 18.6953 30.0081 17.8473 30.8936C17.3628 31.4169 16.959 32.2219 16.959 32.7049C16.959 33.8722 18.3319 35.2005 19.5836 35.2005C20.5123 35.2005 20.5931 35.3213 20.5931 37.1728C20.5931 39.0647 20.5123 39.1854 19.5028 39.3062C18.453 39.4269 18.3722 39.5879 18.2511 41.5603C18.13 43.4923 18.0492 43.6533 17.1205 43.6533C16.1918 43.6533 16.1514 43.7741 16.1514 46.0684C16.1514 48.3225 16.0707 48.4835 15.2631 48.4835C14.3344 48.4835 14.3344 48.564 14.3344 53.515V58.5464H32.3028H50.2713L48.2524 56.6546Z" fill="#E0E0E0"/>
<path d="M38.077 57.2988C38.2385 56.7756 38.3597 55.9303 38.3597 55.4473C38.3597 54.6422 38.5616 54.5215 39.7729 54.5215C41.6303 54.5215 41.59 55.2058 39.4903 56.8963C37.9155 58.2246 37.8348 58.2649 38.077 57.2988Z" fill="#E0E0E0"/>
<path d="M15.7072 57.1782C15.6264 57.0977 15.5861 55.3669 15.6668 53.3543L15.788 49.6914H16.9589C17.605 49.6914 18.1703 49.9732 18.3318 50.3354C18.6548 51.1405 18.6548 55.8902 18.3318 56.6952C18.1299 57.2587 16.1514 57.621 15.7072 57.1782Z" fill="#E0E0E0"/>
<path d="M19.745 56.0508C19.9469 55.0043 20.2296 54.6823 21.1179 54.6018C22.4908 54.4408 22.4908 54.8836 21.0775 56.2521C19.6239 57.6609 19.422 57.6207 19.745 56.0508Z" fill="#E0E0E0"/>
<path d="M22.8138 56.3724C23.6618 55.0843 23.5003 51.502 22.6119 51.502C22.2889 51.502 21.9659 51.9045 21.8851 52.4277C21.764 53.112 21.5217 53.3133 20.8757 53.2328C20.1892 53.1523 20.0277 52.79 19.947 51.3812L19.8662 49.6504L24.3482 49.7711L28.8706 49.8919V51.502C28.8706 52.6693 28.7091 53.1523 28.1842 53.2328C27.74 53.3133 27.4574 53.0315 27.3766 52.4277C27.2959 51.9045 26.9728 51.502 26.6498 51.502C25.7211 51.502 25.6807 53.9171 26.569 55.7686L27.3362 57.3384H24.7924H22.2082L22.8138 56.3724Z" fill="#E0E0E0"/>
<path d="M30.6068 55.9304C30.728 54.9241 30.9702 54.5216 31.4952 54.5216C31.8989 54.5216 32.3027 54.8839 32.4239 55.3266C32.6661 56.2927 34.2409 56.4134 34.6043 55.4876C34.887 54.6826 34.2005 54.2398 32.2623 53.9178C30.8087 53.6763 30.7683 53.5958 30.6068 51.865C30.5261 50.8587 30.5664 49.9732 30.6472 49.8524C30.728 49.7719 32.0201 49.6914 33.5141 49.6914C36.2598 49.6914 37.1482 50.0939 37.1482 51.382C37.1482 52.2273 35.9368 52.348 34.7658 51.6235C33.8775 51.1002 32.545 51.4625 32.7873 52.2273C32.9084 52.4688 33.8371 52.8713 34.8466 53.0725C36.9059 53.4348 37.4712 54.3203 36.9866 56.3329C36.7444 57.299 36.5829 57.3392 33.5948 57.3392H30.4453L30.6068 55.9304Z" fill="#E0E0E0"/>
<path d="M41.7515 56.5744C42.6802 55.5681 42.5187 51.5027 41.5899 51.5027C41.2669 51.5027 40.9439 51.9052 40.8631 52.4285C40.7824 52.992 40.4593 53.314 39.9344 53.314C39.2884 53.314 39.1672 53.0323 39.1672 51.5027V49.6914H43.6089H48.0505V51.5027C48.0505 52.7908 47.889 53.314 47.4852 53.314C47.1622 53.314 46.8392 52.9115 46.7584 52.4285C46.6776 51.9052 46.3546 51.5027 46.0316 51.5027C45.1433 51.5027 44.9817 54.7229 45.7893 55.9304C46.1527 56.4939 46.4354 57.0172 46.4354 57.1379C46.4354 57.2587 45.224 57.3392 43.73 57.3392C41.1458 57.3392 41.065 57.299 41.7515 56.5744Z" fill="#E0E0E0"/>
<path d="M28.1439 55.8095C27.2152 54.8032 27.296 54.5215 28.4669 54.5215C29.2745 54.5215 29.4764 54.7227 29.4764 55.5278C29.4764 56.7353 29.0322 56.8158 28.1439 55.8095Z" fill="#E0E0E0"/>
<path d="M17.3628 46.6726V44.8613L31.6164 44.9418L45.8297 45.0626L45.9508 46.7934L46.0719 48.484H31.7376H17.3628V46.6726Z" fill="#E0E0E0"/>
<path d="M19.7854 42.446V40.8359H31.6971H43.6087V42.446V44.0561H31.6971H19.7854V42.446Z" fill="#E0E0E0"/>
<path d="M22.2083 38.0183V36.4082H31.6972H41.1862V38.0183V39.6283H31.6972H22.2083V38.0183Z" fill="#E0E0E0"/>
<path d="M22.1274 34.3147C22.4908 33.9524 22.7331 33.9524 23.0965 34.3147C23.4599 34.6769 23.3791 34.7977 22.6119 34.7977C21.8447 34.7977 21.764 34.6769 22.1274 34.3147Z" fill="#E0E0E0"/>
<path d="M27.4575 33.188C27.4575 31.4169 28.3862 30.8936 28.8708 32.4232C29.0323 32.8659 29.3553 33.1477 29.5976 33.0672C30.3648 32.8257 30.4052 30.4911 29.7187 29.0823C29.3553 28.398 29.0727 27.754 29.0727 27.6735C29.0727 27.6332 30.1629 27.5527 31.5358 27.5527H33.9585L33.3528 28.4383C32.4645 29.6458 32.4645 33.188 33.3124 33.188C33.6758 33.188 34.0392 32.9062 34.1604 32.5842C34.3219 32.2622 34.766 31.9804 35.1698 31.9804C35.7755 31.9804 35.937 32.2622 35.937 33.3892V34.798H31.6973H27.4575V33.188Z" fill="#E0E0E0"/>
<path d="M39.1672 34.6367C39.1672 34.5562 39.4095 34.2745 39.7325 34.033C40.1363 33.6707 40.3786 33.711 40.7824 34.194C41.2265 34.7172 41.1054 34.7977 40.2171 34.7977C39.6518 34.7977 39.1672 34.7172 39.1672 34.6367Z" fill="#E0E0E0"/>
<path d="M18.655 33.5104C17.8878 32.7456 18.0897 32.0211 19.1799 31.4978C20.0279 31.0953 20.3509 31.1355 20.9162 31.699C21.4411 32.2223 21.4815 32.5443 21.1585 33.1078C20.5932 33.9531 19.3414 34.1946 18.655 33.5104Z" fill="#E0E0E0"/>
<path d="M21.7641 30.9336L18.7761 27.955L19.8663 26.9085C21.0777 25.7009 21.9257 25.9424 21.5622 27.3915C21.3604 28.0758 21.4815 28.3575 21.9257 28.3575C22.8544 28.3575 24.631 26.023 24.631 24.8154C24.631 23.7689 24.6714 23.8091 26.448 25.5399L28.2247 27.311L26.7307 27.955C24.0253 29.2028 22.8544 31.6179 25.2367 31.0142C26.7307 30.6519 27.0537 31.6179 25.802 32.8255L24.7118 33.872L21.7641 30.9336Z" fill="#E0E0E0"/>
<path d="M41.9937 33.3888C41.5899 32.9058 41.5495 32.5435 41.8726 32.0605C42.4379 31.1347 43.2455 31.014 44.2145 31.7385C44.8606 32.2215 44.9414 32.463 44.5779 33.0668C43.9723 34.0329 42.6802 34.1939 41.9937 33.3888Z" fill="#E0E0E0"/>
<path d="M37.35 32.6243C36.3002 31.779 36.2194 31.5778 36.704 31.0143C37.1077 30.5312 37.3904 30.4507 37.7134 30.7728C38.3595 31.4168 38.7633 31.2558 38.7633 30.4105C38.7633 29.5652 37.1885 28.2772 35.4118 27.7136L34.2812 27.3514L36.1387 25.5401C37.7134 23.9702 37.9557 23.8897 37.9557 24.6545C37.9557 25.6608 40.2169 28.3577 41.0648 28.3577C41.5494 28.3577 41.6301 28.0759 41.4686 27.1501C41.1052 25.4596 41.8724 25.218 43.2453 26.5866L44.4163 27.7539L41.4686 30.6923L38.5614 33.5904L37.35 32.6243Z" fill="#E0E0E0"/>
<path d="M27.0939 29.8065C26.7305 29.3638 26.7708 29.2028 27.2958 29.0015C28.2245 28.6392 28.2648 28.6795 28.2648 29.565C28.2648 30.4908 27.7399 30.6116 27.0939 29.8065Z" fill="#E0E0E0"/>
<path d="M33.918 30.0079C33.918 29.8067 34.1602 29.4847 34.4429 29.2432C35.0486 28.7199 36.1388 29.2834 35.7754 29.9274C35.4524 30.4507 33.918 30.5312 33.918 30.0079Z" fill="#E0E0E0"/>
<path d="M33.1104 23.3266V20.3077H34.5236C35.7753 20.3077 35.9368 20.187 35.9368 19.2612C35.9368 18.6977 36.0984 18.3354 36.3406 18.4964C36.5829 18.6172 36.7444 19.7845 36.7444 21.0725C36.7444 23.2059 36.6233 23.4876 35.21 24.8562C34.3621 25.6612 33.5545 26.3455 33.393 26.3455C33.2315 26.3455 33.1104 24.9769 33.1104 23.3266Z" fill="#E0E0E0"/>
<path d="M17.3628 21.3133V17.0869H18.9779C20.6335 17.0869 21.2795 17.9322 19.9874 18.4555C19.6644 18.5762 19.3817 18.9385 19.3817 19.3008C19.3817 20.1058 21.8448 20.1058 23.4196 19.3008L24.6309 18.6567V21.1121V23.5674L23.7426 22.9636C22.7331 22.2391 19.5836 22.0781 19.1798 22.7221C19.0587 22.9234 19.301 23.3259 19.7855 23.6077C20.2297 23.8894 20.5931 24.453 20.5931 24.8152C20.5931 25.3787 20.27 25.5397 18.9779 25.5397H17.3628V21.3133Z" fill="#E0E0E0"/>
<path d="M22.491 25.2585C21.9257 24.7352 22.2083 23.5679 22.814 23.7692C23.137 23.9302 23.4197 24.3729 23.4197 24.7755C23.4197 25.5402 22.9755 25.7817 22.491 25.2585Z" fill="#E0E0E0"/>
<path d="M29.2745 25.138C29.113 24.8562 29.3957 24.816 30.1629 24.977C31.6972 25.3393 31.8588 25.5405 30.5666 25.5405C30.0013 25.5405 29.3957 25.3393 29.2745 25.138Z" fill="#E0E0E0"/>
<path d="M39.4497 24.9764C39.2882 24.5739 39.5305 24.1714 40.015 23.8897C40.7419 23.5274 40.8226 23.5676 40.7015 24.3727C40.54 25.4595 39.7728 25.8217 39.4497 24.9764Z" fill="#E0E0E0"/>
<path d="M41.9937 24.4129C41.9937 23.9299 42.3571 23.5273 42.8416 23.4066C43.3262 23.2858 43.6088 22.9638 43.5281 22.6418C43.2454 21.9575 40.1363 22.199 38.8845 23.0041L37.9558 23.6078V21.1525C37.9558 19.8242 38.0366 18.6971 38.0769 18.6971C38.1577 18.6971 38.8038 18.9789 39.4902 19.3412C41.1457 20.1462 43.3665 19.9449 43.5281 19.0192C43.6088 18.4959 43.4069 18.2946 42.8416 18.2946C42.2763 18.2946 41.9937 18.0531 41.9937 17.4896C41.9937 16.8053 42.2763 16.6846 43.6088 16.6846H45.2643L45.1432 20.8305L45.0221 24.9361L43.5281 25.0569C42.2359 25.1777 41.9937 25.0569 41.9937 24.4129Z" fill="#E0E0E0"/>
<path d="M26.7709 23.8495C25.5191 22.5212 25.4788 19.1803 26.6497 18.0935C27.0939 17.691 27.5784 17.4495 27.6592 17.5703C27.7803 17.691 27.8611 19.3816 27.7803 21.3136L27.6592 24.8155L26.7709 23.8495Z" fill="#E0E0E0"/>
<path d="M29.9206 24.4529C29.1534 24.2919 29.0727 24.1711 29.5168 23.8491C29.961 23.5673 29.961 23.4063 29.5976 23.2453C29.2342 23.1246 29.113 22.1585 29.1534 20.1862L29.2342 17.2881L29.4361 20.1057C29.638 22.561 29.7591 22.9233 30.4859 22.9233C31.2127 22.9233 31.3339 22.561 31.5358 20.1057L31.7377 17.2881L31.8184 19.9447C31.8992 21.917 31.7377 22.7623 31.2935 23.1246C30.7686 23.5673 30.7686 23.6881 31.3742 24.1711C32.1414 24.7346 31.8588 24.8151 29.9206 24.4529Z" fill="#E0E0E0"/>
<path d="M32.6663 18.2952C32.2625 18.0135 32.2221 17.8122 32.5855 17.4499C33.1912 16.8462 34.4833 17.1279 34.6448 17.8927C34.766 18.6172 33.595 18.8185 32.6663 18.2952Z" fill="#E0E0E0"/>
<path d="M21.8044 17.7311C21.8044 17.4494 22.0871 16.9664 22.4101 16.6846C22.8947 16.2821 23.0562 16.3223 23.2581 16.8054C23.3792 17.1676 23.3792 17.6506 23.2177 17.8921C22.8543 18.4959 21.8044 18.3752 21.8044 17.7311Z" fill="#E0E0E0"/>
<path d="M39.4902 18.0532C39.3691 17.9324 39.3287 17.4897 39.4498 17.0469C39.6114 16.4431 39.7729 16.3626 40.217 16.7249C40.9439 17.3287 40.9439 18.2947 40.2574 18.2947C39.9344 18.2947 39.6114 18.1739 39.4902 18.0532Z" fill="#E0E0E0"/>
<path d="M24.6309 17.0875C24.6309 16.6447 24.0252 15.5982 23.258 14.7529C22.1678 13.5856 21.764 13.3843 21.3602 13.7466C20.9564 14.1491 20.9968 14.3906 21.4006 14.8736C21.8448 15.3969 21.8448 15.5982 21.3602 16.1214C20.8353 16.6044 20.593 16.5642 19.5836 15.4774L18.4126 14.2296L21.3199 11.3717L24.1867 8.47363L25.3173 9.27866C26.8921 10.446 26.8113 11.2912 25.1558 11.1302C24.1867 11.09 23.8233 11.2107 23.8233 11.6535C23.8233 12.3378 26.5287 14.2699 27.5382 14.2699C28.6284 14.2699 28.4265 14.7529 26.7306 16.4032C24.9943 18.0938 24.6309 18.2145 24.6309 17.0875Z" fill="#E0E0E0"/>
<path d="M36.1793 16.323L34.6045 14.7129L35.9774 14.1494C37.7136 13.4249 38.925 12.0563 38.602 11.2513C38.4405 10.7683 38.1982 10.6878 37.5925 11.0098C37.0272 11.3318 36.7042 11.2915 36.3811 10.889C36.0581 10.5268 36.2196 10.1242 37.0676 9.31921L38.1982 8.23242L41.1054 11.1708L44.0127 14.0689L42.9629 15.1959C42.1149 16.0815 41.7919 16.2425 41.3477 15.84C40.9035 15.4777 40.8632 15.2362 41.2266 14.7934C41.59 14.3909 41.59 14.1092 41.267 13.7871C40.6209 13.1431 39.248 14.4312 38.4001 16.4035L37.754 17.9331L36.1793 16.323Z" fill="#E0E0E0"/>
<path d="M28.8706 15.8801C28.9918 15.6788 29.759 15.4775 30.5262 15.4775C31.2933 15.4775 31.899 15.6788 31.899 15.8801C31.899 16.1216 31.1722 16.2826 30.2435 16.2826C29.2744 16.2826 28.7091 16.1216 28.8706 15.8801Z" fill="#E0E0E0"/>
<path d="M29.7187 13.0624C30.4455 11.6536 30.3244 8.9567 29.5572 8.71519C29.2745 8.63469 28.9111 8.91645 28.79 9.39947C28.6689 9.88249 28.2651 10.2448 27.8209 10.2448C27.2152 10.2448 27.0537 9.96299 27.0537 8.63469V6.98438L31.2127 7.10513L35.3313 7.22588L35.4524 8.75544C35.5736 10.0435 35.4524 10.2448 34.766 10.2448C34.2815 10.2448 33.9181 9.96299 33.9181 9.60073C33.9181 9.23846 33.6354 9.03721 33.2316 9.11771C32.6663 9.23846 32.5452 9.60073 32.6259 10.8485C32.7067 11.7341 33.0297 12.8611 33.3528 13.3844C33.9181 14.2699 33.9181 14.2699 31.5357 14.2699H29.1534L29.7187 13.0624Z" fill="#E0E0E0"/>
<path d="M26.9324 12.8207C26.569 12.4182 27.4169 11.4521 28.1438 11.4521C28.911 11.4521 28.6283 12.8207 27.8207 12.9817C27.4977 13.022 27.0939 12.9817 26.9324 12.8207Z" fill="#E0E0E0"/>
<path d="M34.3218 12.2568C34.3218 11.331 34.7256 11.2103 35.4524 11.9348C36.1792 12.6593 36.0581 13.0618 35.1293 13.0618C34.6044 13.0618 34.3218 12.7801 34.3218 12.2568Z" fill="#E0E0E0"/>
<path d="M18.5339 10.4059C17.8474 9.56064 18.5339 8.43359 19.7856 8.43359C21.0373 8.43359 21.7238 9.56064 21.0373 10.4059C20.7143 10.7682 20.1894 11.0499 19.7856 11.0499C19.3818 11.0499 18.8569 10.7682 18.5339 10.4059Z" fill="#E0E0E0"/>
<path d="M41.9533 10.4059C41.2669 9.56064 41.9533 8.43359 43.205 8.43359C44.4568 8.43359 45.1432 9.56064 44.4568 10.4059C44.1337 10.7682 43.6088 11.0499 43.205 11.0499C42.8013 11.0499 42.2763 10.7682 41.9533 10.4059Z" fill="#E0E0E0"/>
</g>
<defs>
<clipPath id="clip0">
<rect width="64" height="64" fill="white" transform="translate(0 0.181641)"/>
</clipPath>
</defs>
</svg>
