<svg width="32" height="32" viewBox="0 0 32 32" fill="none" xmlns="http://www.w3.org/2000/svg">
<rect x="5" y="2" width="22" height="28" fill="white"/>
<path d="M1.81703 31.5572C1.15079 31.2151 0.787382 30.8528 0.464353 30.1887L0 29.3031V16V2.69686L0.444164 1.81132C0.787382 1.14717 1.15079 0.784906 1.81703 0.462893L2.70536 0H16.111C29.0524 0 29.5167 0.0201258 30.2839 0.402516C30.7079 0.623899 31.2732 1.08679 31.5356 1.44906L32 2.11321V16V29.8868L31.5356 30.5509C31.2732 30.9132 30.7079 31.3761 30.2839 31.5975C29.5167 31.9799 29.0524 32 16.111 32H2.70536L1.81703 31.5572ZM24.1262 28.2365L23.1167 27.2704L23.8637 27.2101C24.5703 27.1497 24.6107 27.1094 24.6713 26.405C24.7117 26.0025 24.6915 25.3182 24.6511 24.9157C24.5905 24.2717 24.5098 24.1509 24.106 24.1509C23.6416 24.1509 23.6215 24.0906 23.6215 22.9434V21.7358H23.0158C22.4101 21.7358 22.4101 21.7157 22.4101 20.6289C22.4101 19.5421 22.4101 19.522 21.8044 19.522C21.2189 19.522 21.1987 19.5019 21.1987 18.5157C21.1987 17.5698 21.2391 17.5094 21.7035 17.5094C22.3495 17.5094 23.0158 16.8453 23.0158 16.2013C23.0158 15.9195 22.7937 15.4969 22.511 15.2553L22.0063 14.8126L22.6322 14.1686C23.2177 13.5648 23.2379 13.5044 22.8745 13.3031C22.5312 13.1019 22.5312 13.0818 22.9754 12.961C23.3994 12.8403 23.4196 12.7597 23.4196 10.1434V7.44654H22.8946C22.4303 7.44654 22.3899 7.40629 22.612 7.14465C22.8139 6.88302 22.8139 6.76226 22.5312 6.46038C22.188 6.09811 22.188 6.05786 22.5918 5.65535C23.8233 4.42767 22.0871 2.73711 20.6133 3.7434C20.1893 4.04528 20.1287 4.04528 19.5432 3.50189C18.9577 2.93836 18.9375 2.91824 18.6549 3.32075C18.3722 3.70314 18.3521 3.70314 18.2511 3.26038C18.13 2.83774 18.0492 2.81761 15.3439 2.81761C12.5779 2.81761 12.5577 2.81761 12.6789 3.26038C12.7596 3.60252 12.7192 3.66289 12.4164 3.54214C12.1943 3.46164 11.9117 3.54214 11.6896 3.7434C11.3666 4.04528 11.2858 4.04528 10.8618 3.7434C10.236 3.30063 9.36782 3.34088 8.88328 3.8239C8.35836 4.34717 8.37855 4.9912 8.92366 5.57484L9.36782 6.03774L8.78234 6.64151C8.21704 7.22516 8.21704 7.24528 8.60063 7.54717C8.98423 7.82893 8.96404 7.82893 8.54006 7.84906C8.07571 7.84906 8.07571 7.88931 8.07571 10.6868V13.5245L8.58044 13.4038C9.0448 13.283 9.06498 13.3031 8.8429 13.6654C8.64101 14.0075 8.6612 14.1283 8.98423 14.4906C9.34763 14.8931 9.34764 14.9132 8.92366 15.356C8.68139 15.6176 8.4795 16.0201 8.4795 16.2616C8.4795 16.8453 9.16593 17.5094 9.7918 17.5094C10.2562 17.5094 10.2965 17.5698 10.2965 18.4956C10.2965 19.4415 10.2562 19.5019 9.75142 19.5623C9.2265 19.6226 9.18612 19.7031 9.12555 20.6893C9.06498 21.6553 9.02461 21.7358 8.56025 21.7358C8.0959 21.7358 8.07571 21.7962 8.07571 22.9434C8.07571 24.0704 8.03533 24.1509 7.63155 24.1509C7.16719 24.1509 7.16719 24.1912 7.16719 26.6667V29.1824H16.1514H25.1356L24.1262 28.2365Z" fill="black"/>
<path d="M19.0385 28.5585C19.1192 28.2969 19.1798 27.8742 19.1798 27.6327C19.1798 27.2302 19.2808 27.1698 19.8864 27.1698C20.8151 27.1698 20.795 27.512 19.7451 28.3572C18.9577 29.0214 18.9173 29.0415 19.0385 28.5585Z" fill="black"/>
<path d="M7.85363 28.4981C7.81325 28.4579 7.79306 27.5925 7.83344 26.5862L7.89401 24.7547H8.4795C8.80253 24.7547 9.08518 24.8956 9.16593 25.0767C9.32745 25.4792 9.32745 27.8541 9.16593 28.2566C9.06499 28.5384 8.07571 28.7195 7.85363 28.4981Z" fill="black"/>
<path d="M9.87257 27.9346C9.97351 27.4113 10.1148 27.2503 10.559 27.2101C11.2454 27.1296 11.2454 27.3509 10.5388 28.0352C9.812 28.7396 9.71105 28.7195 9.87257 27.9346Z" fill="black"/>
<path d="M11.407 28.0956C11.8309 27.4516 11.7502 25.6604 11.306 25.6604C11.1445 25.6604 10.983 25.8616 10.9426 26.1233C10.882 26.4654 10.7609 26.566 10.4379 26.5258C10.0947 26.4855 10.0139 26.3044 9.97351 25.6L9.93314 24.7346L12.1741 24.795L14.4353 24.8554V25.6604C14.4353 26.244 14.3546 26.4855 14.0921 26.5258C13.87 26.566 13.7287 26.4252 13.6883 26.1233C13.648 25.8616 13.4864 25.6604 13.3249 25.6604C12.8606 25.6604 12.8404 26.8679 13.2846 27.7937L13.6681 28.5786H12.3962H11.1041L11.407 28.0956Z" fill="black"/>
<path d="M15.3035 27.8742C15.364 27.3711 15.4852 27.1698 15.7476 27.1698C15.9495 27.1698 16.1514 27.3509 16.212 27.5723C16.3331 28.0553 17.1205 28.1157 17.3022 27.6528C17.4435 27.2503 17.1003 27.0289 16.1312 26.8679C15.4044 26.7472 15.3842 26.7069 15.3035 25.8415C15.2631 25.3384 15.2833 24.8956 15.3237 24.8352C15.364 24.795 16.0101 24.7547 16.7571 24.7547C18.13 24.7547 18.5741 24.956 18.5741 25.6C18.5741 26.0226 17.9685 26.083 17.383 25.7208C16.9388 25.4591 16.2726 25.6403 16.3937 26.0226C16.4543 26.1434 16.9186 26.3447 17.4233 26.4453C18.453 26.6264 18.7357 27.0692 18.4934 28.0755C18.3722 28.5585 18.2915 28.5786 16.7975 28.5786H15.2227L15.3035 27.8742Z" fill="black"/>
<path d="M20.8757 28.1962C21.3401 27.6931 21.2593 25.6604 20.7949 25.6604C20.6334 25.6604 20.4719 25.8616 20.4315 26.1233C20.3912 26.405 20.2296 26.566 19.9672 26.566C19.6442 26.566 19.5836 26.4252 19.5836 25.6604V24.7547H21.8044H24.0252V25.6604C24.0252 26.3044 23.9445 26.566 23.7426 26.566C23.5811 26.566 23.4195 26.3648 23.3792 26.1233C23.3388 25.8616 23.1773 25.6604 23.0158 25.6604C22.5716 25.6604 22.4908 27.2704 22.8946 27.8742C23.0763 28.156 23.2177 28.4176 23.2177 28.478C23.2177 28.5384 22.612 28.5786 21.865 28.5786C20.5729 28.5786 20.5325 28.5585 20.8757 28.1962Z" fill="black"/>
<path d="M14.0719 27.8138C13.6076 27.3107 13.648 27.1698 14.2334 27.1698C14.6372 27.1698 14.7382 27.2704 14.7382 27.673C14.7382 28.2767 14.5161 28.317 14.0719 27.8138Z" fill="black"/>
<path d="M8.68138 23.2453V22.3396L15.8082 22.3799L22.9148 22.4403L22.9754 23.3057L23.036 24.151H15.8688H8.68138V23.2453Z" fill="black"/>
<path d="M9.89275 21.1321V20.327H15.8486H21.8044V21.1321V21.9371H15.8486H9.89275V21.1321Z" fill="black"/>
<path d="M11.1041 18.9182V18.1132H15.8486H20.5931V18.9182V19.7233H15.8486H11.1041V18.9182Z" fill="black"/>
<path d="M11.0637 17.0667C11.2454 16.8855 11.3666 16.8855 11.5483 17.0667C11.73 17.2478 11.6896 17.3082 11.306 17.3082C10.9224 17.3082 10.882 17.2478 11.0637 17.0667Z" fill="black"/>
<path d="M13.7287 16.5031C13.7287 15.6176 14.1931 15.356 14.4353 16.1208C14.5161 16.3421 14.6776 16.483 14.7987 16.4428C15.1823 16.322 15.2025 15.1547 14.8593 14.4503C14.6776 14.1082 14.5363 13.7862 14.5363 13.7459C14.5363 13.7258 15.0814 13.6855 15.7678 13.6855H16.9792L16.6763 14.1283C16.2322 14.7321 16.2322 16.5031 16.6562 16.5031C16.8379 16.5031 17.0196 16.3623 17.0801 16.2013C17.1609 16.0402 17.383 15.8994 17.5849 15.8994C17.8877 15.8994 17.9685 16.0402 17.9685 16.6038V17.3082H15.8486H13.7287V16.5031Z" fill="black"/>
<path d="M19.5836 17.2277C19.5836 17.1874 19.7047 17.0465 19.8662 16.9258C20.0681 16.7447 20.1893 16.7648 20.3912 17.0063C20.6132 17.2679 20.5527 17.3082 20.1085 17.3082C19.8259 17.3082 19.5836 17.2679 19.5836 17.2277Z" fill="black"/>
<path d="M9.32745 16.6641C8.94385 16.2818 9.0448 15.9195 9.58991 15.6579C10.0139 15.4566 10.1754 15.4767 10.458 15.7585C10.7205 16.0201 10.7407 16.1811 10.5792 16.4629C10.2965 16.8855 9.67067 17.0063 9.32745 16.6641Z" fill="black"/>
<path d="M10.882 15.3761L9.38802 13.8868L9.93313 13.3635C10.5388 12.7597 10.9628 12.8805 10.7811 13.605C10.6801 13.9472 10.7407 14.088 10.9628 14.088C11.4271 14.088 12.3155 12.9207 12.3155 12.317C12.3155 11.7937 12.3357 11.8138 13.224 12.6792L14.1123 13.5648L13.3653 13.8868C12.0126 14.5107 11.4271 15.7182 12.6183 15.4163C13.3653 15.2352 13.5268 15.7182 12.901 16.322L12.3558 16.8453L10.882 15.3761Z" fill="black"/>
<path d="M20.9969 16.6038C20.795 16.3623 20.7748 16.1811 20.9363 15.9396C21.2189 15.4767 21.6227 15.4164 22.1073 15.7786C22.4303 16.0201 22.4707 16.1409 22.289 16.4428C21.9861 16.9258 21.3401 17.0063 20.9969 16.6038Z" fill="black"/>
<path d="M18.6751 16.2214C18.1501 15.7987 18.1098 15.6981 18.352 15.4163C18.5539 15.1748 18.6953 15.1346 18.8568 15.2956C19.1798 15.6176 19.3817 15.5371 19.3817 15.1145C19.3817 14.6918 18.5943 14.0478 17.706 13.766L17.1407 13.5849L18.0694 12.6792C18.8568 11.8943 18.9779 11.8541 18.9779 12.2365C18.9779 12.7396 20.1085 14.088 20.5325 14.088C20.7748 14.088 20.8151 13.9472 20.7344 13.4843C20.5527 12.639 20.9363 12.5182 21.6227 13.2025L22.2082 13.7862L20.7344 15.2553L19.2807 16.7044L18.6751 16.2214Z" fill="black"/>
<path d="M13.547 14.8126C13.3653 14.5912 13.3855 14.5107 13.6479 14.4101C14.1123 14.2289 14.1325 14.249 14.1325 14.6918C14.1325 15.1547 13.87 15.2151 13.547 14.8126Z" fill="black"/>
<path d="M16.959 14.9132C16.959 14.8126 17.0801 14.6516 17.2214 14.5308C17.5243 14.2692 18.0694 14.551 17.8877 14.873C17.7262 15.1346 16.959 15.1748 16.959 14.9132Z" fill="black"/>
<path d="M16.5552 11.5723V10.0629H17.2618C17.8877 10.0629 17.9685 10.0025 17.9685 9.53963C17.9685 9.25787 18.0492 9.07674 18.1703 9.15724C18.2915 9.21762 18.3722 9.80127 18.3722 10.4453C18.3722 11.512 18.3117 11.6528 17.605 12.3371C17.1811 12.7396 16.7773 13.0818 16.6965 13.0818C16.6158 13.0818 16.5552 12.3975 16.5552 11.5723Z" fill="black"/>
<path d="M8.68138 10.566V8.45282H9.48895C10.3167 8.45282 10.6397 8.87546 9.99368 9.1371C9.83217 9.19747 9.69085 9.37861 9.69085 9.55974C9.69085 9.96225 10.9224 9.96225 11.7098 9.55974L12.3155 9.23773V10.4654V11.6931L11.8713 11.3912C11.3666 11.0289 9.79179 10.9484 9.5899 11.2704C9.52933 11.3711 9.65047 11.5723 9.89274 11.7132C10.1148 11.8541 10.2965 12.1358 10.2965 12.317C10.2965 12.5987 10.135 12.6792 9.48895 12.6792H8.68138V10.566Z" fill="black"/>
<path d="M11.2454 12.5384C10.9628 12.2767 11.1041 11.6931 11.4069 11.7937C11.5685 11.8742 11.7098 12.0956 11.7098 12.2969C11.7098 12.6793 11.4877 12.8 11.2454 12.5384Z" fill="black"/>
<path d="M14.6372 12.478C14.5565 12.3371 14.6978 12.317 15.0814 12.3975C15.8486 12.5786 15.9293 12.6793 15.2833 12.6793C15.0006 12.6793 14.6978 12.5786 14.6372 12.478Z" fill="black"/>
<path d="M19.7249 12.3975C19.6442 12.1962 19.7653 11.995 20.0076 11.8541C20.371 11.673 20.4114 11.6931 20.3508 12.0956C20.27 12.639 19.8864 12.8201 19.7249 12.3975Z" fill="black"/>
<path d="M20.9968 12.1157C20.9968 11.8742 21.1785 11.673 21.4208 11.6126C21.6631 11.5522 21.8044 11.3912 21.764 11.2302C21.6227 10.888 20.0681 11.0088 19.4423 11.4113L18.9779 11.7132V10.4855C18.9779 9.82138 19.0183 9.25786 19.0385 9.25786C19.0789 9.25786 19.4019 9.39874 19.7451 9.57987C20.5729 9.98239 21.6833 9.88176 21.764 9.41887C21.8044 9.15723 21.7035 9.0566 21.4208 9.0566C21.1382 9.0566 20.9968 8.93585 20.9968 8.65409C20.9968 8.31195 21.1382 8.25157 21.8044 8.25157H22.6322L22.5716 10.3245L22.511 12.3774L21.764 12.4377C21.118 12.4981 20.9968 12.4377 20.9968 12.1157Z" fill="black"/>
<path d="M13.3855 11.834C12.7596 11.1698 12.7394 9.49937 13.3249 8.95597C13.547 8.75471 13.7893 8.63396 13.8297 8.69434C13.8902 8.75471 13.9306 9.6 13.8902 10.566L13.8297 12.317L13.3855 11.834Z" fill="black"/>
<path d="M14.9603 12.1359C14.5767 12.0554 14.5363 11.995 14.7584 11.834C14.9804 11.6931 14.9805 11.6126 14.7987 11.5321C14.617 11.4717 14.5565 10.9887 14.5767 10.0025L14.617 8.55347L14.718 9.96227C14.8189 11.1899 14.8795 11.3711 15.2429 11.3711C15.6063 11.3711 15.6669 11.1899 15.7678 9.96227L15.8688 8.55347L15.9092 9.88177C15.9495 10.8679 15.8688 11.2906 15.6467 11.4717C15.3842 11.6931 15.3842 11.7535 15.6871 11.995C16.0707 12.2767 15.9293 12.317 14.9603 12.1359Z" fill="black"/>
<path d="M16.3331 9.0566C16.1312 8.91572 16.111 8.81509 16.2927 8.63396C16.5956 8.33207 17.2416 8.47295 17.3224 8.85534C17.383 9.2176 16.7975 9.31823 16.3331 9.0566Z" fill="black"/>
<path d="M10.9022 8.77484C10.9022 8.63396 11.0435 8.39245 11.205 8.25157C11.4473 8.05031 11.5281 8.07044 11.629 8.31195C11.6896 8.49308 11.6896 8.73459 11.6088 8.85534C11.4271 9.15723 10.9022 9.09685 10.9022 8.77484Z" fill="black"/>
<path d="M19.7451 8.93585C19.6845 8.87547 19.6644 8.65409 19.7249 8.43271C19.8057 8.13082 19.8864 8.09057 20.1085 8.2717C20.4719 8.57358 20.4719 9.0566 20.1287 9.0566C19.9672 9.0566 19.8057 8.99623 19.7451 8.93585Z" fill="black"/>
<path d="M12.3155 8.45282C12.3155 8.23144 12.0126 7.70817 11.629 7.28553C11.0839 6.70188 10.882 6.60125 10.6801 6.78238C10.4782 6.98364 10.4984 7.1044 10.7003 7.3459C10.9224 7.60754 10.9224 7.70817 10.6801 7.9698C10.4177 8.21131 10.2965 8.19119 9.7918 7.64779L9.20631 7.02389L10.6599 5.59496L12.0934 4.1459L12.6587 4.54842C13.4461 5.13207 13.4057 5.55471 12.5779 5.47421C12.0934 5.45408 11.9117 5.51446 11.9117 5.73584C11.9117 6.07798 13.2644 7.04402 13.7691 7.04402C14.3142 7.04402 14.2133 7.28553 13.3653 8.11068C12.4972 8.95597 12.3155 9.01635 12.3155 8.45282Z" fill="black"/>
<path d="M18.0896 8.07043L17.3022 7.2654L17.9887 6.98364C18.8568 6.62137 19.4625 5.9371 19.301 5.53458C19.2202 5.29307 19.0991 5.25282 18.7962 5.41383C18.5136 5.57483 18.3521 5.55471 18.1905 5.35345C18.029 5.17232 18.1098 4.97106 18.5338 4.56854L19.0991 4.02515L20.5527 5.49433L22.0063 6.94339L21.4814 7.50691C21.0574 7.94968 20.8959 8.03018 20.6738 7.82892C20.4517 7.64779 20.4316 7.52703 20.6133 7.30565C20.795 7.10439 20.795 6.96351 20.6334 6.80251C20.3104 6.48049 19.624 7.12452 19.2 8.11068L18.877 8.87546L18.0896 8.07043Z" fill="black"/>
<path d="M14.4353 7.84905C14.4959 7.74842 14.8795 7.6478 15.2631 7.6478C15.6467 7.6478 15.9495 7.74842 15.9495 7.84905C15.9495 7.96981 15.5861 8.05031 15.1218 8.05031C14.6372 8.05031 14.3546 7.96981 14.4353 7.84905Z" fill="black"/>
<path d="M14.8593 6.44024C15.2227 5.73584 15.1621 4.38741 14.7785 4.26665C14.6372 4.2264 14.4555 4.36728 14.3949 4.60879C14.3344 4.8503 14.1325 5.03143 13.9104 5.03143C13.6076 5.03143 13.5268 4.89055 13.5268 4.2264V3.40125L15.6063 3.46162L17.6656 3.522L17.7262 4.28678C17.7867 4.93081 17.7262 5.03143 17.383 5.03143C17.1407 5.03143 16.959 4.89055 16.959 4.70942C16.959 4.52829 16.8177 4.42766 16.6158 4.46791C16.3331 4.52829 16.2725 4.70942 16.3129 5.33332C16.3533 5.77609 16.5148 6.33961 16.6763 6.60125C16.959 7.04401 16.959 7.04401 15.7678 7.04401H14.5767L14.8593 6.44024Z" fill="black"/>
<path d="M13.4662 6.3195C13.2845 6.11824 13.7085 5.63522 14.0719 5.63522C14.4555 5.63522 14.3142 6.3195 13.9104 6.4C13.7489 6.42013 13.547 6.4 13.4662 6.3195Z" fill="black"/>
<path d="M17.1609 6.03774C17.1609 5.57485 17.3628 5.51447 17.7262 5.87674C18.0896 6.239 18.029 6.44026 17.5647 6.44026C17.3022 6.44026 17.1609 6.29938 17.1609 6.03774Z" fill="black"/>
<path d="M9.26688 5.11196C8.92366 4.68932 9.26688 4.12579 9.89275 4.12579C10.5186 4.12579 10.8618 4.68932 10.5186 5.11196C10.3571 5.29309 10.0946 5.43397 9.89275 5.43397C9.69085 5.43397 9.42839 5.29309 9.26688 5.11196Z" fill="black"/>
<path d="M20.9767 5.11196C20.6334 4.68932 20.9767 4.12579 21.6025 4.12579C22.2284 4.12579 22.5716 4.68932 22.2284 5.11196C22.0669 5.29309 21.8044 5.43397 21.6025 5.43397C21.4006 5.43397 21.1382 5.29309 20.9767 5.11196Z" fill="black"/>
</svg>
