<svg width="100" height="33" viewBox="0 0 100 33" fill="none" xmlns="http://www.w3.org/2000/svg">
<g clip-path="url(#clip0)">
<path d="M1.80361 31.6935C1.14228 31.3514 0.781563 30.9891 0.460922 30.325L0 29.4394V16.1363V2.83313L0.440882 1.9476C0.781563 1.28345 1.14228 0.921182 1.80361 0.599169L2.68537 0.136276H15.992C28.8377 0.136276 29.2986 0.156402 30.0601 0.538792C30.481 0.760176 31.0421 1.22307 31.3026 1.58533L31.7635 2.24948V16.1363V30.0231L31.3026 30.6872C31.0421 31.0495 30.481 31.5124 30.0601 31.7338C29.2986 32.1161 28.8377 32.1363 15.992 32.1363H2.68537L1.80361 31.6935ZM23.9479 28.3728L22.9459 27.4067L23.6874 27.3463C24.3888 27.286 24.4289 27.2457 24.489 26.5413C24.5291 26.1388 24.509 25.4545 24.4689 25.052C24.4088 24.408 24.3287 24.2872 23.9279 24.2872C23.4669 24.2872 23.4469 24.2268 23.4469 23.0797V21.8721H22.8457C22.2445 21.8721 22.2445 21.852 22.2445 20.7652C22.2445 19.6784 22.2445 19.6583 21.6433 19.6583C21.0621 19.6583 21.0421 19.6382 21.0421 18.652C21.0421 17.7061 21.0822 17.6457 21.5431 17.6457C22.1844 17.6457 22.8457 16.9816 22.8457 16.3375C22.8457 16.0558 22.6252 15.6331 22.3447 15.3916L21.8437 14.9489L22.4649 14.3048C23.0461 13.7011 23.0661 13.6407 22.7054 13.4394C22.3647 13.2382 22.3647 13.218 22.8056 13.0973C23.2265 12.9765 23.2465 12.896 23.2465 10.2797V7.58282H22.7255C22.2645 7.58282 22.2244 7.54257 22.4449 7.28093C22.6453 7.01929 22.6453 6.89854 22.3647 6.59665C22.024 6.23439 22.024 6.19414 22.4249 5.79162C23.6473 4.56395 21.9238 2.87338 20.4609 3.87967C20.0401 4.18156 19.98 4.18156 19.3988 3.63816C18.8176 3.07464 18.7976 3.05452 18.517 3.45703C18.2365 3.83942 18.2164 3.83942 18.1162 3.39665C17.996 2.97401 17.9158 2.95389 15.2305 2.95389C12.485 2.95389 12.4649 2.95389 12.5852 3.39665C12.6653 3.73879 12.6253 3.79917 12.3246 3.67841C12.1042 3.59791 11.8236 3.67841 11.6032 3.87967C11.2826 4.18156 11.2024 4.18156 10.7816 3.87967C10.1603 3.43691 9.2986 3.47716 8.81764 3.96018C8.29659 4.48345 8.31663 5.12747 8.85772 5.71112L9.2986 6.17401L8.71743 6.77779C8.15631 7.36143 8.15631 7.38156 8.53707 7.68345C8.91784 7.96521 8.8978 7.96521 8.47695 7.98533C8.01603 7.98533 8.01603 8.02558 8.01603 10.8231V13.6608L8.51703 13.54C8.97796 13.4193 8.998 13.4394 8.77755 13.8017C8.57715 14.1438 8.59719 14.2646 8.91784 14.6268C9.27856 15.0294 9.27856 15.0495 8.85772 15.4923C8.61723 15.7539 8.41683 16.1564 8.41683 16.3979C8.41683 16.9816 9.0982 17.6457 9.71944 17.6457C10.1804 17.6457 10.2204 17.7061 10.2204 18.6319C10.2204 19.5778 10.1804 19.6382 9.67936 19.6985C9.15832 19.7589 9.11824 19.8394 9.05812 20.8256C8.998 21.7916 8.95792 21.8721 8.49699 21.8721C8.03607 21.8721 8.01603 21.9325 8.01603 23.0797C8.01603 24.2067 7.97595 24.2872 7.57515 24.2872C7.11423 24.2872 7.11423 24.3275 7.11423 26.8029V29.3187H16.0321H24.9499L23.9479 28.3728Z" fill="black"/>
<path d="M18.8978 28.6948C18.978 28.4331 19.0381 28.0105 19.0381 27.769C19.0381 27.3665 19.1383 27.3061 19.7395 27.3061C20.6613 27.3061 20.6413 27.6482 19.5992 28.4935C18.8176 29.1577 18.7776 29.1778 18.8978 28.6948Z" fill="black"/>
<path d="M7.7956 28.6344C7.75552 28.5941 7.73547 27.7287 7.77555 26.7224L7.83567 24.891H8.41684C8.73748 24.891 9.01804 25.0319 9.0982 25.213C9.25852 25.6155 9.25852 27.9904 9.0982 28.3929C8.998 28.6746 8.01604 28.8558 7.7956 28.6344Z" fill="black"/>
<path d="M9.7996 28.0709C9.8998 27.5476 10.0401 27.3866 10.481 27.3463C11.1623 27.2658 11.1623 27.4872 10.4609 28.1715C9.73948 28.8759 9.63928 28.8558 9.7996 28.0709Z" fill="black"/>
<path d="M11.3227 28.2319C11.7435 27.5879 11.6633 25.7967 11.2225 25.7967C11.0621 25.7967 10.9018 25.9979 10.8617 26.2596C10.8016 26.6017 10.6814 26.7023 10.3607 26.6621C10.02 26.6218 9.93989 26.4407 9.89981 25.7363L9.85973 24.8709L12.0842 24.9313L14.3287 24.9916V25.7967C14.3287 26.3803 14.2485 26.6218 13.988 26.6621C13.7675 26.7023 13.6273 26.5614 13.5872 26.2596C13.5471 25.9979 13.3868 25.7967 13.2265 25.7967C12.7655 25.7967 12.7455 27.0042 13.1864 27.93L13.5671 28.7149H12.3046H11.022L11.3227 28.2319Z" fill="black"/>
<path d="M15.1904 28.0105C15.2505 27.5073 15.3707 27.3061 15.6313 27.3061C15.8317 27.3061 16.0321 27.4872 16.0922 27.7086C16.2124 28.1916 16.994 28.252 17.1743 27.7891C17.3146 27.3866 16.9739 27.1652 16.012 27.0042C15.2906 26.8834 15.2705 26.8432 15.1904 25.9778C15.1503 25.4746 15.1703 25.0319 15.2104 24.9715C15.2505 24.9312 15.8918 24.891 16.6333 24.891C17.996 24.891 18.4369 25.0922 18.4369 25.7363C18.4369 26.1589 17.8357 26.2193 17.2545 25.857C16.8136 25.5954 16.1523 25.7765 16.2725 26.1589C16.3327 26.2797 16.7936 26.4809 17.2946 26.5816C18.3166 26.7627 18.5972 27.2055 18.3567 28.2117C18.2365 28.6948 18.1563 28.7149 16.6733 28.7149H15.1102L15.1904 28.0105Z" fill="black"/>
<path d="M20.7214 28.3325C21.1824 27.8294 21.1022 25.7967 20.6413 25.7967C20.481 25.7967 20.3206 25.9979 20.2806 26.2595C20.2405 26.5413 20.0802 26.7023 19.8196 26.7023C19.499 26.7023 19.4389 26.5614 19.4389 25.7967V24.891H21.6433H23.8477V25.7967C23.8477 26.4407 23.7675 26.7023 23.5671 26.7023C23.4068 26.7023 23.2465 26.5011 23.2064 26.2595C23.1663 25.9979 23.006 25.7967 22.8457 25.7967C22.4048 25.7967 22.3246 27.4067 22.7254 28.0105C22.9058 28.2922 23.0461 28.5539 23.0461 28.6143C23.0461 28.6746 22.4449 28.7149 21.7034 28.7149C20.4208 28.7149 20.3808 28.6948 20.7214 28.3325Z" fill="black"/>
<path d="M13.9679 27.9501C13.507 27.447 13.5471 27.3061 14.1283 27.3061C14.5291 27.3061 14.6293 27.4067 14.6293 27.8092C14.6293 28.413 14.4088 28.4533 13.9679 27.9501Z" fill="black"/>
<path d="M8.61723 23.3816V22.4759L15.6914 22.5161L22.7455 22.5765L22.8056 23.4419L22.8657 24.2872H15.7515H8.61723V23.3816Z" fill="black"/>
<path d="M9.81964 21.2683V20.4633H15.7315H21.6433V21.2683V22.0734H15.7315H9.81964V21.2683Z" fill="black"/>
<path d="M11.022 19.0545V18.2495H15.7315H20.4409V19.0545V19.8595H15.7315H11.022V19.0545Z" fill="black"/>
<path d="M10.982 17.2029C11.1623 17.0218 11.2826 17.0218 11.4629 17.2029C11.6433 17.3841 11.6032 17.4445 11.2224 17.4445C10.8417 17.4445 10.8016 17.3841 10.982 17.2029Z" fill="black"/>
<path d="M13.6273 16.6394C13.6273 15.7539 14.0882 15.4922 14.3287 16.257C14.4088 16.4784 14.5691 16.6193 14.6894 16.579C15.0701 16.4583 15.0902 15.291 14.7495 14.5866C14.5691 14.2445 14.4289 13.9224 14.4289 13.8822C14.4289 13.8621 14.9699 13.8218 15.6513 13.8218H16.8537L16.5531 14.2646C16.1122 14.8683 16.1122 16.6394 16.5331 16.6394C16.7134 16.6394 16.8938 16.4985 16.9539 16.3375C17.0341 16.1765 17.2545 16.0356 17.4549 16.0356C17.7555 16.0356 17.8357 16.1765 17.8357 16.74V17.4444H15.7315H13.6273V16.6394Z" fill="black"/>
<path d="M19.4389 17.364C19.4389 17.3237 19.5591 17.1828 19.7194 17.0621C19.9198 16.8809 20.0401 16.9011 20.2405 17.1426C20.4609 17.4042 20.4008 17.4445 19.9599 17.4445C19.6794 17.4445 19.4389 17.4042 19.4389 17.364Z" fill="black"/>
<path d="M9.25851 16.8004C8.87775 16.418 8.97795 16.0558 9.51903 15.7941C9.93987 15.5929 10.1002 15.613 10.3808 15.8948C10.6413 16.1564 10.6613 16.3174 10.501 16.5992C10.2204 17.0218 9.59919 17.1426 9.25851 16.8004Z" fill="black"/>
<path d="M10.8016 15.5124L9.31863 14.0231L9.85972 13.4998C10.4609 12.896 10.8818 13.0168 10.7014 13.7413C10.6012 14.0834 10.6613 14.2243 10.8818 14.2243C11.3427 14.2243 12.2244 13.057 12.2244 12.4533C12.2244 11.93 12.2445 11.9501 13.1262 12.8155L14.008 13.7011L13.2665 14.0231C11.9238 14.647 11.3427 15.8545 12.525 15.5526C13.2665 15.3715 13.4269 15.8545 12.8056 16.4583L12.2645 16.9816L10.8016 15.5124Z" fill="black"/>
<path d="M20.8417 16.74C20.6413 16.4985 20.6212 16.3174 20.7816 16.0759C21.0621 15.613 21.4629 15.5526 21.9439 15.9149C22.2645 16.1564 22.3046 16.2772 22.1243 16.579C21.8236 17.0621 21.1824 17.1426 20.8417 16.74Z" fill="black"/>
<path d="M18.5371 16.3577C18.016 15.935 17.976 15.8344 18.2164 15.5526C18.4168 15.3111 18.5571 15.2709 18.7174 15.4319C19.0381 15.7539 19.2385 15.6734 19.2385 15.2507C19.2385 14.8281 18.4569 14.1841 17.5752 13.9023L17.014 13.7212L17.9359 12.8155C18.7174 12.0306 18.8377 11.9904 18.8377 12.3728C18.8377 12.8759 19.9599 14.2243 20.3808 14.2243C20.6212 14.2243 20.6613 14.0834 20.5812 13.6206C20.4008 12.7753 20.7816 12.6545 21.4629 13.3388L22.0441 13.9224L20.5812 15.3916L19.1383 16.8407L18.5371 16.3577Z" fill="black"/>
<path d="M13.4469 14.9489C13.2665 14.7275 13.2866 14.647 13.5471 14.5463C14.008 14.3652 14.0281 14.3853 14.0281 14.8281C14.0281 15.291 13.7675 15.3514 13.4469 14.9489Z" fill="black"/>
<path d="M16.8337 15.0495C16.8337 14.9489 16.9539 14.7878 17.0942 14.6671C17.3948 14.4055 17.9359 14.6872 17.7555 15.0092C17.5952 15.2709 16.8337 15.3111 16.8337 15.0495Z" fill="black"/>
<path d="M16.4329 11.7086V10.1992H17.1343C17.7555 10.1992 17.8357 10.1388 17.8357 9.6759C17.8357 9.39414 17.9158 9.21301 18.0361 9.29351C18.1563 9.35389 18.2365 9.93753 18.2365 10.5816C18.2365 11.6482 18.1764 11.7891 17.475 12.4734C17.0541 12.8759 16.6533 13.218 16.5731 13.218C16.493 13.218 16.4329 12.5338 16.4329 11.7086Z" fill="black"/>
<path d="M8.61723 10.7023V8.5891H9.41884C10.2405 8.5891 10.5611 9.01175 9.91984 9.27338C9.75952 9.33376 9.61924 9.51489 9.61924 9.69602C9.61924 10.0985 10.8417 10.0985 11.6232 9.69602L12.2244 9.37401V10.6017V11.8294L11.7836 11.5275C11.2826 11.1652 9.71944 11.0847 9.51904 11.4067C9.45892 11.5073 9.57916 11.7086 9.81964 11.8495C10.0401 11.9904 10.2204 12.2721 10.2204 12.4533C10.2204 12.735 10.0601 12.8155 9.41884 12.8155H8.61723V10.7023Z" fill="black"/>
<path d="M11.1623 12.6746C10.8818 12.413 11.0221 11.8294 11.3227 11.93C11.483 12.0105 11.6233 12.2319 11.6233 12.4331C11.6233 12.8155 11.4028 12.9363 11.1623 12.6746Z" fill="black"/>
<path d="M14.5291 12.6143C14.4489 12.4734 14.5892 12.4533 14.9699 12.5338C15.7315 12.7149 15.8116 12.8155 15.1703 12.8155C14.8898 12.8155 14.5892 12.7149 14.5291 12.6143Z" fill="black"/>
<path d="M19.5792 12.5338C19.499 12.3325 19.6192 12.1312 19.8597 11.9904C20.2204 11.8092 20.2605 11.8294 20.2004 12.2319C20.1202 12.7753 19.7395 12.9564 19.5792 12.5338Z" fill="black"/>
<path d="M20.8417 12.252C20.8417 12.0105 21.022 11.8092 21.2625 11.7489C21.503 11.6885 21.6433 11.5275 21.6032 11.3665C21.4629 11.0243 19.9198 11.1451 19.2986 11.5476L18.8377 11.8495V10.6218C18.8377 9.95766 18.8778 9.39414 18.8978 9.39414C18.9379 9.39414 19.2585 9.53502 19.5992 9.71615C20.4208 10.1187 21.523 10.018 21.6032 9.55514C21.6433 9.29351 21.5431 9.19288 21.2625 9.19288C20.982 9.19288 20.8417 9.07212 20.8417 8.79036C20.8417 8.44823 20.982 8.38785 21.6433 8.38785H22.4649L22.4048 10.4608L22.3447 12.5136L21.6032 12.574C20.9619 12.6344 20.8417 12.574 20.8417 12.252Z" fill="black"/>
<path d="M13.2866 11.9702C12.6653 11.3061 12.6453 9.63564 13.2265 9.09225C13.4469 8.89099 13.6874 8.77024 13.7275 8.83061C13.7876 8.89099 13.8277 9.73627 13.7876 10.7023L13.7275 12.4533L13.2866 11.9702Z" fill="black"/>
<path d="M14.8497 12.2721C14.4689 12.1916 14.4289 12.1312 14.6493 11.9702C14.8697 11.8294 14.8697 11.7489 14.6894 11.6684C14.509 11.608 14.4489 11.125 14.4689 10.1388L14.509 8.68974L14.6092 10.0985C14.7094 11.3262 14.7695 11.5073 15.1303 11.5073C15.491 11.5073 15.5511 11.3262 15.6513 10.0985L15.7515 8.68974L15.7916 10.018C15.8317 11.0042 15.7515 11.4268 15.5311 11.608C15.2705 11.8294 15.2705 11.8897 15.5711 12.1312C15.9519 12.413 15.8116 12.4533 14.8497 12.2721Z" fill="black"/>
<path d="M16.2124 9.19287C16.012 9.05199 15.992 8.95136 16.1723 8.77023C16.4729 8.46835 17.1142 8.60923 17.1944 8.99161C17.2545 9.35388 16.6733 9.45451 16.2124 9.19287Z" fill="black"/>
<path d="M10.8216 8.91112C10.8216 8.77024 10.9619 8.52873 11.1222 8.38785C11.3627 8.1866 11.4429 8.20672 11.5431 8.44823C11.6032 8.62936 11.6032 8.87087 11.523 8.99163C11.3427 9.29351 10.8216 9.23314 10.8216 8.91112Z" fill="black"/>
<path d="M19.5992 9.07213C19.5391 9.01175 19.519 8.79036 19.5792 8.56898C19.6593 8.2671 19.7395 8.22684 19.9599 8.40797C20.3206 8.70986 20.3206 9.19288 19.98 9.19288C19.8196 9.19288 19.6593 9.1325 19.5992 9.07213Z" fill="black"/>
<path d="M12.2245 8.58911C12.2245 8.36772 11.9238 7.84445 11.5431 7.42181C11.002 6.83816 10.8016 6.73753 10.6012 6.91867C10.4008 7.11992 10.4208 7.24068 10.6212 7.48219C10.8417 7.74382 10.8417 7.84445 10.6012 8.10609C10.3407 8.3476 10.2204 8.32747 9.71944 7.78408L9.13828 7.16018L10.5812 5.73124L12.004 4.28219L12.5651 4.6847C13.3467 5.26835 13.3066 5.69099 12.485 5.61049C12.004 5.59036 11.8236 5.65074 11.8236 5.87213C11.8236 6.21426 13.1663 7.1803 13.6673 7.1803C14.2084 7.1803 14.1082 7.42181 13.2665 8.24697C12.4048 9.09225 12.2245 9.15263 12.2245 8.58911Z" fill="black"/>
<path d="M17.9559 8.20671L17.1743 7.40168L17.8557 7.11992C18.7174 6.75766 19.3186 6.07338 19.1583 5.67086C19.0782 5.42936 18.9579 5.3891 18.6573 5.55011C18.3768 5.71112 18.2164 5.69099 18.0561 5.48973C17.8958 5.3086 17.976 5.10734 18.3968 4.70483L18.9579 4.16143L20.4008 5.63061L21.8437 7.07967L21.3226 7.64319C20.9018 8.08596 20.7415 8.16646 20.521 7.96521C20.3006 7.78407 20.2806 7.66332 20.4609 7.44193C20.6413 7.24068 20.6413 7.0998 20.481 6.93879C20.1603 6.61678 19.479 7.2608 19.0581 8.24697L18.7375 9.01175L17.9559 8.20671Z" fill="black"/>
<path d="M14.3287 7.98533C14.3888 7.8847 14.7695 7.78407 15.1503 7.78407C15.5311 7.78407 15.8317 7.8847 15.8317 7.98533C15.8317 8.10608 15.4709 8.18659 15.01 8.18659C14.5291 8.18659 14.2485 8.10608 14.3287 7.98533Z" fill="black"/>
<path d="M14.7495 6.57652C15.1102 5.87212 15.0501 4.52369 14.6693 4.40294C14.5291 4.36269 14.3487 4.50357 14.2886 4.74508C14.2285 4.98659 14.0281 5.16772 13.8076 5.16772C13.507 5.16772 13.4269 5.02684 13.4269 4.36269V3.53753L15.491 3.59791L17.5351 3.65828L17.5952 4.42306C17.6553 5.06709 17.5952 5.16772 17.2545 5.16772C17.014 5.16772 16.8337 5.02684 16.8337 4.84571C16.8337 4.66457 16.6934 4.56394 16.493 4.6042C16.2124 4.66457 16.1523 4.84571 16.1924 5.46961C16.2325 5.91237 16.3928 6.4759 16.5531 6.73753C16.8337 7.1803 16.8337 7.1803 15.6513 7.1803H14.4689L14.7495 6.57652Z" fill="black"/>
<path d="M13.3667 6.45578C13.1864 6.25452 13.6072 5.7715 13.9679 5.7715C14.3487 5.7715 14.2084 6.45578 13.8076 6.53628C13.6473 6.55641 13.4469 6.53628 13.3667 6.45578Z" fill="black"/>
<path d="M17.0341 6.17401C17.0341 5.71112 17.2345 5.65074 17.5952 6.013C17.9559 6.37527 17.8958 6.57653 17.4349 6.57653C17.1744 6.57653 17.0341 6.43565 17.0341 6.17401Z" fill="black"/>
<path d="M9.1984 5.24823C8.85772 4.82558 9.1984 4.26206 9.81964 4.26206C10.4409 4.26206 10.7816 4.82558 10.4409 5.24823C10.2806 5.42936 10.02 5.57024 9.81964 5.57024C9.61924 5.57024 9.35872 5.42936 9.1984 5.24823Z" fill="black"/>
<path d="M20.8216 5.24823C20.481 4.82558 20.8216 4.26206 21.4429 4.26206C22.0641 4.26206 22.4048 4.82558 22.0641 5.24823C21.9038 5.42936 21.6433 5.57024 21.4429 5.57024C21.2425 5.57024 20.982 5.42936 20.8216 5.24823Z" fill="black"/>
<path d="M36.6733 28.5136V24.891H67.3347H97.996V28.5136V32.1363H67.3347H36.6733V28.5136ZM45.6914 30.9287C45.9519 30.7878 46.1122 30.7878 46.1924 30.9287C46.3727 31.2105 47.495 31.1702 47.5751 30.8885C47.6353 30.7476 47.7154 29.4797 47.7755 28.0709L47.8758 25.4948H47.0741C46.3126 25.4948 46.2926 25.5149 46.2926 26.1992C46.2926 26.8834 46.2725 26.9036 45.491 26.9036C43.9078 26.9036 43.0862 27.7287 43.0862 29.3187C43.0862 30.7476 44.4689 31.5929 45.6914 30.9287ZM52.3246 30.4658L52.4649 29.9224L51.523 30.0432C50.7816 30.1438 50.501 30.0834 50.2405 29.8218C49.6593 29.2583 49.8397 29.1375 51.3627 29.0772L52.8056 29.0168L52.7655 28.413C52.7054 27.4872 51.9038 26.9036 50.7014 26.9036C49.0581 26.9036 48.0962 28.2117 48.5371 29.8621C48.7776 30.7677 49.519 31.13 50.982 31.0696C52.1042 31.0294 52.1844 30.9891 52.3246 30.4658ZM58.3968 30.2847C58.477 29.8017 58.5371 28.8356 58.5772 28.1111L58.6172 26.8029L59.479 26.7426C60.2605 26.6822 60.3206 26.6419 60.3206 26.0784V25.4948H57.8156C56.4329 25.4948 55.3106 25.5551 55.3106 25.6558C55.3106 25.7363 55.2505 25.9979 55.1904 26.2595C55.0701 26.6621 55.1303 26.7023 56.012 26.7023H56.9539L56.8136 28.9161L56.6533 31.13H57.4749C58.2766 31.13 58.2966 31.13 58.3968 30.2847ZM64.3287 30.6067C64.6092 29.8822 64.6293 29.8822 63.6273 30.0432C62.6854 30.1841 62.1242 29.9426 62.1242 29.3992C62.1242 29.1778 62.4649 29.1174 63.5271 29.1174C64.7896 29.1174 64.9299 29.0772 64.9299 28.7149C64.9299 27.5476 64.1082 26.9036 62.6252 26.9036C61.3427 26.9036 60.7014 27.5275 60.5611 28.8759C60.481 29.8218 60.521 29.9627 61.0822 30.5262C61.6232 31.0696 61.8236 31.13 62.9058 31.13C64.0481 31.13 64.1483 31.0897 64.3287 30.6067ZM68.7375 30.8482C68.7375 30.6872 68.7976 30.4256 68.8577 30.2445C68.9579 29.9828 68.8176 29.9224 68.1162 29.9224H67.2545L68.0962 29.057C68.7375 28.413 68.9379 28.0306 68.9379 27.5476V26.9036H67.2345H65.5311V27.5073C65.5311 28.0709 65.5912 28.1111 66.2725 28.1111H67.014L66.1723 28.9765C65.5311 29.6206 65.3307 30.0029 65.3307 30.486V31.13H67.0341C68.3768 31.13 68.7375 31.0696 68.7375 30.8482ZM71.3427 29.7816C71.3427 29.0168 71.4028 28.0709 71.4629 27.6684L71.6032 26.9036H70.8016C70 26.9036 70 26.9036 69.8597 27.8294C69.7996 28.3526 69.7395 29.2985 69.7395 29.9426V31.13H70.5411H71.3427V29.7816ZM74.7094 30.8885C74.8898 30.7073 75.01 30.7073 75.1904 30.8885C75.511 31.2105 76.5531 31.1904 76.6533 30.8885C76.6934 30.7476 76.7735 29.7816 76.8136 28.7753L76.8938 26.9036H76.1523H75.4108L75.2705 28.1715C75.1503 29.4394 74.7896 30.0029 74.2285 29.7816C74.0281 29.7011 73.9479 29.2985 73.9479 28.2922V26.9036H73.1463H72.3447V28.6545C72.3447 29.9828 72.4249 30.486 72.6854 30.7677C73.0661 31.1904 74.3287 31.2709 74.7094 30.8885ZM80.3607 30.6067C80.6212 29.9426 80.6212 29.9627 80.1202 29.8822C79.7395 29.8419 79.6393 29.6809 79.5992 28.9765C79.5391 28.1715 79.5792 28.1111 80.0401 28.1111C80.4609 28.1111 80.5611 28.0105 80.5611 27.608C80.5611 27.2457 80.4609 27.1048 80.1603 27.1048C79.8397 27.1048 79.7595 26.9639 79.7595 26.4809C79.7595 25.8973 79.7395 25.8772 79.1182 25.9979C78.2365 26.1992 78.1563 26.2595 78.1563 26.7224C78.1563 26.9237 78.016 27.1048 77.8557 27.1048C77.6753 27.1048 77.5551 27.286 77.5551 27.608C77.5551 27.8897 77.6753 28.1111 77.8156 28.1111C77.9759 28.1111 78.0361 28.4533 77.996 29.2784C77.9158 30.7275 78.2164 31.13 79.3788 31.13C80.0401 31.13 80.2004 31.0495 80.3607 30.6067ZM82.6453 30.8885C82.7054 30.7476 82.7856 29.4797 82.8457 28.0709L82.9659 25.4948H82.1844H81.4228L81.2826 27.0444C81.2224 27.8897 81.1623 29.1577 81.1623 29.8621V31.13H81.8637C82.2645 31.13 82.6052 31.0092 82.6453 30.8885ZM85.5711 31.0495C85.5711 31.0092 85.6313 30.8281 85.6914 30.647C85.7715 30.4457 85.7114 30.325 85.511 30.325C85.1303 30.325 84.8697 29.9426 85.0902 29.7212C85.1904 29.6407 85.4709 29.4998 85.7315 29.4193C86.1523 29.2985 86.1723 29.3589 86.1723 30.2042C86.1723 31.13 86.1723 31.13 86.8537 31.13C87.4749 31.13 87.5351 31.0696 87.6553 30.3853C87.8757 28.9765 87.7956 27.6684 87.4349 27.2658C86.994 26.7828 84.7495 26.7426 84.2886 27.2256C83.8477 27.6684 83.8677 28.1916 84.3287 28.0105C85.0501 27.7287 85.9319 27.6683 86.0721 27.9099C86.2725 28.2319 86.1323 28.3124 85.1303 28.5338C84.1683 28.7551 83.3667 29.3992 83.3667 29.9627C83.3667 30.5665 84.0882 31.13 84.8697 31.13C85.2505 31.13 85.5711 31.0897 85.5711 31.0495ZM90.2004 29.8621C90.3407 28.4935 90.7816 27.8897 91.3427 28.2319C91.6032 28.413 91.6834 28.7551 91.6834 29.7413V31.0294L92.4048 31.0897L93.1263 31.1501L93.2665 29.9023C93.4469 28.0306 93.4268 27.7489 92.986 27.3061C92.5451 26.8633 91.4228 26.7627 90.7615 27.1048C90.501 27.2457 90.3808 27.2457 90.3808 27.1048C90.3808 27.0042 90.02 26.9036 89.5792 26.9036C88.8377 26.9036 88.7775 26.9438 88.7775 27.4671C88.7775 27.7891 88.7174 28.7551 88.6373 29.6004L88.517 31.1501L89.2986 31.0897L90.0802 31.0294L90.2004 29.8621ZM71.503 25.9577C71.5631 25.535 71.483 25.4948 70.7615 25.4948C70.02 25.4948 69.9399 25.535 69.9399 26.018C69.9399 26.4809 70 26.5212 70.7014 26.4608C71.3026 26.4206 71.4629 26.3199 71.503 25.9577ZM86.8737 25.8973C87.2345 25.4948 87.2144 25.4948 86.4128 25.4948C85.9519 25.4948 85.5711 25.535 85.5711 25.5753C85.5711 25.6155 85.511 25.7967 85.4509 25.9778C85.2705 26.4608 86.4128 26.4004 86.8737 25.8973Z" fill="black"/>
<path d="M44.6894 29.5401C44.3086 28.7954 44.9098 27.9099 45.8116 27.9099C46.1523 27.9099 46.1924 28.9564 45.8918 29.5401C45.6112 30.0432 44.9699 30.0432 44.6894 29.5401Z" fill="black"/>
<path d="M50.1002 28.3325C50.1002 28.0105 50.6413 27.7086 50.982 27.8294C51.5431 28.0507 51.3627 28.5136 50.7014 28.5136C50.3808 28.5136 50.1002 28.4331 50.1002 28.3325Z" fill="black"/>
<path d="M62.1242 28.3325C62.1242 28.0105 62.6653 27.7086 63.006 27.8294C63.5671 28.0507 63.3868 28.5136 62.7254 28.5136C62.4048 28.5136 62.1242 28.4331 62.1242 28.3325Z" fill="black"/>
<path d="M86.1723 22.7778C83.988 22.2948 81.7836 21.0671 80.4008 19.5778C78.5371 17.5652 77.7555 14.7476 78.1563 11.5275C78.7375 6.89854 81.3828 3.81929 86.0721 2.35011C87.8758 1.78659 91.5631 1.60546 94.3287 1.94759L96.3327 2.1891L96.4729 4.50357C96.5531 5.77149 96.5731 6.85829 96.5331 6.89854C96.4729 6.95892 95.6313 6.85829 94.6693 6.65703C90.0401 5.79162 86.5331 7.14005 85.1303 10.34C83.7675 13.4394 85.1503 17.1224 88.0762 18.1086C89.3186 18.5514 92.1844 18.5514 94.3888 18.1287C95.2906 17.9677 96.0721 17.8671 96.1323 17.9073C96.1723 17.9677 96.0721 18.813 95.9118 19.779C95.7315 20.7652 95.5912 21.8117 95.5912 22.0935C95.5912 22.7979 95.2705 22.8583 90.982 22.979C88.3367 23.0595 87.1543 22.9992 86.1723 22.7778Z" fill="black"/>
<path d="M43.1663 21.1275C43.507 17.0621 43.6874 14.2042 43.8076 10.5212L43.9479 6.53628L40.6814 6.61678L37.4148 6.69728L37.5551 5.18785C37.6152 4.36269 37.6753 3.3564 37.6753 2.91364V2.14886H47.2946H56.9138V2.91364C56.9138 3.3564 56.8537 4.36269 56.7936 5.18785L56.6733 6.67716L53.507 6.61678L50.3607 6.5564L50.2204 8.52873C49.98 11.9904 49.6994 18.491 49.6994 20.6243V22.6772H46.3727H43.026L43.1663 21.1275Z" fill="black"/>
<path d="M58.1162 22.335C58.1162 22.1338 58.2565 20.3426 58.4168 18.3501C58.5772 16.3577 58.8176 11.8897 58.9579 8.44823L59.1984 2.14886H67.5952H76.012L75.8717 3.1954C75.8116 3.77905 75.7515 4.78534 75.7515 5.42936V6.57653H70.6613H65.5912L65.4509 7.6432C65.3908 8.20672 65.3307 8.99162 65.3307 9.35389V9.99791H69.6593H74.008L73.8878 11.3665C73.8076 12.1111 73.7475 13.1375 73.7475 13.6809V14.6268H69.3387H64.9299V16.5388V18.4306L68.998 18.33C71.2224 18.2897 73.5271 18.2092 74.1283 18.1489L75.2104 18.0684L75.0701 19.5979C75.01 20.4432 74.9499 21.4696 74.9499 21.9124V22.6772H66.5331C58.6573 22.6772 58.1162 22.657 58.1162 22.335Z" fill="black"/>
<path d="M98.2365 3.23565C97.495 2.71238 97.7355 1.3237 98.5972 1.36395C98.7776 1.36395 98.7174 1.44446 98.4569 1.54508C97.8357 1.78659 97.8156 2.85326 98.3968 3.15515C99.4188 3.69854 100.301 2.43062 99.3988 1.70609C99.0581 1.44446 99.0381 1.34383 99.2786 1.34383C99.6192 1.34383 100 1.92747 100 2.43062C100 2.81301 99.2986 3.55766 98.9379 3.55766C98.7976 3.55766 98.477 3.41678 98.2365 3.23565Z" fill="black"/>
<path d="M98.3968 2.41049C98.3968 1.88722 98.4769 1.74634 98.7776 1.74634C99.2385 1.74634 99.499 2.06835 99.1984 2.24948C99.0381 2.35011 99.0581 2.47087 99.2184 2.67212C99.3587 2.85326 99.3788 2.95388 99.2385 2.95388C99.1182 2.95388 98.978 2.83313 98.9379 2.71238C98.8577 2.51112 98.7776 2.53124 98.6172 2.75263C98.4569 2.99414 98.3968 2.91363 98.3968 2.41049Z" fill="black"/>
</g>
<defs>
<clipPath id="clip0">
<rect width="100" height="32" fill="white" transform="translate(0 0.136276)"/>
</clipPath>
</defs>
</svg>
