<svg width="32" height="32" viewBox="0 0 32 32" fill="none" xmlns="http://www.w3.org/2000/svg">
<g clip-path="url(#clip0)">
<path d="M29.0909 4.8L29.0909 21.6L2.90909 21.6L2.90909 4.8L29.0909 4.8ZM29.0909 2L2.90909 2C2.13755 2 1.39761 2.295 0.852049 2.8201C0.306488 3.3452 -3.8147e-06 4.05739 -3.8147e-06 4.8L-3.8147e-06 21.6C-3.8147e-06 22.342 0.30545 23.056 0.858177 23.574C1.39636 24.106 2.13818 24.4 2.90909 24.4H13.0909V27.2H10.1818V30L21.8182 30V27.2H18.9091V24.4H29.0909C29.8618 24.4 30.6036 24.106 31.1418 23.574C31.6945 23.056 32 22.342 32 21.6L32 4.8C32 3.246 30.7055 2 29.0909 2ZM17.6873 11.702C17.2364 11.282 16.6255 11.03 16 11.03C15.3745 11.044 14.7636 11.282 14.3127 11.716C13.8764 12.136 13.6145 12.724 13.6145 13.326C13.6145 13.942 13.8764 14.516 14.3127 14.95C14.7636 15.384 15.3745 15.622 16 15.622C16.6255 15.622 17.2364 15.37 17.6873 14.95C18.1236 14.516 18.3855 13.942 18.3855 13.326C18.3855 12.724 18.1236 12.136 17.6873 11.702ZM18.8073 16C18.4437 16.3635 18.0077 16.6526 17.5254 16.8501C17.043 17.0476 16.5242 17.1494 16 17.1494C15.4758 17.1494 14.957 17.0476 14.4746 16.8501C13.9923 16.6526 13.5563 16.3635 13.1927 16C12.4509 15.3 12.0291 14.334 12.0291 13.326C12.0291 12.318 12.4509 11.338 13.1927 10.624C13.9345 9.91 14.9527 9.504 16 9.504C17.0473 9.504 18.0655 9.91 18.8073 10.624C19.5491 11.338 19.9709 12.318 19.9709 13.326C19.9709 14.334 19.5491 15.3 18.8073 16ZM24.7273 13.326C24.038 11.6386 22.8369 10.1899 21.2803 9.16864C19.7238 8.14737 17.8838 7.60077 16 7.6C12.0291 7.6 8.64 9.98 7.27272 13.326C7.95708 15.0167 9.15697 16.4684 10.7146 17.4904C12.2723 18.5124 14.1149 19.0568 16 19.052C19.9709 19.052 23.36 16.7 24.7273 13.326Z" fill="black"/>
</g>
<defs>
<clipPath id="clip0">
<rect width="32" height="32" fill="white"/>
</clipPath>
</defs>
</svg>
