<svg width="64" height="64" viewBox="0 0 64 64" fill="none" xmlns="http://www.w3.org/2000/svg">
<path fill-rule="evenodd" clip-rule="evenodd" d="M29.7622 10.9596L19.5969 11.7071L9.79844 17.4126L0 23.1182L2.40137 23.1687L4.80274 23.2192V30.7228V38.2262L4.3493 38.8932C3.5446 40.0761 3.077 42.53 3.26524 44.5809C3.70561 49.3785 6.14184 50.9114 7.5579 47.2819C8.0413 46.0427 8.21719 42.9144 7.89517 41.281C7.67553 40.1676 6.97848 38.5554 6.62142 38.3351C6.50071 38.2605 6.43645 35.6169 6.43645 30.7149V23.2087H9.08796C11.5029 23.2087 11.7289 23.2361 11.6217 23.5148C11.4686 23.913 11.4686 27.395 11.6217 27.7931C11.7219 28.0532 12.0216 28.0992 13.6168 28.0992C18.1238 28.0992 23.0729 29.2262 25.3759 30.7772L26.1618 31.3064L26.7206 30.1103C27.6667 28.0854 29.4474 25.7835 32.234 22.9834L34.8918 20.3129L34.3462 19.4514C34.0461 18.9776 33.5678 18.2953 33.283 17.9352C32.7976 17.3208 32.7849 17.2634 33.0792 17.0089C33.2516 16.8597 35.2306 15.4094 37.4769 13.7861C39.7233 12.1628 41.756 10.6846 41.9941 10.5012C42.4263 10.1681 42.4252 10.1675 41.1773 10.1898C40.4898 10.2019 35.3531 10.5484 29.7622 10.9596ZM31.0279 14.4057C30.831 14.5452 29.0361 15.8475 27.0393 17.2998L23.4089 19.9406L17.7907 19.9444C14.4554 19.9468 12.2427 19.8821 12.345 19.7854C12.4398 19.6958 14.3554 18.5554 16.6017 17.2514C19.8955 15.3393 20.8265 14.877 21.4121 14.8631C21.8115 14.8535 23.9353 14.7013 26.1317 14.5247C28.3281 14.3481 30.4089 14.192 30.7557 14.1779C31.3429 14.1541 31.3616 14.1695 31.0279 14.4057ZM44.7515 20.1357C42.6863 20.5648 40.402 21.5891 38.7525 22.826C38.2061 23.2357 37.7071 23.571 37.6436 23.571C37.5802 23.571 37.23 23.1227 36.8654 22.5748C36.5009 22.0269 36.1316 21.5786 36.0449 21.5786C35.5931 21.5786 32.1401 25.6415 30.5032 28.0992L29.4777 29.6388L29.8922 29.9054C30.7135 30.4338 31.5585 31.472 32.1073 32.6274L32.6665 33.8047L32.719 43.9932L32.7715 54.1816H37.6583H42.545L42.5977 44.1557L42.6503 34.1299L43.2857 32.8873C44.3822 30.7428 46.4411 29.5823 48.809 29.7743C51.5016 29.9923 53.5423 31.9424 54.0006 34.735C54.0965 35.3191 54.1754 39.9336 54.176 44.9894L54.177 54.1816H59.0885H64L63.9365 43.2687C63.8753 32.7509 63.8588 32.3052 63.4819 30.9605C62.0757 25.9432 58.3461 22.0823 53.3602 20.4826C52.2725 20.1335 51.619 20.0673 48.8221 20.0218C47.025 19.9928 45.1933 20.0441 44.7515 20.1357ZM52.0875 23.5705C55.8718 24.5362 59.1323 27.7469 60.2731 31.6312C60.5543 32.5881 60.601 33.8051 60.6641 41.8197L60.7358 50.9213H59.0902H57.4445L57.4388 43.2687C57.4358 39.0596 57.3539 35.0056 57.2568 34.2595C56.7972 30.7236 54.0803 27.6431 50.631 26.7467C49.2683 26.3926 47.4687 26.3924 46.1069 26.7464C42.8068 27.604 40.0927 30.4937 39.4889 33.7928C39.3668 34.4599 39.2921 37.9113 39.2921 42.8945V50.9213H37.6666H36.0411L35.985 42.1819C35.9312 33.768 35.9144 33.3995 35.5353 32.2883C35.3186 31.6537 34.8452 30.6553 34.4831 30.0699L33.8247 29.0056L34.6978 27.8853C35.1779 27.2689 35.6252 26.6844 35.6915 26.5862C35.759 26.4861 36.2231 26.7764 36.7468 27.2461L37.6815 28.0847L39.4147 26.564C41.2894 24.919 43.0273 23.9361 44.8308 23.5011C46.5304 23.0912 50.3524 23.1278 52.0875 23.5705ZM12.0789 30.4086C11.9796 30.7822 11.8012 31.4546 11.6821 31.9029C11.5307 32.4729 11.4421 35.9455 11.3877 43.4498L11.3098 54.1816H16.3099H21.3097L21.3609 43.9932L21.4121 33.8047L21.8411 32.9897C22.0769 32.5414 22.4424 31.9869 22.6532 31.7574C23.1562 31.2101 23.0204 31.1311 20.5953 30.5593C18.4048 30.0429 15.8045 29.7294 13.7115 29.7294H12.2592L12.0789 30.4086ZM17.2055 33.2668C18.0438 33.3577 18.2413 33.4378 18.1585 33.6531C18.1009 33.8026 18.0539 37.7492 18.0539 42.4232V50.9213H16.4202H14.7865V41.9396V32.9578L15.4672 33.055C15.8417 33.1085 16.6239 33.2039 17.2055 33.2668Z" fill="#E0E0E0"/>
</svg>
