<svg width="48" height="48" viewBox="0 0 48 48" fill="none" xmlns="http://www.w3.org/2000/svg">
<g clip-path="url(#clip0)">
<path d="M23.9994 48.0003C37.2542 48.0003 47.9994 37.2551 47.9994 24.0003C47.9994 10.7455 37.2542 0.000305176 23.9994 0.000305176C10.7446 0.000305176 -0.000595093 10.7455 -0.000595093 24.0003C-0.000595093 37.2551 10.7446 48.0003 23.9994 48.0003Z" fill="#4AB75C"/>
<path d="M18.3926 39.2681L17.7948 33.502H13.9354L13.9354 28.6706H12.25L15.442 22.3282C16.1477 17.6996 20.4517 14.5397 25.0921 15.2437C29.7326 15.9477 32.9002 20.2409 32.1944 24.8698L28.3287 33.314L28.8193 39.2681" fill="#FCD062"/>
<path d="M24.7883 13.7043V16.0536C24.7883 16.2614 25.0221 16.2935 25.1724 16.3345C27.2668 17.0454 28.5457 19.1994 28.1914 21.4194C27.8372 23.6393 25.9544 25.2698 23.7468 25.2682C21.5392 25.2682 19.6587 23.6335 19.3075 21.413C18.9563 19.1925 20.2382 17.0404 22.3336 16.3324C22.4983 16.2744 22.7491 16.2151 22.7117 16.0536V13.7043" fill="#F0F4F7"/>
<path d="M22.154 12.2681C22.4252 12.2681 22.645 12.0442 22.645 11.7681C22.645 11.4919 22.4252 11.2681 22.154 11.2681C21.8828 11.2681 21.663 11.4919 21.663 11.7681C21.663 12.0442 21.8828 12.2681 22.154 12.2681Z" fill="#406B95"/>
<path d="M25.342 10.7681C25.8943 10.7681 26.342 10.3122 26.342 9.75C26.342 9.18777 25.8943 8.73206 25.342 8.73206C24.7897 8.73206 24.342 9.18777 24.342 9.75C24.342 10.3122 24.7897 10.7681 25.342 10.7681Z" fill="#406B95"/>
<path d="M31.0215 10.819V11.6315C30.663 11.7136 30.321 11.8556 30.0098 12.0514L29.4355 11.4752L28.4062 12.5045L28.9824 13.0807C28.7852 13.3917 28.6419 13.7337 28.5586 14.0924H27.75V15.5455H28.5625C28.6438 15.9045 28.7851 16.2472 28.9805 16.5592L28.4062 17.1334L29.4355 18.1608L30.0117 17.5865C30.3222 17.7828 30.6636 17.9255 31.0215 18.0084V18.819H32.4766V18.0065C32.835 17.9243 33.177 17.7824 33.4883 17.5865L34.0645 18.1608L35.0918 17.1334L34.5176 16.5573C34.7141 16.2461 34.8567 15.9041 34.9395 15.5455H35.75V14.0924H34.9375C34.8556 13.7333 34.7136 13.3907 34.5176 13.0789L35.0918 12.5045L34.0645 11.4752L33.4883 12.0514C33.1772 11.8549 32.8351 11.7123 32.4766 11.6295V10.819H31.0215ZM31.75 14.2076C31.9061 14.2077 32.0623 14.2676 32.1816 14.3873C32.4204 14.6261 32.4204 15.0119 32.1816 15.2506C31.9429 15.4894 31.555 15.4892 31.3164 15.2506C31.0782 15.0123 31.0809 14.6259 31.3184 14.3873C31.4378 14.2679 31.5939 14.2076 31.75 14.2076H31.75Z" fill="#0C5286"/>
<path d="M32.5355 14.0328C32.1036 13.601 31.3959 13.601 30.964 14.0329C30.5322 14.4646 30.5319 15.1727 30.9637 15.6047C31.3956 16.0365 32.1035 16.0362 32.5353 15.6042C32.9672 15.1724 32.9673 14.4648 32.5355 14.0328Z" stroke="#406B95" stroke-linecap="round" stroke-linejoin="round"/>
<path d="M22.2508 13.2725H25.2492" stroke="#F0F4F7" stroke-linecap="round" stroke-linejoin="round"/>
<path d="M19.25 20.746V20.762C19.2629 20.752 19.2751 20.751 19.288 20.746H19.25ZM21.3617 21.1346C20.593 21.1246 19.8566 21.2297 19.3152 21.4921C19.5373 22.8237 20.3427 23.9863 21.5112 24.6624C22.9104 25.4702 24.6344 25.4702 26.0336 24.6624C27.2444 23.9615 28.0628 22.7399 28.25 21.3534C26.8866 21.9387 25.0036 21.7607 23.6882 21.4324C23.0248 21.2668 22.179 21.1421 21.3617 21.1348V21.1346Z" fill="#406B95"/>
</g>
<defs>
<clipPath id="clip0">
<rect width="48" height="48" fill="white"/>
</clipPath>
</defs>
</svg>
