<svg width="32" height="32" viewBox="0 0 32 32" fill="none" xmlns="http://www.w3.org/2000/svg">
<path d="M3.55556 32H28.4444C30.4053 32 32 30.4053 32 28.4444V8.88889C32.0002 8.6554 31.9543 8.42417 31.865 8.20848C31.7756 7.99278 31.6444 7.79687 31.4791 7.632L24.368 0.520891C24.2032 0.355482 24.0073 0.224303 23.7916 0.134907C23.5759 0.0455113 23.3446 -0.000336798 23.1111 1.86253e-06H3.55556C1.59467 1.86253e-06 0 1.59467 0 3.55556V28.4444C0 30.4053 1.59467 32 3.55556 32ZM21.3333 28.4444H10.6667V19.5556H21.3333V28.4444ZM17.7778 7.11111H14.2222V3.55556H17.7778V7.11111ZM3.55556 3.55556H7.11111V10.6667H21.3333V3.55556H22.3751L28.4444 9.62489L28.4462 28.4444H24.8889V19.5556C24.8889 17.5947 23.2942 16 21.3333 16H10.6667C8.70578 16 7.11111 17.5947 7.11111 19.5556V28.4444H3.55556V3.55556Z" fill="black"/>
</svg>
