<svg width="32" height="32" viewBox="0 0 32 32" fill="none" xmlns="http://www.w3.org/2000/svg">
<path d="M25.5 19.5V29.5C25.4992 29.765 25.3936 30.0189 25.2062 30.2062C25.0189 30.3936 24.765 30.4992 24.5 30.5H7.5C7.23503 30.4992 6.98113 30.3936 6.79377 30.2062C6.6064 30.0189 6.50079 29.765 6.5 29.5V19.5H25.5Z" fill="#1E81CE"/>
<path d="M19.5 3H9.5V12.5H19.5V3Z" fill="#FF5023"/>
<path d="M17.5 5.5H11.5V8H17.5V5.5Z" fill="#FFDA44"/>
<path d="M11.5 25V26.5L10.5 27.5L9.5 26.5V25H11.5Z" fill="#E0E0E2"/>
<path d="M11.5 19.5H9.5V23H11.5V19.5Z" fill="#E0E0E2"/>
<path d="M22.5 25V26.5L21.5 27.5L20.5 26.5V25H22.5Z" fill="#E0E0E2"/>
<path d="M22.5 19.5H20.5V23H22.5V19.5Z" fill="#E0E0E2"/>
<path d="M12.5 23V25H11.5H9.5H8.5V23H9.5H11.5H12.5Z" fill="#FFDA44"/>
<path d="M23.5 23V25H22.5H20.5H19.5V23H20.5H22.5H23.5Z" fill="#FFDA44"/>
<path d="M6.5 19.5V21.5H1.5V19.5C1.50079 19.235 1.6064 18.9811 1.79377 18.7938C1.98113 18.6064 2.23503 18.5008 2.5 18.5H5.5V19.5H6.5ZM26.5 19.5V18.5H29.5C29.765 18.5008 30.0189 18.6064 30.2062 18.7938C30.3936 18.9811 30.4992 19.235 30.5 19.5V21.5H25.5V19.5H26.5Z" fill="#2488FF"/>
<path d="M6.5 21.5V27H2.5C2.23503 26.9992 1.98113 26.8936 1.79377 26.7062C1.6064 26.5189 1.50079 26.265 1.5 26V21.5H6.5ZM30.5 21.5V26C30.4992 26.265 30.3936 26.5189 30.2062 26.7062C30.0189 26.8936 29.765 26.9992 29.5 27H25.5V21.5H30.5Z" fill="#003F8A"/>
<path d="M26.5 12.5H5.5V19.5H26.5V12.5Z" fill="#898890"/>
<path d="M23 1.5L24.5 4L23 5L21.5 4L23 1.5Z" fill="#B39A7C"/>
<path d="M24.5 4V12.5H21.5V4L23 5L24.5 4Z" fill="#D80027"/>
<path d="M9.5 3V12.5H7.5V4C7.50079 3.73503 7.6064 3.48113 7.79377 3.29377C7.98113 3.1064 8.23503 3.00079 8.5 3H9.5Z" fill="#FF9811"/>
<path d="M22.4922 2.54283L23.0039 1.69922L23.5078 2.54283H22.4922Z" fill="black" stroke="black" stroke-width="0.2"/>
</svg>
