<svg width="32" height="32" viewBox="0 0 32 32" fill="none" xmlns="http://www.w3.org/2000/svg">
<g clip-path="url(#clip0)">
<path d="M4 0C2.93913 0 1.92172 0.401359 1.17157 1.11578C0.421427 1.83021 0 2.79918 0 3.80952V26.6667C0 27.677 0.421427 28.646 1.17157 29.3604C1.92172 30.0748 2.93913 30.4762 4 30.4762H15.696C15.01 29.7961 14.4293 29.0265 13.9712 28.1905H4C3.57565 28.1905 3.16869 28.0299 2.86863 27.7442C2.56857 27.4584 2.4 27.0708 2.4 26.6667H13.3008C13.0498 25.9251 12.8919 25.1579 12.8304 24.381H2.4V3.80952C2.4 3.40538 2.56857 3.0178 2.86863 2.73203C3.16869 2.44626 3.57565 2.28571 4 2.28571H22.4C22.8243 2.28571 23.2313 2.44626 23.5314 2.73203C23.8314 3.0178 24 3.40538 24 3.80952V13.7432C24.832 13.8042 25.6352 13.9566 26.4 14.1912V3.80952C26.4 2.79918 25.9786 1.83021 25.2284 1.11578C24.4783 0.401359 23.4609 0 22.4 0H4Z" fill="black"/>
<path d="M32 23.619C32 21.3963 31.0729 19.2646 29.4225 17.6928C27.7722 16.1211 25.5339 15.2381 23.2 15.2381C20.8661 15.2381 18.6278 16.1211 16.9775 17.6928C15.3271 19.2646 14.4 21.3963 14.4 23.619C14.4 25.8418 15.3271 27.9735 16.9775 29.5453C18.6278 31.117 20.8661 32 23.2 32C25.5339 32 27.7722 31.117 29.4225 29.5453C31.0729 27.9735 32 25.8418 32 23.619ZM22.2624 19.9573L26.752 22.7611C26.8911 22.8462 27.0052 22.9635 27.0836 23.1022C27.162 23.2408 27.202 23.3961 27.2 23.5535C27.2002 23.712 27.1607 23.8682 27.0848 24.0091C27.0132 24.1487 26.9038 24.2676 26.768 24.3535L22.2768 27.2716C22.1986 27.3217 22.1136 27.3612 22.024 27.389C21.816 27.4522 21.5908 27.4397 21.392 27.3539C21.2774 27.3028 21.1729 27.2332 21.0832 27.1482C20.9966 27.0583 20.9263 26.9553 20.8752 26.8434C20.8252 26.729 20.7997 26.6062 20.8 26.4823V20.7558C20.7992 20.5725 20.8542 20.3928 20.9584 20.2386C21.0627 20.0845 21.2116 19.9624 21.3872 19.8872C21.5267 19.825 21.6808 19.7986 21.8344 19.8106C21.9879 19.8226 22.1355 19.8727 22.2624 19.9558V19.9573Z" fill="black"/>
<path d="M4.8 6.09524C4.8 5.6911 4.96857 5.30351 5.26863 5.01774C5.56869 4.73197 5.97566 4.57143 6.4 4.57143H19.2C19.6244 4.57143 20.0313 4.73197 20.3314 5.01774C20.6314 5.30351 20.8 5.6911 20.8 6.09524V9.14286C20.8 9.547 20.6314 9.93458 20.3314 10.2204C20.0313 10.5061 19.6244 10.6667 19.2 10.6667H6.4C5.97566 10.6667 5.56869 10.5061 5.26863 10.2204C4.96857 9.93458 4.8 9.547 4.8 9.14286V6.09524ZM7.2 8.38095H18.4V6.85714H7.2V8.38095Z" fill="black"/>
</g>
<defs>
<clipPath id="clip0">
<rect width="32" height="32" fill="white"/>
</clipPath>
</defs>
</svg>
