<svg width="32" height="32" viewBox="0 0 32 32" fill="none" xmlns="http://www.w3.org/2000/svg">
<path fill-rule="evenodd" clip-rule="evenodd" d="M29.546 6.97L27.986 6.602L23.77 10.794L21.382 8.362L25.494 4.048L25.134 2.464C24.2651 2.1733 23.3562 2.01946 22.44 2.008C21.4405 1.99263 20.4486 2.18326 19.526 2.568C18.6352 2.97122 17.83 3.54152 17.154 4.248C16.4015 4.96083 15.8055 5.82242 15.404 6.778C14.6309 8.67977 14.6309 10.8082 15.404 12.71C11.2345 16.812 7.11879 20.9683 3.058 25.178C2.638 25.728 2.438 26.414 2.49 27.104C2.53098 27.8461 2.86473 28.5417 3.418 29.038C3.666 29.308 3.962 29.532 4.292 29.694C4.632 29.844 4.998 29.93 5.368 29.948C6 29.936 6.606 29.696 7.076 29.274C10.172 26.36 16.104 20.374 19.474 16.866C20.388 17.254 21.37 17.454 22.362 17.452C23.3606 17.4512 24.3488 17.2503 25.2684 16.8611C26.188 16.4719 27.0203 15.9023 27.716 15.186C29.1451 13.7285 29.9433 11.7672 29.938 9.726C29.9611 8.79195 29.8286 7.86056 29.546 6.97ZM5.866 27.856C5.78902 27.9244 5.69623 27.9725 5.596 27.996C5.4974 28.0131 5.3966 28.0131 5.298 27.996C5.19462 27.9802 5.09615 27.9413 5.01 27.882C4.91755 27.8279 4.83938 27.7525 4.782 27.662C4.502 27.376 4.24 26.832 4.502 26.526C7.242 23.612 12.884 17.916 16.412 14.434C16.612 14.698 16.832 14.95 17.068 15.186C17.304 15.432 17.558 15.66 17.828 15.868C14.416 19.368 8.852 24.996 5.868 27.856H5.866ZM28.102 9.726C28.106 11.256 27.51 12.726 26.438 13.822C25.3683 14.8714 23.9295 15.4592 22.431 15.4592C20.9325 15.4592 19.4938 14.8714 18.424 13.822C17.64 13.0038 17.1044 11.9798 16.8796 10.8691C16.6547 9.75841 16.7499 8.60671 17.154 7.548C17.423 6.82747 17.8402 6.17141 18.3787 5.62226C18.9172 5.07311 19.5649 4.64309 20.28 4.36C20.959 4.07582 21.6879 3.9303 22.424 3.932H22.932L19.298 7.678V9.07L23.088 12.842H24.408L28.102 9.21V9.726ZM6.48 13.376H9.542L10.952 14.81L12.308 13.462L10.978 12.106V12.02L11.092 8.722L10.652 7.848L4.932 4.084L3.75 4.216L2.088 5.914L1.956 7.112L5.632 12.948L6.48 13.378V13.376ZM4.59 6.112L9.218 9.16L9.14 11.406H6.988L4.004 6.682L4.59 6.112ZM18.8 20.032L20.148 18.686L26.36 25.056C26.8832 25.6059 27.1751 26.3359 27.1751 27.095C27.1751 27.8541 26.8832 28.5841 26.36 29.134C25.9666 29.5379 25.4606 29.814 24.9081 29.9264C24.3555 30.0388 23.7819 29.9822 23.262 29.764C22.9302 29.6168 22.6325 29.4023 22.388 29.134L16.104 22.728L17.462 21.372L23.726 27.76C23.8102 27.8529 23.915 27.9248 24.032 27.97C24.2622 28.0635 24.5198 28.0635 24.75 27.97C24.8669 27.9248 24.9717 27.8528 25.056 27.76C25.1435 27.6733 25.2117 27.569 25.256 27.454C25.3019 27.3366 25.3263 27.212 25.328 27.086C25.326 26.9602 25.3023 26.8357 25.258 26.718C25.2137 26.603 25.1455 26.4987 25.058 26.412L18.8 20.032Z" fill="black"/>
</svg>
