<svg width="32" height="32" viewBox="0 0 32 32" fill="none" xmlns="http://www.w3.org/2000/svg">
<g clip-path="url(#clip0)">
<path d="M25.441 11.0545H3.25213C2.76446 11.0545 2.37433 11.4424 2.37433 11.9273V28.0242C2.37433 28.5091 2.76446 28.897 3.25213 28.897H25.441C25.9287 28.897 26.3188 28.5091 26.3188 28.0242V11.9273C26.3188 11.4424 25.9287 11.0545 25.441 11.0545Z" fill="#3B4C56"/>
<path d="M25.441 11.0545H14.3221V28.9455H25.441C25.9286 28.9455 26.3188 28.5576 26.3188 28.0727V11.9273C26.3188 11.4424 25.9286 11.0545 25.441 11.0545Z" fill="#465C6A"/>
<path d="M24.2218 13.1394H4.47128V26.8121H24.2218V13.1394Z" fill="#45BBDD"/>
<path d="M27.5381 29.1394H1.15527C0.521297 29.1394 -0.0151367 29.6727 -0.0151367 30.303C-0.0151367 30.9818 0.521297 31.5152 1.15527 31.5152H27.5381C28.172 31.5152 28.7085 30.9818 28.7085 30.3515C28.7085 29.6727 28.2208 29.1394 27.5381 29.1394Z" fill="#465C6A"/>
<path d="M27.5379 29.1394H14.3221V31.5152H27.5379C28.1719 31.5152 28.7083 30.9818 28.7083 30.3515C28.7083 29.6727 28.2207 29.1394 27.5379 29.1394Z" fill="#3B4C56"/>
<path d="M14.1272 14.6909H6.9097V25.3576H14.1272V14.6909Z" fill="#E6E6E8"/>
<path d="M21.3934 14.6909H14.1759V25.3576H21.3934V14.6909Z" fill="white"/>
<path d="M8.90908 17.3576L8.66525 17.8424H8.27512L9.25045 15.6606H9.64058L10.6159 17.8424H10.2258L9.98195 17.3576H8.90908ZM9.88442 17.0182L9.49428 16.097L9.10415 17.0182H9.88442Z" fill="#E8664A"/>
<path d="M13.0542 18.5697H8.12878V19.2485H13.0542V18.5697Z" fill="#1E87B7"/>
<path d="M20.223 16.5818H15.2975V17.697H20.223V16.5818Z" fill="#6FAC43"/>
<path d="M20.223 18.5697H15.2975V19.2485H20.223V18.5697Z" fill="#1E87B7"/>
<path d="M20.223 20.1212H15.2975V20.8H20.223V20.1212Z" fill="#1E87B7"/>
<path d="M20.223 21.6727H15.2975V22.3515H20.223V21.6727Z" fill="#1E87B7"/>
<path d="M20.223 23.2242H15.2975V23.903H20.223V23.2242Z" fill="#1E87B7"/>
<path d="M13.0542 20.1212H8.12878V20.8H13.0542V20.1212Z" fill="#1E87B7"/>
<path d="M13.0542 21.6727H8.12878V22.3515H13.0542V21.6727Z" fill="#1E87B7"/>
<path d="M13.0542 23.2242H8.12878V23.903H13.0542V23.2242Z" fill="#1E87B7"/>
<path d="M30.5127 0.484848H15.4926C15.1024 0.484848 14.8098 0.775757 14.8098 1.16364V13.4788C14.8098 13.8667 15.1024 14.1576 15.4926 14.1576H30.5615C30.9516 14.1576 31.2442 13.8667 31.2442 13.4788V1.16364C31.1955 0.775757 30.9029 0.484848 30.5127 0.484848Z" fill="#E6E6E8"/>
<path d="M30.5127 0.484848H23.0027V14.1576H30.5127C30.9029 14.1576 31.1955 13.8667 31.1955 13.4788V1.16364C31.1955 0.775757 30.9029 0.484848 30.5127 0.484848Z" fill="#D4D8DB"/>
<path d="M29.2448 4.55758H16.8093V12.2182H29.2448V4.55758Z" fill="#3B4C56"/>
<path d="M23.0514 4.55758H16.8093V12.2182H23.0514V4.55758Z" fill="#465C6A"/>
<path d="M28.7571 10.7152H17.2482V11.0061H28.7571V10.7152Z" fill="#E6E6E8"/>
<path d="M17.9797 11.3455H17.6871V11.8788H17.9797V11.3455Z" fill="#E6E6E8"/>
<path d="M18.5161 11.3455H18.2235V11.8788H18.5161V11.3455Z" fill="#E6E6E8"/>
<path d="M22.0273 6.44848V9.40606L24.3681 7.95151L22.0273 6.44848Z" fill="#E6E6E8"/>
<path d="M30.5127 0.484848H15.4926C15.1024 0.484848 14.8098 0.775757 14.8098 1.16364V3.15151H17.1506L17.2482 2.66667C17.2969 2.52121 17.3945 2.47273 17.5408 2.47273H20.0767C20.223 2.47273 20.3205 2.5697 20.3693 2.66667L20.4668 3.15151H31.1955V1.16364C31.1955 0.775757 30.9029 0.484848 30.5127 0.484848Z" fill="#A3CD44"/>
<path d="M30.5127 0.484848H23.0027V3.10303H31.1955V1.16364C31.1955 0.775757 30.9029 0.484848 30.5127 0.484848Z" fill="#6FAC43"/>
<path d="M29.4399 2.32727C29.7092 2.32727 29.9275 2.1102 29.9275 1.84242C29.9275 1.57465 29.7092 1.35757 29.4399 1.35757C29.1705 1.35757 28.9522 1.57465 28.9522 1.84242C28.9522 2.1102 29.1705 2.32727 29.4399 2.32727Z" fill="#E6E6E8"/>
<path d="M27.8793 2.32727C28.1487 2.32727 28.367 2.1102 28.367 1.84242C28.367 1.57465 28.1487 1.35757 27.8793 1.35757C27.61 1.35757 27.3917 1.57465 27.3917 1.84242C27.3917 2.1102 27.61 2.32727 27.8793 2.32727Z" fill="#E6E6E8"/>
<path d="M26.27 2.32727C26.5393 2.32727 26.7577 2.1102 26.7577 1.84242C26.7577 1.57465 26.5393 1.35757 26.27 1.35757C26.0007 1.35757 25.7823 1.57465 25.7823 1.84242C25.7823 2.1102 26.0007 2.32727 26.27 2.32727Z" fill="#E6E6E8"/>
<path d="M20.1866 24.1675L21.0486 23.3104L19.6003 21.8705L18.7383 22.7276L20.1866 24.1675Z" fill="#3B4C56"/>
<path d="M20.24 24.19L20.6883 23.7443L19.2399 22.3044L18.7917 22.7501L20.24 24.19Z" fill="#465C6A"/>
<path d="M17.9309 21.0909L18.5161 23.903L19.2476 22.4L20.7594 21.6242L17.9309 21.0909Z" fill="#3B4C56"/>
<path d="M19.2476 22.4L17.9309 21.0909L20.7594 21.6242L19.2476 22.4Z" fill="#465C6A"/>
</g>
<defs>
<clipPath id="clip0">
<rect width="32" height="32" fill="white"/>
</clipPath>
</defs>
</svg>
