<svg width="32" height="32" viewBox="0 0 32 32" fill="none" xmlns="http://www.w3.org/2000/svg">
<g clip-path="url(#clip0)">
<path d="M0 15.4795V15.4343C0.401674 10.1839 2.27615 6.24614 5.53417 3.75674C8.74756 1.22209 12.2287 1.94866e-05 16.0223 1.94866e-05C19.9944 -0.0452422 23.6987 1.31261 27.0014 4.02831C30.3487 6.69875 32 10.6818 32 15.8416V16.1584C32 21.3635 30.3487 25.2561 27.0014 27.9265C23.6541 30.6422 19.9498 32 15.9777 32H15.7992C11.9163 31.9548 8.34589 30.5969 5.04324 27.8812C1.74059 25.2108 0.0446304 21.092 0 15.4795ZM15.0404 8.37344V1.22209H13.9693C13.7462 1.49366 13.5676 1.81049 13.3891 2.08206C13.2106 2.35363 13.0321 2.6252 12.8536 2.94203C12.675 3.2136 12.4519 3.57569 12.318 3.84726C12.1395 4.11883 12.0056 4.39041 11.8717 4.70724C11.6039 5.15985 11.3808 5.61247 11.2022 6.01983C10.9791 6.42718 10.8006 6.83454 10.6667 7.19663C10.9344 7.37768 11.2469 7.60399 11.6039 7.73977C12.0056 7.87556 12.4073 8.01134 12.8089 8.10186C13.2552 8.19239 13.6569 8.23765 14.0139 8.28291C14.4156 8.32817 14.7727 8.37344 15.0404 8.37344ZM16.9149 1.22209V8.32817C17.1381 8.32817 17.4059 8.37344 17.6736 8.32817C17.9414 8.32817 18.2538 8.28291 18.5216 8.23765C19.0126 8.14713 19.5927 8.01134 20.0391 7.87556C20.53 7.69451 20.9763 7.4682 21.2887 7.19663C20.7531 5.88404 20.1729 4.84302 19.5927 3.84726C19.0126 2.85151 18.3431 1.99153 17.629 1.26735V1.22209H16.9149ZM12.0948 1.62944V1.58418C11.7824 1.71996 11.47 1.94627 11.113 2.08206C10.8006 2.21784 10.3989 2.39889 10.0865 2.57994C9.46165 2.89677 8.83682 3.25886 8.21199 3.66622C7.6318 4.07357 7.0516 4.52619 6.56067 4.97881C6.73919 5.15985 6.96234 5.3409 7.14086 5.47669C7.31939 5.61247 7.54254 5.79352 7.76569 5.97457C7.94421 6.06509 8.16736 6.20087 8.39052 6.38192C8.61367 6.51771 8.88145 6.69875 9.14923 6.8798C9.50628 6.06509 9.86332 5.20512 10.3096 4.43567C10.7559 3.62096 11.2469 2.85151 11.7378 2.17258C11.7824 2.08206 11.8271 1.99153 11.9163 1.90101C11.9609 1.85575 12.0056 1.71996 12.0948 1.62944ZM25.7517 4.97881V4.93355C24.636 4.07357 23.6541 3.34939 22.6722 2.89677C21.6904 2.44415 20.7085 1.99153 19.8159 1.62944C20.53 2.35363 21.1548 3.25886 21.5565 4.11883C22.0028 5.02407 22.4491 5.97457 22.8061 6.8798C22.9847 6.78928 23.2078 6.69875 23.4756 6.51771C23.6987 6.38192 24.0112 6.24614 24.2789 6.11035C24.5467 5.9293 24.7699 5.74826 25.0377 5.56721C25.3054 5.3409 25.5732 5.15985 25.7517 4.97881ZM24.993 15.0722H30.1255C30.1255 13.3975 29.7685 11.8133 29.099 10.1839C28.4742 8.59974 27.5816 7.28715 26.4658 6.15561V6.11035C26.2427 6.47244 25.9303 6.78928 25.6179 7.01558C25.2608 7.24189 24.9484 7.42294 24.5914 7.60399C24.3682 7.73977 24.145 7.92082 23.9219 8.01134C23.6987 8.14713 23.3863 8.23765 23.1632 8.37344C23.3417 8.73553 23.5202 9.14288 23.6987 9.50498C23.8326 9.91233 24.0558 10.365 24.145 10.7723C24.4128 11.4965 24.5914 12.2659 24.7699 13.0354C24.9038 13.7143 24.993 14.4385 24.993 15.0722ZM8.83682 8.37344V8.32817C8.47978 8.14713 8.0781 8.01134 7.76569 7.8303C7.45328 7.60399 7.14086 7.37768 6.87308 7.19663C6.6053 7.06085 6.33752 6.8798 6.11437 6.69875C5.89121 6.51771 5.71269 6.33666 5.53417 6.15561C4.37378 7.28715 3.5258 8.55448 2.99024 10.0481C2.41004 11.5418 2.00837 13.2164 1.82985 15.0269H7.31939C7.31939 13.7596 7.49791 12.5375 7.81032 11.3154C8.0781 10.0481 8.47978 9.09762 8.83682 8.37344ZM15.0404 15.0269V9.82181C14.6834 9.86707 14.2371 9.86707 13.8354 9.82181C13.3891 9.77655 12.9428 9.64076 12.5411 9.50498C12.1841 9.41445 11.7378 9.32393 11.3808 9.18815C10.9791 9.09762 10.5774 8.91658 10.265 8.73553C9.99721 9.18815 9.77406 9.73129 9.59554 10.3197C9.37239 10.8628 9.23849 11.4512 9.1046 11.9944C9.01534 12.5375 8.97071 13.1259 8.92608 13.6238C8.88145 14.1217 8.83682 14.6196 8.83682 15.0269H15.0404ZM16.9149 9.91233V15.0269H23.5202C23.5202 14.7553 23.5202 14.4385 23.4756 14.0764C23.3863 13.7596 23.3417 13.3522 23.2971 12.9901C23.1632 12.447 23.0293 11.8586 22.8508 11.3154C22.6722 10.8176 22.4937 10.3197 22.2706 9.91233C22.1813 9.68602 22.0921 9.41445 22.0028 9.23341C21.8689 9.0071 21.735 8.87131 21.6457 8.73553C21.1548 9.09762 20.4854 9.32393 19.682 9.50498C18.9233 9.68602 18.0307 9.86707 17.2273 9.91233H16.9149ZM7.31939 16.5205H1.82985C1.82985 17.29 1.96374 18.15 2.18689 19.191C2.41004 20.2773 2.85635 21.273 3.34728 22.3593C3.57043 22.9024 3.83821 23.4456 4.106 23.9887C4.41841 24.4866 4.77545 25.0297 5.1325 25.5276C5.40028 25.3466 5.66806 25.2108 5.89121 25.075C6.159 24.9392 6.47141 24.7582 6.73919 24.6224C7.0516 24.4866 7.36402 24.3508 7.72106 24.1698C8.03347 24.034 8.43515 23.8529 8.83682 23.6719C8.47978 22.5403 8.0781 21.4541 7.81032 20.232C7.49791 19.0552 7.31939 17.8784 7.31939 16.5658V16.5205ZM15.0404 21.8162V16.5205H8.83682C8.83682 16.8826 8.88145 17.4258 8.97071 17.9689C9.01534 18.5121 9.14923 19.1005 9.23849 19.6889C9.41702 20.3225 9.55091 20.9562 9.72943 21.4993C9.90795 22.0425 10.0865 22.4951 10.265 22.9024C11.0683 22.5856 11.8717 22.3593 12.4073 22.2235C12.9874 22.0425 13.523 21.9067 14.0586 21.8614H14.5495C14.728 21.8162 14.9066 21.8162 15.0404 21.8162ZM16.9149 16.5205V21.7709C17.2273 21.8162 17.5844 21.8614 17.9414 21.9067C18.3431 21.9519 18.834 22.0425 19.2357 22.133L19.9052 22.2688C20.1283 22.3593 20.3961 22.4046 20.6192 22.4498C20.887 22.5403 21.1548 22.5856 21.4226 22.6761C21.6457 22.7667 21.8689 22.8119 22.0474 22.9024C22.6276 21.4088 22.9847 20.1867 23.2078 19.1457C23.431 18.15 23.5202 17.29 23.5202 16.5658V16.5205H16.9149ZM30.1255 16.5658V16.5205H24.993V16.7921C24.9484 17.6521 24.8145 18.6478 24.636 19.6889C24.4575 20.6846 24.0558 21.8614 23.5202 23.3098C24.2343 23.6719 24.9038 24.034 25.4393 24.3961C25.9749 24.7582 26.4658 25.1655 26.8229 25.5276C27.5816 24.7582 28.251 23.7172 28.8312 22.3593C29.4114 21.0467 29.8131 19.6889 30.0363 18.2405C30.0809 17.9689 30.0809 17.6973 30.1255 17.4258V16.5658ZM15.0404 30.3254V23.2645C13.9247 23.4456 12.9874 23.6719 12.2734 23.8529C11.5593 24.034 11.0237 24.215 10.6667 24.3961C10.9344 25.075 11.2022 25.6634 11.47 26.2065C11.7378 26.7044 12.0502 27.2476 12.318 27.7002C12.4073 27.8812 12.5858 28.0623 12.7197 28.2886C12.8536 28.4696 12.9428 28.6959 13.0767 28.877C13.2106 29.1033 13.3445 29.3749 13.4784 29.6464C13.6569 29.8727 13.7908 30.1443 13.9693 30.3254H15.0404ZM16.9149 30.3254H17.9414C18.3431 30.0085 18.7448 29.5559 19.0572 29.058C19.4142 28.5602 19.8159 27.9718 20.0837 27.4739C20.3961 26.8855 20.7085 26.3423 20.9763 25.7992C21.2441 25.2561 21.4672 24.7582 21.6457 24.3961C21.1548 24.215 20.4854 24.034 19.8159 23.8529C19.1464 23.6719 18.2092 23.4908 16.9149 23.3098V30.3254ZM25.7517 26.6139V26.5686C25.6625 26.4329 25.484 26.2518 25.3501 26.116C25.2162 25.9802 24.993 25.7992 24.7699 25.6634C24.5914 25.5276 24.3682 25.3918 24.1004 25.2561C23.8326 25.1203 23.4756 24.9392 23.1632 24.7582C22.9847 25.1203 22.6722 25.7539 22.2259 26.6139C21.8243 27.4739 21.1102 28.5149 20.2176 29.6464C21.3333 29.4654 22.3152 29.058 23.2078 28.5149C24.1897 28.017 25.0377 27.3381 25.7517 26.6139ZM9.14923 25.1655V25.1203C8.83682 25.3013 8.34589 25.5276 7.85495 25.7539C7.31939 25.9802 6.73919 26.2518 6.20363 26.6139C6.51604 26.8855 6.82845 27.157 7.09623 27.3381C7.36402 27.5644 7.67643 27.7454 7.94421 27.9265C8.43515 28.2433 9.01534 28.5602 9.59554 28.8317C10.1757 29.1033 10.8898 29.3749 11.7824 29.6464C11.47 29.2843 11.2469 28.8317 11.0237 28.4696C10.8006 28.1075 10.5328 27.7454 10.3096 27.3834C10.0865 27.0213 9.90795 26.6139 9.72943 26.2518C9.50628 25.8897 9.32775 25.5276 9.14923 25.1655Z" fill="black"/>
</g>
<defs>
<clipPath id="clip0">
<rect width="32" height="32" fill="white"/>
</clipPath>
</defs>
</svg>
