<svg width="64" height="64" viewBox="0 0 64 64" fill="none" xmlns="http://www.w3.org/2000/svg">
<path d="M7.03355 2.67398C7.04399 1.946 7.29506 1.24833 7.73804 0.716367C8.21696 0.237011 8.841 -0.0188666 9.48249 0.00108484H51.5507C52.2178 0.00174385 52.8573 0.299648 53.3287 0.829305C53.7501 1.32837 53.9895 1.98656 53.9997 2.67398V61.2142C54.0049 61.5768 53.9453 61.9368 53.8243 62.2731C53.7032 62.6094 53.5233 62.915 53.2952 63.1718C52.8238 63.7014 52.1843 63.9993 51.5172 64H9.48249C8.81542 63.9993 8.17589 63.7014 7.70449 63.1718C7.25587 62.6439 7.00386 61.9436 7 61.2142L7.03355 2.67398Z" fill="url(#paint0_linear)"/>
<path fill-rule="evenodd" clip-rule="evenodd" d="M44.1308 48H23.8692C23.3734 48 22.898 47.7893 22.5475 47.4142C22.1969 47.0391 22 46.5304 22 46C22 45.4696 22.1969 44.9609 22.5475 44.5858C22.898 44.2107 23.3734 44 23.8692 44H44.1308C44.6266 44 45.102 44.2107 45.4525 44.5858C45.8031 44.9609 46 45.4696 46 46C46 46.5304 45.8031 47.0391 45.4525 47.4142C45.102 47.7893 44.6266 48 44.1308 48Z" fill="#9293A5"/>
<path fill-rule="evenodd" clip-rule="evenodd" d="M39.9058 56H28.0942C27.5422 55.9898 27.0157 55.7758 26.6253 55.4029C26.2348 55.03 26.0107 54.5272 26 54C26 53.4696 26.2206 52.9609 26.6134 52.5858C27.0061 52.2107 27.5388 52 28.0942 52H39.9058C40.4612 52 40.9939 52.2107 41.3866 52.5858C41.7794 52.9609 42 53.4696 42 54C41.9893 54.5272 41.7652 55.03 41.3747 55.4029C40.9843 55.7758 40.4578 55.9898 39.9058 56Z" fill="#9293A5"/>
<path d="M14 0H9.25275C8.82559 0 8.40261 0.0720594 8.00797 0.212063C7.61333 0.352067 7.25476 0.557273 6.95271 0.815966C6.65067 1.07466 6.41107 1.38177 6.2476 1.71977C6.08414 2.05777 6 2.42003 6 2.78588V61.2141C6 61.953 6.3427 62.6616 6.95271 63.184C7.56272 63.7065 8.39006 64 9.25275 64H14V0Z" fill="#006637"/>
<mask id="mask0" mask-type="alpha" maskUnits="userSpaceOnUse" x="20" y="8" width="28" height="28">
<circle cx="34" cy="22" r="14" fill="#C4C4C4"/>
</mask>
<g mask="url(#mask0)">
<g clip-path="url(#clip0)">
<path d="M19.9904 23.85C20.8633 23.3104 21.1764 22.5376 21.5908 21.8079C22.2036 20.7329 22.9047 19.7054 23.6013 18.6822C23.782 18.4145 23.8217 18.2375 23.6189 17.9698C23.0325 17.197 22.6622 16.3336 22.6004 15.3578C22.5255 14.1101 23.1692 13.6223 24.4081 13.9331C25.356 14.1706 26.3216 14.3433 27.2827 14.5332C27.8294 14.6412 28.2659 14.4167 28.7112 14.0022C28.4555 13.8813 28.2395 13.8036 28.0543 13.6784C27.9396 13.5964 27.8118 13.4453 27.8118 13.3201C27.8118 13.2035 27.9485 13.0135 28.0631 12.9833C28.4952 12.8711 28.9537 12.707 29.3858 12.7459C30.0736 12.8106 30.7481 13.0222 31.4271 13.169C31.5109 13.1862 31.5902 13.1992 31.7534 13.2251C31.7534 12.8667 31.7313 12.5429 31.7622 12.2235C31.7842 11.9687 31.846 11.714 31.9385 11.4722C32.084 11.0751 32.3838 11.0362 32.6572 11.36C32.9879 11.7442 33.3406 12.1112 33.6404 12.5127C34.0636 13.0826 34.6853 13.2121 35.329 13.3719C36.1182 13.5662 36.9471 13.7604 37.6349 14.1576C38.3976 14.598 39.0942 14.5203 39.857 14.3433C40.5404 14.1835 41.2237 14.0152 41.9115 13.89C42.9388 13.7043 43.4326 14.1404 43.4326 15.1722C43.4326 16.0918 43.1372 16.925 42.6126 17.6719C42.3833 18.0001 42.3127 18.2332 42.6126 18.5656C42.9476 18.9369 43.2034 19.373 43.534 19.8436C43.6619 19.6709 43.7368 19.537 43.8382 19.4291C44.5348 18.6606 45.227 17.8878 45.9325 17.128C46.197 16.843 46.4924 16.7696 46.7658 17.1323C47.1582 16.571 47.4932 16.0011 47.9165 15.5046C49.1113 14.0929 50.6192 13.1517 52.4665 12.7631C52.9603 12.6595 53.216 12.8365 53.194 13.3935C53.1543 14.339 53.0485 15.2801 52.9647 16.2213C52.9515 16.3595 52.9206 16.4976 52.8898 16.6962C53.4056 16.5192 53.5599 16.8257 53.5643 17.1754C53.5776 18.2764 53.6349 19.3859 53.5202 20.4739C53.2777 22.7837 52.7266 25.0244 51.6817 27.1269C50.1915 30.1231 48.1325 32.6531 45.302 34.5398C43.944 35.4464 42.5112 36.1631 40.849 36.3574C40.7035 36.3746 40.5404 36.4696 40.4345 36.5732C39.4425 37.5403 38.1992 37.9677 36.8589 38.175C34.7603 38.4988 32.6484 38.4988 30.5409 38.3347C29.0639 38.2181 27.6531 37.8382 26.5552 36.7546C25.7793 35.9861 25.3296 35.0406 25.0783 34.0087C24.5095 31.6601 24.73 29.3978 25.9468 27.2651C26.0791 27.0319 26.0482 26.8722 25.7616 26.8333C25.0253 26.7297 24.2891 26.6304 23.5484 26.5484C23.275 26.5182 22.9928 26.5484 22.7151 26.5311C22.3403 26.5095 22.2433 26.3455 22.4505 26.0303C22.5696 25.8533 22.7195 25.6806 22.8914 25.5554C23.2309 25.3093 23.1251 25.1193 22.8253 24.9898C22.0802 24.6617 21.3263 24.3638 20.5723 24.0573C20.4312 23.9839 20.2681 23.9407 19.9904 23.85Z" fill="black"/>
<path d="M28.7828 13.4057C29.4 13.138 29.9512 13.2676 30.445 13.4144C30.9564 13.5655 31.4105 13.9108 31.8999 14.1526C32.0366 14.2174 32.2173 14.2476 32.3584 14.2174C32.4157 14.2044 32.4687 13.9842 32.4554 13.8677C32.3937 13.2762 32.3099 12.689 32.2173 11.981C32.4334 12.0889 32.5172 12.1105 32.5701 12.1623C33.033 12.62 33.4563 13.1251 33.9589 13.5266C34.219 13.7338 34.6158 13.8072 34.9685 13.8634C36.7585 14.1526 38.2884 14.96 39.6287 16.117C41.7142 17.9217 43.2 20.1623 44.4653 22.5585C44.6108 22.8305 44.7519 23.1025 44.9239 23.4306C44.0421 23.4263 43.3411 23.0981 42.6577 22.7528C41.5775 22.2131 40.537 21.5914 39.4303 21.0992C37.5125 20.2444 35.5858 20.3264 33.7164 21.2719C33.3064 21.4791 32.9757 21.5266 32.5348 21.2978C30.0217 19.9767 27.61 20.3307 25.2424 21.7295C24.1799 22.3556 23.1217 23.0118 21.8916 23.3011C21.7726 23.3313 21.6492 23.3529 21.4287 23.4004C21.7373 22.7787 21.9754 22.2304 22.2752 21.7209C23.2937 20.0069 24.4091 18.3534 25.8112 16.9157C26.6974 16.0091 27.6982 15.2449 28.8445 14.6664C29.1796 14.498 29.497 14.321 29.8321 14.7096C29.7704 14.0835 29.3207 13.7641 28.7828 13.4057Z" fill="#ABABAB"/>
<path d="M33.3772 37.9582C32.0678 37.8589 31.0096 37.8157 29.9647 37.6905C27.5927 37.4056 26.0804 35.9679 25.6043 33.6581C25.181 31.5901 25.353 29.6085 26.3582 27.7175C26.6316 27.2037 26.6933 27.1735 27.1871 27.4973C28.0512 28.0629 28.8933 28.6587 29.7531 29.2286C31.8429 30.6187 33.9327 30.5583 36.049 29.2631C37.2615 28.5162 38.5004 27.8038 39.7525 27.126C40.5461 26.6943 40.6255 26.7331 41.0091 27.5707C42.1554 30.0704 42.3229 32.5874 40.9473 35.057C40.1714 36.4515 38.906 37.2631 37.3188 37.5092C35.93 37.7294 34.5279 37.833 33.3772 37.9582Z" fill="#ABABAB"/>
<path d="M52.4763 17.6276C52.754 17.3686 52.9392 17.2002 53.12 17.0318C53.1597 17.0448 53.2038 17.0577 53.2434 17.0707C53.2434 17.3772 53.2655 17.6881 53.239 17.9903C53.1553 18.9314 53.0539 19.8769 52.948 20.8181C52.9128 21.1419 52.1368 21.7722 51.8105 21.742C51.7312 21.7334 51.6254 21.6125 51.6033 21.5262C51.5416 21.2887 51.5284 21.0426 51.4799 20.8052C51.4005 20.408 51.1933 20.3259 50.867 20.5591C50.1263 21.0858 50.1263 21.0858 49.8221 20.218C49.6237 19.6438 49.584 19.6352 49.0505 19.9978C48.8477 20.136 48.6361 20.2569 48.4024 20.4037C47.9748 19.8942 48.2437 19.2898 48.0674 18.7199C47.9263 18.8019 47.816 18.8624 47.7146 18.9314C47.5118 19.0696 47.3178 19.2293 47.1062 19.3545C46.3831 19.7863 46.2685 19.7517 45.9423 19.0092C45.8893 18.8926 45.8408 18.7717 45.7879 18.6551C45.6072 18.2623 45.7703 17.8219 46.1759 17.6924C46.2553 17.6665 46.4228 17.7571 46.4713 17.8392C46.5992 18.0593 46.6874 18.3054 46.824 18.6292C46.9872 18.2623 47.1238 17.9514 47.2605 17.6363C48.1908 15.4949 49.8574 14.1479 52.0707 13.4096C52.5645 13.2455 52.6967 13.3448 52.6659 13.85C52.6218 14.5925 52.5248 15.3351 52.4807 16.082C52.4498 16.5483 52.4763 17.0318 52.4763 17.6276Z" fill="#ABABAB"/>
<path d="M28.2224 27.4837C30.7972 24.6731 35.7529 24.8761 37.9441 27.4362C36.4715 28.3127 35.1356 29.4179 33.3632 29.6899C32.6578 29.7978 31.9965 29.664 31.3439 29.4179C30.18 28.9818 29.2365 28.209 28.2224 27.4837ZM34.6242 27.147C34.633 26.318 34.0202 25.7222 33.1604 25.7266C32.358 25.7309 31.7628 26.3267 31.7584 27.1254C31.754 27.8939 32.3844 28.5285 33.1604 28.5458C33.9584 28.5631 34.6154 27.9327 34.6242 27.147Z" fill="#ABABAB"/>
<path d="M48.8746 27.0737C49.3376 26.6333 49.7388 26.2577 50.1003 25.9166C50.3428 26.4865 50.5721 27.0132 50.7837 27.5486C50.8102 27.6133 50.7837 27.7256 50.744 27.7903C50.0871 28.7704 49.4213 29.7461 48.7512 30.7218C48.7203 30.765 48.663 30.7866 48.5351 30.8816C48.544 30.6916 48.5396 30.5794 48.5572 30.4671C48.5925 30.2426 48.663 30.0181 48.6851 29.7893C48.7291 29.3273 48.6762 29.2928 48.2177 29.3748C47.8077 29.4482 47.3932 29.5086 46.8906 29.595C47.0317 29.2367 47.1596 28.969 47.2345 28.6884C47.283 28.5027 47.3315 28.235 47.2345 28.1228C47.1507 28.0235 46.8598 28.0623 46.6702 28.0882C46.41 28.1228 46.1587 28.2091 45.903 28.2609C45.5415 28.33 45.4533 28.2393 45.5327 27.8767C45.5812 27.6695 45.6693 27.4665 45.709 27.2593C45.7928 26.793 45.6341 26.5858 45.1711 26.4995C45.127 26.4908 45.083 26.4779 45.0389 26.4822C44.1483 26.6031 43.7603 25.9123 43.2621 25.4115C43.218 25.3683 43.2621 25.1438 43.3282 25.105C43.8088 24.8373 44.3026 24.5912 44.8052 24.3667C44.8669 24.3365 45.0565 24.453 45.105 24.5437C45.1755 24.6775 45.1491 24.8545 45.1976 25.0057C45.2725 25.2215 45.3916 25.3295 45.6605 25.2042C46.2646 24.9193 46.3439 24.9668 46.5159 25.623C46.6878 26.275 46.873 26.3483 47.4594 25.9857C48.2618 25.4935 48.5175 25.6101 48.6983 26.5254C48.7247 26.6765 48.7953 26.8276 48.8746 27.0737Z" fill="#ABABAB"/>
<path d="M26.8204 15.0592C26.1062 15.8104 25.4007 16.5357 24.7174 17.2783C24.1662 17.8784 24.1707 17.8914 23.765 17.179C23.3903 16.5184 23.139 15.819 23.161 15.0505C23.1786 14.5325 23.4079 14.3166 23.9149 14.4116C24.8761 14.5929 25.8284 14.8174 26.7851 15.029C26.8248 15.0419 26.8513 15.0851 26.8204 15.0592Z" fill="#ABABAB"/>
<path d="M41.9823 17.5976C41.127 16.6693 40.3378 15.8145 39.5486 14.9553C39.4825 14.9899 39.4163 15.0244 39.3546 15.059C39.4648 15.0201 39.5707 14.9683 39.6809 14.9424C40.4172 14.774 41.1623 14.6229 41.8986 14.4459C42.5775 14.2818 42.895 14.4848 42.8862 15.1626C42.8729 16.0735 42.5511 16.8766 41.9823 17.5976Z" fill="#ABABAB"/>
<path d="M44.8364 33.5459C44.8496 34.0381 44.713 34.3533 44.3162 34.5389C43.3418 35.0009 42.3674 35.4672 41.393 35.9248C41.3225 35.955 41.2343 35.9421 41.0844 35.9593C41.3049 35.5621 41.5473 35.2297 41.6796 34.8627C41.9397 34.1504 42.1249 33.4164 42.363 32.6954C42.4203 32.5227 42.5261 32.3371 42.6672 32.2335C42.773 32.1557 43.0111 32.1342 43.1125 32.1989C43.1963 32.255 43.2007 32.4839 43.1698 32.6263C42.9538 33.7445 42.9494 33.7402 44.1001 33.5848C44.3338 33.5546 44.563 33.5632 44.8364 33.5459Z" fill="#ABABAB"/>
<path d="M37.9011 25.4511C38.8137 24.3502 38.8843 23.4781 38.1744 22.7485C37.5528 22.1095 36.596 22.0275 35.8597 22.5456C35.022 23.137 34.9515 23.9746 35.6393 25.1964C35.0926 25.0712 34.6429 24.2293 34.7002 23.4263C34.7751 22.3168 35.5952 21.5094 36.768 21.3928C37.7423 21.2979 38.7476 21.9671 39.0253 22.891C39.334 23.9401 38.9107 24.9676 37.9011 25.4511Z" fill="white"/>
<path d="M30.4898 25.4332C31.4156 24.3409 31.4774 23.3997 30.7323 22.7176C30.0048 22.0528 28.9996 22.0269 28.3118 22.6572C27.4961 23.3997 27.549 24.2632 28.4705 25.3857C27.8974 25.3641 27.2184 24.328 27.2492 23.4861C27.2889 22.4413 28.0605 21.6038 29.1847 21.4224C30.1723 21.267 31.2746 21.8844 31.5655 22.7867C31.9183 23.866 31.4774 25.0317 30.4898 25.4332Z" fill="white"/>
<path d="M33.982 26.5046C33.5585 26.3578 33.21 26.2369 32.8306 26.1074C33.2541 25.7447 33.8055 25.9261 33.982 26.5046Z" fill="white"/>
<path d="M28.8112 24.005C29.0841 24.005 29.3053 23.7885 29.3053 23.5215C29.3053 23.2544 29.0841 23.0379 28.8112 23.0379C28.5383 23.0379 28.3171 23.2544 28.3171 23.5215C28.3171 23.7885 28.5383 24.005 28.8112 24.005Z" fill="white"/>
<path d="M36.4285 23.7716C36.7014 23.7716 36.9226 23.5551 36.9226 23.2881C36.9226 23.021 36.7014 22.8045 36.4285 22.8045C36.1557 22.8045 35.9345 23.021 35.9345 23.2881C35.9345 23.5551 36.1557 23.7716 36.4285 23.7716Z" fill="white"/>
</g>
<path d="M41.3245 22.1351C41.8059 22.1351 41.783 20.6 36.9862 20.6C35.6497 20.6 34.5916 20.739 34.0317 21.0544C33.8054 21.0013 33.5143 20.9705 33.1365 20.9705C32.7587 20.9705 32.4676 21.0013 32.2413 21.054C31.6814 20.739 30.6233 20.6 29.2863 20.6C25.4148 20.6 24.1963 22.3936 24.9252 22.3936C24.9352 22.7973 25.1469 23.1199 25.4079 23.1199C25.4289 23.1199 25.4485 23.1146 25.4686 23.1108C25.6123 24.403 25.9947 25.746 26.3775 26.144C27.3471 27.152 30.256 27.152 31.2256 26.144C31.8206 25.5259 32.3667 23.6289 32.5821 22.4557C32.7555 22.4211 32.9407 22.3936 33.1365 22.3936C33.3322 22.3936 33.5175 22.4211 33.6909 22.4557C33.9058 23.6289 34.4524 25.5259 35.0469 26.144C36.0166 27.152 38.9254 27.152 39.895 26.144C40.2783 25.746 40.6606 24.403 40.8044 23.1108C40.8244 23.1146 40.8445 23.1199 40.8646 23.1199C41.3036 23.1199 41.3245 22.7732 41.3245 22.1351Z" fill="#292F33"/>
<path d="M31.7106 22.9185C31.7106 23.473 31.2064 24.9218 30.6438 25.5057C29.9329 26.2453 27.7997 26.2453 27.0889 25.5057C26.7334 25.1362 26.3775 24.2287 26.3775 23.1201C26.3775 22.3806 27.8139 22.1121 29.2868 22.1121C30.741 22.1121 31.7106 22.364 31.7106 22.9185Z" fill="#55ACEE"/>
<path d="M34.5624 22.9185C34.5624 23.473 35.0666 24.9218 35.6292 25.5057C36.3401 26.2453 38.4732 26.2453 39.1841 25.5057C39.5395 25.1362 39.8954 24.2287 39.8954 23.1201C39.8954 22.3806 38.4591 22.1121 36.9862 22.1121C35.532 22.1121 34.5624 22.364 34.5624 22.9185Z" fill="#55ACEE"/>
</g>
<defs>
<linearGradient id="paint0_linear" x1="31.1121" y1="64" x2="30.4737" y2="-23.9998" gradientUnits="userSpaceOnUse">
<stop stop-color="#89C393"/>
<stop offset="1" stop-color="white"/>
</linearGradient>
<clipPath id="clip0">
<rect width="33.6" height="33.6" fill="white" transform="translate(20 8)"/>
</clipPath>
</defs>
</svg>
