<svg width="64" height="64" viewBox="0 0 64 64" fill="none" xmlns="http://www.w3.org/2000/svg">
<path d="M7.03355 2.67398C7.04399 1.946 7.29506 1.24833 7.73804 0.716367C8.21696 0.237011 8.841 -0.0188666 9.48249 0.00108484H51.5507C52.2178 0.00174385 52.8573 0.299648 53.3287 0.829305C53.7501 1.32837 53.9895 1.98656 53.9997 2.67398V61.2142C54.0049 61.5768 53.9453 61.9368 53.8243 62.2731C53.7032 62.6094 53.5233 62.915 53.2952 63.1718C52.8238 63.7014 52.1843 63.9993 51.5172 64H9.48249C8.81542 63.9993 8.17589 63.7014 7.70449 63.1718C7.25587 62.6439 7.00386 61.9436 7 61.2142L7.03355 2.67398Z" fill="url(#paint0_linear)"/>
<path fill-rule="evenodd" clip-rule="evenodd" d="M44.1308 48H23.8692C23.3734 48 22.898 47.7893 22.5475 47.4142C22.1969 47.0391 22 46.5304 22 46C22 45.4696 22.1969 44.9609 22.5475 44.5858C22.898 44.2107 23.3734 44 23.8692 44H44.1308C44.6266 44 45.102 44.2107 45.4525 44.5858C45.8031 44.9609 46 45.4696 46 46C46 46.5304 45.8031 47.0391 45.4525 47.4142C45.102 47.7893 44.6266 48 44.1308 48Z" fill="#9293A5"/>
<path fill-rule="evenodd" clip-rule="evenodd" d="M39.9058 56H28.0942C27.5422 55.9898 27.0157 55.7758 26.6253 55.4029C26.2348 55.03 26.0107 54.5272 26 54C26 53.4696 26.2206 52.9609 26.6134 52.5858C27.0061 52.2107 27.5388 52 28.0942 52H39.9058C40.4612 52 40.9939 52.2107 41.3866 52.5858C41.7794 52.9609 42 53.4696 42 54C41.9893 54.5272 41.7652 55.03 41.3747 55.4029C40.9843 55.7758 40.4578 55.9898 39.9058 56Z" fill="#9293A5"/>
<path d="M14 0H9.25275C8.82559 0 8.40261 0.0720594 8.00797 0.212063C7.61333 0.352067 7.25476 0.557273 6.95271 0.815966C6.65067 1.07466 6.41107 1.38177 6.2476 1.71977C6.08414 2.05777 6 2.42003 6 2.78588V61.2141C6 61.953 6.3427 62.6616 6.95271 63.184C7.56272 63.7065 8.39006 64 9.25275 64H14V0Z" fill="#006637"/>
<mask id="mask0" mask-type="alpha" maskUnits="userSpaceOnUse" x="20" y="8" width="28" height="28">
<circle cx="34" cy="22" r="14" fill="#C4C4C4"/>
</mask>
<g mask="url(#mask0)">
<g clip-path="url(#clip0)">
<path d="M19.9904 23.85C20.8633 23.3104 21.1764 22.5376 21.5908 21.8079C22.2036 20.7329 22.9047 19.7054 23.6013 18.6822C23.782 18.4145 23.8217 18.2375 23.6189 17.9698C23.0325 17.197 22.6622 16.3335 22.6004 15.3578C22.5255 14.1101 23.1692 13.6223 24.4081 13.9331C25.356 14.1706 26.3216 14.3433 27.2827 14.5332C27.8294 14.6412 28.2659 14.4167 28.7112 14.0022C28.4555 13.8813 28.2395 13.8036 28.0543 13.6784C27.9396 13.5964 27.8118 13.4453 27.8118 13.32C27.8118 13.2035 27.9485 13.0135 28.0631 12.9833C28.4952 12.871 28.9537 12.707 29.3858 12.7458C30.0736 12.8106 30.7481 13.0222 31.4271 13.1689C31.5109 13.1862 31.5902 13.1992 31.7534 13.2251C31.7534 12.8667 31.7313 12.5429 31.7622 12.2234C31.7842 11.9687 31.846 11.714 31.9385 11.4722C32.084 11.075 32.3838 11.0362 32.6572 11.36C32.9879 11.7442 33.3406 12.1112 33.6404 12.5127C34.0636 13.0826 34.6853 13.2121 35.329 13.3719C36.1182 13.5661 36.9471 13.7604 37.6349 14.1576C38.3976 14.598 39.0942 14.5203 39.857 14.3433C40.5404 14.1835 41.2237 14.0151 41.9115 13.8899C42.9388 13.7043 43.4326 14.1403 43.4326 15.1722C43.4326 16.0918 43.1372 16.925 42.6126 17.6719C42.3833 18 42.3127 18.2332 42.6126 18.5656C42.9476 18.9369 43.2034 19.373 43.534 19.8435C43.6619 19.6708 43.7368 19.537 43.8382 19.4291C44.5348 18.6606 45.227 17.8878 45.9325 17.1279C46.197 16.843 46.4924 16.7696 46.7658 17.1323C47.1582 16.571 47.4932 16.0011 47.9165 15.5046C49.1113 14.0929 50.6192 13.1517 52.4665 12.7631C52.9603 12.6595 53.216 12.8365 53.194 13.3934C53.1543 14.3389 53.0485 15.2801 52.9647 16.2213C52.9515 16.3595 52.9206 16.4976 52.8898 16.6962C53.4056 16.5192 53.5599 16.8257 53.5643 17.1754C53.5776 18.2763 53.6349 19.3859 53.5202 20.4739C53.2777 22.7836 52.7266 25.0243 51.6817 27.1269C50.1915 30.1231 48.1325 32.6531 45.302 34.5398C43.944 35.4464 42.5112 36.1631 40.849 36.3574C40.7035 36.3746 40.5404 36.4696 40.4345 36.5732C39.4425 37.5403 38.1992 37.9677 36.8589 38.175C34.7603 38.4988 32.6484 38.4988 30.5409 38.3347C29.0639 38.2181 27.6531 37.8382 26.5552 36.7545C25.7793 35.9861 25.3296 35.0406 25.0783 34.0087C24.5095 31.6601 24.73 29.3978 25.9468 27.265C26.0791 27.0319 26.0482 26.8722 25.7616 26.8333C25.0253 26.7297 24.2891 26.6304 23.5484 26.5484C23.275 26.5181 22.9928 26.5484 22.7151 26.5311C22.3403 26.5095 22.2433 26.3455 22.4505 26.0303C22.5696 25.8533 22.7195 25.6806 22.8914 25.5554C23.2309 25.3093 23.1251 25.1193 22.8253 24.9898C22.0802 24.6617 21.3263 24.3638 20.5723 24.0573C20.4312 23.9839 20.2681 23.9407 19.9904 23.85Z" fill="black"/>
<path d="M28.7828 13.4057C29.4 13.138 29.9512 13.2675 30.445 13.4143C30.9564 13.5654 31.4105 13.9108 31.8999 14.1526C32.0366 14.2174 32.2173 14.2476 32.3584 14.2174C32.4157 14.2044 32.4687 13.9842 32.4554 13.8676C32.3937 13.2762 32.3099 12.689 32.2173 11.981C32.4334 12.0889 32.5172 12.1105 32.5701 12.1623C33.033 12.6199 33.4563 13.1251 33.9589 13.5266C34.219 13.7338 34.6158 13.8072 34.9685 13.8633C36.7585 14.1526 38.2884 14.9599 39.6287 16.117C41.7142 17.9216 43.2 20.1623 44.4653 22.5584C44.6108 22.8304 44.7519 23.1024 44.9239 23.4305C44.0421 23.4262 43.3411 23.0981 42.6577 22.7527C41.5775 22.2131 40.537 21.5914 39.4303 21.0992C37.5125 20.2444 35.5858 20.3264 33.7164 21.2719C33.3064 21.4791 32.9757 21.5266 32.5348 21.2978C30.0217 19.9767 27.61 20.3307 25.2424 21.7295C24.1799 22.3555 23.1217 23.0118 21.8916 23.301C21.7726 23.3312 21.6492 23.3528 21.4287 23.4003C21.7373 22.7786 21.9754 22.2303 22.2752 21.7209C23.2937 20.0069 24.4091 18.3534 25.8112 16.9157C26.6974 16.009 27.6982 15.2449 28.8445 14.6664C29.1796 14.498 29.497 14.321 29.8321 14.7095C29.7704 14.0835 29.3207 13.764 28.7828 13.4057Z" fill="#ABABAB"/>
<path d="M33.3772 37.9582C32.0678 37.8589 31.0096 37.8157 29.9647 37.6905C27.5927 37.4056 26.0804 35.9679 25.6043 33.6581C25.181 31.5901 25.353 29.6085 26.3582 27.7175C26.6316 27.2037 26.6933 27.1735 27.1871 27.4973C28.0512 28.0629 28.8933 28.6587 29.7531 29.2285C31.8429 30.6187 33.9327 30.5583 36.049 29.2631C37.2615 28.5162 38.5004 27.8038 39.7525 27.126C40.5461 26.6943 40.6255 26.7331 41.0091 27.5707C42.1554 30.0704 42.3229 32.5874 40.9473 35.0569C40.1714 36.4514 38.906 37.2631 37.3188 37.5092C35.93 37.7294 34.5279 37.833 33.3772 37.9582Z" fill="#ABABAB"/>
<path d="M52.4763 17.6276C52.754 17.3686 52.9392 17.2002 53.12 17.0318C53.1597 17.0448 53.2038 17.0577 53.2434 17.0707C53.2434 17.3772 53.2655 17.688 53.239 17.9902C53.1553 18.9314 53.0539 19.8769 52.948 20.8181C52.9128 21.1419 52.1368 21.7722 51.8105 21.742C51.7312 21.7334 51.6254 21.6125 51.6033 21.5261C51.5416 21.2887 51.5284 21.0426 51.4799 20.8051C51.4005 20.4079 51.1933 20.3259 50.867 20.5591C50.1263 21.0858 50.1263 21.0858 49.8221 20.218C49.6237 19.6438 49.584 19.6351 49.0505 19.9978C48.8477 20.136 48.6361 20.2568 48.4024 20.4036C47.9748 19.8942 48.2437 19.2898 48.0674 18.7199C47.9263 18.8019 47.816 18.8623 47.7146 18.9314C47.5118 19.0696 47.3178 19.2293 47.1062 19.3545C46.3831 19.7863 46.2685 19.7517 45.9423 19.0091C45.8893 18.8926 45.8408 18.7717 45.7879 18.6551C45.6072 18.2622 45.7703 17.8219 46.1759 17.6924C46.2553 17.6664 46.4228 17.7571 46.4713 17.8391C46.5992 18.0593 46.6874 18.3054 46.824 18.6292C46.9872 18.2622 47.1238 17.9514 47.2605 17.6362C48.1908 15.4948 49.8574 14.1478 52.0707 13.4096C52.5645 13.2455 52.6967 13.3448 52.6659 13.8499C52.6218 14.5925 52.5248 15.3351 52.4807 16.082C52.4498 16.5483 52.4763 17.0318 52.4763 17.6276Z" fill="#ABABAB"/>
<path d="M28.2224 27.4837C30.7972 24.6731 35.7529 24.876 37.9441 27.4362C36.4715 28.3126 35.1356 29.4179 33.3632 29.6899C32.6578 29.7978 31.9965 29.664 31.3439 29.4179C30.18 28.9818 29.2365 28.209 28.2224 27.4837ZM34.6242 27.1469C34.633 26.318 34.0202 25.7222 33.1604 25.7265C32.358 25.7309 31.7628 26.3267 31.7584 27.1254C31.754 27.8938 32.3844 28.5285 33.1604 28.5458C33.9584 28.563 34.6154 27.9327 34.6242 27.1469Z" fill="#ABABAB"/>
<path d="M48.8746 27.0736C49.3376 26.6333 49.7388 26.2576 50.1003 25.9166C50.3428 26.4865 50.5721 27.0132 50.7837 27.5485C50.8102 27.6133 50.7837 27.7255 50.744 27.7903C50.0871 28.7703 49.4213 29.7461 48.7512 30.7218C48.7203 30.765 48.663 30.7865 48.5351 30.8815C48.544 30.6916 48.5396 30.5793 48.5572 30.4671C48.5925 30.2426 48.663 30.0181 48.6851 29.7892C48.7291 29.3273 48.6762 29.2927 48.2177 29.3748C47.8077 29.4482 47.3932 29.5086 46.8906 29.595C47.0317 29.2366 47.1596 28.9689 47.2345 28.6883C47.283 28.5027 47.3315 28.235 47.2345 28.1227C47.1507 28.0234 46.8598 28.0623 46.6702 28.0882C46.41 28.1227 46.1587 28.2091 45.903 28.2609C45.5415 28.33 45.4533 28.2393 45.5327 27.8767C45.5812 27.6694 45.6693 27.4665 45.709 27.2593C45.7928 26.793 45.6341 26.5858 45.1711 26.4994C45.127 26.4908 45.083 26.4778 45.0389 26.4821C44.1483 26.603 43.7603 25.9123 43.2621 25.4114C43.218 25.3683 43.2621 25.1438 43.3282 25.1049C43.8088 24.8372 44.3026 24.5911 44.8052 24.3666C44.8669 24.3364 45.0565 24.453 45.105 24.5437C45.1755 24.6775 45.1491 24.8545 45.1976 25.0056C45.2725 25.2215 45.3916 25.3294 45.6605 25.2042C46.2646 24.9193 46.3439 24.9668 46.5159 25.623C46.6878 26.2749 46.873 26.3483 47.4594 25.9857C48.2618 25.4935 48.5175 25.61 48.6983 26.5253C48.7247 26.6764 48.7953 26.8275 48.8746 27.0736Z" fill="#ABABAB"/>
<path d="M26.8204 15.0592C26.1062 15.8104 25.4007 16.5357 24.7174 17.2783C24.1662 17.8784 24.1707 17.8913 23.765 17.179C23.3903 16.5184 23.139 15.819 23.161 15.0505C23.1786 14.5324 23.4079 14.3166 23.9149 14.4116C24.8761 14.5929 25.8284 14.8174 26.7851 15.0289C26.8248 15.0419 26.8513 15.0851 26.8204 15.0592Z" fill="#ABABAB"/>
<path d="M41.9823 17.5975C41.127 16.6693 40.3378 15.8145 39.5486 14.9553C39.4825 14.9899 39.4163 15.0244 39.3546 15.0589C39.4648 15.0201 39.5707 14.9683 39.6809 14.9424C40.4172 14.774 41.1623 14.6229 41.8986 14.4459C42.5775 14.2818 42.895 14.4847 42.8862 15.1626C42.8729 16.0735 42.5511 16.8765 41.9823 17.5975Z" fill="#ABABAB"/>
<path d="M44.8364 33.5459C44.8496 34.0381 44.713 34.3532 44.3162 34.5389C43.3418 35.0008 42.3674 35.4671 41.393 35.9248C41.3225 35.955 41.2343 35.942 41.0844 35.9593C41.3049 35.5621 41.5473 35.2297 41.6796 34.8627C41.9397 34.1503 42.1249 33.4164 42.363 32.6954C42.4203 32.5227 42.5261 32.337 42.6672 32.2334C42.773 32.1557 43.0111 32.1341 43.1125 32.1989C43.1963 32.255 43.2007 32.4838 43.1698 32.6263C42.9538 33.7445 42.9494 33.7402 44.1001 33.5848C44.3338 33.5545 44.563 33.5632 44.8364 33.5459Z" fill="#ABABAB"/>
<path d="M37.9011 25.4511C38.8137 24.3502 38.8843 23.4781 38.1744 22.7485C37.5528 22.1095 36.596 22.0275 35.8597 22.5455C35.022 23.137 34.9515 23.9746 35.6393 25.1964C35.0926 25.0712 34.6429 24.2293 34.7002 23.4263C34.7751 22.3167 35.5952 21.5094 36.768 21.3928C37.7423 21.2978 38.7476 21.967 39.0253 22.8909C39.334 23.94 38.9107 24.9676 37.9011 25.4511Z" fill="white"/>
<path d="M30.4898 25.4331C31.4156 24.3409 31.4774 23.3997 30.7323 22.7176C30.0048 22.0527 28.9996 22.0268 28.3118 22.6571C27.4961 23.3997 27.549 24.2632 28.4705 25.3856C27.8974 25.3641 27.2184 24.3279 27.2492 23.4861C27.2889 22.4413 28.0605 21.6037 29.1847 21.4224C30.1723 21.267 31.2746 21.8843 31.5655 22.7867C31.9183 23.866 31.4774 25.0316 30.4898 25.4331Z" fill="white"/>
<path d="M33.982 26.5046C33.5585 26.3578 33.21 26.2369 32.8306 26.1074C33.2541 25.7447 33.8055 25.926 33.982 26.5046Z" fill="white"/>
<path d="M28.8112 24.005C29.0841 24.005 29.3053 23.7885 29.3053 23.5214C29.3053 23.2544 29.0841 23.0379 28.8112 23.0379C28.5383 23.0379 28.3171 23.2544 28.3171 23.5214C28.3171 23.7885 28.5383 24.005 28.8112 24.005Z" fill="white"/>
<path d="M36.4285 23.7716C36.7014 23.7716 36.9226 23.5551 36.9226 23.2881C36.9226 23.021 36.7014 22.8045 36.4285 22.8045C36.1557 22.8045 35.9345 23.021 35.9345 23.2881C35.9345 23.5551 36.1557 23.7716 36.4285 23.7716Z" fill="white"/>
</g>
<g clip-path="url(#clip1)">
<path d="M41.4374 23.4875H40.8334C40.5685 21.9159 39.2036 20.7167 37.5583 20.7167C36.9066 20.7167 36.3003 20.9073 35.7872 21.232L35.7118 21.1567C35.0018 20.5173 34.0804 20.1632 33.1249 20.1625C32.1712 20.1625 31.253 20.5155 30.5165 21.1772L30.4622 21.2315C29.9328 20.8953 29.3187 20.7167 28.6916 20.7167C27.9064 20.7173 27.1468 20.9959 26.5473 21.5031C25.9478 22.0103 25.5472 22.7132 25.4165 23.4875H24.8124V24.5958H25.4165C25.6814 26.1674 27.0463 27.3667 28.6916 27.3667C30.5259 27.3667 32.0166 25.8776 32.0166 24.0417C32.0171 23.2894 31.761 22.5595 31.2906 21.9724C31.7956 21.5219 32.4482 21.2722 33.1249 21.2708C33.8049 21.2708 34.4605 21.523 34.9498 21.9608L34.9598 21.9713C34.4889 22.5585 34.2326 23.2889 34.2333 24.0417C34.2333 25.8776 35.7234 27.3667 37.5583 27.3667C38.3435 27.366 39.1031 27.0874 39.7026 26.5802C40.302 26.0731 40.7026 25.3701 40.8334 24.5958H41.4374V23.4875ZM28.6916 26.2583C27.4697 26.2583 26.4749 25.2636 26.4749 24.0417C26.4749 22.8197 27.4697 21.825 28.6916 21.825C29.9135 21.825 30.9083 22.8197 30.9083 24.0417C30.9083 25.2636 29.9135 26.2583 28.6916 26.2583ZM37.5583 26.2583C36.3363 26.2583 35.3416 25.2636 35.3416 24.0417C35.3416 22.8197 36.3363 21.825 37.5583 21.825C38.7802 21.825 39.7749 22.8197 39.7749 24.0417C39.7749 25.2636 38.7802 26.2583 37.5583 26.2583Z" fill="#F4A6F4"/>
</g>
<g clip-path="url(#clip2)">
<path opacity="0.1" d="M34.6448 29.6344V30.4365C34.177 30.6998 33.6551 30.8375 33.125 30.8375C32.5949 30.8375 32.073 30.6998 31.6053 30.4365V29.6344C32.073 29.8977 32.5949 30.0354 33.125 30.0354C33.6551 30.0354 34.177 29.8977 34.6448 29.6344Z" fill="#262234"/>
<path d="M34.9069 32.1369V36.6887C33.7281 36.9082 32.522 36.9082 31.3431 36.6887V32.1369H34.9069Z" fill="#D1D3D4"/>
<path d="M33.6911 33.5886H32.5513C32.5097 33.5884 32.4694 33.5737 32.4364 33.5469C32.4035 33.5201 32.3798 33.4827 32.369 33.4403L32.0954 32.3895C32.0878 32.3599 32.0868 32.3288 32.0924 32.2987C32.098 32.2686 32.1101 32.2403 32.1277 32.2159C32.1453 32.1915 32.168 32.1716 32.194 32.1579C32.2201 32.1443 32.2487 32.137 32.2778 32.1369H33.9571C33.9861 32.137 34.0148 32.1443 34.0408 32.1579C34.0668 32.1716 34.0895 32.1915 34.1071 32.2159C34.1247 32.2403 34.1368 32.2686 34.1424 32.2987C34.148 32.3288 34.147 32.3599 34.1394 32.3895L33.8849 33.4403C33.8736 33.4847 33.8482 33.5237 33.8129 33.5507C33.7777 33.5777 33.7346 33.5911 33.6911 33.5886Z" fill="#BE1E2D"/>
<path d="M34.0065 36.813C33.7139 36.8411 33.4214 36.8531 33.125 36.8531C32.8287 36.8531 32.5361 36.8531 32.2436 36.813L32.8705 33.1676H33.3796L34.0065 36.813Z" fill="#BE1E2D"/>
<path d="M33.125 32.1369L31.7345 33.7571L30.9138 30.8375L31.6053 30.3322L33.125 32.1369Z" fill="#F1F2F2"/>
<path d="M33.125 32.1369L34.5156 33.7571L35.3362 30.8375L34.6447 30.3322L33.125 32.1369Z" fill="#F1F2F2"/>
<path d="M32.707 36.8531C31.8398 36.8214 30.9803 36.6704 30.1501 36.4039L30.1805 31.046C30.1791 30.9795 30.1963 30.9139 30.2299 30.8575C30.2565 30.805 30.2938 30.7595 30.3391 30.7241C30.3845 30.6887 30.4367 30.6644 30.492 30.653L31.4153 30.4846L31.4913 30.8495L32.707 36.8531ZM36.0999 36.3919C35.2702 36.6625 34.4106 36.8175 33.5429 36.8531L34.7587 30.8375L34.8347 30.4725L35.7579 30.641C35.8133 30.6524 35.8655 30.6767 35.9108 30.7121C35.9562 30.7474 35.9935 30.793 36.0201 30.8455C36.0506 30.903 36.0664 30.968 36.0657 31.034L36.0999 36.3919Z" fill="#2A292A"/>
<path d="M35.7199 29.6985L33.125 30.9698L30.53 29.7025C30.4924 29.6844 30.4511 29.6765 30.4099 29.6796C30.3687 29.6827 30.3289 29.6967 30.2941 29.7202C30.2593 29.7438 30.2307 29.7761 30.2109 29.8144C30.191 29.8526 30.1806 29.8955 30.1805 29.9391V36.051L33.125 36.8531L36.0695 36.051V29.9351C36.0694 29.8915 36.0589 29.8486 36.0391 29.8104C36.0192 29.7721 35.9906 29.7398 35.9558 29.7162C35.921 29.6927 35.8812 29.6787 35.84 29.6756C35.7988 29.6725 35.7575 29.6804 35.7199 29.6985Z" fill="#F1F2F2"/>
<path d="M36.5064 30.0354L33.125 31.0942L29.7436 30.0354C29.7069 30.0243 29.6684 30.0222 29.6308 30.0295C29.5933 30.0367 29.5579 30.053 29.5274 30.0771C29.4968 30.1011 29.472 30.1324 29.4548 30.1683C29.4376 30.2042 29.4285 30.2438 29.4282 30.2841V36.4521L33.125 37.2542L36.8217 36.4521V30.276C36.8203 30.2365 36.8104 30.1978 36.7927 30.1629C36.775 30.128 36.75 30.0978 36.7196 30.0746C36.6892 30.0514 36.6542 30.0358 36.6173 30.029C36.5804 30.0222 36.5424 30.0244 36.5064 30.0354Z" fill="#D1D3D4"/>
<path d="M37.1409 30.4726L33.4555 31.1583C33.2369 31.1991 33.0131 31.1991 32.7945 31.1583L29.1091 30.4726C29.0737 30.4661 29.0373 30.468 29.0026 30.4779C28.968 30.4878 28.9357 30.5056 28.9082 30.5301C28.8807 30.5545 28.8586 30.585 28.8434 30.6194C28.8283 30.6538 28.8204 30.6913 28.8204 30.7292V36.5323C28.819 36.6278 28.8501 36.7207 28.9079 36.7943C28.9657 36.8678 29.0465 36.9171 29.1357 36.9333L32.7983 37.6151C33.0169 37.6559 33.2407 37.6559 33.4593 37.6151L37.1219 36.9333C37.2111 36.9171 37.2919 36.8678 37.3497 36.7943C37.4075 36.7207 37.4386 36.6278 37.4373 36.5323V30.7252C37.4369 30.6868 37.4284 30.6489 37.4126 30.6143C37.3967 30.5798 37.3738 30.5493 37.3455 30.5252C37.3172 30.501 37.2841 30.4838 37.2488 30.4747C37.2134 30.4656 37.1766 30.4649 37.1409 30.4726Z" fill="#BE1E2D"/>
<path d="M33.4099 31.1664V37.6111C33.2212 37.6432 33.0288 37.6432 32.84 37.6111V31.1664C33.0291 31.1944 33.2209 31.1944 33.4099 31.1664Z" fill="#A21B25"/>
</g>
</g>
<defs>
<linearGradient id="paint0_linear" x1="31.1121" y1="64" x2="30.4737" y2="-23.9998" gradientUnits="userSpaceOnUse">
<stop stop-color="#89C393"/>
<stop offset="1" stop-color="white"/>
</linearGradient>
<clipPath id="clip0">
<rect width="33.6" height="33.6" fill="white" transform="translate(20 8)"/>
</clipPath>
<clipPath id="clip1">
<rect width="16.8" height="7.23333" fill="white" transform="translate(24.725 20.075)"/>
</clipPath>
<clipPath id="clip2">
<rect width="8.4" height="8.4" fill="white" transform="translate(28.925 29.525)"/>
</clipPath>
</defs>
</svg>
