<svg width="64" height="64" viewBox="0 0 64 64" fill="none" xmlns="http://www.w3.org/2000/svg">
<ellipse cx="26" cy="56" rx="20" ry="6" fill="#E0E0E0" fill-opacity="0.9"/>
<g clip-path="url(#clip0)">
<path d="M-0.0183716 30.1906C1.64442 29.1627 2.24068 27.6906 3.03009 26.3009C4.1974 24.2532 5.53268 22.296 6.85955 20.3471C7.20387 19.8372 7.27945 19.5 6.89314 18.9902C5.77622 17.5182 5.07079 15.8735 4.95322 14.015C4.81045 11.6384 6.03655 10.7091 8.39638 11.3012C10.2019 11.7535 12.0411 12.0824 13.8718 12.4443C14.9132 12.6499 15.7446 12.2222 16.5928 11.4328C16.1057 11.2025 15.6942 11.0545 15.3415 10.816C15.1231 10.6598 14.8796 10.372 14.8796 10.1335C14.8796 9.91144 15.1399 9.54961 15.3583 9.49205C16.1813 9.27824 17.0547 8.96574 17.8777 9.03975C19.1878 9.16311 20.4726 9.56606 21.7659 9.84566C21.9255 9.87855 22.0766 9.90322 22.3874 9.95256C22.3874 9.27001 22.3454 8.65325 22.4042 8.04471C22.4462 7.55953 22.5637 7.07434 22.7401 6.61382C23.0172 5.85726 23.5883 5.78325 24.109 6.40001C24.7388 7.1319 25.4106 7.8309 25.9817 8.59569C26.7879 9.68119 27.972 9.92789 29.1981 10.2322C30.7013 10.6022 32.2802 10.9723 33.5902 11.7288C35.0431 12.5676 36.37 12.4196 37.8228 12.0824C39.1245 11.7782 40.4262 11.4575 41.7363 11.219C43.693 10.8654 44.6335 11.6959 44.6335 13.6614C44.6335 15.413 44.0709 17.0001 43.0715 18.4228C42.6348 19.0478 42.5005 19.4918 43.0715 20.125C43.7098 20.8323 44.1969 21.6628 44.8267 22.5592C45.0702 22.2302 45.213 21.9753 45.4062 21.7697C46.733 20.3059 48.0515 18.8339 49.3952 17.3866C49.8991 16.8439 50.4617 16.7041 50.9824 17.3948C51.7298 16.3258 52.3681 15.2403 53.1743 14.2946C55.4501 11.6055 58.3222 9.81276 61.841 9.07265C62.7815 8.87528 63.2686 9.21245 63.2266 10.2733C63.151 12.0742 62.9495 13.8669 62.7899 15.6597C62.7647 15.9228 62.7059 16.186 62.6472 16.5643C63.6297 16.2271 63.9237 16.811 63.9321 17.4771C63.9572 19.5741 64.0664 21.6875 63.8481 23.7598C63.3862 28.1594 62.3364 32.4274 60.3461 36.4322C57.5076 42.1393 53.5858 46.9583 48.1943 50.552C45.6077 52.2789 42.8784 53.644 39.7124 54.0141C39.4352 54.047 39.1245 54.2279 38.9229 54.4252C37.0334 56.2673 34.6652 57.0814 32.1122 57.4762C28.1148 58.0929 24.0922 58.0929 20.0779 57.7804C17.2646 57.5584 14.5773 56.8347 12.4862 54.7706C11.0081 53.3068 10.1516 51.5059 9.67287 49.5405C8.58953 45.0669 9.00943 40.7578 11.3273 36.6954C11.5792 36.2513 11.5204 35.947 10.9746 35.873C9.57209 35.6757 8.16963 35.4865 6.75878 35.3303C6.2381 35.2727 5.70064 35.3303 5.17156 35.2974C4.45774 35.2563 4.27298 34.9438 4.66769 34.3435C4.89443 34.0063 5.17996 33.6774 5.50748 33.4389C6.15412 32.9701 5.95257 32.6083 5.38151 32.3616C3.96226 31.7366 2.52621 31.1692 1.09016 30.5853C0.821424 30.4455 0.5107 30.3633 -0.0183716 30.1906Z" fill="black"/>
<path d="M16.7292 10.2966C17.9049 9.78678 18.9546 10.0335 19.8952 10.3131C20.8693 10.6009 21.7343 11.2588 22.6665 11.7193C22.9268 11.8427 23.2712 11.9002 23.5399 11.8427C23.6491 11.818 23.7498 11.3986 23.7246 11.1766C23.6071 10.0499 23.4475 8.93154 23.2712 7.58289C23.6827 7.78847 23.8422 7.82959 23.943 7.92827C24.8248 8.79996 25.631 9.76211 26.5884 10.5269C27.0838 10.9216 27.8396 11.0614 28.5115 11.1683C31.921 11.7193 34.8351 13.2571 37.3881 15.461C41.3603 18.8984 44.1905 23.1664 46.6007 27.7305C46.8778 28.2485 47.1465 28.7666 47.4741 29.3916C45.7945 29.3834 44.4592 28.7584 43.1575 28.1005C41.1 27.0726 39.1181 25.8884 37.0102 24.9509C33.3571 23.3227 29.6872 23.4789 26.1265 25.2799C25.3455 25.6746 24.7156 25.765 23.8758 25.3292C19.089 22.8128 14.4953 23.4871 9.9856 26.1515C7.9617 27.3439 5.94619 28.5939 3.60316 29.1449C3.37641 29.2025 3.14127 29.2436 2.72137 29.334C3.30923 28.1499 3.76272 27.1055 4.33378 26.1351C6.27371 22.8704 8.39839 19.7208 11.0689 16.9823C12.7569 15.2554 14.6633 13.7998 16.8467 12.6979C17.485 12.3772 18.0896 12.04 18.7279 12.7801C18.6103 11.5877 17.7537 10.9792 16.7292 10.2966Z" fill="#ABABAB"/>
<path d="M25.4804 57.0633C22.9862 56.8741 20.9707 56.7919 18.9804 56.5534C14.4623 56.0107 11.5818 53.2722 10.6748 48.8727C9.8686 44.9336 10.1961 41.159 12.1109 37.5571C12.6315 36.5785 12.7491 36.521 13.6897 37.1377C15.3357 38.215 16.9397 39.3499 18.5773 40.4354C22.5579 43.0833 26.5385 42.9682 30.5695 40.5012C32.879 39.0785 35.2388 37.7216 37.6238 36.4305C39.1355 35.6082 39.2866 35.6822 40.0172 37.2775C42.2007 42.039 42.5198 46.8332 39.8997 51.5371C38.4216 54.1933 36.0114 55.7393 32.9882 56.208C30.3428 56.6274 27.6723 56.8248 25.4804 57.0633Z" fill="#ABABAB"/>
<path d="M61.8596 18.3384C62.3886 17.8449 62.7414 17.5242 63.0857 17.2035C63.1613 17.2282 63.2452 17.2529 63.3208 17.2775C63.3208 17.8614 63.3628 18.4535 63.3124 19.0291C63.1529 20.8218 62.9597 22.6228 62.7582 24.4155C62.691 25.0323 61.2129 26.2329 60.5915 26.1753C60.4403 26.1589 60.2388 25.9286 60.1968 25.7641C60.0792 25.3119 60.054 24.8431 59.9616 24.3908C59.8105 23.6343 59.4158 23.478 58.7943 23.9221C57.3835 24.9254 57.3835 24.9253 56.804 23.2724C56.4261 22.1787 56.3505 22.1623 55.3344 22.853C54.9481 23.1162 54.545 23.3464 54.0999 23.626C53.2853 22.6557 53.7975 21.5044 53.4616 20.4189C53.1929 20.5751 52.9829 20.6903 52.7898 20.8218C52.4035 21.085 52.034 21.3893 51.6309 21.6277C50.2536 22.4501 50.0353 22.3843 49.4138 20.9699C49.313 20.7478 49.2207 20.5176 49.1199 20.2955C48.7756 19.5472 49.0863 18.7084 49.8589 18.4617C50.0101 18.4124 50.3292 18.5851 50.4216 18.7413C50.6651 19.1607 50.8331 19.6294 51.0934 20.2462C51.4041 19.5472 51.6645 18.9551 51.9248 18.3548C53.6968 14.276 56.8712 11.7102 61.087 10.304C62.0275 9.99154 62.2795 10.1807 62.2207 11.1428C62.1367 12.5573 61.9519 13.9717 61.868 15.3944C61.8092 16.2825 61.8596 17.2035 61.8596 18.3384Z" fill="#ABABAB"/>
<path d="M15.6617 37.1119C20.5662 31.7584 30.0055 32.1449 34.1793 37.0215C31.3743 38.6908 28.8298 40.796 25.4538 41.3141C24.1101 41.5197 22.8504 41.2648 21.6075 40.796C19.3904 39.9655 17.5933 38.4935 15.6617 37.1119ZM27.8556 36.4705C27.8724 34.8916 26.7051 33.7567 25.0675 33.7649C23.539 33.7732 22.4053 34.908 22.3969 36.4294C22.3885 37.8931 23.5894 39.102 25.0675 39.1349C26.5875 39.1678 27.8388 37.9672 27.8556 36.4705Z" fill="#ABABAB"/>
<path d="M54.9994 36.3308C55.8812 35.492 56.6454 34.7766 57.334 34.1269C57.7959 35.2124 58.2326 36.2157 58.6357 37.2354C58.6861 37.3588 58.6357 37.5726 58.5601 37.696C57.3088 39.5627 56.0407 41.4212 54.7642 43.2797C54.7054 43.362 54.5963 43.4031 54.3527 43.584C54.3695 43.2222 54.3611 43.0083 54.3947 42.7945C54.4619 42.3669 54.5963 41.9393 54.6383 41.5034C54.7222 40.6235 54.6215 40.5577 53.7481 40.714C52.9671 40.8538 52.1777 40.9689 51.2203 41.1334C51.489 40.4508 51.7326 39.941 51.8753 39.4064C51.9677 39.0528 52.0601 38.543 51.8753 38.3292C51.7158 38.14 51.1615 38.214 50.8004 38.2634C50.3049 38.3292 49.8262 38.4936 49.3391 38.5923C48.6505 38.7239 48.4826 38.5512 48.6337 37.8604C48.7261 37.4657 48.8941 37.0792 48.9696 36.6845C49.1292 35.7963 48.8269 35.4016 47.9451 35.2371C47.8611 35.2207 47.7771 35.196 47.6931 35.2042C45.9968 35.4345 45.2577 34.1187 44.3088 33.1648C44.2248 33.0825 44.3088 32.6549 44.4347 32.5809C45.3501 32.0711 46.2907 31.6023 47.2481 31.1747C47.3656 31.1171 47.7267 31.3392 47.8191 31.5119C47.9535 31.7668 47.9031 32.104 47.9955 32.3918C48.1382 32.803 48.365 33.0085 48.8773 32.7701C50.0278 32.2273 50.1789 32.3178 50.5065 33.5677C50.834 34.8095 51.1867 34.9493 52.3036 34.2585C53.8321 33.321 54.3191 33.5431 54.6634 35.2865C54.7138 35.5743 54.8482 35.8621 54.9994 36.3308Z" fill="#ABABAB"/>
<path d="M12.9914 13.4461C11.6309 14.877 10.2872 16.2585 8.98553 17.673C7.93578 18.8161 7.94418 18.8407 7.17157 17.4838C6.45775 16.2256 5.97906 14.8934 6.02105 13.4296C6.05464 12.4428 6.49134 12.0316 7.4571 12.2125C9.28785 12.5579 11.1018 12.9856 12.9242 13.3885C12.9997 13.4132 13.0501 13.4954 12.9914 13.4461Z" fill="#ABABAB"/>
<path d="M41.8711 18.2811C40.2419 16.513 38.7386 14.8848 37.2354 13.2483C37.1094 13.3141 36.9835 13.3799 36.8659 13.4457C37.0759 13.3717 37.2774 13.273 37.4874 13.2236C38.8898 12.9029 40.3091 12.6151 41.7115 12.2779C43.0048 11.9654 43.6094 12.352 43.5927 13.643C43.5675 15.3782 42.9544 16.9078 41.8711 18.2811Z" fill="#ABABAB"/>
<path d="M47.3075 48.659C47.3327 49.5964 47.0723 50.1968 46.3165 50.5504C44.4606 51.4303 42.6046 52.3184 40.7487 53.1901C40.6143 53.2477 40.4464 53.223 40.1608 53.2559C40.5807 52.4994 41.0426 51.8661 41.2945 51.1671C41.79 49.8103 42.1427 48.4123 42.5962 47.0389C42.7054 46.71 42.907 46.3564 43.1757 46.159C43.3772 46.011 43.8307 45.9699 44.0239 46.0932C44.1834 46.2001 44.1918 46.636 44.1331 46.9073C43.7216 49.0372 43.7132 49.029 45.905 48.733C46.3501 48.6754 46.7868 48.6919 47.3075 48.659Z" fill="#ABABAB"/>
<path d="M34.0972 33.2403C35.8356 31.1433 35.97 29.4822 34.6179 28.0924C33.4338 26.8753 31.6114 26.7191 30.209 27.7059C28.6134 28.8325 28.479 30.4279 29.7891 32.7551C28.7477 32.5166 27.8911 30.913 28.0003 29.3835C28.1431 27.27 29.7051 25.7322 31.9389 25.5102C33.7949 25.3293 35.7096 26.6039 36.2387 28.3638C36.8266 30.3621 36.0204 32.3193 34.0972 33.2403Z" fill="white"/>
<path d="M19.9805 33.2061C21.744 31.1256 21.8616 29.3329 20.4424 28.0336C19.0567 26.7672 17.142 26.7179 15.8319 27.9185C14.2783 29.3329 14.3791 30.9776 16.1342 33.1156C15.0425 33.0745 13.7492 31.1009 13.808 29.4973C13.8836 27.5073 15.3532 25.912 17.4947 25.5666C19.3758 25.2705 21.4753 26.4465 22.0296 28.1652C22.7014 30.221 21.8616 32.4413 19.9805 33.2061Z" fill="white"/>
<path d="M26.6323 35.2469C25.8256 34.9673 25.1618 34.737 24.4392 34.4903C25.2459 33.7995 26.2962 34.1449 26.6323 35.2469Z" fill="white"/>
<path d="M16.7832 30.4857C17.303 30.4857 17.7243 30.0734 17.7243 29.5647C17.7243 29.056 17.303 28.6437 16.7832 28.6437C16.2635 28.6437 15.8422 29.056 15.8422 29.5647C15.8422 30.0734 16.2635 30.4857 16.7832 30.4857Z" fill="white"/>
<path d="M31.2924 30.0412C31.8121 30.0412 32.2334 29.6289 32.2334 29.1202C32.2334 28.6115 31.8121 28.1992 31.2924 28.1992C30.7727 28.1992 30.3514 28.6115 30.3514 29.1202C30.3514 29.6289 30.7727 30.0412 31.2924 30.0412Z" fill="white"/>
<rect x="36.7266" y="13.1133" width="0.545" height="0.476562" fill="black"/>
</g>
<g clip-path="url(#clip1)">
<path d="M40.8333 29.5H39.6827C39.1782 26.5065 36.5783 24.2222 33.4444 24.2222C32.2031 24.2222 31.0483 24.5854 30.0708 25.2039L29.9273 25.0604C28.5749 23.8426 26.8198 23.1681 25 23.1667C23.1833 23.1667 21.4343 23.8391 20.0315 25.0994L19.928 25.2029C18.9197 24.5625 17.75 24.2223 16.5555 24.2222C15.0599 24.2235 13.613 24.7542 12.4711 25.7202C11.3293 26.6863 10.5662 28.0253 10.3172 29.5H9.16663V31.6111H10.3172C10.8217 34.6047 13.4216 36.8889 16.5555 36.8889C20.0494 36.8889 22.8888 34.0526 22.8888 30.5556C22.8898 29.1227 22.402 27.7323 21.5061 26.6141C22.4678 25.756 23.711 25.2805 25 25.2778C26.2951 25.2778 27.5438 25.7581 28.4759 26.592L28.4949 26.612C27.5979 27.7306 27.1097 29.1218 27.1111 30.5556C27.1111 34.0526 29.9495 36.8889 33.4444 36.8889C34.9401 36.8876 36.387 36.3569 37.5288 35.3909C38.6706 34.4249 39.4337 33.0859 39.6827 31.6111H40.8333V29.5ZM16.5555 34.7778C14.228 34.7778 12.3333 32.8831 12.3333 30.5556C12.3333 28.2281 14.228 26.3334 16.5555 26.3334C18.883 26.3334 20.7777 28.2281 20.7777 30.5556C20.7777 32.8831 18.883 34.7778 16.5555 34.7778ZM33.4444 34.7778C31.1169 34.7778 29.2222 32.8831 29.2222 30.5556C29.2222 28.2281 31.1169 26.3334 33.4444 26.3334C35.7719 26.3334 37.6666 28.2281 37.6666 30.5556C37.6666 32.8831 35.7719 34.7778 33.4444 34.7778Z" fill="#F4A6F4"/>
</g>
<g clip-path="url(#clip2)">
<path opacity="0.1" d="M27.8948 41.2083V42.7361C27.0039 43.2376 26.0097 43.5 25 43.5C23.9903 43.5 22.9962 43.2376 22.1053 42.7361V41.2083C22.9962 41.7099 23.9903 41.9722 25 41.9722C26.0097 41.9722 27.0039 41.7099 27.8948 41.2083Z" fill="#262234"/>
<path d="M28.3941 45.975V54.6451C26.1487 55.0632 23.8513 55.0632 21.606 54.6451V45.975H28.3941Z" fill="#D1D3D4"/>
<path d="M26.0783 48.7403H23.9073C23.8281 48.7398 23.7512 48.7119 23.6884 48.6608C23.6257 48.6098 23.5805 48.5384 23.5599 48.4576L23.0389 46.4562C23.0245 46.3998 23.0225 46.3406 23.0332 46.2833C23.0439 46.2259 23.0669 46.1719 23.1004 46.1254C23.134 46.0789 23.1772 46.0412 23.2268 46.0151C23.2763 45.989 23.3309 45.9753 23.3862 45.975H26.5849C26.6403 45.9753 26.6949 45.989 26.7444 46.0151C26.7939 46.0412 26.8372 46.0789 26.8707 46.1254C26.9043 46.1719 26.9273 46.2259 26.938 46.2833C26.9486 46.3406 26.9467 46.3998 26.9323 46.4562L26.4474 48.4576C26.426 48.5423 26.3776 48.6166 26.3104 48.668C26.2432 48.7195 26.1612 48.745 26.0783 48.7403Z" fill="#BE1E2D"/>
<path d="M26.679 54.8819C26.1218 54.9354 25.5645 54.9583 25.0001 54.9583C24.4356 54.9583 23.8783 54.9583 23.3211 54.8819L24.5152 47.9382H25.4849L26.679 54.8819Z" fill="#BE1E2D"/>
<path d="M25.0001 45.975L22.3514 49.0611L20.7883 43.5L22.1054 42.5375L25.0001 45.975Z" fill="#F1F2F2"/>
<path d="M25 45.975L27.6487 49.0611L29.2118 43.5L27.8947 42.5375L25 45.975Z" fill="#F1F2F2"/>
<path d="M24.204 54.9583C22.5521 54.898 20.9148 54.6104 19.3336 54.1028L19.3915 43.8972C19.3889 43.7704 19.4216 43.6456 19.4855 43.5382C19.5362 43.4382 19.6072 43.3514 19.6936 43.284C19.78 43.2166 19.8795 43.1704 19.9849 43.1486L21.7434 42.8278L21.8882 43.5229L24.204 54.9583ZM30.6665 54.0799C29.0861 54.5953 27.4488 54.8906 25.7961 54.9583L28.1118 43.5L28.2566 42.8049L30.0151 43.1257C30.1205 43.1475 30.22 43.1937 30.3064 43.2611C30.3928 43.3285 30.4639 43.4153 30.5145 43.5153C30.5727 43.6249 30.6026 43.7487 30.6013 43.8743L30.6665 54.0799Z" fill="#2A292A"/>
<path d="M29.9427 41.3306L25 43.7521L20.0572 41.3382C19.9856 41.3037 19.907 41.2887 19.8285 41.2946C19.75 41.3005 19.6741 41.3271 19.6079 41.3719C19.5416 41.4168 19.4871 41.4784 19.4493 41.5513C19.4115 41.6241 19.3916 41.7058 19.3914 41.7889V53.4306L25 54.9583L30.6085 53.4306V41.7813C30.6084 41.6982 30.5885 41.6165 30.5507 41.5436C30.5128 41.4708 30.4583 41.4091 30.3921 41.3643C30.3258 41.3194 30.25 41.2928 30.1715 41.287C30.093 41.2811 30.0143 41.2961 29.9427 41.3306Z" fill="#F1F2F2"/>
<path d="M31.4408 41.9722L25 43.9889L18.5592 41.9722C18.4894 41.951 18.4159 41.9471 18.3445 41.9609C18.2731 41.9746 18.2056 42.0057 18.1474 42.0515C18.0892 42.0974 18.0419 42.1569 18.0092 42.2253C17.9764 42.2937 17.9591 42.3692 17.9586 42.4458V54.1944L25 55.7222L32.0415 54.1944V42.4306C32.0388 42.3552 32.0199 42.2815 31.9862 42.215C31.9525 42.1485 31.9049 42.091 31.847 42.0468C31.7891 42.0027 31.7224 41.973 31.652 41.96C31.5817 41.9471 31.5094 41.9513 31.4408 41.9722Z" fill="#D1D3D4"/>
<path d="M32.6494 42.8048L25.6296 44.1111C25.2131 44.1888 24.7869 44.1888 24.3704 44.1111L17.3507 42.8048C17.2832 42.7926 17.214 42.7961 17.1479 42.815C17.0818 42.8339 17.0204 42.8678 16.9681 42.9144C16.9157 42.961 16.8736 43.019 16.8447 43.0845C16.8158 43.1501 16.8007 43.2214 16.8007 43.2937V54.3472C16.7982 54.5292 16.8573 54.7061 16.9674 54.8462C17.0775 54.9862 17.2314 55.0802 17.4013 55.1111L24.3776 56.4097C24.7942 56.4874 25.2203 56.4874 25.6369 56.4097L32.6132 55.1111C32.7831 55.0802 32.937 54.9862 33.0471 54.8462C33.1572 54.7061 33.2163 54.5292 33.2138 54.3472V43.2861C33.2131 43.2129 33.1971 43.1408 33.1668 43.0749C33.1366 43.009 33.093 42.951 33.039 42.9051C32.9851 42.8591 32.9222 42.8262 32.8548 42.8089C32.7875 42.7916 32.7173 42.7902 32.6494 42.8048Z" fill="#BE1E2D"/>
<path d="M25.5427 44.1264V56.4021C25.1832 56.4632 24.8167 56.4632 24.4572 56.4021V44.1264C24.8173 44.1798 25.1827 44.1798 25.5427 44.1264Z" fill="#A21B25"/>
</g>
<defs>
<clipPath id="clip0">
<rect width="64" height="64" fill="white"/>
</clipPath>
<clipPath id="clip1">
<rect width="32" height="13.7778" fill="white" transform="translate(9 23)"/>
</clipPath>
<clipPath id="clip2">
<rect width="16" height="16" fill="white" transform="translate(17 41)"/>
</clipPath>
</defs>
</svg>
