<svg width="64" height="64" viewBox="0 0 64 64" fill="none" xmlns="http://www.w3.org/2000/svg">
<ellipse cx="26" cy="56" rx="20" ry="6" fill="#E0E0E0" fill-opacity="0.9"/>
<g clip-path="url(#clip0)">
<path d="M-0.0183716 30.1906C1.64442 29.1627 2.24068 27.6906 3.03009 26.3009C4.1974 24.2532 5.53268 22.296 6.85955 20.3471C7.20387 19.8372 7.27945 19.5 6.89314 18.9902C5.77622 17.5182 5.07079 15.8735 4.95322 14.015C4.81045 11.6384 6.03655 10.7091 8.39638 11.3012C10.2019 11.7535 12.0411 12.0824 13.8718 12.4443C14.9132 12.6499 15.7446 12.2222 16.5928 11.4328C16.1057 11.2025 15.6942 11.0545 15.3415 10.816C15.1231 10.6598 14.8796 10.372 14.8796 10.1335C14.8796 9.91144 15.1399 9.54961 15.3583 9.49205C16.1813 9.27824 17.0547 8.96574 17.8777 9.03975C19.1878 9.16311 20.4726 9.56606 21.7659 9.84566C21.9255 9.87855 22.0766 9.90322 22.3874 9.95256C22.3874 9.27001 22.3454 8.65325 22.4042 8.04471C22.4462 7.55953 22.5637 7.07434 22.7401 6.61382C23.0172 5.85726 23.5883 5.78325 24.109 6.40001C24.7388 7.1319 25.4106 7.8309 25.9817 8.59569C26.7879 9.68119 27.972 9.92789 29.1981 10.2322C30.7013 10.6022 32.2802 10.9723 33.5902 11.7288C35.0431 12.5676 36.37 12.4196 37.8228 12.0824C39.1245 11.7782 40.4262 11.4575 41.7363 11.219C43.693 10.8654 44.6335 11.6959 44.6335 13.6614C44.6335 15.413 44.0709 17.0001 43.0715 18.4228C42.6348 19.0478 42.5005 19.4918 43.0715 20.125C43.7098 20.8323 44.1969 21.6628 44.8267 22.5592C45.0702 22.2302 45.213 21.9753 45.4062 21.7697C46.733 20.3059 48.0515 18.8339 49.3952 17.3866C49.8991 16.8439 50.4617 16.7041 50.9824 17.3948C51.7298 16.3258 52.3681 15.2403 53.1743 14.2946C55.4501 11.6055 58.3222 9.81276 61.841 9.07265C62.7815 8.87528 63.2686 9.21245 63.2266 10.2733C63.151 12.0742 62.9495 13.8669 62.7899 15.6597C62.7647 15.9228 62.7059 16.186 62.6472 16.5643C63.6297 16.2271 63.9237 16.811 63.9321 17.4771C63.9572 19.5741 64.0664 21.6875 63.8481 23.7598C63.3862 28.1594 62.3364 32.4274 60.3461 36.4322C57.5076 42.1393 53.5858 46.9583 48.1943 50.552C45.6077 52.2789 42.8784 53.644 39.7124 54.0141C39.4352 54.047 39.1245 54.2279 38.9229 54.4252C37.0334 56.2673 34.6652 57.0814 32.1122 57.4762C28.1148 58.0929 24.0922 58.0929 20.0779 57.7804C17.2646 57.5584 14.5773 56.8347 12.4862 54.7706C11.0081 53.3068 10.1516 51.5059 9.67287 49.5405C8.58953 45.0669 9.00943 40.7578 11.3273 36.6954C11.5792 36.2513 11.5204 35.947 10.9746 35.873C9.57209 35.6757 8.16963 35.4865 6.75878 35.3303C6.2381 35.2727 5.70064 35.3303 5.17156 35.2974C4.45774 35.2563 4.27298 34.9438 4.66769 34.3435C4.89443 34.0063 5.17996 33.6774 5.50748 33.4389C6.15412 32.9701 5.95257 32.6083 5.38151 32.3616C3.96226 31.7366 2.52621 31.1692 1.09016 30.5853C0.821424 30.4455 0.5107 30.3633 -0.0183716 30.1906Z" fill="black"/>
<path d="M16.7292 10.2966C17.9049 9.78678 18.9546 10.0335 19.8952 10.3131C20.8693 10.6009 21.7343 11.2588 22.6665 11.7193C22.9268 11.8427 23.2712 11.9002 23.5399 11.8427C23.6491 11.818 23.7498 11.3986 23.7246 11.1766C23.6071 10.0499 23.4475 8.93154 23.2712 7.58289C23.6827 7.78847 23.8422 7.82959 23.943 7.92827C24.8248 8.79996 25.631 9.76211 26.5884 10.5269C27.0838 10.9216 27.8396 11.0614 28.5115 11.1683C31.921 11.7193 34.8351 13.2571 37.3881 15.461C41.3603 18.8984 44.1905 23.1664 46.6007 27.7305C46.8778 28.2485 47.1465 28.7666 47.4741 29.3916C45.7945 29.3834 44.4592 28.7584 43.1575 28.1005C41.1 27.0726 39.1181 25.8884 37.0102 24.9509C33.3571 23.3227 29.6872 23.4789 26.1265 25.2799C25.3455 25.6746 24.7156 25.765 23.8758 25.3292C19.089 22.8128 14.4953 23.4871 9.9856 26.1515C7.9617 27.3439 5.94619 28.5939 3.60316 29.1449C3.37641 29.2025 3.14127 29.2436 2.72137 29.334C3.30923 28.1499 3.76272 27.1055 4.33378 26.1351C6.27371 22.8704 8.39839 19.7208 11.0689 16.9823C12.7569 15.2554 14.6633 13.7998 16.8467 12.6979C17.485 12.3772 18.0896 12.04 18.7279 12.7801C18.6103 11.5877 17.7537 10.9792 16.7292 10.2966Z" fill="#ABABAB"/>
<path d="M25.4804 57.0633C22.9862 56.8741 20.9707 56.7919 18.9804 56.5534C14.4623 56.0107 11.5818 53.2722 10.6748 48.8727C9.8686 44.9336 10.1961 41.159 12.1109 37.5571C12.6315 36.5785 12.7491 36.521 13.6897 37.1377C15.3357 38.215 16.9397 39.3499 18.5773 40.4354C22.5579 43.0833 26.5385 42.9682 30.5695 40.5012C32.879 39.0785 35.2388 37.7216 37.6238 36.4305C39.1355 35.6082 39.2866 35.6822 40.0172 37.2775C42.2007 42.039 42.5198 46.8332 39.8997 51.5371C38.4216 54.1933 36.0114 55.7393 32.9882 56.208C30.3428 56.6274 27.6723 56.8248 25.4804 57.0633Z" fill="#ABABAB"/>
<path d="M61.8596 18.3384C62.3886 17.8449 62.7414 17.5242 63.0857 17.2035C63.1613 17.2282 63.2452 17.2529 63.3208 17.2775C63.3208 17.8614 63.3628 18.4535 63.3124 19.0291C63.1529 20.8218 62.9597 22.6228 62.7582 24.4155C62.691 25.0323 61.2129 26.2329 60.5915 26.1753C60.4403 26.1589 60.2388 25.9286 60.1968 25.7641C60.0792 25.3119 60.054 24.8431 59.9616 24.3908C59.8105 23.6343 59.4158 23.478 58.7943 23.9221C57.3835 24.9254 57.3835 24.9253 56.804 23.2724C56.4261 22.1787 56.3505 22.1623 55.3344 22.853C54.9481 23.1162 54.545 23.3464 54.0999 23.626C53.2853 22.6557 53.7975 21.5044 53.4616 20.4189C53.1929 20.5751 52.9829 20.6903 52.7898 20.8218C52.4035 21.085 52.034 21.3893 51.6309 21.6277C50.2536 22.4501 50.0353 22.3843 49.4138 20.9699C49.313 20.7478 49.2207 20.5176 49.1199 20.2955C48.7756 19.5472 49.0863 18.7084 49.8589 18.4617C50.0101 18.4124 50.3292 18.5851 50.4216 18.7413C50.6651 19.1607 50.8331 19.6294 51.0934 20.2462C51.4041 19.5472 51.6645 18.9551 51.9248 18.3548C53.6968 14.276 56.8712 11.7102 61.087 10.304C62.0275 9.99154 62.2795 10.1807 62.2207 11.1428C62.1367 12.5573 61.9519 13.9717 61.868 15.3944C61.8092 16.2825 61.8596 17.2035 61.8596 18.3384Z" fill="#ABABAB"/>
<path d="M15.6617 37.1119C20.5662 31.7584 30.0055 32.1449 34.1793 37.0215C31.3743 38.6908 28.8298 40.796 25.4538 41.3141C24.1101 41.5197 22.8504 41.2648 21.6075 40.796C19.3904 39.9655 17.5933 38.4935 15.6617 37.1119ZM27.8556 36.4705C27.8724 34.8916 26.7051 33.7567 25.0675 33.7649C23.539 33.7732 22.4053 34.908 22.3969 36.4294C22.3885 37.8931 23.5894 39.102 25.0675 39.1349C26.5875 39.1678 27.8388 37.9672 27.8556 36.4705Z" fill="#ABABAB"/>
<path d="M54.9994 36.3308C55.8812 35.492 56.6454 34.7766 57.334 34.1269C57.7959 35.2124 58.2326 36.2157 58.6357 37.2354C58.6861 37.3588 58.6357 37.5726 58.5601 37.696C57.3088 39.5627 56.0407 41.4212 54.7642 43.2797C54.7054 43.362 54.5963 43.4031 54.3527 43.584C54.3695 43.2222 54.3611 43.0083 54.3947 42.7945C54.4619 42.3669 54.5963 41.9393 54.6383 41.5034C54.7222 40.6235 54.6215 40.5577 53.7481 40.714C52.9671 40.8538 52.1777 40.9689 51.2203 41.1334C51.489 40.4508 51.7326 39.941 51.8753 39.4064C51.9677 39.0528 52.0601 38.543 51.8753 38.3292C51.7158 38.14 51.1615 38.214 50.8004 38.2634C50.3049 38.3292 49.8262 38.4936 49.3391 38.5923C48.6505 38.7239 48.4826 38.5512 48.6337 37.8604C48.7261 37.4657 48.8941 37.0792 48.9696 36.6845C49.1292 35.7963 48.8269 35.4016 47.9451 35.2371C47.8611 35.2207 47.7771 35.196 47.6931 35.2042C45.9968 35.4345 45.2577 34.1187 44.3088 33.1648C44.2248 33.0825 44.3088 32.6549 44.4347 32.5809C45.3501 32.0711 46.2907 31.6023 47.2481 31.1747C47.3656 31.1171 47.7267 31.3392 47.8191 31.5119C47.9535 31.7668 47.9031 32.104 47.9955 32.3918C48.1382 32.803 48.365 33.0085 48.8773 32.7701C50.0278 32.2273 50.1789 32.3178 50.5065 33.5677C50.834 34.8095 51.1867 34.9493 52.3036 34.2585C53.8321 33.321 54.3191 33.5431 54.6634 35.2865C54.7138 35.5743 54.8482 35.8621 54.9994 36.3308Z" fill="#ABABAB"/>
<path d="M12.9914 13.4461C11.6309 14.877 10.2872 16.2585 8.98553 17.673C7.93578 18.8161 7.94418 18.8407 7.17157 17.4838C6.45775 16.2256 5.97906 14.8934 6.02105 13.4296C6.05464 12.4428 6.49134 12.0316 7.4571 12.2125C9.28785 12.5579 11.1018 12.9856 12.9242 13.3885C12.9997 13.4132 13.0501 13.4954 12.9914 13.4461Z" fill="#ABABAB"/>
<path d="M41.8711 18.2811C40.2419 16.513 38.7386 14.8848 37.2354 13.2483C37.1094 13.3141 36.9835 13.3799 36.8659 13.4457C37.0759 13.3717 37.2774 13.273 37.4874 13.2236C38.8898 12.9029 40.3091 12.6151 41.7115 12.2779C43.0048 11.9654 43.6094 12.352 43.5927 13.643C43.5675 15.3782 42.9544 16.9078 41.8711 18.2811Z" fill="#ABABAB"/>
<path d="M47.3075 48.659C47.3327 49.5964 47.0723 50.1968 46.3165 50.5504C44.4606 51.4303 42.6046 52.3184 40.7487 53.1901C40.6143 53.2477 40.4464 53.223 40.1608 53.2559C40.5807 52.4994 41.0426 51.8661 41.2945 51.1671C41.79 49.8103 42.1427 48.4123 42.5962 47.0389C42.7054 46.71 42.907 46.3564 43.1757 46.159C43.3772 46.011 43.8307 45.9699 44.0239 46.0932C44.1834 46.2001 44.1918 46.636 44.1331 46.9073C43.7216 49.0372 43.7132 49.029 45.905 48.733C46.3501 48.6754 46.7868 48.6919 47.3075 48.659Z" fill="#ABABAB"/>
<path d="M34.0972 33.2403C35.8356 31.1433 35.97 29.4822 34.6179 28.0924C33.4338 26.8753 31.6114 26.7191 30.209 27.7059C28.6134 28.8325 28.479 30.4279 29.7891 32.7551C28.7477 32.5166 27.8911 30.913 28.0003 29.3835C28.1431 27.27 29.7051 25.7322 31.9389 25.5102C33.7949 25.3293 35.7096 26.6039 36.2387 28.3638C36.8266 30.3621 36.0204 32.3193 34.0972 33.2403Z" fill="white"/>
<path d="M19.9805 33.2061C21.744 31.1256 21.8616 29.3329 20.4424 28.0336C19.0567 26.7672 17.142 26.7179 15.8319 27.9185C14.2783 29.3329 14.3791 30.9776 16.1342 33.1156C15.0425 33.0745 13.7492 31.1009 13.808 29.4973C13.8836 27.5073 15.3532 25.912 17.4947 25.5666C19.3758 25.2705 21.4753 26.4465 22.0296 28.1652C22.7014 30.221 21.8616 32.4413 19.9805 33.2061Z" fill="white"/>
<path d="M26.6323 35.2469C25.8256 34.9673 25.1618 34.737 24.4392 34.4903C25.2459 33.7995 26.2962 34.1449 26.6323 35.2469Z" fill="white"/>
<path d="M16.7832 30.4857C17.303 30.4857 17.7243 30.0734 17.7243 29.5647C17.7243 29.056 17.303 28.6437 16.7832 28.6437C16.2635 28.6437 15.8422 29.056 15.8422 29.5647C15.8422 30.0734 16.2635 30.4857 16.7832 30.4857Z" fill="white"/>
<path d="M31.2924 30.0412C31.8121 30.0412 32.2334 29.6289 32.2334 29.1202C32.2334 28.6115 31.8121 28.1992 31.2924 28.1992C30.7727 28.1992 30.3514 28.6115 30.3514 29.1202C30.3514 29.6289 30.7727 30.0412 31.2924 30.0412Z" fill="white"/>
<rect x="36.7266" y="13.1133" width="0.545" height="0.476562" fill="black"/>
</g>
<path d="M19.125 54.625V62.125C19.1244 62.3237 19.0452 62.5142 18.9047 62.6547C18.7642 62.7952 18.5737 62.8744 18.375 62.875H5.625C5.42627 62.8744 5.23585 62.7952 5.09533 62.6547C4.9548 62.5142 4.87559 62.3237 4.875 62.125V54.625H19.125Z" fill="#1E81CE"/>
<path d="M14.625 42.25H7.125V49.375H14.625V42.25Z" fill="#FF5023"/>
<path d="M13.125 44.125H8.625V46H13.125V44.125Z" fill="#FFDA44"/>
<path d="M8.625 58.75V59.875L7.875 60.625L7.125 59.875V58.75H8.625Z" fill="#E0E0E2"/>
<path d="M8.625 54.625H7.125V57.25H8.625V54.625Z" fill="#E0E0E2"/>
<path d="M16.875 58.75V59.875L16.125 60.625L15.375 59.875V58.75H16.875Z" fill="#E0E0E2"/>
<path d="M16.875 54.625H15.375V57.25H16.875V54.625Z" fill="#E0E0E2"/>
<path d="M9.375 57.25V58.75H8.625H7.125H6.375V57.25H7.125H8.625H9.375Z" fill="#FFDA44"/>
<path d="M17.625 57.25V58.75H16.875H15.375H14.625V57.25H15.375H16.875H17.625Z" fill="#FFDA44"/>
<path d="M4.875 54.625V56.125H1.125V54.625C1.12559 54.4263 1.2048 54.2358 1.34533 54.0953C1.48585 53.9548 1.67627 53.8756 1.875 53.875H4.125V54.625H4.875ZM19.875 54.625V53.875H22.125C22.3237 53.8756 22.5142 53.9548 22.6547 54.0953C22.7952 54.2358 22.8744 54.4263 22.875 54.625V56.125H19.125V54.625H19.875Z" fill="#2488FF"/>
<path d="M4.875 56.125V60.25H1.875C1.67627 60.2494 1.48585 60.1702 1.34533 60.0297C1.2048 59.8892 1.12559 59.6987 1.125 59.5V56.125H4.875ZM22.875 56.125V59.5C22.8744 59.6987 22.7952 59.8892 22.6547 60.0297C22.5142 60.1702 22.3237 60.2494 22.125 60.25H19.125V56.125H22.875Z" fill="#003F8A"/>
<path d="M19.875 49.375H4.125V54.625H19.875V49.375Z" fill="#898890"/>
<path d="M17.25 41.125L18.375 43L17.25 43.75L16.125 43L17.25 41.125Z" fill="#B39A7C"/>
<path d="M18.375 43V49.375H16.125V43L17.25 43.75L18.375 43Z" fill="#D80027"/>
<path d="M7.125 42.25V49.375H5.625V43C5.62559 42.8013 5.7048 42.6108 5.84533 42.4703C5.98585 42.3298 6.17627 42.2506 6.375 42.25H7.125Z" fill="#FF9811"/>
<path d="M16.8691 41.9071L17.2529 41.2744L17.6309 41.9071H16.8691Z" fill="black" stroke="black" stroke-width="0.2"/>
<defs>
<clipPath id="clip0">
<rect width="64" height="64" fill="white"/>
</clipPath>
</defs>
</svg>
