<svg width="92" height="64" viewBox="0 0 92 64" fill="none" xmlns="http://www.w3.org/2000/svg">
<path d="M39 50.5C38.6617 50.498 38.3339 50.3817 38.07 50.17L24 38.92L9.93003 50.17C9.77898 50.3126 9.59997 50.4222 9.40433 50.492C9.20869 50.5618 9.00069 50.5902 8.79351 50.5754C8.58633 50.5606 8.38448 50.5029 8.20074 50.406C8.01701 50.3091 7.8554 50.1752 7.72616 50.0126C7.59691 49.85 7.50284 49.6623 7.44991 49.4614C7.39698 49.2606 7.38634 49.0509 7.41867 48.8457C7.451 48.6406 7.52558 48.4443 7.63771 48.2695C7.74983 48.0946 7.89705 47.945 8.07003 47.83L23.07 35.83C23.3348 35.6207 23.6625 35.5069 24 35.5069C24.3375 35.5069 24.6652 35.6207 24.93 35.83L39.93 47.83C40.0852 47.9527 40.2146 48.1049 40.3108 48.2778C40.4069 48.4507 40.4679 48.641 40.4902 48.8375C40.5125 49.0341 40.4957 49.2332 40.4407 49.4233C40.3858 49.6133 40.2938 49.7906 40.17 49.945C40.0289 50.119 39.8505 50.2592 39.648 50.3553C39.4455 50.4513 39.2241 50.5008 39 50.5Z" fill="#C9C1F5"/>
<path d="M40.17 49.93C40.0303 50.1068 39.8526 50.2498 39.65 50.3485C39.4475 50.4472 39.2253 50.499 39 50.5C38.6617 50.498 38.3339 50.3817 38.07 50.17L24 38.92V35.5C24.3383 35.502 24.6661 35.6183 24.93 35.83L28.275 38.5L39.93 47.83C40.2391 48.0775 40.4378 48.4372 40.4827 48.8305C40.5277 49.2239 40.4153 49.6192 40.17 49.93Z" fill="#AFBDD6"/>
<path d="M43.5 11.5H4.5C3.67157 11.5 3 12.1716 3 13V37C3 37.8284 3.67157 38.5 4.5 38.5H43.5C44.3284 38.5 45 37.8284 45 37V13C45 12.1716 44.3284 11.5 43.5 11.5Z" fill="#91E085"/>
<path d="M45 13V37C45 37.3978 44.842 37.7794 44.5607 38.0607C44.2794 38.342 43.8978 38.5 43.5 38.5H24V11.5H43.5C43.8978 11.5 44.2794 11.658 44.5607 11.9393C44.842 12.2206 45 12.6022 45 13Z" fill="#84BF6F"/>
<path d="M45 5.5H3C2.17157 5.5 1.5 6.17157 1.5 7V13C1.5 13.8284 2.17157 14.5 3 14.5H45C45.8284 14.5 46.5 13.8284 46.5 13V7C46.5 6.17157 45.8284 5.5 45 5.5Z" fill="#D6B5B0"/>
<path d="M46.5 7V13C46.5 13.3978 46.342 13.7794 46.0607 14.0607C45.7794 14.342 45.3978 14.5 45 14.5H24V5.5H45C45.3978 5.5 45.7794 5.65804 46.0607 5.93934C46.342 6.22064 46.5 6.60218 46.5 7Z" fill="#BF9E99"/>
<ellipse cx="54" cy="56" rx="20" ry="6" fill="#E0E0E0" fill-opacity="0.9"/>
<g clip-path="url(#clip0)">
<path d="M27.9816 30.1906C29.6444 29.1626 30.2407 27.6906 31.0301 26.3008C32.1974 24.2532 33.5327 22.296 34.8596 20.347C35.2039 19.8372 35.2795 19.5 34.8931 18.9902C33.7762 17.5181 33.0708 15.8734 32.9532 14.0149C32.8105 11.6383 34.0366 10.7091 36.3964 11.3012C38.2019 11.7535 40.0411 12.0824 41.8718 12.4443C42.9132 12.6498 43.7446 12.2222 44.5928 11.4328C44.1057 11.2025 43.6942 11.0545 43.3415 10.816C43.1231 10.6598 42.8796 10.3719 42.8796 10.1334C42.8796 9.91141 43.1399 9.54958 43.3583 9.49202C44.1813 9.2782 45.0547 8.96571 45.8777 9.03972C47.1878 9.16308 48.4726 9.56603 49.7659 9.84563C49.9255 9.87852 50.0766 9.90319 50.3874 9.95253C50.3874 9.26998 50.3454 8.65322 50.4042 8.04468C50.4462 7.55949 50.5637 7.07431 50.7401 6.61379C51.0172 5.85723 51.5883 5.78322 52.109 6.39998C52.7388 7.13187 53.4106 7.83087 53.9817 8.59566C54.7879 9.68116 55.972 9.92786 57.1981 10.2321C58.7013 10.6022 60.2802 10.9722 61.5902 11.7288C63.0431 12.5676 64.37 12.4196 65.8228 12.0824C67.1245 11.7781 68.4262 11.4574 69.7363 11.219C71.693 10.8653 72.6335 11.6959 72.6335 13.6613C72.6335 15.4129 72.0709 17.0001 71.0715 18.4227C70.6348 19.0477 70.5005 19.4918 71.0715 20.125C71.7098 20.8322 72.1969 21.6628 72.8267 22.5592C73.0702 22.2302 73.213 21.9753 73.4062 21.7697C74.733 20.3059 76.0515 18.8339 77.3952 17.3866C77.8991 16.8438 78.4617 16.704 78.9824 17.3948C79.7298 16.3257 80.3681 15.2402 81.1743 14.2945C83.4501 11.6055 86.3222 9.81273 89.841 9.07262C90.7815 8.87525 91.2686 9.21242 91.2266 10.2732C91.151 12.0742 90.9495 13.8669 90.7899 15.6596C90.7647 15.9228 90.7059 16.1859 90.6472 16.5642C91.6297 16.2271 91.9237 16.8109 91.9321 17.477C91.9572 19.574 92.0664 21.6875 91.8481 23.7598C91.3862 28.1594 90.3364 32.4274 88.3461 36.4322C85.5076 42.1393 81.5858 46.9583 76.1943 50.5519C73.6077 52.2789 70.8784 53.644 67.7124 54.014C67.4352 54.0469 67.1245 54.2278 66.9229 54.4252C65.0334 56.2673 62.6652 57.0814 60.1122 57.4761C56.1148 58.0929 52.0922 58.0929 48.0779 57.7804C45.2646 57.5584 42.5773 56.8347 40.4862 54.7706C39.0081 53.3068 38.1516 51.5059 37.6729 49.5405C36.5895 45.0669 37.0094 40.7578 39.3273 36.6953C39.5792 36.2513 39.5204 35.947 38.9746 35.873C37.5721 35.6756 36.1696 35.4865 34.7588 35.3302C34.2381 35.2727 33.7006 35.3302 33.1716 35.2974C32.4577 35.2562 32.273 34.9437 32.6677 34.3434C32.8944 34.0063 33.18 33.6773 33.5075 33.4388C34.1541 32.9701 33.9526 32.6083 33.3815 32.3616C31.9623 31.7366 30.5262 31.1692 29.0902 30.5853C28.8214 30.4455 28.5107 30.3633 27.9816 30.1906Z" fill="black"/>
<path d="M44.7292 10.2966C45.9049 9.78672 46.9546 10.0334 47.8952 10.313C48.8693 10.6008 49.7343 11.2587 50.6665 11.7192C50.9268 11.8426 51.2712 11.9002 51.5399 11.8426C51.6491 11.8179 51.7498 11.3985 51.7246 11.1765C51.6071 10.0499 51.4475 8.93148 51.2712 7.58282C51.6827 7.78841 51.8422 7.82953 51.943 7.92821C52.8248 8.7999 53.631 9.76205 54.5884 10.5268C55.0838 10.9216 55.8396 11.0614 56.5115 11.1683C59.921 11.7192 62.8351 13.257 65.3881 15.4609C69.3603 18.8984 72.1905 23.1664 74.6007 27.7304C74.8778 28.2485 75.1465 28.7666 75.4741 29.3915C73.7945 29.3833 72.4592 28.7583 71.1575 28.1004C69.1 27.0725 67.1181 25.8883 65.0102 24.9508C61.3571 23.3226 57.6872 23.4788 54.1265 25.2798C53.3455 25.6745 52.7156 25.765 51.8758 25.3291C47.089 22.8127 42.4953 23.4871 37.9856 26.1515C35.9617 27.3439 33.9462 28.5939 31.6032 29.1448C31.3764 29.2024 31.1413 29.2435 30.7214 29.334C31.3092 28.1498 31.7627 27.1054 32.3338 26.135C34.2737 22.8703 36.3984 19.7207 39.0689 16.9823C40.7569 15.2553 42.6633 13.7998 44.8467 12.6978C45.485 12.3771 46.0896 12.04 46.7279 12.7801C46.6103 11.5877 45.7537 10.9791 44.7292 10.2966Z" fill="#ABABAB"/>
<path d="M53.4804 57.0632C50.9862 56.8741 48.9707 56.7919 46.9804 56.5534C42.4623 56.0106 39.5818 53.2722 38.6748 48.8726C37.8686 44.9336 38.1961 41.159 40.1109 37.5571C40.6315 36.5785 40.7491 36.521 41.6897 37.1377C43.3357 38.215 44.9397 39.3498 46.5773 40.4353C50.5579 43.0833 54.5385 42.9682 58.5695 40.5011C60.879 39.0785 63.2388 37.7216 65.6238 36.4305C67.1355 35.6081 67.2866 35.6822 68.0172 37.2775C70.2007 42.0389 70.5198 46.8332 67.8997 51.5371C66.4216 54.1932 64.0114 55.7393 60.9882 56.208C58.3428 56.6274 55.6723 56.8248 53.4804 57.0632Z" fill="#ABABAB"/>
<path d="M89.8596 18.3383C90.3886 17.8449 90.7414 17.5242 91.0857 17.2035C91.1613 17.2281 91.2452 17.2528 91.3208 17.2775C91.3208 17.8613 91.3628 18.4534 91.3124 19.0291C91.1529 20.8218 90.9597 22.6227 90.7582 24.4154C90.691 25.0322 89.2129 26.2328 88.5915 26.1753C88.4403 26.1588 88.2388 25.9286 88.1968 25.7641C88.0792 25.3118 88.054 24.8431 87.9616 24.3908C87.8105 23.6342 87.4158 23.478 86.7943 23.922C85.3835 24.9253 85.3835 24.9253 84.804 23.2724C84.4261 22.1787 84.3505 22.1622 83.3344 22.853C82.9481 23.1161 82.545 23.3464 82.0999 23.626C81.2853 22.6556 81.7975 21.5043 81.4616 20.4188C81.1929 20.5751 80.9829 20.6902 80.7898 20.8218C80.4035 21.0849 80.034 21.3892 79.6309 21.6277C78.2536 22.45 78.0353 22.3842 77.4138 20.9698C77.313 20.7478 77.2207 20.5175 77.1199 20.2955C76.7756 19.5471 77.0863 18.7084 77.8589 18.4616C78.0101 18.4123 78.3292 18.585 78.4216 18.7412C78.6651 19.1606 78.8331 19.6294 79.0934 20.2461C79.4041 19.5471 79.6645 18.9551 79.9248 18.3547C81.6968 14.2759 84.8712 11.7102 89.087 10.304C90.0275 9.99148 90.2795 10.1806 90.2207 11.1428C90.1367 12.5572 89.9519 13.9716 89.868 15.3943C89.8092 16.2824 89.8596 17.2035 89.8596 18.3383Z" fill="#ABABAB"/>
<path d="M43.6617 37.1118C48.5662 31.7583 58.0055 32.1449 62.1793 37.0214C59.3743 38.6908 56.8298 40.796 53.4538 41.3141C52.1101 41.5196 50.8504 41.2647 49.6075 40.796C47.3904 39.9654 45.5933 38.4934 43.6617 37.1118ZM55.8556 36.4704C55.8724 34.8915 54.7051 33.7567 53.0675 33.7649C51.539 33.7731 50.4053 34.9079 50.3969 36.4293C50.3885 37.8931 51.5894 39.1019 53.0675 39.1348C54.5875 39.1677 55.8388 37.9671 55.8556 36.4704Z" fill="#ABABAB"/>
<path d="M82.9994 36.3308C83.8812 35.492 84.6454 34.7765 85.334 34.1268C85.7959 35.2124 86.2326 36.2156 86.6357 37.2353C86.6861 37.3587 86.6357 37.5725 86.5601 37.6959C85.3088 39.5626 84.0407 41.4211 82.7642 43.2796C82.7054 43.3619 82.5963 43.403 82.3527 43.5839C82.3695 43.2221 82.3611 43.0083 82.3947 42.7944C82.4619 42.3668 82.5963 41.9392 82.6383 41.5034C82.7222 40.6234 82.6215 40.5576 81.7481 40.7139C80.9671 40.8537 80.1777 40.9688 79.2203 41.1333C79.489 40.4507 79.7326 39.9409 79.8753 39.4064C79.9677 39.0527 80.0601 38.5429 79.8753 38.3291C79.7158 38.1399 79.1615 38.2139 78.8004 38.2633C78.3049 38.3291 77.8262 38.4935 77.3391 38.5922C76.6505 38.7238 76.4826 38.5511 76.6337 37.8603C76.7261 37.4656 76.8941 37.0791 76.9696 36.6844C77.1292 35.7962 76.8269 35.4015 75.9451 35.237C75.8611 35.2206 75.7771 35.1959 75.6931 35.2041C73.9968 35.4344 73.2577 34.1186 72.3088 33.1647C72.2248 33.0825 72.3088 32.6548 72.4347 32.5808C73.3501 32.071 74.2907 31.6022 75.2481 31.1746C75.3656 31.117 75.7267 31.3391 75.8191 31.5118C75.9535 31.7667 75.9031 32.1039 75.9955 32.3917C76.1382 32.8029 76.365 33.0084 76.8773 32.77C78.0278 32.2272 78.1789 32.3177 78.5065 33.5676C78.834 34.8094 79.1867 34.9492 80.3036 34.2584C81.8321 33.3209 82.3191 33.543 82.6634 35.2864C82.7138 35.5742 82.8482 35.862 82.9994 36.3308Z" fill="#ABABAB"/>
<path d="M40.9914 13.446C39.6309 14.8769 38.2872 16.2585 36.9855 17.6729C35.9358 18.816 35.9442 18.8407 35.1716 17.4838C34.4577 16.2256 33.9791 14.8934 34.0211 13.4296C34.0546 12.4427 34.4913 12.0316 35.4571 12.2125C37.2879 12.5579 39.1018 12.9855 40.9242 13.3884C40.9997 13.4131 41.0501 13.4954 40.9914 13.446Z" fill="#ABABAB"/>
<path d="M69.8711 18.281C68.2419 16.513 66.7386 14.8847 65.2354 13.2483C65.1094 13.314 64.9835 13.3798 64.8659 13.4456C65.0759 13.3716 65.2774 13.2729 65.4874 13.2236C66.8898 12.9029 68.3091 12.615 69.7115 12.2779C71.0048 11.9654 71.6094 12.3519 71.5927 13.643C71.5675 15.3781 70.9544 16.9077 69.8711 18.281Z" fill="#ABABAB"/>
<path d="M75.3075 48.6589C75.3327 49.5964 75.0723 50.1967 74.3165 50.5503C72.4606 51.4302 70.6046 52.3183 68.7487 53.19C68.6143 53.2476 68.4464 53.2229 68.1608 53.2558C68.5807 52.4993 69.0426 51.8661 69.2945 51.167C69.79 49.8102 70.1427 48.4122 70.5962 47.0388C70.7054 46.7099 70.907 46.3563 71.1757 46.1589C71.3772 46.0109 71.8307 45.9698 72.0239 46.0931C72.1834 46.2 72.1918 46.6359 72.1331 46.9073C71.7216 49.0372 71.7132 49.0289 73.905 48.7329C74.3501 48.6753 74.7868 48.6918 75.3075 48.6589Z" fill="#ABABAB"/>
<path d="M62.0972 33.2402C63.8356 31.1432 63.97 29.4821 62.6179 28.0923C61.4338 26.8752 59.6114 26.719 58.209 27.7058C56.6134 28.8324 56.479 30.4278 57.7891 32.755C56.7477 32.5166 55.8911 30.913 56.0003 29.3834C56.1431 27.27 57.7051 25.7322 59.9389 25.5101C61.7949 25.3292 63.7096 26.6039 64.2387 28.3637C64.8266 30.362 64.0204 32.3192 62.0972 33.2402Z" fill="white"/>
<path d="M47.9805 33.206C49.744 31.1255 49.8616 29.3328 48.4424 28.0335C47.0567 26.7671 45.142 26.7178 43.8319 27.9184C42.2783 29.3328 42.3791 30.9775 44.1342 33.1156C43.0425 33.0745 41.7492 31.1008 41.808 29.4973C41.8836 27.5072 43.3532 25.9119 45.4947 25.5665C47.3758 25.2705 49.4753 26.4464 50.0296 28.1651C50.7014 30.2209 49.8616 32.4413 47.9805 33.206Z" fill="white"/>
<path d="M54.6323 35.2468C53.8256 34.9672 53.1618 34.737 52.4392 34.4903C53.2459 33.7995 54.2962 34.1449 54.6323 35.2468Z" fill="white"/>
<path d="M44.7832 30.4856C45.303 30.4856 45.7243 30.0733 45.7243 29.5646C45.7243 29.0559 45.303 28.6436 44.7832 28.6436C44.2635 28.6436 43.8422 29.0559 43.8422 29.5646C43.8422 30.0733 44.2635 30.4856 44.7832 30.4856Z" fill="white"/>
<path d="M59.2924 30.0412C59.8121 30.0412 60.2334 29.6288 60.2334 29.1201C60.2334 28.6115 59.8121 28.1991 59.2924 28.1991C58.7727 28.1991 58.3514 28.6115 58.3514 29.1201C58.3514 29.6288 58.7727 30.0412 59.2924 30.0412Z" fill="white"/>
<rect x="64.7266" y="13.1133" width="0.545" height="0.476562" fill="black"/>
</g>
<defs>
<clipPath id="clip0">
<rect width="64" height="64" fill="white" transform="translate(28)"/>
</clipPath>
</defs>
</svg>
