<svg width="64" height="64" viewBox="0 0 64 64" fill="none" xmlns="http://www.w3.org/2000/svg">
<g clip-path="url(#clip0)">
<path d="M-0.0183411 30.1906C1.64445 29.1626 2.24071 27.6906 3.03012 26.3008C4.19743 24.2532 5.53271 22.296 6.85958 20.347C7.2039 19.8372 7.27948 19.5 6.89318 18.9902C5.77625 17.5181 5.07082 15.8734 4.95325 14.0149C4.81048 11.6383 6.03658 10.7091 8.39641 11.3012C10.202 11.7535 12.0411 12.0824 13.8719 12.4443C14.9132 12.6498 15.7446 12.2222 16.5928 11.4328C16.1057 11.2025 15.6942 11.0545 15.3415 10.816C15.1232 10.6598 14.8796 10.3719 14.8796 10.1334C14.8796 9.91141 15.14 9.54958 15.3583 9.49202C16.1813 9.2782 17.0547 8.96571 17.8777 9.03972C19.1878 9.16308 20.4727 9.56603 21.766 9.84563C21.9255 9.87852 22.0767 9.90319 22.3874 9.95253C22.3874 9.26998 22.3454 8.65322 22.4042 8.04468C22.4462 7.55949 22.5638 7.07431 22.7401 6.61379C23.0172 5.85723 23.5883 5.78322 24.109 6.39998C24.7388 7.13187 25.4107 7.83087 25.9817 8.59566C26.7879 9.68116 27.972 9.92786 29.1981 10.2321C30.7014 10.6022 32.2802 10.9722 33.5903 11.7288C35.0431 12.5676 36.37 12.4196 37.8228 12.0824C39.1245 11.7781 40.4262 11.4574 41.7363 11.219C43.693 10.8653 44.6336 11.6959 44.6336 13.6613C44.6336 15.4129 44.0709 17.0001 43.0716 18.4227C42.6349 19.0477 42.5005 19.4918 43.0716 20.125C43.7098 20.8322 44.1969 21.6628 44.8267 22.5592C45.0703 22.2302 45.213 21.9753 45.4062 21.7697C46.7331 20.3059 48.0515 18.8339 49.3952 17.3866C49.8991 16.8438 50.4618 16.704 50.9824 17.3948C51.7299 16.3257 52.3681 15.2402 53.1743 14.2945C55.4501 11.6055 58.3223 9.81273 61.841 9.07262C62.7816 8.87525 63.2686 9.21242 63.2267 10.2732C63.1511 12.0742 62.9495 13.8669 62.79 15.6596C62.7648 15.9228 62.706 16.1859 62.6472 16.5642C63.6298 16.2271 63.9237 16.8109 63.9321 17.477C63.9573 19.574 64.0665 21.6875 63.8481 23.7598C63.3862 28.1594 62.3365 32.4274 60.3462 36.4322C57.5076 42.1393 53.5858 46.9583 48.1943 50.5519C45.6077 52.2789 42.8784 53.644 39.7124 54.014C39.4352 54.0469 39.1245 54.2278 38.923 54.4252C37.0334 56.2673 34.6652 57.0814 32.1122 57.4761C28.1148 58.0929 24.0922 58.0929 20.078 57.7804C17.2647 57.5584 14.5773 56.8347 12.4862 54.7706C11.0082 53.3068 10.1516 51.5059 9.6729 49.5405C8.58956 45.0669 9.00946 40.7578 11.3273 36.6953C11.5792 36.2513 11.5204 35.947 10.9746 35.873C9.57212 35.6756 8.16967 35.4865 6.75881 35.3302C6.23814 35.2727 5.70067 35.3302 5.17159 35.2974C4.45777 35.2562 4.27301 34.9437 4.66772 34.3434C4.89446 34.0063 5.17999 33.6773 5.50751 33.4388C6.15416 32.9701 5.9526 32.6083 5.38154 32.3616C3.96229 31.7366 2.52624 31.1692 1.09019 30.5853C0.821454 30.4455 0.51073 30.3633 -0.0183411 30.1906Z" fill="black"/>
<path d="M16.7292 10.2966C17.9049 9.78672 18.9546 10.0334 19.8952 10.313C20.8694 10.6008 21.7344 11.2587 22.6665 11.7192C22.9269 11.8426 23.2712 11.9002 23.5399 11.8426C23.6491 11.8179 23.7499 11.3985 23.7247 11.1765C23.6071 10.0499 23.4475 8.93148 23.2712 7.58282C23.6827 7.78841 23.8423 7.82953 23.943 7.92821C24.8248 8.7999 25.631 9.76205 26.5884 10.5268C27.0839 10.9216 27.8397 11.0614 28.5115 11.1683C31.9211 11.7192 34.8352 13.257 37.3881 15.4609C41.3604 18.8984 44.1905 23.1664 46.6007 27.7304C46.8778 28.2485 47.1466 28.7666 47.4741 29.3915C45.7945 29.3833 44.4592 28.7583 43.1575 28.1004C41.1 27.0725 39.1181 25.8883 37.0102 24.9508C33.3571 23.3226 29.6872 23.4788 26.1265 25.2798C25.3455 25.6745 24.7156 25.765 23.8758 25.3291C19.089 22.8127 14.4953 23.4871 9.98563 26.1515C7.96173 27.3439 5.94622 28.5939 3.60319 29.1448C3.37645 29.2024 3.1413 29.2435 2.72141 29.334C3.30926 28.1498 3.76275 27.1054 4.33381 26.135C6.27374 22.8703 8.39842 19.7207 11.069 16.9823C12.757 15.2553 14.6633 13.7998 16.8468 12.6978C17.485 12.3771 18.0897 12.04 18.7279 12.7801C18.6103 11.5877 17.7537 10.9791 16.7292 10.2966Z" fill="#ABABAB"/>
<path d="M61.8596 18.3383C62.3886 17.8449 62.7414 17.5242 63.0857 17.2035C63.1613 17.2281 63.2452 17.2528 63.3208 17.2775C63.3208 17.8613 63.3628 18.4534 63.3124 19.0291C63.1529 20.8218 62.9597 22.6227 62.7582 24.4154C62.691 25.0322 61.2129 26.2328 60.5915 26.1753C60.4403 26.1588 60.2388 25.9286 60.1968 25.7641C60.0792 25.3118 60.054 24.8431 59.9616 24.3908C59.8105 23.6342 59.4158 23.478 58.7943 23.922C57.3835 24.9253 57.3835 24.9253 56.804 23.2724C56.4261 22.1787 56.3505 22.1622 55.3344 22.853C54.9481 23.1161 54.545 23.3464 54.0999 23.626C53.2853 22.6556 53.7975 21.5043 53.4616 20.4188C53.1929 20.5751 52.9829 20.6902 52.7898 20.8218C52.4035 21.0849 52.034 21.3892 51.6309 21.6277C50.2536 22.45 50.0353 22.3842 49.4138 20.9698C49.313 20.7478 49.2207 20.5175 49.1199 20.2955C48.7756 19.5471 49.0863 18.7084 49.8589 18.4616C50.0101 18.4123 50.3292 18.585 50.4216 18.7412C50.6651 19.1606 50.8331 19.6294 51.0934 20.2461C51.4041 19.5471 51.6645 18.9551 51.9248 18.3547C53.6968 14.2759 56.8712 11.7102 61.087 10.304C62.0275 9.99148 62.2795 10.1806 62.2207 11.1428C62.1367 12.5572 61.9519 13.9716 61.868 15.3943C61.8092 16.2824 61.8596 17.2035 61.8596 18.3383Z" fill="#ABABAB"/>
<path d="M15.6618 37.1118C20.5662 31.7583 30.0055 32.1449 34.1793 37.0214C31.3744 38.6908 28.8298 40.796 25.4538 41.3141C24.1102 41.5196 22.8505 41.2647 21.6076 40.796C19.3905 39.9654 17.5933 38.4934 15.6618 37.1118ZM27.8557 36.4704C27.8724 34.8915 26.7051 33.7567 25.0675 33.7649C23.5391 33.7731 22.4054 34.9079 22.397 36.4293C22.3886 37.8931 23.5895 39.1019 25.0675 39.1348C26.5876 39.1677 27.8389 37.9671 27.8557 36.4704Z" fill="#ABABAB"/>
<path d="M54.9994 36.3308C55.8812 35.492 56.6454 34.7765 57.334 34.1268C57.7959 35.2124 58.2326 36.2156 58.6357 37.2353C58.6861 37.3587 58.6357 37.5725 58.5601 37.6959C57.3088 39.5626 56.0407 41.4211 54.7642 43.2796C54.7054 43.3619 54.5963 43.403 54.3527 43.5839C54.3695 43.2221 54.3611 43.0083 54.3947 42.7944C54.4619 42.3668 54.5963 41.9392 54.6383 41.5034C54.7222 40.6234 54.6215 40.5576 53.7481 40.7139C52.9671 40.8537 52.1777 40.9688 51.2203 41.1333C51.489 40.4507 51.7326 39.9409 51.8753 39.4064C51.9677 39.0527 52.0601 38.5429 51.8753 38.3291C51.7158 38.1399 51.1615 38.2139 50.8004 38.2633C50.3049 38.3291 49.8262 38.4935 49.3391 38.5922C48.6505 38.7238 48.4826 38.5511 48.6337 37.8603C48.7261 37.4656 48.8941 37.0791 48.9696 36.6844C49.1292 35.7962 48.8269 35.4015 47.9451 35.237C47.8611 35.2206 47.7771 35.1959 47.6931 35.2041C45.9968 35.4344 45.2577 34.1186 44.3088 33.1647C44.2248 33.0825 44.3088 32.6548 44.4347 32.5808C45.3501 32.071 46.2907 31.6022 47.2481 31.1746C47.3656 31.117 47.7267 31.3391 47.8191 31.5118C47.9535 31.7667 47.9031 32.1039 47.9955 32.3917C48.1382 32.8029 48.365 33.0084 48.8773 32.77C50.0278 32.2272 50.1789 32.3177 50.5065 33.5676C50.834 34.8094 51.1867 34.9492 52.3036 34.2584C53.8321 33.3209 54.3191 33.543 54.6634 35.2864C54.7138 35.5742 54.8482 35.862 54.9994 36.3308Z" fill="#ABABAB"/>
<path d="M12.9914 13.446C11.6309 14.8769 10.2872 16.2585 8.98556 17.6729C7.93581 18.816 7.94421 18.8407 7.1716 17.4838C6.45778 16.2256 5.97909 14.8934 6.02108 13.4296C6.05467 12.4427 6.49137 12.0316 7.45713 12.2125C9.28788 12.5579 11.1018 12.9855 12.9242 13.3884C12.9998 13.4131 13.0502 13.4954 12.9914 13.446Z" fill="#ABABAB"/>
<path d="M41.8711 18.281C40.2419 16.513 38.7387 14.8847 37.2355 13.2483C37.1095 13.314 36.9835 13.3798 36.866 13.4456C37.0759 13.3716 37.2775 13.2729 37.4874 13.2236C38.8899 12.9029 40.3091 12.615 41.7116 12.2779C43.0049 11.9654 43.6095 12.3519 43.5927 13.643C43.5675 15.3781 42.9545 16.9077 41.8711 18.281Z" fill="#ABABAB"/>
<path d="M47.3075 48.6589C47.3327 49.5964 47.0723 50.1967 46.3165 50.5503C44.4606 51.4302 42.6046 52.3183 40.7487 53.19C40.6143 53.2476 40.4464 53.2229 40.1608 53.2558C40.5807 52.4993 41.0426 51.8661 41.2945 51.167C41.79 49.8102 42.1427 48.4122 42.5962 47.0388C42.7054 46.7099 42.907 46.3563 43.1757 46.1589C43.3772 46.0109 43.8307 45.9698 44.0239 46.0931C44.1834 46.2 44.1918 46.6359 44.1331 46.9073C43.7216 49.0372 43.7132 49.0289 45.905 48.7329C46.3501 48.6753 46.7868 48.6918 47.3075 48.6589Z" fill="#ABABAB"/>
<path d="M34.0973 33.2402C35.8357 31.1432 35.97 29.4821 34.618 28.0923C33.4338 26.8752 31.6115 26.719 30.209 27.7058C28.6134 28.8324 28.4791 30.4278 29.7891 32.755C28.7478 32.5166 27.8912 30.913 28.0004 29.3834C28.1431 27.27 29.7052 25.7322 31.939 25.5101C33.795 25.3292 35.7097 26.6039 36.2388 28.3637C36.8266 30.362 36.0204 32.3192 34.0973 33.2402Z" fill="white"/>
<path d="M19.9805 33.206C21.7441 31.1255 21.8617 29.3328 20.4424 28.0335C19.0568 26.7671 17.142 26.7178 15.832 27.9184C14.2784 29.3328 14.3791 30.9775 16.1343 33.1156C15.0426 33.0745 13.7493 31.1008 13.8081 29.4973C13.8837 27.5072 15.3533 25.9119 17.4948 25.5665C19.3759 25.2705 21.4754 26.4464 22.0296 28.1651C22.7014 30.2209 21.8617 32.4413 19.9805 33.206Z" fill="white"/>
<path d="M26.6323 35.2468C25.8257 34.9672 25.1619 34.737 24.4392 34.4903C25.2459 33.7995 26.2962 34.1449 26.6323 35.2468Z" fill="white"/>
<path d="M16.7833 30.4856C17.303 30.4856 17.7243 30.0733 17.7243 29.5646C17.7243 29.0559 17.303 28.6436 16.7833 28.6436C16.2635 28.6436 15.8422 29.0559 15.8422 29.5646C15.8422 30.0733 16.2635 30.4856 16.7833 30.4856Z" fill="white"/>
<path d="M31.2924 30.0412C31.8121 30.0412 32.2334 29.6288 32.2334 29.1201C32.2334 28.6115 31.8121 28.1991 31.2924 28.1991C30.7727 28.1991 30.3514 28.6115 30.3514 29.1201C30.3514 29.6288 30.7727 30.0412 31.2924 30.0412Z" fill="white"/>
<rect x="36.7266" y="13.1133" width="0.545" height="0.476562" fill="black"/>
</g>
<path d="M25.4784 57.06C22.984 56.8709 20.9683 56.7886 18.9778 56.5501C14.4593 56.0074 11.5786 53.2689 10.6715 48.8691C9.86527 44.93 10.1928 41.1553 12.1077 37.5533C12.6284 36.5746 12.746 36.5171 13.6867 37.1338C15.3328 38.2112 16.937 39.346 18.5747 40.4316C22.5557 43.0796 26.5366 42.9645 30.568 40.4974C32.8776 39.0747 35.2376 37.7177 37.6229 36.4266C39.1346 35.6042 39.2858 35.6782 40.0165 37.2737C42.2001 42.0352 42.5193 46.8297 39.8989 51.5336C38.4207 54.1899 36.0103 55.736 32.9868 56.2047C30.3412 56.6241 27.6704 56.8215 25.4784 57.06Z" fill="#2A292A"/>
<g clip-path="url(#clip1)">
<path d="M30.7764 45.6235V55.6382C26.6242 56.1211 22.3759 56.1211 18.2237 55.6382V45.6235H30.7764Z" fill="#D1D3D4"/>
<path d="M26.494 48.8177H22.4793C22.3328 48.8171 22.1906 48.7849 22.0745 48.7259C21.9585 48.6669 21.875 48.5845 21.8369 48.4912L20.8734 46.1794C20.8468 46.1142 20.8432 46.0459 20.8629 45.9796C20.8827 45.9134 20.9252 45.851 20.9873 45.7973C21.0493 45.7436 21.1292 45.7 21.2208 45.6699C21.3125 45.6398 21.4134 45.6239 21.5157 45.6235H27.4307C27.5331 45.6239 27.634 45.6398 27.7256 45.6699C27.8173 45.7 27.8972 45.7436 27.9592 45.7973C28.0213 45.851 28.0638 45.9134 28.0836 45.9796C28.1033 46.0459 28.0997 46.1142 28.0731 46.1794L27.1765 48.4912C27.1368 48.589 27.0473 48.6748 26.923 48.7342C26.7988 48.7937 26.6473 48.8231 26.494 48.8177Z" fill="#BE1E2D"/>
<path d="M27.6047 55.9118C26.5743 55.9735 25.5439 56 24.5 56C23.4562 56 22.4258 56 21.3953 55.9118L23.6034 47.8912H25.3966L27.6047 55.9118Z" fill="#BE1E2D"/>
<path d="M24.5 45.6235L19.6021 49.1882L16.7115 42.7647L19.1471 41.1059L24.5 45.6235Z" fill="#F1F2F2"/>
<path d="M24.5 45.6235L29.3979 49.1882L32.2885 42.7647L29.8529 41.1059L24.5 45.6235Z" fill="#F1F2F2"/>
<path d="M23.1617 56C20.0607 55.9411 16.9861 55.6057 14.0216 55.003L14.1286 42.7647C14.124 42.5545 14.2333 42.3501 14.437 42.1884C14.6406 42.0266 14.9252 41.9181 15.2394 41.8824L18.4913 41.503L23.1617 56ZM34.9783 54.9765C32.0157 55.5882 28.941 55.9325 25.8382 56L30.522 41.5912L33.7739 41.9706C34.0881 42.0063 34.3727 42.1148 34.5763 42.2766C34.78 42.4384 34.8893 42.6428 34.8847 42.853L34.9783 54.9765Z" fill="#2A292A"/>
<path d="M25.8889 57L27 55L24.5 55.5L22 55L22.5556 57H25.8889Z" fill="#2A292A" stroke="#2A292A"/>
</g>
<defs>
<clipPath id="clip0">
<rect width="64" height="64" fill="white"/>
</clipPath>
<clipPath id="clip1">
<rect width="21" height="14" fill="white" transform="translate(14 41)"/>
</clipPath>
</defs>
</svg>
