<svg width="68" height="64" viewBox="0 0 68 64" fill="none" xmlns="http://www.w3.org/2000/svg">
<ellipse cx="30" cy="56" rx="20" ry="6" fill="#E0E0E0" fill-opacity="0.9"/>
<g clip-path="url(#clip0)">
<path d="M3.98163 30.1906C5.64442 29.1627 6.24068 27.6906 7.03009 26.3009C8.1974 24.2532 9.53268 22.296 10.8596 20.3471C11.2039 19.8372 11.2795 19.5 10.8931 18.9902C9.77622 17.5182 9.07079 15.8735 8.95322 14.015C8.81045 11.6384 10.0366 10.7091 12.3964 11.3012C14.2019 11.7535 16.0411 12.0824 17.8718 12.4443C18.9132 12.6499 19.7446 12.2222 20.5928 11.4328C20.1057 11.2025 19.6942 11.0545 19.3415 10.816C19.1231 10.6598 18.8796 10.372 18.8796 10.1335C18.8796 9.91144 19.1399 9.54961 19.3583 9.49205C20.1813 9.27824 21.0547 8.96574 21.8777 9.03975C23.1878 9.16311 24.4726 9.56606 25.7659 9.84566C25.9255 9.87855 26.0766 9.90322 26.3874 9.95256C26.3874 9.27001 26.3454 8.65325 26.4042 8.04471C26.4462 7.55953 26.5637 7.07434 26.7401 6.61382C27.0172 5.85726 27.5883 5.78325 28.109 6.40001C28.7388 7.1319 29.4106 7.8309 29.9817 8.59569C30.7879 9.68119 31.972 9.92789 33.1981 10.2322C34.7013 10.6022 36.2802 10.9723 37.5902 11.7288C39.0431 12.5676 40.37 12.4196 41.8228 12.0824C43.1245 11.7782 44.4262 11.4575 45.7363 11.219C47.693 10.8654 48.6335 11.6959 48.6335 13.6614C48.6335 15.413 48.0709 17.0001 47.0715 18.4228C46.6348 19.0478 46.5005 19.4918 47.0715 20.125C47.7098 20.8323 48.1969 21.6628 48.8267 22.5592C49.0702 22.2302 49.213 21.9753 49.4062 21.7697C50.733 20.3059 52.0515 18.8339 53.3952 17.3866C53.8991 16.8439 54.4617 16.7041 54.9824 17.3948C55.7298 16.3258 56.3681 15.2403 57.1743 14.2946C59.4501 11.6055 62.3222 9.81276 65.841 9.07265C66.7815 8.87528 67.2686 9.21245 67.2266 10.2733C67.151 12.0742 66.9495 13.8669 66.7899 15.6597C66.7647 15.9228 66.7059 16.186 66.6472 16.5643C67.6297 16.2271 67.9237 16.811 67.9321 17.4771C67.9572 19.5741 68.0664 21.6875 67.8481 23.7598C67.3862 28.1594 66.3364 32.4274 64.3461 36.4322C61.5076 42.1393 57.5858 46.9583 52.1943 50.552C49.6077 52.2789 46.8784 53.644 43.7124 54.0141C43.4352 54.047 43.1245 54.2279 42.9229 54.4252C41.0334 56.2673 38.6652 57.0814 36.1122 57.4762C32.1148 58.0929 28.0922 58.0929 24.0779 57.7804C21.2646 57.5584 18.5773 56.8347 16.4862 54.7706C15.0081 53.3068 14.1516 51.5059 13.6729 49.5405C12.5895 45.0669 13.0094 40.7578 15.3273 36.6954C15.5792 36.2513 15.5204 35.947 14.9746 35.873C13.5721 35.6757 12.1696 35.4865 10.7588 35.3303C10.2381 35.2727 9.70064 35.3303 9.17156 35.2974C8.45774 35.2563 8.27298 34.9438 8.66769 34.3435C8.89443 34.0063 9.17996 33.6774 9.50748 33.4389C10.1541 32.9701 9.95257 32.6083 9.38151 32.3616C7.96226 31.7366 6.52621 31.1692 5.09016 30.5853C4.82142 30.4455 4.5107 30.3633 3.98163 30.1906Z" fill="black"/>
<path d="M20.7292 10.2966C21.9049 9.78678 22.9546 10.0335 23.8952 10.3131C24.8693 10.6009 25.7343 11.2588 26.6665 11.7193C26.9268 11.8427 27.2712 11.9002 27.5399 11.8427C27.6491 11.818 27.7498 11.3986 27.7246 11.1766C27.6071 10.0499 27.4475 8.93154 27.2712 7.58289C27.6827 7.78847 27.8422 7.82959 27.943 7.92827C28.8248 8.79996 29.631 9.76211 30.5884 10.5269C31.0838 10.9216 31.8396 11.0614 32.5115 11.1683C35.921 11.7193 38.8351 13.2571 41.3881 15.461C45.3603 18.8984 48.1905 23.1664 50.6007 27.7305C50.8778 28.2485 51.1465 28.7666 51.4741 29.3916C49.7945 29.3834 48.4592 28.7584 47.1575 28.1005C45.1 27.0726 43.1181 25.8884 41.0102 24.9509C37.3571 23.3227 33.6872 23.4789 30.1265 25.2799C29.3455 25.6746 28.7156 25.765 27.8758 25.3292C23.089 22.8128 18.4953 23.4871 13.9856 26.1515C11.9617 27.3439 9.94619 28.5939 7.60316 29.1449C7.37641 29.2025 7.14127 29.2436 6.72137 29.334C7.30923 28.1499 7.76272 27.1055 8.33378 26.1351C10.2737 22.8704 12.3984 19.7208 15.0689 16.9823C16.7569 15.2554 18.6633 13.7998 20.8467 12.6979C21.485 12.3772 22.0896 12.04 22.7279 12.7801C22.6103 11.5877 21.7537 10.9792 20.7292 10.2966Z" fill="#ABABAB"/>
<path d="M29.4804 57.0633C26.9862 56.8741 24.9707 56.7919 22.9804 56.5534C18.4623 56.0107 15.5818 53.2722 14.6748 48.8727C13.8686 44.9336 14.1961 41.159 16.1109 37.5571C16.6315 36.5785 16.7491 36.521 17.6897 37.1377C19.3357 38.215 20.9397 39.3499 22.5773 40.4354C26.5579 43.0833 30.5385 42.9682 34.5695 40.5012C36.879 39.0785 39.2388 37.7216 41.6238 36.4305C43.1355 35.6082 43.2866 35.6822 44.0172 37.2775C46.2007 42.039 46.5198 46.8332 43.8997 51.5371C42.4216 54.1933 40.0114 55.7393 36.9882 56.208C34.3428 56.6274 31.6723 56.8248 29.4804 57.0633Z" fill="#ABABAB"/>
<path d="M65.8596 18.3384C66.3886 17.8449 66.7414 17.5242 67.0857 17.2035C67.1613 17.2282 67.2452 17.2529 67.3208 17.2775C67.3208 17.8614 67.3628 18.4535 67.3124 19.0291C67.1529 20.8218 66.9597 22.6228 66.7582 24.4155C66.691 25.0323 65.2129 26.2329 64.5915 26.1753C64.4403 26.1589 64.2388 25.9286 64.1968 25.7641C64.0792 25.3119 64.054 24.8431 63.9616 24.3908C63.8105 23.6343 63.4158 23.478 62.7943 23.9221C61.3835 24.9254 61.3835 24.9253 60.804 23.2724C60.4261 22.1787 60.3505 22.1623 59.3344 22.853C58.9481 23.1162 58.545 23.3464 58.0999 23.626C57.2853 22.6557 57.7975 21.5044 57.4616 20.4189C57.1929 20.5751 56.9829 20.6903 56.7898 20.8218C56.4035 21.085 56.034 21.3893 55.6309 21.6277C54.2536 22.4501 54.0353 22.3843 53.4138 20.9699C53.313 20.7478 53.2207 20.5176 53.1199 20.2955C52.7756 19.5472 53.0863 18.7084 53.8589 18.4617C54.0101 18.4124 54.3292 18.5851 54.4216 18.7413C54.6651 19.1607 54.8331 19.6294 55.0934 20.2462C55.4041 19.5472 55.6645 18.9551 55.9248 18.3548C57.6968 14.276 60.8712 11.7102 65.087 10.304C66.0275 9.99154 66.2795 10.1807 66.2207 11.1428C66.1367 12.5573 65.9519 13.9717 65.868 15.3944C65.8092 16.2825 65.8596 17.2035 65.8596 18.3384Z" fill="#ABABAB"/>
<path d="M19.6617 37.1119C24.5662 31.7584 34.0055 32.1449 38.1793 37.0215C35.3743 38.6908 32.8298 40.796 29.4538 41.3141C28.1101 41.5197 26.8504 41.2648 25.6075 40.796C23.3904 39.9655 21.5933 38.4935 19.6617 37.1119ZM31.8556 36.4705C31.8724 34.8916 30.7051 33.7567 29.0675 33.7649C27.539 33.7732 26.4053 34.908 26.3969 36.4294C26.3885 37.8931 27.5894 39.102 29.0675 39.1349C30.5875 39.1678 31.8388 37.9672 31.8556 36.4705Z" fill="#ABABAB"/>
<path d="M58.9994 36.3308C59.8812 35.492 60.6454 34.7766 61.334 34.1269C61.7959 35.2124 62.2326 36.2157 62.6357 37.2354C62.6861 37.3588 62.6357 37.5726 62.5601 37.696C61.3088 39.5627 60.0407 41.4212 58.7642 43.2797C58.7054 43.362 58.5963 43.4031 58.3527 43.584C58.3695 43.2222 58.3611 43.0083 58.3947 42.7945C58.4619 42.3669 58.5963 41.9393 58.6383 41.5034C58.7222 40.6235 58.6215 40.5577 57.7481 40.714C56.9671 40.8538 56.1777 40.9689 55.2203 41.1334C55.489 40.4508 55.7326 39.941 55.8753 39.4064C55.9677 39.0528 56.0601 38.543 55.8753 38.3292C55.7158 38.14 55.1615 38.214 54.8004 38.2634C54.3049 38.3292 53.8262 38.4936 53.3391 38.5923C52.6505 38.7239 52.4826 38.5512 52.6337 37.8604C52.7261 37.4657 52.8941 37.0792 52.9696 36.6845C53.1292 35.7963 52.8269 35.4016 51.9451 35.2371C51.8611 35.2207 51.7771 35.196 51.6931 35.2042C49.9968 35.4345 49.2577 34.1187 48.3088 33.1648C48.2248 33.0825 48.3088 32.6549 48.4347 32.5809C49.3501 32.0711 50.2907 31.6023 51.2481 31.1747C51.3656 31.1171 51.7267 31.3392 51.8191 31.5119C51.9535 31.7668 51.9031 32.104 51.9955 32.3918C52.1382 32.803 52.365 33.0085 52.8773 32.7701C54.0278 32.2273 54.1789 32.3178 54.5065 33.5677C54.834 34.8095 55.1867 34.9493 56.3036 34.2585C57.8321 33.321 58.3191 33.5431 58.6634 35.2865C58.7138 35.5743 58.8482 35.8621 58.9994 36.3308Z" fill="#ABABAB"/>
<path d="M16.9914 13.4461C15.6309 14.877 14.2872 16.2585 12.9855 17.673C11.9358 18.8161 11.9442 18.8407 11.1716 17.4838C10.4577 16.2256 9.97906 14.8934 10.0211 13.4296C10.0546 12.4428 10.4913 12.0316 11.4571 12.2125C13.2879 12.5579 15.1018 12.9856 16.9242 13.3885C16.9997 13.4132 17.0501 13.4954 16.9914 13.4461Z" fill="#ABABAB"/>
<path d="M45.8711 18.2811C44.2419 16.513 42.7386 14.8848 41.2354 13.2483C41.1094 13.3141 40.9835 13.3799 40.8659 13.4457C41.0759 13.3717 41.2774 13.273 41.4874 13.2236C42.8898 12.9029 44.3091 12.6151 45.7115 12.2779C47.0048 11.9654 47.6094 12.352 47.5927 13.643C47.5675 15.3782 46.9544 16.9078 45.8711 18.2811Z" fill="#ABABAB"/>
<path d="M51.3075 48.659C51.3327 49.5964 51.0723 50.1968 50.3165 50.5504C48.4606 51.4303 46.6046 52.3184 44.7487 53.1901C44.6143 53.2477 44.4464 53.223 44.1608 53.2559C44.5807 52.4994 45.0426 51.8661 45.2945 51.1671C45.79 49.8103 46.1427 48.4123 46.5962 47.0389C46.7054 46.71 46.907 46.3564 47.1757 46.159C47.3772 46.011 47.8307 45.9699 48.0239 46.0932C48.1834 46.2001 48.1918 46.636 48.1331 46.9073C47.7216 49.0372 47.7132 49.029 49.905 48.733C50.3501 48.6754 50.7868 48.6919 51.3075 48.659Z" fill="#ABABAB"/>
<path d="M38.0972 33.2403C39.8356 31.1433 39.97 29.4822 38.6179 28.0924C37.4338 26.8753 35.6114 26.7191 34.209 27.7059C32.6134 28.8325 32.479 30.4279 33.7891 32.7551C32.7477 32.5166 31.8911 30.913 32.0003 29.3835C32.1431 27.27 33.7051 25.7322 35.9389 25.5102C37.7949 25.3293 39.7096 26.6039 40.2387 28.3638C40.8266 30.3621 40.0204 32.3193 38.0972 33.2403Z" fill="white"/>
<path d="M23.9805 33.2061C25.744 31.1256 25.8616 29.3329 24.4424 28.0336C23.0567 26.7672 21.142 26.7179 19.8319 27.9185C18.2783 29.3329 18.3791 30.9776 20.1342 33.1156C19.0425 33.0745 17.7492 31.1009 17.808 29.4973C17.8836 27.5073 19.3532 25.912 21.4947 25.5666C23.3758 25.2705 25.4753 26.4465 26.0296 28.1652C26.7014 30.221 25.8616 32.4413 23.9805 33.2061Z" fill="white"/>
<path d="M30.6323 35.2469C29.8256 34.9673 29.1618 34.737 28.4392 34.4903C29.2459 33.7995 30.2962 34.1449 30.6323 35.2469Z" fill="white"/>
<path d="M20.7832 30.4857C21.303 30.4857 21.7243 30.0734 21.7243 29.5647C21.7243 29.056 21.303 28.6437 20.7832 28.6437C20.2635 28.6437 19.8422 29.056 19.8422 29.5647C19.8422 30.0734 20.2635 30.4857 20.7832 30.4857Z" fill="white"/>
<path d="M35.2924 30.0412C35.8121 30.0412 36.2334 29.6289 36.2334 29.1202C36.2334 28.6115 35.8121 28.1992 35.2924 28.1992C34.7727 28.1992 34.3514 28.6115 34.3514 29.1202C34.3514 29.6289 34.7727 30.0412 35.2924 30.0412Z" fill="white"/>
<rect x="40.7266" y="13.1133" width="0.545" height="0.476562" fill="black"/>
</g>
<g clip-path="url(#clip1)">
<path d="M19.0808 48.2909H2.43911C2.07336 48.2909 1.78076 48.5818 1.78076 48.9454V61.0182C1.78076 61.3818 2.07336 61.6727 2.43911 61.6727H19.0808C19.4465 61.6727 19.7391 61.3818 19.7391 61.0182V48.9454C19.7391 48.5818 19.4465 48.2909 19.0808 48.2909Z" fill="#3B4C56"/>
<path d="M19.0808 48.2909H10.7416V61.7091H19.0808C19.4465 61.7091 19.7391 61.4182 19.7391 61.0545V48.9454C19.7391 48.5818 19.4465 48.2909 19.0808 48.2909Z" fill="#465C6A"/>
<path d="M18.1664 49.8546H3.35345V60.1091H18.1664V49.8546Z" fill="#45BBDD"/>
<path d="M20.6536 61.8546H0.866449C0.390973 61.8546 -0.0113525 62.2546 -0.0113525 62.7273C-0.0113525 63.2364 0.390973 63.6364 0.866449 63.6364H20.6536C21.129 63.6364 21.5314 63.2364 21.5314 62.7636C21.5314 62.2546 21.1656 61.8546 20.6536 61.8546Z" fill="#465C6A"/>
<path d="M20.6535 61.8546H10.7416V63.6364H20.6535C21.129 63.6364 21.5313 63.2364 21.5313 62.7636C21.5313 62.2546 21.1655 61.8546 20.6535 61.8546Z" fill="#3B4C56"/>
<path d="M10.5954 51.0182H5.18225V59.0182H10.5954V51.0182Z" fill="#E6E6E8"/>
<path d="M16.0451 51.0182H10.632V59.0182H16.0451V51.0182Z" fill="white"/>
<path d="M6.68184 53.0182L6.49896 53.3818H6.20636L6.93786 51.7455H7.23046L7.96196 53.3818H7.66936L7.48649 53.0182H6.68184ZM7.41334 52.7637L7.12074 52.0728L6.82814 52.7637H7.41334Z" fill="#E8664A"/>
<path d="M9.79064 53.9272H6.09656V54.4363H9.79064V53.9272Z" fill="#1E87B7"/>
<path d="M15.1672 52.4363H11.4731V53.2727H15.1672V52.4363Z" fill="#6FAC43"/>
<path d="M15.1672 53.9272H11.4731V54.4363H15.1672V53.9272Z" fill="#1E87B7"/>
<path d="M15.1672 55.0909H11.4731V55.6H15.1672V55.0909Z" fill="#1E87B7"/>
<path d="M15.1672 56.2545H11.4731V56.7636H15.1672V56.2545Z" fill="#1E87B7"/>
<path d="M15.1672 57.4182H11.4731V57.9273H15.1672V57.4182Z" fill="#1E87B7"/>
<path d="M9.79064 55.0909H6.09656V55.6H9.79064V55.0909Z" fill="#1E87B7"/>
<path d="M9.79064 56.2545H6.09656V56.7636H9.79064V56.2545Z" fill="#1E87B7"/>
<path d="M9.79064 57.4182H6.09656V57.9273H9.79064V57.4182Z" fill="#1E87B7"/>
<path d="M22.8846 40.3636H11.6195C11.3269 40.3636 11.1074 40.5818 11.1074 40.8727V50.1091C11.1074 50.4 11.3269 50.6182 11.6195 50.6182H22.9212C23.2138 50.6182 23.4332 50.4 23.4332 50.1091V40.8727C23.3966 40.5818 23.1772 40.3636 22.8846 40.3636Z" fill="#E6E6E8"/>
<path d="M22.8846 40.3636H17.252V50.6182H22.8846C23.1772 50.6182 23.3966 50.4 23.3966 50.1091V40.8727C23.3966 40.5818 23.1772 40.3636 22.8846 40.3636Z" fill="#D4D8DB"/>
<path d="M21.9336 43.4182H12.607V49.1637H21.9336V43.4182Z" fill="#3B4C56"/>
<path d="M17.2886 43.4182H12.607V49.1637H17.2886V43.4182Z" fill="#465C6A"/>
<path d="M21.5679 48.0364H12.9362V48.2546H21.5679V48.0364Z" fill="#E6E6E8"/>
<path d="M13.4848 48.5091H13.2654V48.9091H13.4848V48.5091Z" fill="#E6E6E8"/>
<path d="M13.8871 48.5091H13.6677V48.9091H13.8871V48.5091Z" fill="#E6E6E8"/>
<path d="M16.5205 44.8364V47.0545L18.2761 45.9636L16.5205 44.8364Z" fill="#E6E6E8"/>
<path d="M22.8846 40.3636H11.6195C11.3269 40.3636 11.1074 40.5818 11.1074 40.8727V42.3636H12.863L12.9362 42C12.9728 41.8909 13.0459 41.8546 13.1556 41.8546H15.0575C15.1673 41.8546 15.2404 41.9273 15.277 42L15.3501 42.3636H23.3966V40.8727C23.3966 40.5818 23.1772 40.3636 22.8846 40.3636Z" fill="#A3CD44"/>
<path d="M22.8846 40.3636H17.252V42.3273H23.3966V40.8727C23.3966 40.5818 23.1772 40.3636 22.8846 40.3636Z" fill="#6FAC43"/>
<path d="M22.0799 41.7455C22.2819 41.7455 22.4457 41.5827 22.4457 41.3818C22.4457 41.181 22.2819 41.0182 22.0799 41.0182C21.8779 41.0182 21.7142 41.181 21.7142 41.3818C21.7142 41.5827 21.8779 41.7455 22.0799 41.7455Z" fill="#E6E6E8"/>
<path d="M20.9095 41.7455C21.1115 41.7455 21.2753 41.5827 21.2753 41.3818C21.2753 41.181 21.1115 41.0182 20.9095 41.0182C20.7075 41.0182 20.5438 41.181 20.5438 41.3818C20.5438 41.5827 20.7075 41.7455 20.9095 41.7455Z" fill="#E6E6E8"/>
<path d="M19.7025 41.7455C19.9045 41.7455 20.0683 41.5827 20.0683 41.3818C20.0683 41.181 19.9045 41.0182 19.7025 41.0182C19.5005 41.0182 19.3368 41.181 19.3368 41.3818C19.3368 41.5827 19.5005 41.7455 19.7025 41.7455Z" fill="#E6E6E8"/>
<path d="M15.1399 58.1256L15.7865 57.4828L14.7003 56.4029L14.0537 57.0457L15.1399 58.1256Z" fill="#3B4C56"/>
<path d="M15.18 58.1425L15.5162 57.8082L14.4299 56.7283L14.0937 57.0626L15.18 58.1425Z" fill="#465C6A"/>
<path d="M13.4482 55.8182L13.8871 57.9273L14.4357 56.8L15.5695 56.2182L13.4482 55.8182Z" fill="#3B4C56"/>
<path d="M14.4357 56.8L13.4482 55.8182L15.5695 56.2182L14.4357 56.8Z" fill="#465C6A"/>
</g>
<defs>
<clipPath id="clip0">
<rect width="64" height="64" fill="white" transform="translate(4)"/>
</clipPath>
<clipPath id="clip1">
<rect width="24" height="24" fill="white" transform="translate(0 40)"/>
</clipPath>
</defs>
</svg>
