<svg width="64" height="64" viewBox="0 0 64 64" fill="none" xmlns="http://www.w3.org/2000/svg">
<g clip-path="url(#clip0)">
<path d="M-0.0183411 30.1906C1.64445 29.1627 2.24071 27.6906 3.03012 26.3009C4.19743 24.2532 5.53271 22.296 6.85958 20.3471C7.2039 19.8372 7.27948 19.5 6.89318 18.9902C5.77625 17.5182 5.07082 15.8735 4.95325 14.015C4.81048 11.6384 6.03658 10.7091 8.39641 11.3012C10.202 11.7535 12.0411 12.0824 13.8719 12.4443C14.9132 12.6499 15.7446 12.2222 16.5928 11.4328C16.1057 11.2025 15.6942 11.0545 15.3415 10.816C15.1232 10.6598 14.8796 10.372 14.8796 10.1335C14.8796 9.91144 15.14 9.54961 15.3583 9.49205C16.1813 9.27824 17.0547 8.96574 17.8777 9.03975C19.1878 9.16311 20.4727 9.56606 21.766 9.84566C21.9255 9.87855 22.0767 9.90322 22.3874 9.95256C22.3874 9.27001 22.3454 8.65325 22.4042 8.04471C22.4462 7.55953 22.5638 7.07434 22.7401 6.61382C23.0172 5.85726 23.5883 5.78325 24.109 6.40001C24.7388 7.1319 25.4107 7.8309 25.9817 8.59569C26.7879 9.68119 27.972 9.92789 29.1981 10.2322C30.7014 10.6022 32.2802 10.9723 33.5903 11.7288C35.0431 12.5676 36.37 12.4196 37.8228 12.0824C39.1245 11.7782 40.4262 11.4575 41.7363 11.219C43.693 10.8654 44.6336 11.6959 44.6336 13.6614C44.6336 15.413 44.0709 17.0001 43.0716 18.4228C42.6349 19.0478 42.5005 19.4918 43.0716 20.125C43.7098 20.8323 44.1969 21.6628 44.8267 22.5592C45.0703 22.2302 45.213 21.9753 45.4062 21.7697C46.7331 20.3059 48.0515 18.8339 49.3952 17.3866C49.8991 16.8439 50.4618 16.7041 50.9824 17.3948C51.7299 16.3258 52.3681 15.2403 53.1743 14.2946C55.4501 11.6055 58.3222 9.81276 61.841 9.07265C62.7816 8.87528 63.2686 9.21245 63.2267 10.2733C63.1511 12.0742 62.9495 13.8669 62.79 15.6597C62.7648 15.9228 62.706 16.186 62.6472 16.5643C63.6298 16.2271 63.9237 16.811 63.9321 17.4771C63.9573 19.5741 64.0664 21.6875 63.8481 23.7598C63.3862 28.1594 62.3365 32.4274 60.3462 36.4322C57.5076 42.1393 53.5858 46.9583 48.1943 50.552C45.6077 52.2789 42.8784 53.644 39.7124 54.0141C39.4353 54.047 39.1245 54.2279 38.923 54.4252C37.0334 56.2673 34.6652 57.0814 32.1122 57.4762C28.1148 58.0929 24.0922 58.0929 20.078 57.7804C17.2647 57.5584 14.5773 56.8347 12.4862 54.7706C11.0082 53.3068 10.1516 51.5059 9.6729 49.5405C8.58956 45.0669 9.00946 40.7578 11.3273 36.6954C11.5792 36.2513 11.5204 35.947 10.9746 35.873C9.57212 35.6757 8.16966 35.4865 6.75881 35.3303C6.23814 35.2727 5.70067 35.3303 5.17159 35.2974C4.45777 35.2563 4.27301 34.9438 4.66772 34.3435C4.89446 34.0063 5.17999 33.6774 5.50751 33.4389C6.15416 32.9701 5.9526 32.6083 5.38154 32.3616C3.96229 31.7366 2.52624 31.1692 1.09019 30.5853C0.821454 30.4455 0.51073 30.3633 -0.0183411 30.1906Z" fill="black"/>
<path d="M16.7292 10.2966C17.9049 9.78678 18.9546 10.0335 19.8952 10.3131C20.8694 10.6009 21.7344 11.2588 22.6665 11.7193C22.9269 11.8427 23.2712 11.9002 23.5399 11.8427C23.6491 11.818 23.7499 11.3986 23.7247 11.1766C23.6071 10.0499 23.4475 8.93154 23.2712 7.58289C23.6827 7.78847 23.8423 7.82959 23.943 7.92827C24.8248 8.79996 25.631 9.76211 26.5884 10.5269C27.0839 10.9216 27.8397 11.0614 28.5115 11.1683C31.9211 11.7193 34.8352 13.2571 37.3881 15.461C41.3604 18.8984 44.1905 23.1664 46.6007 27.7305C46.8778 28.2485 47.1466 28.7666 47.4741 29.3916C45.7945 29.3834 44.4592 28.7584 43.1575 28.1005C41.1 27.0726 39.1181 25.8884 37.0102 24.9509C33.3571 23.3227 29.6872 23.4789 26.1265 25.2799C25.3455 25.6746 24.7156 25.765 23.8758 25.3292C19.089 22.8128 14.4953 23.4871 9.98563 26.1515C7.96173 27.3439 5.94622 28.5939 3.60319 29.1449C3.37645 29.2025 3.1413 29.2436 2.72141 29.334C3.30926 28.1499 3.76275 27.1055 4.33381 26.1351C6.27374 22.8704 8.39842 19.7208 11.069 16.9823C12.757 15.2554 14.6633 13.7998 16.8468 12.6979C17.485 12.3772 18.0897 12.04 18.7279 12.7801C18.6103 11.5877 17.7537 10.9792 16.7292 10.2966Z" fill="#ABABAB"/>
<path d="M25.4804 57.0633C22.9862 56.8741 20.9707 56.7919 18.9804 56.5534C14.4623 56.0107 11.5818 53.2722 10.6748 48.8727C9.8686 44.9336 10.1961 41.159 12.1109 37.5571C12.6315 36.5785 12.7491 36.521 13.6897 37.1377C15.3357 38.215 16.9397 39.3499 18.5773 40.4354C22.5579 43.0833 26.5385 42.9682 30.5695 40.5012C32.879 39.0785 35.2388 37.7216 37.6238 36.4305C39.1355 35.6082 39.2866 35.6822 40.0172 37.2775C42.2007 42.039 42.5198 46.8332 39.8997 51.5371C38.4216 54.1933 36.0114 55.7393 32.9882 56.208C30.3428 56.6274 27.6723 56.8248 25.4804 57.0633Z" fill="#ABABAB"/>
<path d="M61.8596 18.3384C62.3886 17.8449 62.7414 17.5242 63.0857 17.2035C63.1613 17.2282 63.2452 17.2529 63.3208 17.2775C63.3208 17.8614 63.3628 18.4535 63.3124 19.0291C63.1529 20.8218 62.9597 22.6228 62.7582 24.4155C62.691 25.0323 61.2129 26.2329 60.5915 26.1753C60.4403 26.1589 60.2388 25.9286 60.1968 25.7641C60.0792 25.3119 60.054 24.8431 59.9616 24.3908C59.8105 23.6343 59.4158 23.478 58.7943 23.9221C57.3835 24.9254 57.3835 24.9253 56.804 23.2724C56.4261 22.1787 56.3505 22.1623 55.3344 22.853C54.9481 23.1162 54.545 23.3464 54.0999 23.626C53.2853 22.6557 53.7975 21.5044 53.4616 20.4189C53.1929 20.5751 52.9829 20.6903 52.7898 20.8218C52.4035 21.085 52.034 21.3893 51.6309 21.6277C50.2536 22.4501 50.0353 22.3843 49.4138 20.9699C49.313 20.7478 49.2207 20.5176 49.1199 20.2955C48.7756 19.5472 49.0863 18.7084 49.8589 18.4617C50.0101 18.4124 50.3292 18.5851 50.4216 18.7413C50.6651 19.1607 50.8331 19.6294 51.0934 20.2462C51.4041 19.5472 51.6645 18.9551 51.9248 18.3548C53.6968 14.276 56.8712 11.7102 61.087 10.304C62.0275 9.99154 62.2795 10.1807 62.2207 11.1428C62.1367 12.5573 61.9519 13.9717 61.868 15.3944C61.8092 16.2825 61.8596 17.2035 61.8596 18.3384Z" fill="#ABABAB"/>
<path d="M15.6618 37.1119C20.5662 31.7584 30.0055 32.1449 34.1793 37.0215C31.3744 38.6908 28.8298 40.796 25.4538 41.3141C24.1102 41.5197 22.8505 41.2648 21.6076 40.796C19.3905 39.9655 17.5933 38.4935 15.6618 37.1119ZM27.8557 36.4705C27.8724 34.8916 26.7051 33.7567 25.0675 33.7649C23.5391 33.7732 22.4054 34.908 22.397 36.4294C22.3886 37.8931 23.5895 39.102 25.0675 39.1349C26.5876 39.1678 27.8389 37.9672 27.8557 36.4705Z" fill="#ABABAB"/>
<path d="M54.9994 36.3308C55.8812 35.492 56.6454 34.7766 57.334 34.1269C57.7959 35.2124 58.2326 36.2157 58.6357 37.2354C58.6861 37.3588 58.6357 37.5726 58.5601 37.696C57.3088 39.5627 56.0407 41.4212 54.7642 43.2797C54.7054 43.362 54.5963 43.4031 54.3527 43.584C54.3695 43.2222 54.3611 43.0083 54.3947 42.7945C54.4619 42.3669 54.5963 41.9393 54.6383 41.5034C54.7222 40.6235 54.6215 40.5577 53.7481 40.714C52.9671 40.8538 52.1777 40.9689 51.2203 41.1334C51.489 40.4508 51.7326 39.941 51.8753 39.4064C51.9677 39.0528 52.0601 38.543 51.8753 38.3292C51.7158 38.14 51.1615 38.214 50.8004 38.2634C50.3049 38.3292 49.8262 38.4936 49.3391 38.5923C48.6505 38.7239 48.4826 38.5512 48.6337 37.8604C48.7261 37.4657 48.8941 37.0792 48.9696 36.6845C49.1292 35.7963 48.8269 35.4016 47.9451 35.2371C47.8611 35.2207 47.7771 35.196 47.6931 35.2042C45.9968 35.4345 45.2577 34.1187 44.3088 33.1648C44.2248 33.0825 44.3088 32.6549 44.4347 32.5809C45.3501 32.0711 46.2907 31.6023 47.2481 31.1747C47.3656 31.1171 47.7267 31.3392 47.8191 31.5119C47.9535 31.7668 47.9031 32.104 47.9955 32.3918C48.1382 32.803 48.365 33.0085 48.8773 32.7701C50.0278 32.2273 50.1789 32.3178 50.5065 33.5677C50.834 34.8095 51.1867 34.9493 52.3036 34.2585C53.8321 33.321 54.3191 33.5431 54.6634 35.2865C54.7138 35.5743 54.8482 35.8621 54.9994 36.3308Z" fill="#ABABAB"/>
<path d="M12.9914 13.4461C11.6309 14.877 10.2872 16.2585 8.98556 17.673C7.93581 18.8161 7.94421 18.8407 7.1716 17.4838C6.45778 16.2256 5.97909 14.8934 6.02108 13.4296C6.05467 12.4428 6.49137 12.0316 7.45713 12.2125C9.28789 12.5579 11.1018 12.9856 12.9242 13.3885C12.9998 13.4132 13.0502 13.4954 12.9914 13.4461Z" fill="#ABABAB"/>
<path d="M41.8711 18.2811C40.2419 16.513 38.7387 14.8848 37.2355 13.2483C37.1095 13.3141 36.9835 13.3799 36.866 13.4457C37.0759 13.3717 37.2775 13.273 37.4874 13.2236C38.8899 12.9029 40.3091 12.6151 41.7116 12.2779C43.0049 11.9654 43.6095 12.352 43.5927 13.643C43.5675 15.3782 42.9545 16.9078 41.8711 18.2811Z" fill="#ABABAB"/>
<path d="M47.3075 48.659C47.3327 49.5964 47.0723 50.1968 46.3165 50.5504C44.4606 51.4303 42.6046 52.3184 40.7487 53.1901C40.6143 53.2477 40.4464 53.223 40.1608 53.2559C40.5807 52.4994 41.0426 51.8661 41.2945 51.1671C41.79 49.8103 42.1427 48.4123 42.5962 47.0389C42.7054 46.71 42.907 46.3564 43.1757 46.159C43.3772 46.011 43.8307 45.9699 44.0239 46.0932C44.1834 46.2001 44.1918 46.636 44.1331 46.9073C43.7216 49.0372 43.7132 49.029 45.905 48.733C46.3501 48.6754 46.7868 48.6919 47.3075 48.659Z" fill="#ABABAB"/>
<path d="M34.0973 33.2403C35.8357 31.1433 35.97 29.4822 34.618 28.0924C33.4338 26.8753 31.6115 26.7191 30.209 27.7059C28.6134 28.8325 28.4791 30.4279 29.7891 32.7551C28.7478 32.5166 27.8912 30.913 28.0004 29.3835C28.1431 27.27 29.7052 25.7322 31.939 25.5102C33.795 25.3293 35.7097 26.6039 36.2388 28.3638C36.8266 30.3621 36.0204 32.3193 34.0973 33.2403Z" fill="white"/>
<path d="M19.9805 33.2061C21.7441 31.1256 21.8617 29.3329 20.4424 28.0336C19.0568 26.7672 17.142 26.7179 15.832 27.9185C14.2784 29.3329 14.3791 30.9776 16.1343 33.1156C15.0426 33.0745 13.7493 31.1009 13.8081 29.4973C13.8837 27.5073 15.3533 25.912 17.4948 25.5666C19.3759 25.2705 21.4754 26.4465 22.0296 28.1652C22.7014 30.221 21.8617 32.4413 19.9805 33.2061Z" fill="white"/>
<path d="M26.6323 35.2469C25.8257 34.9673 25.1619 34.737 24.4392 34.4903C25.2459 33.7995 26.2962 34.1449 26.6323 35.2469Z" fill="white"/>
<path d="M16.7833 30.4857C17.303 30.4857 17.7243 30.0734 17.7243 29.5647C17.7243 29.056 17.303 28.6437 16.7833 28.6437C16.2635 28.6437 15.8422 29.056 15.8422 29.5647C15.8422 30.0734 16.2635 30.4857 16.7833 30.4857Z" fill="white"/>
<path d="M31.2924 30.0412C31.8121 30.0412 32.2334 29.6289 32.2334 29.1202C32.2334 28.6115 31.8121 28.1992 31.2924 28.1992C30.7727 28.1992 30.3514 28.6115 30.3514 29.1202C30.3514 29.6289 30.7727 30.0412 31.2924 30.0412Z" fill="white"/>
<rect x="36.7266" y="13.1133" width="0.545" height="0.476562" fill="black"/>
</g>
<path d="M22.4502 29.5C22.4502 31.9853 20.4524 34 17.9879 34C15.5235 34 13.5257 31.9853 13.5257 29.5C13.5257 27.0147 15.5235 25 17.9879 25C20.4524 25 22.4502 27.0147 22.4502 29.5Z" fill="#ABABAB"/>
<path d="M36.4743 29.5C36.4743 31.9853 34.4765 34 32.0121 34C29.5476 34 27.5498 31.9853 27.5498 29.5C27.5498 27.0147 29.5476 25 32.0121 25C34.4765 25 36.4743 27.0147 36.4743 29.5Z" fill="#ABABAB"/>
<path fill-rule="evenodd" clip-rule="evenodd" d="M18.0639 31.7971C16.1525 31.6546 14.2097 31.2855 13 30.9878L13.2015 30.1551C14.3757 30.4441 16.2713 30.804 18.1265 30.9423C19.0541 31.0114 19.9614 31.0244 20.7582 30.9485C21.5625 30.872 22.2167 30.7082 22.6646 30.4506L23.0857 31.1951C22.4846 31.5409 21.6905 31.7208 20.838 31.8019C19.9779 31.8837 19.0197 31.8684 18.0639 31.7971Z" fill="black"/>
<path fill-rule="evenodd" clip-rule="evenodd" d="M31.9361 31.7971C33.8475 31.6546 35.7903 31.2855 37 30.9878L36.7985 30.1551C35.6243 30.4441 33.7287 30.804 31.8735 30.9423C30.9459 31.0114 30.0386 31.0244 29.2418 30.9485C28.4375 30.872 27.7833 30.7082 27.3354 30.4506L26.9143 31.1951C27.5154 31.5409 28.3095 31.7208 29.162 31.8019C30.0221 31.8837 30.9803 31.8684 31.9361 31.7971Z" fill="black"/>
<path d="M22.4502 29.5C22.4502 31.9853 20.4524 34 17.9879 34C15.5235 34 13.5257 31.9853 13.5257 29.5C13.5257 27.0147 15.5235 25 17.9879 25C20.4524 25 22.4502 27.0147 22.4502 29.5Z" fill="#ABABAB"/>
<path d="M36.4743 29.5C36.4743 31.9853 34.4765 34 32.0121 34C29.5476 34 27.5498 31.9853 27.5498 29.5C27.5498 27.0147 29.5476 25 32.0121 25C34.4765 25 36.4743 27.0147 36.4743 29.5Z" fill="#ABABAB"/>
<path fill-rule="evenodd" clip-rule="evenodd" d="M18.0639 31.7971C16.1525 31.6546 14.2097 31.2855 13 30.9878L13.2015 30.1551C14.3757 30.4441 16.2713 30.804 18.1265 30.9423C19.0541 31.0114 19.9614 31.0244 20.7582 30.9485C21.5625 30.872 22.2167 30.7082 22.6646 30.4506L23.0857 31.1951C22.4846 31.5409 21.6905 31.7208 20.838 31.8019C19.9779 31.8837 19.0197 31.8684 18.0639 31.7971Z" fill="black"/>
<path fill-rule="evenodd" clip-rule="evenodd" d="M31.9361 31.7971C33.8475 31.6546 35.7903 31.2855 37 30.9878L36.7985 30.1551C35.6243 30.4441 33.7287 30.804 31.8735 30.9423C30.9459 31.0114 30.0386 31.0244 29.2418 30.9485C28.4375 30.872 27.7833 30.7082 27.3354 30.4506L26.9143 31.1951C27.5154 31.5409 28.3095 31.7208 29.162 31.8019C30.0221 31.8837 30.9803 31.8684 31.9361 31.7971Z" fill="black"/>
<path d="M49.8235 14.4118C50.5218 14.4118 51 14.8741 51 15.5882C51 16.2194 50.4218 16.7647 49.8235 16.7647H43.3529C42.4729 16.7647 42.1765 16.2865 42.1765 15.5882C42.1765 15.2559 42.5482 14.7106 42.7647 14.4118L47.4706 7.35294H43.3529C42.6894 7.35294 42.1765 6.85706 42.1765 6.17647C42.1765 5.54529 42.7229 5 43.3529 5H49.8235C50.7876 5 51 5.59529 51 6.17647C51 6.54176 50.6265 7.07059 50.4118 7.35294L45.7059 14.4118H49.8235Z" fill="#4289C1"/>
<path d="M40.4118 17.3529C40.7841 17.3529 41 17.5606 41 17.9412C41 18.2782 40.7306 18.5294 40.4118 18.5294H36.8824C36.4129 18.5294 36.2941 18.3135 36.2941 17.9412C36.2941 17.7641 36.4924 17.5124 36.6076 17.3529L39.2353 13.8235H36.8824C36.5282 13.8235 36.2941 13.5976 36.2941 13.2353C36.2941 12.8982 36.5459 12.6471 36.8824 12.6471H40.4118C40.9259 12.6471 41 12.9253 41 13.2353C41 13.43 40.8012 13.7512 40.6865 13.9018L38.0588 17.3529H40.4118Z" fill="#4289C1"/>
<path d="M35.1176 21.4706C35.49 21.4706 35.7059 21.6782 35.7059 22.0588C35.7059 22.3959 35.4365 22.6471 35.1176 22.6471H31.5882C31.1188 22.6471 31 22.4312 31 22.0588C31 21.8818 31.1982 21.63 31.3135 21.4706L33.9412 17.9412H31.5882C31.2341 17.9412 31 17.7153 31 17.3529C31 17.0165 31.2518 16.7647 31.5882 16.7647H35.1176C35.6318 16.7647 35.7059 17.0429 35.7059 17.3529C35.7059 17.5476 35.5071 17.8688 35.3924 18.0194L32.7647 21.4706H35.1176Z" fill="#4289C1"/>
<defs>
<clipPath id="clip0">
<rect width="64" height="64" fill="white"/>
</clipPath>
</defs>
</svg>
