<svg width="96" height="64" viewBox="0 0 96 64" fill="none" xmlns="http://www.w3.org/2000/svg">
<rect x="7.5" y="7" width="33" height="42" fill="white"/>
<path d="M2.72555 51.3358C1.72618 50.8226 1.18107 50.2792 0.69653 49.283L0 47.9547V28V8.04528L0.666246 6.71698C1.18107 5.72075 1.72618 5.17736 2.72555 4.69434L4.05804 4H24.1666C43.5785 4 44.2751 4.03019 45.4259 4.60377C46.0618 4.93585 46.9098 5.63019 47.3035 6.17358L48 7.16981V28V48.8302L47.3035 49.8264C46.9098 50.3698 46.0618 51.0641 45.4259 51.3962C44.2751 51.9698 43.5785 52 24.1666 52H4.05804L2.72555 51.3358ZM36.1893 46.3547L34.6751 44.9057L35.7956 44.8151C36.8555 44.7245 36.9161 44.6641 37.0069 43.6075C37.0675 43.0038 37.0372 41.9774 36.9767 41.3736C36.8858 40.4075 36.7647 40.2264 36.159 40.2264C35.4625 40.2264 35.4322 40.1358 35.4322 38.4151V36.6038H34.5237C33.6151 36.6038 33.6151 36.5736 33.6151 34.9434C33.6151 33.3132 33.6151 33.283 32.7066 33.283C31.8284 33.283 31.7981 33.2528 31.7981 31.7736C31.7981 30.3547 31.8587 30.2642 32.5552 30.2642C33.5243 30.2642 34.5237 29.2679 34.5237 28.3019C34.5237 27.8792 34.1905 27.2453 33.7666 26.883L33.0095 26.2189L33.9483 25.2528C34.8265 24.3472 34.8568 24.2566 34.3117 23.9547C33.7968 23.6528 33.7968 23.6226 34.4631 23.4415C35.0991 23.2604 35.1293 23.1396 35.1293 19.2151V15.1698H34.342C33.6454 15.1698 33.5849 15.1094 33.918 14.717C34.2208 14.3245 34.2208 14.1434 33.7968 13.6906C33.282 13.1472 33.282 13.0868 33.8877 12.483C35.735 10.6415 33.1306 8.10566 30.9199 9.61509C30.2839 10.0679 30.1931 10.0679 29.3148 9.25283C28.4366 8.40755 28.4063 8.37736 27.9823 8.98113C27.5584 9.55472 27.5281 9.55472 27.3767 8.89057C27.195 8.2566 27.0738 8.22642 23.0158 8.22642C18.8669 8.22642 18.8366 8.22642 19.0183 8.89057C19.1394 9.40377 19.0789 9.49434 18.6246 9.31321C18.2915 9.19245 17.8675 9.31321 17.5344 9.61509C17.0498 10.0679 16.9287 10.0679 16.2927 9.61509C15.3539 8.95094 14.0517 9.01132 13.3249 9.73585C12.5375 10.5208 12.5678 11.4868 13.3855 12.3623L14.0517 13.0566L13.1735 13.9623C12.3256 14.8377 12.3256 14.8679 12.9009 15.3208C13.4763 15.7434 13.4461 15.7434 12.8101 15.7736C12.1136 15.7736 12.1136 15.834 12.1136 20.0302V24.2868L12.8707 24.1057C13.5672 23.9245 13.5975 23.9547 13.2644 24.4981C12.9615 25.0113 12.9918 25.1925 13.4763 25.7358C14.0215 26.3396 14.0215 26.3698 13.3855 27.034C13.0221 27.4264 12.7192 28.0302 12.7192 28.3925C12.7192 29.2679 13.7489 30.2642 14.6877 30.2642C15.3842 30.2642 15.4448 30.3547 15.4448 31.7434C15.4448 33.1623 15.3842 33.2528 14.6271 33.3434C13.8397 33.434 13.7792 33.5547 13.6883 35.034C13.5975 36.483 13.5369 36.6038 12.8404 36.6038C12.1438 36.6038 12.1136 36.6943 12.1136 38.4151C12.1136 40.1057 12.053 40.2264 11.4473 40.2264C10.7508 40.2264 10.7508 40.2868 10.7508 44V47.7736H24.2271H37.7035L36.1893 46.3547Z" fill="#006637"/>
<path d="M11.7805 46.7472C11.7199 46.6868 11.6896 45.3887 11.7502 43.8792L11.841 41.132H12.7193C13.2038 41.132 13.6278 41.3434 13.7489 41.6151C13.9912 42.2188 13.9912 45.7811 13.7489 46.3849C13.5975 46.8075 12.1136 47.0792 11.7805 46.7472Z" fill="#1F1A17"/>
<path d="M17.1104 46.1434C17.7464 45.1774 17.6253 42.4906 16.959 42.4906C16.7168 42.4906 16.4745 42.7925 16.4139 43.1849C16.3231 43.6982 16.1414 43.8491 15.6568 43.7887C15.142 43.7283 15.0209 43.4566 14.9603 42.4L14.8997 41.1019L18.2612 41.1925L21.653 41.2831V42.4906C21.653 43.3661 21.5319 43.7283 21.1382 43.7887C20.8051 43.8491 20.5931 43.6378 20.5325 43.1849C20.472 42.7925 20.2297 42.4906 19.9874 42.4906C19.2909 42.4906 19.2606 44.3019 19.9268 45.6906L20.5022 46.868H18.5944H16.6562L17.1104 46.1434Z" fill="#1F1A17"/>
<path d="M22.9552 45.8113C23.0461 45.0566 23.2278 44.7547 23.6215 44.7547C23.9243 44.7547 24.2272 45.0264 24.318 45.3585C24.4997 46.083 25.6808 46.1736 25.9533 45.4792C26.1653 44.8754 25.6505 44.5434 24.1969 44.3019C23.1067 44.1207 23.0764 44.0604 22.9552 42.7622C22.8947 42.0075 22.925 41.3434 22.9855 41.2528C23.0461 41.1924 24.0152 41.132 25.1357 41.132C27.195 41.132 27.8612 41.4339 27.8612 42.4C27.8612 43.0339 26.9527 43.1245 26.0745 42.5811C25.4082 42.1887 24.4089 42.4604 24.5906 43.0339C24.6814 43.2151 25.378 43.517 26.1351 43.6679C27.6795 43.9396 28.1035 44.6037 27.7401 46.1132C27.5584 46.8377 27.4373 46.8679 25.1963 46.8679H22.8341L22.9552 45.8113Z" fill="#1F1A17"/>
<path d="M31.3136 46.2943C32.0101 45.5396 31.889 42.4905 31.1924 42.4905C30.9502 42.4905 30.7079 42.7924 30.6473 43.1849C30.5868 43.6075 30.3445 43.849 29.9508 43.849C29.4662 43.849 29.3754 43.6377 29.3754 42.4905V41.132H32.7066H36.0379V42.4905C36.0379 43.4566 35.9167 43.849 35.6139 43.849C35.3716 43.849 35.1293 43.5471 35.0688 43.1849C35.0082 42.7924 34.7659 42.4905 34.5237 42.4905C33.8574 42.4905 33.7363 44.9056 34.342 45.8113C34.6145 46.2339 34.8265 46.6264 34.8265 46.717C34.8265 46.8075 33.918 46.8679 32.7975 46.8679C30.8593 46.8679 30.7987 46.8377 31.3136 46.2943Z" fill="#1F1A17"/>
<path d="M20.593 28.7547C20.593 27.4264 21.2896 27.034 21.653 28.1812C21.7741 28.5132 22.0164 28.7245 22.1981 28.6642C22.7735 28.483 22.8038 26.7321 22.2889 25.6755C22.0164 25.1623 21.8044 24.6793 21.8044 24.6189C21.8044 24.5887 22.6221 24.5283 23.6517 24.5283H25.4688L25.0145 25.1925C24.3483 26.0981 24.3483 28.7547 24.9842 28.7547C25.2568 28.7547 25.5293 28.5434 25.6202 28.3019C25.7413 28.0604 26.0744 27.8491 26.3773 27.8491C26.8315 27.8491 26.9527 28.0604 26.9527 28.9057V29.9623H23.7729H20.593V28.7547Z" fill="#DF4F1D"/>
<path d="M16.323 27.0641L14.082 24.8302L14.8997 24.0453C15.8082 23.1396 16.4441 23.3207 16.1716 24.4075C16.0202 24.9207 16.111 25.1321 16.4441 25.1321C17.1407 25.1321 18.4732 23.3811 18.4732 22.4755C18.4732 21.6906 18.5035 21.7207 19.8359 23.0189L21.1684 24.3472L20.0479 24.8302C18.0189 25.766 17.1407 27.5774 18.9274 27.1245C20.0479 26.8528 20.2902 27.5774 19.3514 28.483L18.5337 29.2679L16.323 27.0641Z" fill="#DF4F1D"/>
<path d="M28.0126 28.3321C27.2252 27.6981 27.1647 27.5472 27.5281 27.1245C27.8309 26.7623 28.0429 26.7019 28.2852 26.9434C28.7697 27.4264 29.0725 27.3056 29.0725 26.6717C29.0725 26.0377 27.8915 25.0717 26.559 24.649L25.711 24.3773L27.1041 23.0189C28.2852 21.8415 28.4669 21.7811 28.4669 22.3547C28.4669 23.1094 30.1628 25.1321 30.7987 25.1321C31.1621 25.1321 31.2227 24.9207 31.1016 24.2264C30.829 22.9585 31.4044 22.7773 32.4341 23.8038L33.3123 24.6792L31.1016 26.883L28.9211 29.0566L28.0126 28.3321Z" fill="#DF4F1D"/>
<path d="M13.0221 19.849V16.6792H14.2335C15.4751 16.6792 15.9596 17.3132 14.9905 17.7056C14.7483 17.7962 14.5363 18.0679 14.5363 18.3396C14.5363 18.9434 16.3836 18.9434 17.5647 18.3396L18.4732 17.8566V19.6981V21.5396L17.807 21.0868C17.0499 20.5434 14.6877 20.4226 14.3849 20.9056C14.294 21.0566 14.4757 21.3585 14.8391 21.5698C15.1723 21.7811 15.4448 22.2038 15.4448 22.4755C15.4448 22.8981 15.2025 23.0189 14.2335 23.0189H13.0221V19.849Z" fill="#DF4F1D"/>
<path d="M31.4952 22.1736C31.4952 21.8113 31.7678 21.5095 32.1312 21.4189C32.4946 21.3283 32.7066 21.0868 32.646 20.8453C32.4341 20.3321 30.1022 20.5132 29.1634 21.117L28.4669 21.5698V19.7283C28.4669 18.7321 28.5274 17.8868 28.5577 17.8868C28.6183 17.8868 29.1028 18.0981 29.6176 18.3698C30.8593 18.9736 32.5249 18.8227 32.646 18.1283C32.7066 17.7359 32.5552 17.5849 32.1312 17.5849C31.7072 17.5849 31.4952 17.4038 31.4952 16.9812C31.4952 16.4679 31.7072 16.3774 32.7066 16.3774H33.9482L33.8574 19.4868L33.7665 22.5661L32.646 22.6566C31.677 22.7472 31.4952 22.6566 31.4952 22.1736Z" fill="#DF4F1D"/>
<path d="M18.4732 16.6792C18.4732 16.3472 18.0189 15.5623 17.4435 14.9283C16.6259 14.0528 16.323 13.9019 16.0202 14.1736C15.7173 14.4755 15.7476 14.6566 16.0505 15.0189C16.3836 15.4113 16.3836 15.5623 16.0202 15.9547C15.6265 16.317 15.4448 16.2868 14.6877 15.4717L13.8094 14.5358L15.9899 12.3924L18.1401 10.2189L18.988 10.8226C20.1691 11.6981 20.1085 12.3321 18.8669 12.2113C18.1401 12.1811 17.8675 12.2717 17.8675 12.6038C17.8675 13.117 19.8965 14.566 20.6536 14.566C21.4713 14.566 21.3199 14.9283 20.0479 16.166C18.7457 17.4339 18.4732 17.5245 18.4732 16.6792Z" fill="#DF4F1D"/>
<path d="M27.1344 16.1056L25.9533 14.8981L26.983 14.4755C28.2852 13.9321 29.1937 12.9056 28.9514 12.3019C28.8303 11.9396 28.6486 11.8792 28.1943 12.1207C27.7703 12.3622 27.5281 12.3321 27.2858 12.0302C27.0435 11.7585 27.1647 11.4566 27.8006 10.8528L28.6486 10.0377L30.829 12.2415L33.0095 14.4151L32.2221 15.2604C31.5861 15.9245 31.3438 16.0453 31.0107 15.7434C30.6776 15.4717 30.6473 15.2906 30.9199 14.9585C31.1924 14.6566 31.1924 14.4453 30.9502 14.2038C30.4656 13.7207 29.436 14.6868 28.8 16.166L28.3155 17.3132L27.1344 16.1056Z" fill="#DF4F1D"/>
<path d="M22.2889 13.6604C22.834 12.6038 22.7432 10.5811 22.1678 10.4C21.9558 10.3396 21.6833 10.5509 21.5924 10.9132C21.5015 11.2755 21.1987 11.5472 20.8656 11.5472C20.4113 11.5472 20.2902 11.3358 20.2902 10.3396V9.10187L23.4094 9.19243L26.4984 9.283L26.5892 10.4302C26.6801 11.3962 26.5892 11.5472 26.0744 11.5472C25.711 11.5472 25.4385 11.3358 25.4385 11.0641C25.4385 10.7924 25.2265 10.6415 24.9236 10.7019C24.4997 10.7924 24.4088 11.0641 24.4694 12C24.5299 12.6641 24.7722 13.5094 25.0145 13.9019C25.4384 14.566 25.4384 14.566 23.6517 14.566H21.865L22.2889 13.6604Z" fill="#DF4F1D"/>
<path d="M28.5577 46.8377C28.6789 46.4453 28.7697 45.8113 28.7697 45.4491C28.7697 44.8453 28.9211 44.7547 29.8297 44.7547C31.2227 44.7547 31.1924 45.2679 29.6177 46.5359C28.4366 47.5321 28.376 47.5623 28.5577 46.8377Z" fill="#006637"/>
<path d="M14.8088 45.9019C14.9603 45.117 15.1722 44.8755 15.8385 44.8151C16.8681 44.6943 16.8681 45.0264 15.8082 46.0528C14.718 47.1094 14.5666 47.0792 14.8088 45.9019Z" fill="#006637"/>
<path d="M21.1079 45.7208C20.4114 44.966 20.4719 44.7547 21.3502 44.7547C21.9558 44.7547 22.1073 44.9057 22.1073 45.5094C22.1073 46.4151 21.7741 46.4755 21.1079 45.7208Z" fill="#006637"/>
<path d="M13.0221 38.8679V37.5094L23.7123 37.5698L34.3722 37.6604L34.4631 38.9585L34.5539 40.2264H23.8031H13.0221V38.8679Z" fill="#006637"/>
<path d="M14.8391 35.6981V34.4906H23.7729H32.7066V35.6981V36.9057H23.7729H14.8391V35.6981Z" fill="#006637"/>
<path d="M16.6562 32.3773V31.1698H23.7729H30.8896V32.3773V33.5849H23.7729H16.6562V32.3773Z" fill="#006637"/>
<path d="M16.5956 29.6C16.8681 29.3283 17.0498 29.3283 17.3224 29.6C17.595 29.8717 17.5344 29.9623 16.959 29.9623C16.3836 29.9623 16.323 29.8717 16.5956 29.6Z" fill="#006637"/>
<path d="M29.3754 29.8415C29.3754 29.7811 29.5571 29.5698 29.7994 29.3887C30.1022 29.117 30.2839 29.1472 30.5868 29.5094C30.9199 29.9019 30.829 29.9623 30.1628 29.9623C29.7388 29.9623 29.3754 29.9019 29.3754 29.8415Z" fill="#006637"/>
<path d="M13.9912 28.9962C13.4158 28.4227 13.5672 27.8793 14.3849 27.4868C15.0208 27.1849 15.2631 27.2151 15.6871 27.6377C16.0808 28.0302 16.1111 28.2717 15.8688 28.6943C15.4448 29.3283 14.506 29.5094 13.9912 28.9962Z" fill="#006637"/>
<path d="M31.4953 28.9057C31.1924 28.5434 31.1622 28.2717 31.4044 27.9094C31.8284 27.2151 32.4341 27.1245 33.1609 27.6679C33.6454 28.0302 33.706 28.2113 33.4335 28.6642C32.9792 29.3887 32.0101 29.5094 31.4953 28.9057Z" fill="#006637"/>
<path d="M20.3205 26.2189C20.0479 25.8868 20.0782 25.766 20.4719 25.6151C21.1684 25.3434 21.1987 25.3736 21.1987 26.0377C21.1987 26.7321 20.805 26.8226 20.3205 26.2189Z" fill="#006637"/>
<path d="M25.4385 26.3698C25.4385 26.2189 25.6202 25.9774 25.8322 25.7962C26.2864 25.4038 27.1041 25.8264 26.8315 26.3094C26.5893 26.7019 25.4385 26.7623 25.4385 26.3698Z" fill="#006637"/>
<path d="M24.8328 21.3585V19.0943H25.8927C26.8315 19.0943 26.9527 19.0038 26.9527 18.3094C26.9527 17.8868 27.0738 17.6151 27.2555 17.7358C27.4372 17.8264 27.5583 18.7019 27.5583 19.6679C27.5583 21.2679 27.4675 21.4792 26.4076 22.5057C25.7716 23.1094 25.1659 23.6226 25.0448 23.6226C24.9236 23.6226 24.8328 22.5962 24.8328 21.3585Z" fill="#006637"/>
<path d="M16.8681 22.8076C16.4442 22.4151 16.6562 21.5396 17.1104 21.6906C17.3527 21.8113 17.5647 22.1434 17.5647 22.4453C17.5647 23.0189 17.2316 23.2 16.8681 22.8076Z" fill="#006637"/>
<path d="M21.9558 22.717C21.8347 22.5057 22.0467 22.4755 22.6221 22.5962C23.7729 22.8679 23.894 23.0189 22.9249 23.0189C22.5009 23.0189 22.0467 22.8679 21.9558 22.717Z" fill="#006637"/>
<path d="M29.5874 22.5962C29.4663 22.2943 29.648 21.9925 30.0114 21.7811C30.5565 21.5094 30.6171 21.5396 30.5262 22.1434C30.4051 22.9585 29.8297 23.2302 29.5874 22.5962Z" fill="#006637"/>
<path d="M20.0782 21.7509C19.1394 20.7547 19.1092 18.2491 19.9874 17.434C20.3205 17.1321 20.6839 16.9509 20.7445 17.0415C20.8353 17.1321 20.8959 18.4 20.8353 19.8491L20.7445 22.4755L20.0782 21.7509Z" fill="#006637"/>
<path d="M22.4404 22.2038C21.865 22.083 21.8044 21.9925 22.1376 21.751C22.4707 21.5396 22.4707 21.4189 22.1981 21.2981C21.9256 21.2076 21.8347 20.483 21.865 19.0038L21.9256 16.8302L22.077 18.9434C22.2284 20.7849 22.3193 21.0566 22.8644 21.0566C23.4095 21.0566 23.5003 20.7849 23.6518 18.9434L23.8032 16.8302L23.8637 18.8227C23.9243 20.3019 23.8032 20.9359 23.4701 21.2076C23.0764 21.5396 23.0764 21.6302 23.5306 21.9925C24.106 22.4151 23.894 22.4755 22.4404 22.2038Z" fill="#006637"/>
<path d="M24.4997 17.5849C24.1969 17.3736 24.1666 17.2226 24.4391 16.9509C24.8934 16.4981 25.8625 16.7094 25.9836 17.283C26.0745 17.8264 25.1962 17.9773 24.4997 17.5849Z" fill="#006637"/>
<path d="M16.3533 17.1623C16.3533 16.951 16.5653 16.5887 16.8076 16.3774C17.171 16.0755 17.2921 16.1057 17.4435 16.4679C17.5344 16.7396 17.5344 17.1019 17.4132 17.283C17.1407 17.7359 16.3533 17.6453 16.3533 17.1623Z" fill="#006637"/>
<path d="M29.6177 17.4038C29.5268 17.3132 29.4965 16.9811 29.5874 16.6491C29.7085 16.1962 29.8297 16.1359 30.1628 16.4076C30.7079 16.8604 30.7079 17.5849 30.1931 17.5849C29.9508 17.5849 29.7085 17.4943 29.6177 17.4038Z" fill="#006637"/>
<path d="M21.653 15.7736C21.7438 15.6226 22.3192 15.4717 22.8946 15.4717C23.47 15.4717 23.9243 15.6226 23.9243 15.7736C23.9243 15.9547 23.3792 16.0755 22.6826 16.0755C21.9558 16.0755 21.5318 15.9547 21.653 15.7736Z" fill="#006637"/>
<path d="M20.1994 13.4793C19.9268 13.1774 20.5628 12.4528 21.1079 12.4528C21.6833 12.4528 21.4713 13.4793 20.8656 13.6C20.6233 13.6302 20.3205 13.6 20.1994 13.4793Z" fill="#006637"/>
<path d="M25.7413 13.0566C25.7413 12.3623 26.0442 12.2717 26.5893 12.8151C27.1344 13.3585 27.0435 13.6604 26.347 13.6604C25.9533 13.6604 25.7413 13.449 25.7413 13.0566Z" fill="#006637"/>
<path d="M13.9003 11.6679C13.3855 11.034 13.9003 10.1887 14.8391 10.1887C15.7779 10.1887 16.2927 11.034 15.7779 11.6679C15.5356 11.9396 15.142 12.151 14.8391 12.151C14.5363 12.151 14.1426 11.9396 13.9003 11.6679Z" fill="#006637"/>
<path d="M31.465 11.6679C30.9502 11.034 31.465 10.1887 32.4038 10.1887C33.3426 10.1887 33.8574 11.034 33.3426 11.6679C33.1003 11.9396 32.7066 12.151 32.4038 12.151C32.1009 12.151 31.7073 11.9396 31.465 11.6679Z" fill="#006637"/>
<rect x="16.8161" y="31.3446" width="13.8986" height="2.0651" stroke="#C5582A" stroke-width="0.35"/>
<rect x="14.999" y="34.6654" width="17.5326" height="2.0651" stroke="#C5582A" stroke-width="0.35"/>
<path d="M13.182 37.6844H34.344L34.3765 40.0516H13.182V37.6844Z" stroke="#C5582A" stroke-width="0.35"/>
<g clip-path="url(#clip0)">
<path d="M31.9817 30.1906C33.6445 29.1626 34.2407 27.6906 35.0301 26.3008C36.1974 24.2532 37.5327 22.296 38.8596 20.347C39.2039 19.8372 39.2795 19.5 38.8932 18.9902C37.7762 17.5181 37.0708 15.8734 36.9532 14.0149C36.8105 11.6383 38.0366 10.7091 40.3964 11.3012C42.202 11.7535 44.0411 12.0824 45.8719 12.4443C46.9132 12.6498 47.7446 12.2222 48.5928 11.4328C48.1057 11.2025 47.6942 11.0545 47.3415 10.816C47.1232 10.6598 46.8796 10.3719 46.8796 10.1334C46.8796 9.91141 47.14 9.54958 47.3583 9.49202C48.1813 9.2782 49.0547 8.96571 49.8777 9.03972C51.1878 9.16308 52.4727 9.56603 53.766 9.84563C53.9255 9.87852 54.0767 9.90319 54.3874 9.95253C54.3874 9.26998 54.3454 8.65322 54.4042 8.04468C54.4462 7.55949 54.5638 7.07431 54.7401 6.61379C55.0172 5.85723 55.5883 5.78322 56.109 6.39998C56.7388 7.13187 57.4107 7.83087 57.9817 8.59566C58.7879 9.68116 59.972 9.92786 61.1981 10.2321C62.7014 10.6022 64.2802 10.9722 65.5903 11.7288C67.0431 12.5676 68.37 12.4196 69.8228 12.0824C71.1245 11.7781 72.4262 11.4574 73.7363 11.219C75.693 10.8653 76.6336 11.6959 76.6336 13.6613C76.6336 15.4129 76.0709 17.0001 75.0716 18.4227C74.6349 19.0477 74.5005 19.4918 75.0716 20.125C75.7098 20.8322 76.1969 21.6628 76.8267 22.5592C77.0703 22.2302 77.213 21.9753 77.4062 21.7697C78.7331 20.3059 80.0515 18.8339 81.3952 17.3866C81.8991 16.8438 82.4618 16.704 82.9824 17.3948C83.7299 16.3257 84.3681 15.2402 85.1743 14.2945C87.4501 11.6055 90.3223 9.81273 93.841 9.07262C94.7816 8.87525 95.2686 9.21242 95.2267 10.2732C95.1511 12.0742 94.9495 13.8669 94.79 15.6596C94.7648 15.9228 94.706 16.1859 94.6472 16.5642C95.6298 16.2271 95.9237 16.8109 95.9321 17.477C95.9573 19.574 96.0665 21.6875 95.8481 23.7598C95.3862 28.1594 94.3365 32.4274 92.3462 36.4322C89.5076 42.1393 85.5858 46.9583 80.1943 50.5519C77.6077 52.2789 74.8784 53.644 71.7124 54.014C71.4352 54.0469 71.1245 54.2278 70.923 54.4252C69.0334 56.2673 66.6652 57.0814 64.1122 57.4761C60.1148 58.0929 56.0922 58.0929 52.078 57.7804C49.2647 57.5584 46.5773 56.8347 44.4862 54.7706C43.0082 53.3068 42.1516 51.5059 41.6729 49.5405C40.5896 45.0669 41.0095 40.7578 43.3273 36.6953C43.5792 36.2513 43.5204 35.947 42.9746 35.873C41.5721 35.6756 40.1697 35.4865 38.7588 35.3302C38.2381 35.2727 37.7007 35.3302 37.1716 35.2974C36.4578 35.2562 36.273 34.9437 36.6677 34.3434C36.8945 34.0063 37.18 33.6773 37.5075 33.4388C38.1542 32.9701 37.9526 32.6083 37.3815 32.3616C35.9623 31.7366 34.5262 31.1692 33.0902 30.5853C32.8215 30.4455 32.5107 30.3633 31.9817 30.1906Z" fill="black"/>
<path d="M48.7292 10.2966C49.9049 9.78674 50.9546 10.0334 51.8952 10.313C52.8694 10.6009 53.7344 11.2587 54.6665 11.7193C54.9269 11.8426 55.2712 11.9002 55.5399 11.8426C55.6491 11.8179 55.7499 11.3985 55.7247 11.1765C55.6071 10.0499 55.4475 8.93149 55.2712 7.58284C55.6827 7.78843 55.8423 7.82954 55.943 7.92823C56.8248 8.79992 57.631 9.76207 58.5884 10.5269C59.0839 10.9216 59.8397 11.0614 60.5115 11.1683C63.9211 11.7193 66.8352 13.2571 69.3881 15.4609C73.3604 18.8984 76.1905 23.1664 78.6007 27.7304C78.8778 28.2485 79.1466 28.7666 79.4741 29.3916C77.7945 29.3833 76.4592 28.7583 75.1575 28.1005C73.1 27.0725 71.1181 25.8883 69.0102 24.9509C65.3571 23.3226 61.6872 23.4789 58.1265 25.2798C57.3455 25.6745 56.7156 25.765 55.8758 25.3291C51.089 22.8128 46.4953 23.4871 41.9856 26.1515C39.9617 27.3439 37.9462 28.5939 35.6032 29.1448C35.3764 29.2024 35.1413 29.2435 34.7214 29.334C35.3093 28.1498 35.7628 27.1054 36.3338 26.135C38.2737 22.8703 40.3984 19.7207 43.069 16.9823C44.757 15.2554 46.6633 13.7998 48.8468 12.6979C49.485 12.3771 50.0897 12.04 50.7279 12.7801C50.6103 11.5877 49.7537 10.9791 48.7292 10.2966Z" fill="#ABABAB"/>
<path d="M57.4804 57.0632C54.9862 56.8741 52.9707 56.7919 50.9804 56.5534C46.4623 56.0106 43.5818 53.2722 42.6748 48.8726C41.8686 44.9336 42.1961 41.159 44.1109 37.5571C44.6315 36.5785 44.7491 36.521 45.6897 37.1377C47.3357 38.215 48.9397 39.3498 50.5773 40.4353C54.5579 43.0833 58.5385 42.9682 62.5695 40.5011C64.879 39.0785 67.2388 37.7216 69.6238 36.4305C71.1355 35.6081 71.2866 35.6822 72.0172 37.2775C74.2007 42.0389 74.5198 46.8332 71.8997 51.5371C70.4216 54.1932 68.0114 55.7393 64.9882 56.208C62.3428 56.6274 59.6723 56.8248 57.4804 57.0632Z" fill="#ABABAB"/>
<path d="M93.8596 18.3383C94.3886 17.8449 94.7414 17.5242 95.0857 17.2035C95.1613 17.2281 95.2452 17.2528 95.3208 17.2775C95.3208 17.8613 95.3628 18.4534 95.3124 19.0291C95.1529 20.8218 94.9597 22.6227 94.7582 24.4155C94.691 25.0322 93.2129 26.2328 92.5915 26.1753C92.4403 26.1588 92.2388 25.9286 92.1968 25.7641C92.0792 25.3118 92.054 24.8431 91.9616 24.3908C91.8105 23.6342 91.4158 23.478 90.7943 23.922C89.3835 24.9253 89.3835 24.9253 88.804 23.2724C88.4261 22.1787 88.3505 22.1622 87.3344 22.853C86.9481 23.1161 86.545 23.3464 86.0999 23.626C85.2853 22.6556 85.7975 21.5043 85.4616 20.4188C85.1929 20.5751 84.9829 20.6902 84.7898 20.8218C84.4035 21.0849 84.034 21.3892 83.6309 21.6277C82.2536 22.45 82.0353 22.3843 81.4138 20.9698C81.313 20.7478 81.2207 20.5175 81.1199 20.2955C80.7756 19.5472 81.0863 18.7084 81.8589 18.4617C82.0101 18.4123 82.3292 18.585 82.4216 18.7413C82.6651 19.1607 82.8331 19.6294 83.0934 20.2462C83.4041 19.5472 83.6645 18.9551 83.9248 18.3548C85.6968 14.2759 88.8712 11.7102 93.087 10.304C94.0275 9.9915 94.2795 10.1806 94.2207 11.1428C94.1367 12.5572 93.9519 13.9717 93.868 15.3943C93.8092 16.2824 93.8596 17.2035 93.8596 18.3383Z" fill="#ABABAB"/>
<path d="M47.6618 37.1118C52.5662 31.7583 62.0055 32.1449 66.1793 37.0214C63.3744 38.6908 60.8298 40.796 57.4538 41.3141C56.1102 41.5196 54.8505 41.2647 53.6076 40.796C51.3905 39.9654 49.5933 38.4934 47.6618 37.1118ZM59.8557 36.4704C59.8724 34.8915 58.7051 33.7567 57.0675 33.7649C55.5391 33.7731 54.4054 34.9079 54.397 36.4293C54.3886 37.8931 55.5895 39.1019 57.0675 39.1348C58.5876 39.1677 59.8389 37.9671 59.8557 36.4704Z" fill="#ABABAB"/>
<path d="M86.9994 36.3308C87.8812 35.492 88.6454 34.7765 89.334 34.1269C89.7959 35.2124 90.2326 36.2156 90.6357 37.2354C90.6861 37.3587 90.6357 37.5725 90.5601 37.6959C89.3088 39.5626 88.0407 41.4211 86.7642 43.2796C86.7054 43.3619 86.5963 43.403 86.3527 43.5839C86.3695 43.2221 86.3611 43.0083 86.3947 42.7945C86.4619 42.3668 86.5963 41.9392 86.6383 41.5034C86.7222 40.6234 86.6215 40.5577 85.7481 40.7139C84.9671 40.8537 84.1777 40.9688 83.2203 41.1333C83.489 40.4508 83.7326 39.9409 83.8753 39.4064C83.9677 39.0528 84.0601 38.5429 83.8753 38.3291C83.7158 38.1399 83.1615 38.214 82.8004 38.2633C82.3049 38.3291 81.8262 38.4936 81.3391 38.5922C80.6505 38.7238 80.4826 38.5511 80.6337 37.8603C80.7261 37.4656 80.8941 37.0791 80.9696 36.6844C81.1292 35.7962 80.8269 35.4015 79.9451 35.237C79.8611 35.2206 79.7771 35.1959 79.6931 35.2041C77.9968 35.4344 77.2577 34.1186 76.3088 33.1647C76.2248 33.0825 76.3088 32.6548 76.4347 32.5808C77.3501 32.071 78.2907 31.6022 79.2481 31.1746C79.3656 31.117 79.7267 31.3391 79.8191 31.5118C79.9535 31.7667 79.9031 32.1039 79.9955 32.3917C80.1382 32.8029 80.365 33.0085 80.8773 32.77C82.0278 32.2272 82.1789 32.3177 82.5065 33.5677C82.834 34.8094 83.1867 34.9492 84.3036 34.2584C85.8321 33.321 86.3191 33.543 86.6634 35.2864C86.7138 35.5742 86.8482 35.862 86.9994 36.3308Z" fill="#ABABAB"/>
<path d="M44.9914 13.446C43.6309 14.8769 42.2872 16.2585 40.9856 17.6729C39.9358 18.816 39.9442 18.8407 39.1716 17.4838C38.4578 16.2256 37.9791 14.8934 38.0211 13.4296C38.0547 12.4428 38.4914 12.0316 39.4571 12.2125C41.2879 12.5579 43.1018 12.9855 44.9242 13.3885C44.9998 13.4131 45.0502 13.4954 44.9914 13.446Z" fill="#ABABAB"/>
<path d="M73.8711 18.2811C72.2419 16.513 70.7387 14.8847 69.2355 13.2483C69.1095 13.3141 68.9835 13.3798 68.866 13.4456C69.0759 13.3716 69.2775 13.2729 69.4874 13.2236C70.8899 12.9029 72.3091 12.6151 73.7116 12.2779C75.0049 11.9654 75.6095 12.3519 75.5927 13.643C75.5675 15.3782 74.9545 16.9077 73.8711 18.2811Z" fill="#ABABAB"/>
<path d="M79.3075 48.6589C79.3327 49.5964 79.0723 50.1967 78.3165 50.5503C76.4606 51.4302 74.6046 52.3184 72.7487 53.1901C72.6143 53.2476 72.4464 53.223 72.1608 53.2559C72.5807 52.4993 73.0426 51.8661 73.2945 51.1671C73.79 49.8102 74.1427 48.4122 74.5962 47.0389C74.7054 46.7099 74.907 46.3563 75.1757 46.1589C75.3772 46.0109 75.8307 45.9698 76.0239 46.0932C76.1834 46.2001 76.1918 46.6359 76.1331 46.9073C75.7216 49.0372 75.7132 49.029 77.905 48.7329C78.3501 48.6753 78.7868 48.6918 79.3075 48.6589Z" fill="#ABABAB"/>
<path d="M66.0973 33.2402C67.8357 31.1433 67.97 29.4821 66.618 28.0923C65.4338 26.8753 63.6115 26.719 62.209 27.7058C60.6134 28.8325 60.4791 30.4278 61.7891 32.7551C60.7478 32.5166 59.8912 30.913 60.0004 29.3834C60.1431 27.27 61.7052 25.7322 63.939 25.5102C65.795 25.3292 67.7097 26.6039 68.2388 28.3637C68.8266 30.362 68.0204 32.3192 66.0973 33.2402Z" fill="white"/>
<path d="M51.9805 33.206C53.7441 31.1255 53.8617 29.3328 52.4424 28.0335C51.0568 26.7671 49.142 26.7178 47.832 27.9184C46.2784 29.3328 46.3791 30.9775 48.1343 33.1156C47.0426 33.0745 45.7493 31.1009 45.8081 29.4973C45.8837 27.5072 47.3533 25.9119 49.4948 25.5665C51.3759 25.2705 53.4754 26.4464 54.0296 28.1651C54.7014 30.221 53.8617 32.4413 51.9805 33.206Z" fill="white"/>
<path d="M58.6323 35.2469C57.8257 34.9673 57.1619 34.737 56.4392 34.4903C57.2459 33.7995 58.2962 34.1449 58.6323 35.2469Z" fill="white"/>
<path d="M48.7833 30.4857C49.303 30.4857 49.7243 30.0733 49.7243 29.5646C49.7243 29.056 49.303 28.6436 48.7833 28.6436C48.2635 28.6436 47.8422 29.056 47.8422 29.5646C47.8422 30.0733 48.2635 30.4857 48.7833 30.4857Z" fill="white"/>
<path d="M63.2924 30.0412C63.8121 30.0412 64.2334 29.6288 64.2334 29.1201C64.2334 28.6115 63.8121 28.1991 63.2924 28.1991C62.7727 28.1991 62.3514 28.6115 62.3514 29.1201C62.3514 29.6288 62.7727 30.0412 63.2924 30.0412Z" fill="white"/>
<rect x="68.7266" y="13.1133" width="0.545" height="0.476562" fill="black"/>
</g>
<defs>
<clipPath id="clip0">
<rect width="64" height="64" fill="white" transform="translate(32)"/>
</clipPath>
</defs>
</svg>
