<svg width="132" height="32" viewBox="0 0 133 32" fill="none" xmlns="http://www.w3.org/2000/svg">
<path fill-rule="evenodd" clip-rule="evenodd" d="M9.51997 0L11.9065 0.53706L3.1842 29.856H132V32H0L9.51997 0Z" fill="#EBA131"/>
<path d="M27.1596 22.8085L25.888 18.8216H19.4939L18.2222 22.8085H14.2154L20.4056 5.99005H24.9523L31.1665 22.8085H27.1596ZM25.0003 15.8428C23.8246 12.2301 23.1608 10.187 23.0088 9.71349C22.8649 9.23994 22.7609 8.86569 22.6969 8.59073C22.433 9.56837 21.6772 11.9857 20.4296 15.8428H25.0003Z" fill="#F2F2F2"/>
<path d="M40.2181 23.0377C38.6425 23.0377 37.4069 22.4916 36.5111 21.3993H36.3192C36.4472 22.4686 36.5111 23.0873 36.5111 23.2553V28.4452H32.8522V9.9999H35.8273L36.3432 11.6611H36.5111C37.3669 10.3933 38.6345 9.75931 40.314 9.75931C41.8976 9.75931 43.1372 10.3436 44.033 11.5122C44.9287 12.6808 45.3766 14.3038 45.3766 16.3813C45.3766 17.7485 45.1646 18.9361 44.7408 19.9443C44.3249 20.9525 43.729 21.7201 42.9533 22.2471C42.1775 22.7741 41.2658 23.0377 40.2181 23.0377ZM39.1384 12.5548C38.2346 12.5548 37.5748 12.8221 37.159 13.3567C36.7431 13.8837 36.5271 14.7583 36.5111 15.9803V16.3584C36.5111 17.7332 36.7231 18.7185 37.147 19.3142C37.5788 19.91 38.2586 20.2078 39.1864 20.2078C40.8259 20.2078 41.6457 18.9171 41.6457 16.3355C41.6457 15.0752 41.4417 14.132 41.0338 13.5057C40.6339 12.8717 40.0021 12.5548 39.1384 12.5548Z" fill="#F2F2F2"/>
<path d="M51.0692 16.3813C51.0692 17.6492 51.2851 18.6077 51.717 19.2569C52.1568 19.9061 52.8686 20.2308 53.8523 20.2308C54.8281 20.2308 55.5279 19.91 55.9517 19.2684C56.3836 18.6192 56.5995 17.6568 56.5995 16.3813C56.5995 15.1134 56.3836 14.1625 55.9517 13.5286C55.5199 12.8946 54.8121 12.5777 53.8284 12.5777C52.8526 12.5777 52.1488 12.8946 51.717 13.5286C51.2851 14.1549 51.0692 15.1058 51.0692 16.3813ZM60.3425 16.3813C60.3425 18.4664 59.7666 20.0971 58.615 21.2733C57.4633 22.4495 55.8598 23.0377 53.8044 23.0377C52.5167 23.0377 51.3811 22.7703 50.3973 22.2357C49.4136 21.6934 48.6579 20.9182 48.13 19.91C47.6022 18.9018 47.3382 17.7256 47.3382 16.3813C47.3382 14.2885 47.9101 12.6617 49.0537 11.5007C50.1974 10.3398 51.8049 9.75931 53.8763 9.75931C55.164 9.75931 56.2996 10.0266 57.2833 10.5613C58.2671 11.0959 59.0228 11.8635 59.5507 12.8641C60.0785 13.8646 60.3425 15.037 60.3425 16.3813Z" fill="#F2F2F2"/>
<path d="M61.2004 9.9999H65.2073L67.7385 17.2062C67.9545 17.8325 68.1024 18.5734 68.1824 19.4288H68.2544C68.3424 18.6421 68.5143 17.9012 68.7702 17.2062L71.2535 9.9999H75.1764L69.502 24.4468C68.9822 25.7834 68.2384 26.784 67.2707 27.4485C66.311 28.113 65.1873 28.4452 63.8997 28.4452C63.2678 28.4452 62.648 28.3803 62.0402 28.2505V25.4779C62.4801 25.5772 62.9599 25.6269 63.4798 25.6269C64.1276 25.6269 64.6914 25.4359 65.1713 25.054C65.6591 24.6798 66.039 24.1108 66.311 23.347L66.5269 22.7169L61.2004 9.9999Z" fill="#F2F2F2"/>
<path d="M85.3797 22.8085L84.6719 21.0671H84.5759C83.9601 21.808 83.3242 22.3235 82.6684 22.6138C82.0206 22.8964 81.1729 23.0377 80.1252 23.0377C78.8376 23.0377 77.8218 22.6863 77.0781 21.9836C76.3423 21.281 75.9744 20.2804 75.9744 18.982C75.9744 17.6224 76.4702 16.6219 77.462 15.9803C78.4617 15.3311 79.9652 14.9721 81.9726 14.9034L84.3 14.8346V14.2733C84.3 12.9748 83.6042 12.3256 82.2126 12.3256C81.1409 12.3256 79.8812 12.635 78.4337 13.2536L77.222 10.8935C78.7656 10.1221 80.4771 9.7364 82.3565 9.7364C84.156 9.7364 85.5356 10.1107 86.4953 10.8592C87.455 11.6077 87.9349 12.7457 87.9349 14.2733V22.8085H85.3797ZM84.3 16.8739L82.8844 16.9198C81.8207 16.9503 81.0289 17.1336 80.5091 17.4697C79.9892 17.8058 79.7293 18.3175 79.7293 19.0049C79.7293 19.9902 80.3211 20.4828 81.5048 20.4828C82.3525 20.4828 83.0283 20.2499 83.5322 19.7839C84.044 19.318 84.3 18.6994 84.3 17.928V16.8739Z" fill="#F2F2F2"/>
<path d="M98.833 22.8085H95.1141V9.0146H90.3515V6.05877H103.596V9.0146H98.833V22.8085Z" fill="#EBA131"/>
<path d="M116.15 22.8085H106.049V6.05877H116.15V8.96877H109.768V12.6464H115.706V15.5564H109.768V19.8756H116.15V22.8085Z" fill="#EBA131"/>
<path d="M127.025 8.77401C125.626 8.77401 124.542 9.27811 123.774 10.2863C123.006 11.2869 122.623 12.6846 122.623 14.4795C122.623 18.2143 124.09 20.0818 127.025 20.0818C128.257 20.0818 129.748 19.7877 131.5 19.1996V22.1784C130.06 22.7512 128.453 23.0376 126.677 23.0376C124.126 23.0376 122.175 22.3006 120.823 20.8265C119.471 19.3447 118.796 17.2214 118.796 14.4565C118.796 12.7151 119.128 11.1914 119.791 9.88531C120.455 8.57161 121.407 7.56724 122.647 6.87219C123.894 6.16952 125.354 5.81818 127.025 5.81818C128.729 5.81818 130.44 6.21152 132.16 6.99822L130.96 9.88531C130.304 9.58744 129.645 9.32775 128.981 9.10626C128.317 8.88476 127.665 8.77401 127.025 8.77401Z" fill="#EBA131"/>
</svg>
