<?xml version="1.0" encoding="utf-8"?>
<!-- Generator: Adobe Illustrator 23.0.4, SVG Export Plug-In . SVG Version: 6.00 Build 0)  -->
<svg version="1.1" id="Layer_1" xmlns="http://www.w3.org/2000/svg" xmlns:xlink="http://www.w3.org/1999/xlink" x="0px" y="0px"
	 viewBox="0 0 864 864" style="enable-background:new 0 0 864 864;" xml:space="preserve">
<style type="text/css">
	.st0{fill:#ABABAB;}
	.st1{fill:#FFFFFF;}
</style>
<path d="M50.9,410.6c19.8-12.5,26.9-30.4,36.3-47.3c13.9-24.9,29.8-48.7,45.6-72.4c4.1-6.2,5-10.3,0.4-16.5
	c-13.3-17.9-21.7-37.9-23.1-60.5c-1.7-28.9,12.9-40.2,41-33c21.5,5.5,43.4,9.5,65.2,13.9c12.4,2.5,22.3-2.7,32.4-12.3
	c-5.8-2.8-10.7-4.6-14.9-7.5c-2.6-1.9-5.5-5.4-5.5-8.3c0-2.7,3.1-7.1,5.7-7.8c9.8-2.6,20.2-6.4,30-5.5c15.6,1.5,30.9,6.4,46.3,9.8
	c1.9,0.4,3.7,0.7,7.4,1.3c0-8.3-0.5-15.8,0.2-23.2c0.5-5.9,1.9-11.8,4-17.4c3.3-9.2,10.1-10.1,16.3-2.6c7.5,8.9,15.5,17.4,22.3,26.7
	c9.6,13.2,23.7,16.2,38.3,19.9c17.9,4.5,36.7,9,52.3,18.2c17.3,10.2,33.1,8.4,50.4,4.3c15.5-3.7,31-7.6,46.6-10.5
	c23.3-4.3,34.5,5.8,34.5,29.7c0,21.3-6.7,40.6-18.6,57.9c-5.2,7.6-6.8,13,0,20.7c7.6,8.6,13.4,18.7,20.9,29.6c2.9-4,4.6-7.1,6.9-9.6
	c15.8-17.8,31.5-35.7,47.5-53.3c6-6.6,12.7-8.3,18.9,0.1c8.9-13,16.5-26.2,26.1-37.7c27.1-32.7,61.3-54.5,103.2-63.5
	c11.2-2.4,17,1.7,16.5,14.6c-0.9,21.9-3.3,43.7-5.2,65.5c-0.3,3.2-1,6.4-1.7,11c11.7-4.1,15.2,3,15.3,11.1c0.3,25.5,1.6,51.2-1,76.4
	c-5.5,53.5-18,105.4-41.7,154.1c-33.8,69.4-80.5,128-144.7,171.7c-30.8,21-63.3,37.6-101,42.1c-3.3,0.4-7,2.6-9.4,5
	c-22.5,22.4-50.7,32.3-81.1,37.1c-47.6,7.5-95.5,7.5-143.3,3.7c-33.5-2.7-65.5-11.5-90.4-36.6c-17.6-17.8-27.8-39.7-33.5-63.6
	c-12.9-54.4-7.9-106.8,19.7-156.2c3-5.4,2.3-9.1-4.2-10c-16.7-2.4-33.4-4.7-50.2-6.6c-6.2-0.7-12.6,0-18.9-0.4
	c-8.5-0.5-10.7-4.3-6-11.6c2.7-4.1,6.1-8.1,10-11c7.7-5.7,5.3-10.1-1.5-13.1c-16.9-7.6-34-14.5-51.1-21.6
	C60.9,413.7,57.2,412.7,50.9,410.6z"/>
<g>
	<path class="st0" d="M250.1,168.5c14-6.2,26.5-3.2,37.7,0.2c11.6,3.5,21.9,11.5,33,17.1c3.1,1.5,7.2,2.2,10.4,1.5
		c1.3-0.3,2.5-5.4,2.2-8.1c-1.4-13.7-3.3-27.3-5.4-43.7c4.9,2.5,6.8,3,8,4.2c10.5,10.6,20.1,22.3,31.5,31.6
		c5.9,4.8,14.9,6.5,22.9,7.8c40.6,6.7,75.3,25.4,105.7,52.2c47.3,41.8,81,93.7,109.7,149.2c3.3,6.3,6.5,12.6,10.4,20.2
		c-20-0.1-35.9-7.7-51.4-15.7c-24.5-12.5-48.1-26.9-73.2-38.3c-43.5-19.8-87.2-17.9-129.6,4c-9.3,4.8-16.8,5.9-26.8,0.6
		c-57-30.6-111.7-22.4-165.4,10c-24.1,14.5-48.1,29.7-76,36.4c-2.7,0.7-5.5,1.2-10.5,2.3c7-14.4,12.4-27.1,19.2-38.9
		c23.1-39.7,48.4-78,80.2-111.3c20.1-21,42.8-38.7,68.8-52.1c7.6-3.9,14.8-8,22.4,1C272.5,184.2,262.3,176.8,250.1,168.5z"/>
	<path class="st0" d="M354.3,737.2c-29.7-2.3-53.7-3.3-77.4-6.2c-53.8-6.6-88.1-39.9-98.9-93.4c-9.6-47.9-5.7-93.8,17.1-137.6
		c6.2-11.9,7.6-12.6,18.8-5.1c19.6,13.1,38.7,26.9,58.2,40.1c47.4,32.2,94.8,30.8,142.8,0.8c27.5-17.3,55.6-33.8,84-49.5
		c18-10,19.8-9.1,28.5,10.3c26,57.9,29.8,116.2-1.4,173.4c-17.6,32.3-46.3,51.1-82.3,56.8C412.2,731.9,380.4,734.3,354.3,737.2z"/>
	<path class="st0" d="M787.5,266.3c6.3-6,10.5-9.9,14.6-13.8c0.9,0.3,1.9,0.6,2.8,0.9c0,7.1,0.5,14.3-0.1,21.3
		c-1.9,21.8-4.2,43.7-6.6,65.5c-0.8,7.5-18.4,22.1-25.8,21.4c-1.8-0.2-4.2-3-4.7-5c-1.4-5.5-1.7-11.2-2.8-16.7
		c-1.8-9.2-6.5-11.1-13.9-5.7c-16.8,12.2-16.8,12.2-23.7-7.9c-4.5-13.3-5.4-13.5-17.5-5.1c-4.6,3.2-9.4,6-14.7,9.4
		c-9.7-11.8-3.6-25.8-7.6-39c-3.2,1.9-5.7,3.3-8,4.9c-4.6,3.2-9,6.9-13.8,9.8c-16.4,10-19,9.2-26.4-8c-1.2-2.7-2.3-5.5-3.5-8.2
		c-4.1-9.1-0.4-19.3,8.8-22.3c1.8-0.6,5.6,1.5,6.7,3.4c2.9,5.1,4.9,10.8,8,18.3c3.7-8.5,6.8-15.7,9.9-23
		c21.1-49.6,58.9-80.8,109.1-97.9c11.2-3.8,14.2-1.5,13.5,10.2c-1,17.2-3.2,34.4-4.2,51.7C786.9,241.3,787.5,252.5,787.5,266.3z"/>
	<path class="st0" d="M237.4,494.6c58.4-65.1,170.8-60.4,220.5-1.1c-33.4,20.3-63.7,45.9-103.9,52.2c-16,2.5-31-0.6-45.8-6.3
		C281.8,529.3,260.4,511.4,237.4,494.6z M382.6,486.8c0.2-19.2-13.7-33-33.2-32.9c-18.2,0.1-31.7,13.9-31.8,32.4
		c-0.1,17.8,14.2,32.5,31.8,32.9C367.5,519.6,382.4,505,382.6,486.8z"/>
	<path class="st0" d="M705.8,485.1c10.5-10.2,19.6-18.9,27.8-26.8c5.5,13.2,10.7,25.4,15.5,37.8c0.6,1.5,0,4.1-0.9,5.6
		c-14.9,22.7-30,45.3-45.2,67.9c-0.7,1-2,1.5-4.9,3.7c0.2-4.4,0.1-7,0.5-9.6c0.8-5.2,2.4-10.4,2.9-15.7c1-10.7-0.2-11.5-10.6-9.6
		c-9.3,1.7-18.7,3.1-30.1,5.1c3.2-8.3,6.1-14.5,7.8-21c1.1-4.3,2.2-10.5,0-13.1c-1.9-2.3-8.5-1.4-12.8-0.8c-5.9,0.8-11.6,2.8-17.4,4
		c-8.2,1.6-10.2-0.5-8.4-8.9c1.1-4.8,3.1-9.5,4-14.3c1.9-10.8-1.7-15.6-12.2-17.6c-1-0.2-2-0.5-3-0.4c-20.2,2.8-29-13.2-40.3-24.8
		c-1-1,0-6.2,1.5-7.1c10.9-6.2,22.1-11.9,33.5-17.1c1.4-0.7,5.7,2,6.8,4.1c1.6,3.1,1,7.2,2.1,10.7c1.7,5,4.4,7.5,10.5,4.6
		c13.7-6.6,15.5-5.5,19.4,9.7c3.9,15.1,8.1,16.8,21.4,8.4c18.2-11.4,24-8.7,28.1,12.5C702.4,475.9,704,479.4,705.8,485.1z"/>
	<path class="st0" d="M205.6,206.8c-16.2,17.4-32.2,34.2-47.7,51.4c-12.5,13.9-12.4,14.2-21.6-2.3c-8.5-15.3-14.2-31.5-13.7-49.3
		c0.4-12,5.6-17,17.1-14.8c21.8,4.2,43.4,9.4,65.1,14.3C205.7,206.4,206.3,207.4,205.6,206.8z"/>
	<path class="st0" d="M549.5,265.6c-19.4-21.5-37.3-41.3-55.2-61.2c-1.5,0.8-3,1.6-4.4,2.4c2.5-0.9,4.9-2.1,7.4-2.7
		c16.7-3.9,33.6-7.4,50.3-11.5c15.4-3.8,22.6,0.9,22.4,16.6C569.7,230.3,562.4,248.9,549.5,265.6z"/>
	<path class="st0" d="M614.2,635c0.3,11.4-2.8,18.7-11.8,23c-22.1,10.7-44.2,21.5-66.3,32.1c-1.6,0.7-3.6,0.4-7,0.8
		c5-9.2,10.5-16.9,13.5-25.4c5.9-16.5,10.1-33.5,15.5-50.2c1.3-4,3.7-8.3,6.9-10.7c2.4-1.8,7.8-2.3,10.1-0.8c1.9,1.3,2,6.6,1.3,9.9
		c-4.9,25.9-5,25.8,21.1,22.2C602.8,635.2,608,635.4,614.2,635z"/>
</g>
<g>
	<path class="st1" d="M456.9,447.5c20.7-25.5,22.3-45.7,6.2-62.6c-14.1-14.8-35.8-16.7-52.5-4.7c-19,13.7-20.6,33.1-5,61.4
		c-12.4-2.9-22.6-22.4-21.3-41c1.7-25.7,20.3-44.4,46.9-47.1c22.1-2.2,44.9,13.3,51.2,34.7C489.4,412.5,479.8,436.3,456.9,447.5z"/>
	<path class="st1" d="M288.8,447.1c21-25.3,22.4-47.1,5.5-62.9c-16.5-15.4-39.3-16-54.9-1.4C220.9,400,222.1,420,243,446
		c-13-0.5-28.4-24.5-27.7-44c0.9-24.2,18.4-43.6,43.9-47.8c22.4-3.6,47.4,10.7,54,31.6C321.2,410.8,311.2,437.8,288.8,447.1z"/>
	<path class="st1" d="M368,471.9c-9.6-3.4-17.5-6.2-26.1-9.2C351.5,454.3,364,458.5,368,471.9z"/>
	<circle class="st1" cx="250.7" cy="402.8" r="11.2"/>
	<circle class="st1" cx="423.5" cy="397.4" r="11.2"/>
</g>
</svg>
